  0
SECTION
  2
HEADER
  9
$ACADVER
  1
AC1014
  9
$HANDSEED
  5
FFFF
  9
$MEASUREMENT
 70
     1
  0
ENDSEC
  0
SECTION
  2
TABLES
  0
TABLE
  2
VPORT
  5
8
330
0
100
AcDbSymbolTable
 70
     4
  0
VPORT
  5
2E
330
8
100
AcDbSymbolTableRecord
100
AcDbViewportTableRecord
  2
*ACTIVE
 70
     0
 10
0.0
 20
0.0
 11
1.0
 21
1.0
 12
210.0
 22
148.5
 13
0.0
 23
0.0
 14
10.0
 24
10.0
 15
10.0
 25
10.0
 16
0.0
 26
0.0
 36
1.0
 17
0.0
 27
0.0
 37
0.0
 40
341.0
 41
1.24
 42
50.0
 43
0.0
 44
0.0
 50
0.0
 51
0.0
 71
     0
 72
   100
 73
     1
 74
     3
 75
     0
 76
     0
 77
     0
 78
     0
  0
ENDTAB
  0
TABLE
  2
LTYPE
  5
5
330
0
100
AcDbSymbolTable
 70
     1
  0
LTYPE
  5
14
330
5
100
AcDbSymbolTableRecord
100
AcDbLinetypeTableRecord
  2
BYBLOCK
 70
     0
  3

 72
    65
 73
     0
 40
0.0
  0
LTYPE
  5
15
330
5
100
AcDbSymbolTableRecord
100
AcDbLinetypeTableRecord
  2
BYLAYER
 70
     0
  3

 72
    65
 73
     0
 40
0.0
  0
LTYPE
  5
16
330
5
100
AcDbSymbolTableRecord
100
AcDbLinetypeTableRecord
  2
CONTINUOUS
 70
     0
  3
Solid line
 72
    65
 73
     0
 40
0.0
  0
ENDTAB
  0
TABLE
  2
LAYER
  5
2
100
AcDbSymbolTable
 70
1
  0
LAYER
  5
50
100
AcDbSymbolTableRecord
100
AcDbLayerTableRecord
  2
0
 70
0
  6
CONTINUOUS
  0
ENDTAB
  0
TABLE
  2
STYLE
  5
3
330
0
100
AcDbSymbolTable
 70
     1
  0
STYLE
  5
11
330
3
100
AcDbSymbolTableRecord
100
AcDbTextStyleTableRecord
  2
STANDARD
 70
     0
 40
0.0
 41
1.0
 50
0.0
 71
     0
 42
2.5
  3
txt
  4

  0
ENDTAB
  0
TABLE
  2
VIEW
  5
6
330
0
100
AcDbSymbolTable
 70
     0
  0
ENDTAB
  0
TABLE
  2
UCS
  5
7
330
0
100
AcDbSymbolTable
 70
     0
  0
ENDTAB
  0
TABLE
  2
APPID
  5
9
330
0
100
AcDbSymbolTable
 70
     2
  0
APPID
  5
12
330
9
100
AcDbSymbolTableRecord
100
AcDbRegAppTableRecord
  2
ACAD
 70
     0
  0
ENDTAB
  0
TABLE
  2
DIMSTYLE
  5
A
330
0
100
AcDbSymbolTable
 70
     1
  0
DIMSTYLE
105
27
330
A
100
AcDbSymbolTableRecord
100
AcDbDimStyleTableRecord
  2
ISO-25
 70
     0
  3

  4

  5

  6

  7

 40
1.0
 41
2.5
 42
0.625
 43
3.75
 44
1.25
 45
0.0
 46
0.0
 47
0.0
 48
0.0
140
2.5
141
2.5
142
0.0
143
0.03937007874016
144
1.0
145
0.0
146
1.0
147
0.625
 71
     0
 72
     0
 73
     0
 74
     0
 75
     0
 76
     0
 77
     1
 78
     8
170
     0
171
     3
172
     1
173
     0
174
     0
175
     0
176
     0
177
     0
178
     0
270
     2
271
     2
272
     2
273
     2
274
     3
340
11
275
     0
280
     0
281
     0
282
     0
283
     0
284
     8
285
     0
286
     0
287
     3
288
     0
  0
ENDTAB
  0
TABLE
  2
BLOCK_RECORD
  5
1
330
0
100
AcDbSymbolTable
 70
     1
  0
BLOCK_RECORD
  5
1F
330
1
100
AcDbSymbolTableRecord
100
AcDbBlockTableRecord
  2
*MODEL_SPACE
  0
BLOCK_RECORD
  5
1B
330
1
100
AcDbSymbolTableRecord
100
AcDbBlockTableRecord
  2
*PAPER_SPACE
  0
ENDTAB
  0
ENDSEC
  0
SECTION
  2
BLOCKS
  0
BLOCK
  5
20
330
1F
100
AcDbEntity
  8
0
100
AcDbBlockBegin
  2
*MODEL_SPACE
 70
     0
 10
0.0
 20
0.0
 30
0.0
  3
*MODEL_SPACE
  1

  0
ENDBLK
  5
21
330
1F
100
AcDbEntity
  8
0
100
AcDbBlockEnd
  0
BLOCK
  5
1C
330
1B
100
AcDbEntity
 67
     1
  8
0
100
AcDbBlockBegin
  2
*PAPER_SPACE
  1

  0
ENDBLK
  5
1D
330
1B
100
AcDbEntity
 67
     1
  8
0
100
AcDbBlockEnd
  0
ENDSEC
  0
SECTION
  2
ENTITIES
  0
LINE
  5
100
100
AcDbEntity
  8
0
 62
7
100
AcDbLine
 10
40.582945
 20
64.002550
 30
0.0
 11
40.582945
 21
63.502323
 31
0.0
  0
LINE
  5
101
100
AcDbEntity
  8
0
 62
7
100
AcDbLine
 10
40.582945
 20
63.502323
 30
0.0
 11
40.582945
 21
48.685152
 31
0.0
  0
LINE
  5
102
100
AcDbEntity
  8
0
 62
7
100
AcDbLine
 10
40.582945
 20
48.685152
 30
0.0
 11
40.583461
 21
48.685152
 31
0.0
  0
LINE
  5
103
100
AcDbEntity
  8
0
 62
7
100
AcDbLine
 10
40.583461
 20
48.685152
 30
0.0
 11
40.583461
 21
50.095400
 31
0.0
  0
LINE
  5
104
100
AcDbEntity
  8
0
 62
7
100
AcDbLine
 10
40.583461
 20
50.095400
 30
0.0
 11
46.284399
 21
50.095400
 31
0.0
  0
SPLINE
  5
105
100
AcDbEntity
  8
0
 62
7
100
AcDbSpline
 70
8
 71
3
 72
8
 73
4
 74
0
 40
0
 40
0
 40
0
 40
0
 40
1
 40
1
 40
1
 40
1
 10
46.284399
 20
50.095400
 30
0.0
 10
46.286121
 20
50.095401
 30
0.0
 10
46.287844
 20
50.095401
 30
0.0
 10
46.289566
 20
50.095400
 30
0.0
  0
SPLINE
  5
106
100
AcDbEntity
  8
0
 62
7
100
AcDbSpline
 70
8
 71
3
 72
8
 73
4
 74
0
 40
0
 40
0
 40
0
 40
0
 40
1
 40
1
 40
1
 40
1
 10
46.289566
 20
50.095400
 30
0.0
 10
47.501397
 20
50.093596
 30
0.0
 10
48.656482
 20
49.581706
 30
0.0
 10
49.471800
 20
48.685152
 30
0.0
  0
LINE
  5
107
100
AcDbEntity
  8
0
 62
7
100
AcDbLine
 10
49.471800
 20
48.685152
 30
0.0
 11
49.972026
 21
48.685152
 31
0.0
  0
LINE
  5
108
100
AcDbEntity
  8
0
 62
7
100
AcDbLine
 10
49.972026
 20
48.685152
 30
0.0
 11
50.023704
 21
48.685152
 31
0.0
  0
LINE
  5
109
100
AcDbEntity
  8
0
 62
7
100
AcDbLine
 10
50.023704
 20
48.685152
 30
0.0
 11
50.539433
 21
48.685152
 31
0.0
  0
SPLINE
  5
10a
100
AcDbEntity
  8
0
 62
7
100
AcDbSpline
 70
8
 71
3
 72
8
 73
4
 74
0
 40
0
 40
0
 40
0
 40
0
 40
1
 40
1
 40
1
 40
1
 10
50.539433
 20
48.685152
 30
0.0
 10
50.816451
 20
48.685152
 30
0.0
 10
51.039661
 20
48.461924
 30
0.0
 10
51.039661
 20
48.184924
 30
0.0
  0
LINE
  5
10b
100
AcDbEntity
  8
0
 62
7
100
AcDbLine
 10
51.039661
 20
48.184924
 30
0.0
 11
51.039661
 21
43.385737
 31
0.0
  0
SPLINE
  5
10c
100
AcDbEntity
  8
0
 62
7
100
AcDbSpline
 70
8
 71
3
 72
8
 73
4
 74
0
 40
0
 40
0
 40
0
 40
0
 40
1
 40
1
 40
1
 40
1
 10
51.039661
 20
43.385737
 30
0.0
 10
51.039661
 20
43.108740
 30
0.0
 10
50.816451
 20
42.885511
 30
0.0
 10
50.539433
 20
42.885511
 30
0.0
  0
LINE
  5
10d
100
AcDbEntity
  8
0
 62
7
100
AcDbLine
 10
50.539433
 20
42.885511
 30
0.0
 11
50.023704
 21
42.885511
 31
0.0
  0
LINE
  5
10e
100
AcDbEntity
  8
0
 62
7
100
AcDbLine
 10
50.023704
 20
42.885511
 30
0.0
 11
49.972026
 21
42.885511
 31
0.0
  0
LINE
  5
10f
100
AcDbEntity
  8
0
 62
7
100
AcDbLine
 10
49.972026
 20
42.885511
 30
0.0
 11
49.471800
 21
42.885511
 31
0.0
  0
SPLINE
  5
110
100
AcDbEntity
  8
0
 62
7
100
AcDbSpline
 70
8
 71
3
 72
8
 73
4
 74
0
 40
0
 40
0
 40
0
 40
0
 40
1
 40
1
 40
1
 40
1
 10
49.471800
 20
42.885511
 30
0.0
 10
48.656482
 20
41.988957
 30
0.0
 10
47.501398
 20
41.477066
 30
0.0
 10
46.289566
 20
41.475262
 30
0.0
  0
SPLINE
  5
111
100
AcDbEntity
  8
0
 62
7
100
AcDbSpline
 70
8
 71
3
 72
8
 73
4
 74
0
 40
0
 40
0
 40
0
 40
0
 40
1
 40
1
 40
1
 40
1
 10
46.289566
 20
41.475262
 30
0.0
 10
46.287672
 20
41.475261
 30
0.0
 10
46.285777
 20
41.475261
 30
0.0
 10
46.283883
 20
41.475262
 30
0.0
  0
LINE
  5
112
100
AcDbEntity
  8
0
 62
7
100
AcDbLine
 10
46.283883
 20
41.475262
 30
0.0
 11
45.481865
 21
41.475262
 31
0.0
  0
LINE
  5
113
100
AcDbEntity
  8
0
 62
7
100
AcDbLine
 10
45.481865
 20
41.475262
 30
0.0
 11
45.165088
 21
41.475262
 31
0.0
  0
SPLINE
  5
114
100
AcDbEntity
  8
0
 62
7
100
AcDbSpline
 70
8
 71
3
 72
8
 73
4
 74
0
 40
0
 40
0
 40
0
 40
0
 40
1
 40
1
 40
1
 40
1
 10
45.165088
 20
41.475262
 30
0.0
 10
44.888091
 20
41.475262
 30
0.0
 10
44.664862
 20
41.252036
 30
0.0
 10
44.664862
 20
40.975033
 30
0.0
  0
LINE
  5
115
100
AcDbEntity
  8
0
 62
7
100
AcDbLine
 10
44.664862
 20
40.975033
 30
0.0
 11
44.664862
 21
38.734348
 31
0.0
  0
LINE
  5
116
100
AcDbEntity
  8
0
 62
7
100
AcDbLine
 10
44.664862
 20
38.734348
 30
0.0
 11
44.664862
 21
38.435141
 31
0.0
  0
LINE
  5
117
100
AcDbEntity
  8
0
 62
7
100
AcDbLine
 10
44.664862
 20
38.435141
 30
0.0
 11
44.664862
 21
32.595707
 31
0.0
  0
SPLINE
  5
118
100
AcDbEntity
  8
0
 62
7
100
AcDbSpline
 70
8
 71
3
 72
8
 73
4
 74
0
 40
0
 40
0
 40
0
 40
0
 40
1
 40
1
 40
1
 40
1
 10
44.664862
 20
32.595707
 30
0.0
 10
44.664862
 20
32.318710
 30
0.0
 10
44.441633
 20
32.095481
 30
0.0
 10
44.164636
 20
32.095481
 30
0.0
  0
LINE
  5
119
100
AcDbEntity
  8
0
 62
7
100
AcDbLine
 10
44.164636
 20
32.095481
 30
0.0
 11
42.867041
 21
32.095481
 31
0.0
  0
LINE
  5
11a
100
AcDbEntity
  8
0
 62
7
100
AcDbLine
 10
42.867041
 20
32.095481
 30
0.0
 11
41.083687
 21
32.095481
 31
0.0
  0
LINE
  5
11b
100
AcDbEntity
  8
0
 62
7
100
AcDbLine
 10
41.083687
 20
32.095481
 30
0.0
 11
40.583461
 21
32.095481
 31
0.0
  0
LINE
  5
11c
100
AcDbEntity
  8
0
 62
7
100
AcDbLine
 10
40.583461
 20
32.095481
 30
0.0
 11
40.583461
 21
32.595707
 31
0.0
  0
LINE
  5
11d
100
AcDbEntity
  8
0
 62
7
100
AcDbLine
 10
40.583461
 20
32.595707
 30
0.0
 11
40.583461
 21
40.975033
 31
0.0
  0
LINE
  5
11e
100
AcDbEntity
  8
0
 62
7
100
AcDbLine
 10
40.583461
 20
40.975033
 30
0.0
 11
40.583461
 21
42.885511
 31
0.0
  0
LINE
  5
11f
100
AcDbEntity
  8
0
 62
7
100
AcDbLine
 10
40.583461
 20
42.885511
 30
0.0
 11
40.582945
 21
42.885511
 31
0.0
  0
LINE
  5
120
100
AcDbEntity
  8
0
 62
7
100
AcDbLine
 10
40.582945
 20
42.885511
 30
0.0
 11
40.582945
 21
10.502501
 31
0.0
  0
LINE
  5
121
100
AcDbEntity
  8
0
 62
7
100
AcDbLine
 10
40.582945
 20
10.502501
 30
0.0
 11
40.582945
 21
10.002791
 31
0.0
  0
LINE
  5
122
100
AcDbEntity
  8
0
 62
7
100
AcDbLine
 10
40.582945
 20
10.002791
 30
0.0
 11
46.134539
 21
10.002791
 31
0.0
  0
LINE
  5
123
100
AcDbEntity
  8
0
 62
7
100
AcDbLine
 10
46.134539
 20
10.002791
 30
0.0
 11
46.134539
 21
10.503017
 31
0.0
  0
LINE
  5
124
100
AcDbEntity
  8
0
 62
7
100
AcDbLine
 10
46.134539
 20
10.503017
 30
0.0
 11
46.134539
 21
13.495598
 31
0.0
  0
LINE
  5
125
100
AcDbEntity
  8
0
 62
7
100
AcDbLine
 10
46.134539
 20
13.495598
 30
0.0
 11
46.134539
 21
14.630411
 31
0.0
  0
SPLINE
  5
126
100
AcDbEntity
  8
0
 62
7
100
AcDbSpline
 70
8
 71
3
 72
8
 73
4
 74
0
 40
0
 40
0
 40
0
 40
0
 40
1
 40
1
 40
1
 40
1
 10
46.134539
 20
14.630411
 30
0.0
 10
46.134539
 20
14.907411
 30
0.0
 10
46.357768
 20
15.130639
 30
0.0
 10
46.634765
 20
15.130639
 30
0.0
  0
LINE
  5
127
100
AcDbEntity
  8
0
 62
7
100
AcDbLine
 10
46.634765
 20
15.130639
 30
0.0
 11
54.934510
 21
15.130639
 31
0.0
  0
SPLINE
  5
128
100
AcDbEntity
  8
0
 62
7
100
AcDbSpline
 70
8
 71
3
 72
8
 73
4
 74
0
 40
0
 40
0
 40
0
 40
0
 40
1
 40
1
 40
1
 40
1
 10
54.934510
 20
15.130639
 30
0.0
 10
55.211510
 20
15.130639
 30
0.0
 10
55.434739
 20
14.907411
 30
0.0
 10
55.434739
 20
14.630411
 30
0.0
  0
LINE
  5
129
100
AcDbEntity
  8
0
 62
7
100
AcDbLine
 10
55.434739
 20
14.630411
 30
0.0
 11
55.434739
 21
13.495598
 31
0.0
  0
LINE
  5
12a
100
AcDbEntity
  8
0
 62
7
100
AcDbLine
 10
55.434739
 20
13.495598
 30
0.0
 11
55.434739
 21
10.503017
 31
0.0
  0
LINE
  5
12b
100
AcDbEntity
  8
0
 62
7
100
AcDbLine
 10
55.434739
 20
10.503017
 30
0.0
 11
55.434739
 21
10.002791
 31
0.0
  0
LINE
  5
12c
100
AcDbEntity
  8
0
 62
7
100
AcDbLine
 10
55.434739
 20
10.002791
 30
0.0
 11
57.333329
 21
10.002791
 31
0.0
  0
SPLINE
  5
12d
100
AcDbEntity
  8
0
 62
7
100
AcDbSpline
 70
8
 71
3
 72
8
 73
4
 74
0
 40
0
 40
0
 40
0
 40
0
 40
1
 40
1
 40
1
 40
1
 10
57.333329
 20
10.002791
 30
0.0
 10
59.549321
 20
10.002791
 30
0.0
 10
61.333082
 20
11.786542
 30
0.0
 10
61.333082
 20
14.002544
 30
0.0
  0
LINE
  5
12e
100
AcDbEntity
  8
0
 62
7
100
AcDbLine
 10
61.333082
 20
14.002544
 30
0.0
 11
61.333082
 21
60.002798
 31
0.0
  0
SPLINE
  5
12f
100
AcDbEntity
  8
0
 62
7
100
AcDbSpline
 70
8
 71
3
 72
8
 73
4
 74
0
 40
0
 40
0
 40
0
 40
0
 40
1
 40
1
 40
1
 40
1
 10
61.333082
 20
60.002798
 30
0.0
 10
61.332907
 20
62.218802
 30
0.0
 10
59.549191
 20
64.002550
 30
0.0
 10
57.333329
 20
64.002550
 30
0.0
  0
LINE
  5
130
100
AcDbEntity
  8
0
 62
7
100
AcDbLine
 10
57.333329
 20
64.002550
 30
0.0
 11
40.582945
 21
64.002550
 31
0.0
  0
LINE
  5
131
100
AcDbEntity
  8
0
 62
7
100
AcDbLine
 10
40.582945
 20
64.002550
 30
0.0
 11
40.582945
 21
64.002550
 31
0.0
  0
SPLINE
  5
132
100
AcDbEntity
  8
0
 62
7
100
AcDbSpline
 70
8
 71
3
 72
8
 73
4
 74
0
 40
0
 40
0
 40
0
 40
0
 40
1
 40
1
 40
1
 40
1
 10
42.644315
 20
63.105448
 30
0.0
 10
42.936119
 20
63.105499
 30
0.0
 10
43.215986
 20
62.989603
 30
0.0
 10
43.422323
 20
62.783266
 30
0.0
  0
SPLINE
  5
133
100
AcDbEntity
  8
0
 62
7
100
AcDbSpline
 70
8
 71
3
 72
8
 73
4
 74
0
 40
0
 40
0
 40
0
 40
0
 40
1
 40
1
 40
1
 40
1
 10
43.422323
 20
62.783266
 30
0.0
 10
43.628659
 20
62.576929
 30
0.0
 10
43.744555
 20
62.297062
 30
0.0
 10
43.744504
 20
62.005258
 30
0.0
  0
SPLINE
  5
134
100
AcDbEntity
  8
0
 62
7
100
AcDbSpline
 70
8
 71
3
 72
8
 73
4
 74
0
 40
0
 40
0
 40
0
 40
0
 40
1
 40
1
 40
1
 40
1
 10
43.744504
 20
62.005258
 30
0.0
 10
43.744555
 20
61.713454
 30
0.0
 10
43.628659
 20
61.433586
 30
0.0
 10
43.422323
 20
61.227250
 30
0.0
  0
SPLINE
  5
135
100
AcDbEntity
  8
0
 62
7
100
AcDbSpline
 70
8
 71
3
 72
8
 73
4
 74
0
 40
0
 40
0
 40
0
 40
0
 40
1
 40
1
 40
1
 40
1
 10
43.422323
 20
61.227250
 30
0.0
 10
43.215986
 20
61.020913
 30
0.0
 10
42.936119
 20
60.905017
 30
0.0
 10
42.644315
 20
60.905068
 30
0.0
  0
SPLINE
  5
136
100
AcDbEntity
  8
0
 62
7
100
AcDbSpline
 70
8
 71
3
 72
8
 73
4
 74
0
 40
0
 40
0
 40
0
 40
0
 40
1
 40
1
 40
1
 40
1
 10
42.644315
 20
60.905068
 30
0.0
 10
42.036854
 20
60.905246
 30
0.0
 10
41.544535
 20
61.397797
 30
0.0
 10
41.544641
 20
62.005258
 30
0.0
  0
SPLINE
  5
137
100
AcDbEntity
  8
0
 62
7
100
AcDbSpline
 70
8
 71
3
 72
8
 73
4
 74
0
 40
0
 40
0
 40
0
 40
0
 40
1
 40
1
 40
1
 40
1
 10
41.544641
 20
62.005258
 30
0.0
 10
41.544535
 20
62.612719
 30
0.0
 10
42.036854
 20
63.105269
 30
0.0
 10
42.644315
 20
63.105448
 30
0.0
  0
LINE
  5
138
100
AcDbEntity
  8
0
 62
7
100
AcDbLine
 10
42.644315
 20
63.105448
 30
0.0
 11
42.644315
 21
63.105448
 31
0.0
  0
SPLINE
  5
139
100
AcDbEntity
  8
0
 62
7
100
AcDbSpline
 70
8
 71
3
 72
8
 73
4
 74
0
 40
0
 40
0
 40
0
 40
0
 40
1
 40
1
 40
1
 40
1
 10
52.639561
 20
62.160287
 30
0.0
 10
53.851392
 20
62.158483
 30
0.0
 10
55.006477
 20
61.646592
 30
0.0
 10
55.821795
 20
60.750038
 30
0.0
  0
LINE
  5
13a
100
AcDbEntity
  8
0
 62
7
100
AcDbLine
 10
55.821795
 20
60.750038
 30
0.0
 11
56.476535
 21
60.750038
 31
0.0
  0
LINE
  5
13b
100
AcDbEntity
  8
0
 62
7
100
AcDbLine
 10
56.476535
 20
60.750038
 30
0.0
 11
56.889427
 21
60.750038
 31
0.0
  0
SPLINE
  5
13c
100
AcDbEntity
  8
0
 62
7
100
AcDbSpline
 70
8
 71
3
 72
8
 73
4
 74
0
 40
0
 40
0
 40
0
 40
0
 40
1
 40
1
 40
1
 40
1
 10
56.889427
 20
60.750038
 30
0.0
 10
57.166451
 20
60.750038
 30
0.0
 10
57.389656
 20
60.526810
 30
0.0
 10
57.389656
 20
60.249811
 30
0.0
  0
LINE
  5
13d
100
AcDbEntity
  8
0
 62
7
100
AcDbLine
 10
57.389656
 20
60.249811
 30
0.0
 11
57.389656
 21
55.450108
 31
0.0
  0
SPLINE
  5
13e
100
AcDbEntity
  8
0
 62
7
100
AcDbSpline
 70
8
 71
3
 72
8
 73
4
 74
0
 40
0
 40
0
 40
0
 40
0
 40
1
 40
1
 40
1
 40
1
 10
57.389656
 20
55.450108
 30
0.0
 10
57.389656
 20
55.173109
 30
0.0
 10
57.166451
 20
54.950397
 30
0.0
 10
56.889427
 20
54.950397
 30
0.0
  0
LINE
  5
13f
100
AcDbEntity
  8
0
 62
7
100
AcDbLine
 10
56.889427
 20
54.950397
 30
0.0
 11
56.476535
 21
54.950397
 31
0.0
  0
LINE
  5
140
100
AcDbEntity
  8
0
 62
7
100
AcDbLine
 10
56.476535
 20
54.950397
 30
0.0
 11
55.820760
 21
54.950397
 31
0.0
  0
SPLINE
  5
141
100
AcDbEntity
  8
0
 62
7
100
AcDbSpline
 70
8
 71
3
 72
8
 73
4
 74
0
 40
0
 40
0
 40
0
 40
0
 40
1
 40
1
 40
1
 40
1
 10
55.820760
 20
54.950397
 30
0.0
 10
55.005685
 20
54.054109
 30
0.0
 10
53.851032
 20
53.542243
 30
0.0
 10
52.639561
 20
53.540148
 30
0.0
  0
SPLINE
  5
142
100
AcDbEntity
  8
0
 62
7
100
AcDbSpline
 70
8
 71
3
 72
8
 73
4
 74
0
 40
0
 40
0
 40
0
 40
0
 40
1
 40
1
 40
1
 40
1
 10
52.639561
 20
53.540148
 30
0.0
 10
51.427731
 20
53.541953
 30
0.0
 10
50.272647
 20
54.053844
 30
0.0
 10
49.457330
 20
54.950397
 30
0.0
  0
LINE
  5
143
100
AcDbEntity
  8
0
 62
7
100
AcDbLine
 10
49.457330
 20
54.950397
 30
0.0
 11
48.733862
 21
54.950397
 31
0.0
  0
LINE
  5
144
100
AcDbEntity
  8
0
 62
7
100
AcDbLine
 10
48.733862
 20
54.950397
 30
0.0
 11
48.390213
 21
54.950397
 31
0.0
  0
SPLINE
  5
145
100
AcDbEntity
  8
0
 62
7
100
AcDbSpline
 70
8
 71
3
 72
8
 73
4
 74
0
 40
0
 40
0
 40
0
 40
0
 40
1
 40
1
 40
1
 40
1
 10
48.390213
 20
54.950397
 30
0.0
 10
48.113213
 20
54.950397
 30
0.0
 10
47.889985
 20
55.173109
 30
0.0
 10
47.889985
 20
55.450108
 30
0.0
  0
LINE
  5
146
100
AcDbEntity
  8
0
 62
7
100
AcDbLine
 10
47.889985
 20
55.450108
 30
0.0
 11
47.889985
 21
60.249811
 31
0.0
  0
SPLINE
  5
147
100
AcDbEntity
  8
0
 62
7
100
AcDbSpline
 70
8
 71
3
 72
8
 73
4
 74
0
 40
0
 40
0
 40
0
 40
0
 40
1
 40
1
 40
1
 40
1
 10
47.889985
 20
60.249811
 30
0.0
 10
47.889985
 20
60.526810
 30
0.0
 10
48.113213
 20
60.750038
 30
0.0
 10
48.390213
 20
60.750038
 30
0.0
  0
LINE
  5
148
100
AcDbEntity
  8
0
 62
7
100
AcDbLine
 10
48.390213
 20
60.750038
 30
0.0
 11
48.733862
 21
60.750038
 31
0.0
  0
LINE
  5
149
100
AcDbEntity
  8
0
 62
7
100
AcDbLine
 10
48.733862
 20
60.750038
 30
0.0
 11
49.457846
 21
60.750038
 31
0.0
  0
SPLINE
  5
14a
100
AcDbEntity
  8
0
 62
7
100
AcDbSpline
 70
8
 71
3
 72
8
 73
4
 74
0
 40
0
 40
0
 40
0
 40
0
 40
1
 40
1
 40
1
 40
1
 10
49.457846
 20
60.750038
 30
0.0
 10
50.273042
 20
61.646459
 30
0.0
 10
51.427910
 20
62.158337
 30
0.0
 10
52.639561
 20
62.160287
 30
0.0
  0
LINE
  5
14b
100
AcDbEntity
  8
0
 62
7
100
AcDbLine
 10
52.639561
 20
62.160287
 30
0.0
 11
52.639561
 21
62.160287
 31
0.0
  0
SPLINE
  5
14c
100
AcDbEntity
  8
0
 62
7
100
AcDbSpline
 70
8
 71
3
 72
8
 73
4
 74
0
 40
0
 40
0
 40
0
 40
0
 40
1
 40
1
 40
1
 40
1
 10
59.154404
 20
61.200140
 30
0.0
 10
59.761866
 20
61.200247
 30
0.0
 10
60.254418
 20
60.707928
 30
0.0
 10
60.254596
 20
60.100466
 30
0.0
  0
SPLINE
  5
14d
100
AcDbEntity
  8
0
 62
7
100
AcDbSpline
 70
8
 71
3
 72
8
 73
4
 74
0
 40
0
 40
0
 40
0
 40
0
 40
1
 40
1
 40
1
 40
1
 10
60.254596
 20
60.100466
 30
0.0
 10
60.254648
 20
59.808662
 30
0.0
 10
60.138751
 20
59.528794
 30
0.0
 10
59.932414
 20
59.322457
 30
0.0
  0
SPLINE
  5
14e
100
AcDbEntity
  8
0
 62
7
100
AcDbSpline
 70
8
 71
3
 72
8
 73
4
 74
0
 40
0
 40
0
 40
0
 40
0
 40
1
 40
1
 40
1
 40
1
 10
59.932414
 20
59.322457
 30
0.0
 10
59.726077
 20
59.116120
 30
0.0
 10
59.446209
 20
59.000224
 30
0.0
 10
59.154404
 20
59.000276
 30
0.0
  0
SPLINE
  5
14f
100
AcDbEntity
  8
0
 62
7
100
AcDbSpline
 70
8
 71
3
 72
8
 73
4
 74
0
 40
0
 40
0
 40
0
 40
0
 40
1
 40
1
 40
1
 40
1
 10
59.154404
 20
59.000276
 30
0.0
 10
58.862600
 20
59.000225
 30
0.0
 10
58.582733
 20
59.116121
 30
0.0
 10
58.376396
 20
59.322458
 30
0.0
  0
SPLINE
  5
150
100
AcDbEntity
  8
0
 62
7
100
AcDbSpline
 70
8
 71
3
 72
8
 73
4
 74
0
 40
0
 40
0
 40
0
 40
0
 40
1
 40
1
 40
1
 40
1
 10
58.376396
 20
59.322458
 30
0.0
 10
58.170060
 20
59.528795
 30
0.0
 10
58.054164
 20
59.808662
 30
0.0
 10
58.054215
 20
60.100466
 30
0.0
  0
SPLINE
  5
151
100
AcDbEntity
  8
0
 62
7
100
AcDbSpline
 70
8
 71
3
 72
8
 73
4
 74
0
 40
0
 40
0
 40
0
 40
0
 40
1
 40
1
 40
1
 40
1
 10
58.054215
 20
60.100466
 30
0.0
 10
58.054394
 20
60.707926
 30
0.0
 10
58.546944
 20
61.200246
 30
0.0
 10
59.154404
 20
61.200140
 30
0.0
  0
LINE
  5
152
100
AcDbEntity
  8
0
 62
7
100
AcDbLine
 10
59.154404
 20
61.200140
 30
0.0
 11
59.154404
 21
61.200140
 31
0.0
  0
LINE
  5
153
100
AcDbEntity
  8
0
 62
7
100
AcDbLine
 10
40.583461
 20
25.965627
 30
0.0
 11
46.289566
 21
25.965627
 31
0.0
  0
SPLINE
  5
154
100
AcDbEntity
  8
0
 62
7
100
AcDbSpline
 70
8
 71
3
 72
8
 73
4
 74
0
 40
0
 40
0
 40
0
 40
0
 40
1
 40
1
 40
1
 40
1
 10
46.289566
 20
25.965627
 30
0.0
 10
47.501398
 20
25.963823
 30
0.0
 10
48.656482
 20
25.451932
 30
0.0
 10
49.471800
 20
24.555378
 30
0.0
  0
LINE
  5
155
100
AcDbEntity
  8
0
 62
7
100
AcDbLine
 10
49.471800
 20
24.555378
 30
0.0
 11
49.971510
 21
24.555378
 31
0.0
  0
LINE
  5
156
100
AcDbEntity
  8
0
 62
7
100
AcDbLine
 10
49.971510
 20
24.555378
 30
0.0
 11
50.285187
 21
24.555378
 31
0.0
  0
LINE
  5
157
100
AcDbEntity
  8
0
 62
7
100
AcDbLine
 10
50.285187
 20
24.555378
 30
0.0
 11
50.539433
 21
24.555378
 31
0.0
  0
SPLINE
  5
158
100
AcDbEntity
  8
0
 62
7
100
AcDbSpline
 70
8
 71
3
 72
8
 73
4
 74
0
 40
0
 40
0
 40
0
 40
0
 40
1
 40
1
 40
1
 40
1
 10
50.539433
 20
24.555378
 30
0.0
 10
50.816446
 20
24.555378
 30
0.0
 10
51.039661
 20
24.332149
 30
0.0
 10
51.039661
 20
24.055152
 30
0.0
  0
LINE
  5
159
100
AcDbEntity
  8
0
 62
7
100
AcDbLine
 10
51.039661
 20
24.055152
 30
0.0
 11
51.039661
 21
19.255448
 31
0.0
  0
SPLINE
  5
15a
100
AcDbEntity
  8
0
 62
7
100
AcDbSpline
 70
8
 71
3
 72
8
 73
4
 74
0
 40
0
 40
0
 40
0
 40
0
 40
1
 40
1
 40
1
 40
1
 10
51.039661
 20
19.255448
 30
0.0
 10
51.039661
 20
18.978448
 30
0.0
 10
50.816446
 20
18.755222
 30
0.0
 10
50.539433
 20
18.755222
 30
0.0
  0
LINE
  5
15b
100
AcDbEntity
  8
0
 62
7
100
AcDbLine
 10
50.539433
 20
18.755222
 30
0.0
 11
50.285187
 21
18.755222
 31
0.0
  0
LINE
  5
15c
100
AcDbEntity
  8
0
 62
7
100
AcDbLine
 10
50.285187
 20
18.755222
 30
0.0
 11
49.971510
 21
18.755222
 31
0.0
  0
LINE
  5
15d
100
AcDbEntity
  8
0
 62
7
100
AcDbLine
 10
49.971510
 20
18.755222
 30
0.0
 11
49.471284
 21
18.755222
 31
0.0
  0
SPLINE
  5
15e
100
AcDbEntity
  8
0
 62
7
100
AcDbSpline
 70
8
 71
3
 72
8
 73
4
 74
0
 40
0
 40
0
 40
0
 40
0
 40
1
 40
1
 40
1
 40
1
 10
49.471284
 20
18.755222
 30
0.0
 10
48.655995
 20
17.858991
 30
0.0
 10
47.501139
 20
17.347305
 30
0.0
 10
46.289566
 20
17.345488
 30
0.0
  0
LINE
  5
15f
100
AcDbEntity
  8
0
 62
7
100
AcDbLine
 10
46.289566
 20
17.345488
 30
0.0
 11
40.583461
 21
17.345488
 31
0.0
  0
LINE
  5
160
100
AcDbEntity
  8
0
 62
7
100
AcDbLine
 10
40.583461
 20
17.345488
 30
0.0
 11
40.583461
 21
25.965627
 31
0.0
  0
LINE
  5
161
100
AcDbEntity
  8
0
 62
7
100
AcDbLine
 10
40.583461
 20
25.965627
 30
0.0
 11
40.583461
 21
25.965627
 31
0.0
  0
SPLINE
  5
162
100
AcDbEntity
  8
0
 62
7
100
AcDbSpline
 70
8
 71
3
 72
8
 73
4
 74
0
 40
0
 40
0
 40
0
 40
0
 40
1
 40
1
 40
1
 40
1
 10
59.154404
 20
15.480487
 30
0.0
 10
59.446209
 20
15.480539
 30
0.0
 10
59.726076
 20
15.364643
 30
0.0
 10
59.932414
 20
15.158306
 30
0.0
  0
SPLINE
  5
163
100
AcDbEntity
  8
0
 62
7
100
AcDbSpline
 70
8
 71
3
 72
8
 73
4
 74
0
 40
0
 40
0
 40
0
 40
0
 40
1
 40
1
 40
1
 40
1
 10
59.932414
 20
15.158306
 30
0.0
 10
60.138751
 20
14.951970
 30
0.0
 10
60.254647
 20
14.672102
 30
0.0
 10
60.254596
 20
14.380298
 30
0.0
  0
SPLINE
  5
164
100
AcDbEntity
  8
0
 62
7
100
AcDbSpline
 70
8
 71
3
 72
8
 73
4
 74
0
 40
0
 40
0
 40
0
 40
0
 40
1
 40
1
 40
1
 40
1
 10
60.254596
 20
14.380298
 30
0.0
 10
60.254418
 20
13.772836
 30
0.0
 10
59.761866
 20
13.280516
 30
0.0
 10
59.154404
 20
13.280624
 30
0.0
  0
SPLINE
  5
165
100
AcDbEntity
  8
0
 62
7
100
AcDbSpline
 70
8
 71
3
 72
8
 73
4
 74
0
 40
0
 40
0
 40
0
 40
0
 40
1
 40
1
 40
1
 40
1
 10
59.154404
 20
13.280624
 30
0.0
 10
58.546944
 20
13.280518
 30
0.0
 10
58.054394
 20
13.772837
 30
0.0
 10
58.054215
 20
14.380298
 30
0.0
  0
SPLINE
  5
166
100
AcDbEntity
  8
0
 62
7
100
AcDbSpline
 70
8
 71
3
 72
8
 73
4
 74
0
 40
0
 40
0
 40
0
 40
0
 40
1
 40
1
 40
1
 40
1
 10
58.054215
 20
14.380298
 30
0.0
 10
58.054164
 20
14.672102
 30
0.0
 10
58.170060
 20
14.951969
 30
0.0
 10
58.376396
 20
15.158305
 30
0.0
  0
SPLINE
  5
167
100
AcDbEntity
  8
0
 62
7
100
AcDbSpline
 70
8
 71
3
 72
8
 73
4
 74
0
 40
0
 40
0
 40
0
 40
0
 40
1
 40
1
 40
1
 40
1
 10
58.376396
 20
15.158305
 30
0.0
 10
58.582733
 20
15.364642
 30
0.0
 10
58.862600
 20
15.480538
 30
0.0
 10
59.154404
 20
15.480487
 30
0.0
  0
LINE
  5
168
100
AcDbEntity
  8
0
 62
7
100
AcDbLine
 10
59.154404
 20
15.480487
 30
0.0
 11
59.154404
 21
15.480487
 31
0.0
  0
SPLINE
  5
169
100
AcDbEntity
  8
0
 62
7
100
AcDbSpline
 70
8
 71
3
 72
8
 73
4
 74
0
 40
0
 40
0
 40
0
 40
0
 40
1
 40
1
 40
1
 40
1
 10
42.644315
 20
13.575179
 30
0.0
 10
43.251775
 20
13.575285
 30
0.0
 10
43.744325
 20
13.082966
 30
0.0
 10
43.744504
 20
12.475505
 30
0.0
  0
SPLINE
  5
16a
100
AcDbEntity
  8
0
 62
7
100
AcDbSpline
 70
8
 71
3
 72
8
 73
4
 74
0
 40
0
 40
0
 40
0
 40
0
 40
1
 40
1
 40
1
 40
1
 10
43.744504
 20
12.475505
 30
0.0
 10
43.744555
 20
12.183701
 30
0.0
 10
43.628659
 20
11.903834
 30
0.0
 10
43.422323
 20
11.697498
 30
0.0
  0
SPLINE
  5
16b
100
AcDbEntity
  8
0
 62
7
100
AcDbSpline
 70
8
 71
3
 72
8
 73
4
 74
0
 40
0
 40
0
 40
0
 40
0
 40
1
 40
1
 40
1
 40
1
 10
43.422323
 20
11.697498
 30
0.0
 10
43.215986
 20
11.491161
 30
0.0
 10
42.936119
 20
11.375265
 30
0.0
 10
42.644315
 20
11.375316
 30
0.0
  0
SPLINE
  5
16c
100
AcDbEntity
  8
0
 62
7
100
AcDbSpline
 70
8
 71
3
 72
8
 73
4
 74
0
 40
0
 40
0
 40
0
 40
0
 40
1
 40
1
 40
1
 40
1
 10
42.644315
 20
11.375316
 30
0.0
 10
42.036854
 20
11.375495
 30
0.0
 10
41.544535
 20
11.868045
 30
0.0
 10
41.544641
 20
12.475505
 30
0.0
  0
SPLINE
  5
16d
100
AcDbEntity
  8
0
 62
7
100
AcDbSpline
 70
8
 71
3
 72
8
 73
4
 74
0
 40
0
 40
0
 40
0
 40
0
 40
1
 40
1
 40
1
 40
1
 10
41.544641
 20
12.475505
 30
0.0
 10
41.544820
 20
13.082764
 30
0.0
 10
42.037056
 20
13.575000
 30
0.0
 10
42.644315
 20
13.575179
 30
0.0
  0
LINE
  5
16e
100
AcDbEntity
  8
0
 62
7
100
AcDbLine
 10
42.644315
 20
13.575179
 30
0.0
 11
42.644315
 21
13.575179
 31
0.0
  0
ENDSEC
  0
SECTION
  2
OBJECTS
  0
DICTIONARY
  5
C
330
0
100
AcDbDictionary
  3
ACAD_GROUP
350
D
  3
ACAD_MLINESTYLE
350
17
  0
DICTIONARY
  5
D
330
C
100
AcDbDictionary
  0
DICTIONARY
  5
1A
330
C
100
AcDbDictionary
  0
DICTIONARY
  5
17
330
C
100
AcDbDictionary
  3
STANDARD
350
18
  0
DICTIONARY
  5
19
330
C
100
AcDbDictionary
  0
ENDSEC
  0
EOF
