<?xml version="1.0" encoding="UTF-8" standalone="no"?>
<svg
   id="svg3794"
   viewBox="0 0 259.07032 210.59183"
   height="74.292007mm"
   width="91.394272mm"
   y="0in"
   x="0in"
   version="1.2"
   sodipodi:docname="back-case-pi-v1.1.svg"
   inkscape:version="1.1.2 (0a00cf5339, 2022-02-04)"
   xmlns:inkscape="http://www.inkscape.org/namespaces/inkscape"
   xmlns:sodipodi="http://sodipodi.sourceforge.net/DTD/sodipodi-0.dtd"
   xmlns="http://www.w3.org/2000/svg"
   xmlns:svg="http://www.w3.org/2000/svg"
   xmlns:rdf="http://www.w3.org/1999/02/22-rdf-syntax-ns#"
   xmlns:cc="http://creativecommons.org/ns#"
   xmlns:dc="http://purl.org/dc/elements/1.1/">
  <sodipodi:namedview
     id="namedview25"
     pagecolor="#ffffff"
     bordercolor="#666666"
     borderopacity="1.0"
     inkscape:pageshadow="2"
     inkscape:pageopacity="0.0"
     inkscape:pagecheckerboard="0"
     inkscape:document-units="mm"
     showgrid="false"
     showguides="true"
     inkscape:guide-bbox="true"
     inkscape:snap-smooth-nodes="true"
     inkscape:zoom="3.5356763"
     inkscape:cx="171.96144"
     inkscape:cy="158.38554"
     inkscape:current-layer="svg3794" />
  <metadata
     id="metadata3800">
    <rdf:RDF>
      <cc:Work
         rdf:about="">
        <dc:format>image/svg+xml</dc:format>
        <dc:type
           rdf:resource="http://purl.org/dc/dcmitype/StillImage" />
      </cc:Work>
    </rdf:RDF>
  </metadata>
  <defs
     id="defs3798">
    <marker
       style="overflow:visible"
       id="marker9598"
       refX="0"
       refY="0"
       orient="auto">
      <path
         transform="matrix(0.8,0,0,0.8,10,0)"
         style="fill:#000000;fill-opacity:1;fill-rule:evenodd;stroke:#000000;stroke-width:1.00000003pt;stroke-opacity:1"
         d="M 0,0 5,-5 -12.5,0 5,5 Z"
         id="path9596" />
    </marker>
    <marker
       style="overflow:visible"
       id="Arrow1Lend"
       refX="0"
       refY="0"
       orient="auto">
      <path
         transform="matrix(-0.8,0,0,-0.8,-10,0)"
         style="fill:#000000;fill-opacity:1;fill-rule:evenodd;stroke:#000000;stroke-width:1.00000003pt;stroke-opacity:1"
         d="M 0,0 5,-5 -12.5,0 5,5 Z"
         id="path9315" />
    </marker>
    <marker
       style="overflow:visible"
       id="Arrow1Lstart"
       refX="0"
       refY="0"
       orient="auto">
      <path
         transform="matrix(0.8,0,0,0.8,10,0)"
         style="fill-rule:evenodd;stroke:#000000;stroke-width:1.00000003pt"
         d="M 0,0 5,-5 -12.5,0 5,5 Z"
         id="path9312" />
    </marker>
    <defs
       id="defs2" />
    <defs
       id="defs4" />
  </defs>
  <path
     id="path8417"
     style="opacity:1;fill:#729fcf;fill-opacity:1;stroke:none;stroke-width:0.944877;stroke-linecap:round;stroke-linejoin:round;stroke-miterlimit:4;stroke-dasharray:none;stroke-opacity:1;paint-order:markers stroke fill"
     d="M 153.38477 38.888672 L 153.38477 40.779297 L 153.38477 96.78125 L 153.38672 96.78125 L 153.38672 91.451172 L 174.93359 91.451172 A 16.289767 16.289911 0 0 1 174.95312 91.451172 A 16.289767 16.289911 0 0 1 186.98047 96.78125 L 188.87109 96.78125 L 189.06641 96.78125 L 191.01562 96.78125 C 192.06262 96.78125 192.90625 97.624948 192.90625 98.671875 L 192.90625 116.81055 C 192.90625 117.85747 192.06262 118.70117 191.01562 118.70117 L 189.06641 118.70117 L 188.87109 118.70117 L 186.98047 118.70117 A 16.289767 16.289911 0 0 1 174.95312 124.03125 A 16.289767 16.289911 0 0 1 174.93164 124.03125 L 171.90039 124.03125 L 170.70312 124.03125 C 169.6562 124.03125 168.8125 124.87494 168.8125 125.92188 L 168.8125 134.39062 L 168.8125 135.52148 L 168.8125 157.5918 C 168.8125 158.63872 167.9688 159.48242 166.92188 159.48242 L 162.01758 159.48242 L 155.27734 159.48242 L 153.38672 159.48242 L 153.38672 157.5918 L 153.38672 125.92188 L 153.38672 118.70117 L 153.38477 118.70117 L 153.38477 241.09375 L 153.38477 242.98242 L 174.36719 242.98242 L 174.36719 241.0918 L 174.36719 229.78125 L 174.36719 225.49219 C 174.36719 224.44526 175.21089 223.60156 176.25781 223.60156 L 207.62695 223.60156 C 208.67388 223.60156 209.51758 224.44526 209.51758 225.49219 L 209.51758 229.78125 L 209.51758 241.0918 L 209.51758 242.98242 L 216.69336 242.98242 C 225.06877 242.98242 231.81055 236.24068 231.81055 227.86523 L 231.81055 54.005859 C 231.80989 45.630405 225.06828 38.888672 216.69336 38.888672 L 153.38477 38.888672 z M 161.17578 42.279297 A 4.1574739 4.1574739 0 0 1 165.33398 46.4375 A 4.1574739 4.1574739 0 0 1 161.17578 50.595703 A 4.1574739 4.1574739 0 0 1 157.01953 46.4375 A 4.1574739 4.1574739 0 0 1 161.17578 42.279297 z M 198.95312 45.851562 A 16.289767 16.289911 0 0 1 210.98047 51.181641 L 213.45508 51.181641 L 215.01562 51.181641 C 216.06264 51.181641 216.90625 52.025339 216.90625 53.072266 L 216.90625 71.212891 C 216.90625 72.259818 216.06264 73.101562 215.01562 73.101562 L 213.45508 73.101562 L 210.97656 73.101562 A 16.289767 16.289911 0 0 1 198.95312 78.431641 A 16.289767 16.289911 0 0 1 186.92578 73.101562 L 184.19141 73.101562 L 182.89258 73.101562 C 181.84565 73.101562 181.00195 72.259818 181.00195 71.212891 L 181.00195 53.072266 C 181.00195 52.025339 181.84565 51.181641 182.89258 51.181641 L 184.19141 51.181641 L 186.92773 51.181641 A 16.289767 16.289911 0 0 1 198.95312 45.851562 z M 223.57617 49.480469 A 4.1574739 4.1574739 0 0 1 227.73438 53.636719 A 4.1574739 4.1574739 0 0 1 223.57617 57.794922 A 4.1574739 4.1574739 0 0 1 219.41797 53.636719 A 4.1574739 4.1574739 0 0 1 223.57617 49.480469 z M 153.38672 182.65039 L 174.95312 182.65039 A 16.289767 16.289911 0 0 1 186.98047 187.98047 L 188.86914 187.98047 L 190.05469 187.98047 L 191.01562 187.98047 C 192.0626 187.98047 192.90625 188.82417 192.90625 189.87109 L 192.90625 208.01172 C 192.90625 209.05865 192.0626 209.90234 191.01562 209.90234 L 190.05469 209.90234 L 188.86914 209.90234 L 186.97852 209.90234 A 16.289767 16.289911 0 0 1 174.95312 215.23047 L 153.38672 215.23047 L 153.38672 182.65039 z M 223.57617 222.2793 A 4.1574739 4.1574739 0 0 1 227.73438 226.4375 A 4.1574739 4.1574739 0 0 1 223.57617 230.59375 A 4.1574739 4.1574739 0 0 1 219.41797 226.4375 A 4.1574739 4.1574739 0 0 1 223.57617 222.2793 z M 161.17578 229.48047 A 4.1574739 4.1574739 0 0 1 165.33398 233.63672 A 4.1574739 4.1574739 0 0 1 161.17578 237.79492 A 4.1574739 4.1574739 0 0 1 157.01953 233.63672 A 4.1574739 4.1574739 0 0 1 161.17578 229.48047 z "
     transform="matrix(0.7500011,0,0,0.7500011,-2.1227082e-4,0)" />
  <path
     id="path8485"
     style="opacity:1;fill:#729fcf;fill-opacity:1;stroke:none;stroke-width:0.944877;stroke-linecap:round;stroke-linejoin:round;stroke-miterlimit:4;stroke-dasharray:none;stroke-opacity:1;paint-order:markers stroke fill"
     d="M 52.914062 38.888672 C 44.538635 38.888672 37.794922 45.630392 37.794922 54.005859 L 37.794922 106.4043 L 54.285156 106.4043 C 55.332085 106.4043 56.175781 107.24799 56.175781 108.29492 L 56.175781 127.83789 C 56.175781 128.88482 55.332085 129.72656 54.285156 129.72656 L 37.794922 129.72656 L 37.794922 227.86523 C 37.794922 236.24065 44.538689 242.98242 52.914062 242.98242 L 55.582031 242.98242 L 55.582031 196.35352 L 55.582031 153.26953 L 55.582031 142.77344 L 55.582031 139.86719 C 55.582031 138.82026 56.425729 137.97656 57.472656 137.97656 L 60.074219 137.97656 L 72.605469 137.97656 L 124.74805 137.97656 L 138.51953 137.97656 L 138.51953 97.630859 L 123.41211 97.630859 L 114.86523 97.630859 C 113.81831 97.630859 112.97461 98.474557 112.97461 99.521484 L 112.97461 104.86914 L 112.97461 119.74023 C 112.97461 120.78716 112.13091 121.63086 111.08398 121.63086 L 78.958984 121.63086 C 77.912057 121.63086 77.068359 120.78716 77.068359 119.74023 L 77.068359 104.86914 L 77.068359 99.521484 C 77.068359 98.474557 76.224661 97.630859 75.177734 97.630859 L 68.863281 97.630859 L 54.958984 97.630859 C 53.912057 97.630859 53.068359 96.787161 53.068359 95.740234 L 53.068359 71.742188 C 53.068359 70.695255 53.912057 69.851562 54.958984 69.851562 L 68.863281 69.851562 L 75.177734 69.851562 C 76.224661 69.851562 77.068359 69.007865 77.068359 67.960938 L 77.068359 63.748047 L 77.068359 47.742188 C 77.068359 46.695253 77.912057 45.851563 78.958984 45.851562 L 111.08398 45.851562 C 112.13091 45.851562 112.97461 46.695253 112.97461 47.742188 L 112.97461 63.748047 L 112.97461 67.960938 C 112.97461 69.007865 113.81831 69.851562 114.86523 69.851562 L 123.41211 69.851562 L 138.51953 69.851562 L 138.51953 40.779297 L 138.51953 38.888672 L 52.914062 38.888672 z M 131.64648 42.279297 C 133.9424 42.279973 135.80313 44.141584 135.80273 46.4375 C 135.80313 48.733416 133.9424 50.595027 131.64648 50.595703 C 129.3498 50.596104 127.48788 48.734178 127.48828 46.4375 C 127.48788 44.140822 129.3498 42.278896 131.64648 42.279297 z M 47.646484 49.480469 C 49.941638 49.481145 51.802058 51.341565 51.802734 53.636719 C 51.803137 55.932635 49.9424 57.794246 47.646484 57.794922 C 45.349805 57.795325 43.487878 55.933398 43.488281 53.636719 C 43.488957 51.340803 45.350568 49.480066 47.646484 49.480469 z M 47.646484 222.2793 C 49.942399 222.27998 51.803135 224.14158 51.802734 226.4375 C 51.802058 228.73265 49.941638 230.59307 47.646484 230.59375 C 45.350568 230.59415 43.488957 228.73342 43.488281 226.4375 C 43.48788 224.14082 45.349806 222.2789 47.646484 222.2793 z "
     transform="matrix(0.7500011,0,0,0.7500011,-2.1227082e-4,0)" />
  <path
     id="path8419"
     style="opacity:1;fill:#729fcf;fill-opacity:1;stroke:none;stroke-width:0.944877;stroke-linecap:round;stroke-linejoin:round;stroke-miterlimit:4;stroke-dasharray:none;stroke-opacity:1;paint-order:markers stroke fill"
     d="M 65.121094 147.70703 C 64.074167 147.70703 63.230469 148.54878 63.230469 149.5957 L 63.230469 153.13281 L 63.230469 167.08789 L 77.001953 167.08789 L 77.001953 165.19922 L 77.001953 147.70703 L 67.662109 147.70703 L 65.121094 147.70703 z M 70.128906 153.58594 A 4.1574739 4.1574739 0 0 1 74.285156 157.74219 A 4.1574739 4.1574739 0 0 1 70.128906 161.90039 A 4.1574739 4.1574739 0 0 1 65.970703 157.74219 A 4.1574739 4.1574739 0 0 1 70.128906 153.58594 z "
     transform="matrix(0.7500011,0,0,0.7500011,-2.1227082e-4,0)" />
  <path
     transform="matrix(0.7500012,0,0,0.7500012,30.006155,120.32308)"
     d="M 45.132812,8.0976562 A 2.2684608,2.2684608 0 0 0 42.865234,10.365234 V 32.097656 H 21.132812 a 2.2684608,2.2684608 0 0 0 -2.267578,2.267578 v 21.919922 a 2.2684608,2.2684608 0 0 0 2.267578,2.267578 h 21.732422 v 21.732422 a 2.2684608,2.2684608 0 0 0 2.267578,2.267578 h 24.189454 a 2.2684608,2.2684608 0 0 0 2.267578,-2.267578 V 58.552734 h 21.732422 a 2.2684608,2.2684608 0 0 0 2.267578,-2.267578 V 34.365234 A 2.2684608,2.2684608 0 0 0 93.322266,32.097656 H 71.589844 V 10.365234 A 2.2684608,2.2684608 0 0 0 69.322266,8.0976562 Z"
     id="path8465"
     style="opacity:1;fill:#729fcf;fill-opacity:1;stroke:#000000;stroke-width:0;stroke-linecap:round;stroke-linejoin:round;stroke-miterlimit:4;stroke-dasharray:none;stroke-opacity:1;paint-order:markers stroke fill" />
  <ellipse
     style="opacity:1;fill:#729fcf;fill-opacity:1;stroke:#a40000;stroke-width:0;stroke-linecap:round;stroke-linejoin:round;stroke-miterlimit:4;stroke-dasharray:none;stroke-opacity:1;paint-order:markers stroke fill"
     id="ellipse8473"
     cx="118.03947"
     cy="83.310341"
     rx="11.721278"
     ry="11.721251" />
  <ellipse
     ry="11.721251"
     rx="11.721278"
     cy="64.241631"
     cx="71.015717"
     id="ellipse8475"
     style="opacity:1;fill:#729fcf;fill-opacity:1;stroke:#a40000;stroke-width:0;stroke-linecap:round;stroke-linejoin:round;stroke-miterlimit:4;stroke-dasharray:none;stroke-opacity:1;paint-order:markers stroke fill" />
  <ellipse
     style="opacity:1;fill:#729fcf;fill-opacity:1;stroke:#a40000;stroke-width:0;stroke-linecap:round;stroke-linejoin:round;stroke-miterlimit:4;stroke-dasharray:none;stroke-opacity:1;paint-order:markers stroke fill"
     id="ellipse8477"
     cx="98.556435"
     cy="124.37431"
     rx="11.721278"
     ry="11.721251" />
  <path
     id="path8497"
     d="M 192.26685,180.7893 V 29.802523"
     style="fill:none;fill-rule:evenodd;stroke:#000000;stroke-width:0.75000119px;stroke-linecap:butt;stroke-linejoin:miter;stroke-opacity:1;marker-start:url(#marker9598);marker-end:url(#Arrow1Lend)" />
  <flowRoot
     transform="matrix(2.2879348,0,0,2.2879348,-353.62223,-390.16159)"
     style="font-style:normal;font-variant:normal;font-weight:normal;font-stretch:normal;font-size:8px;line-height:10.66666698px;font-family:Iosevka;-inkscape-font-specification:'Iosevka, Normal';font-variant-ligatures:normal;font-variant-caps:normal;font-variant-numeric:normal;font-feature-settings:normal;text-align:center;letter-spacing:0px;word-spacing:0px;writing-mode:lr-tb;text-anchor:middle;fill:#000000;fill-opacity:1;stroke:none;stroke-width:0.32780707px;stroke-linecap:butt;stroke-linejoin:miter;stroke-opacity:1"
     id="flowRoot8499"
     xml:space="preserve"><flowRegion
       style="stroke-width:0.32780707px"
       id="flowRegion8501"><rect
         style="stroke-width:0.32780707px"
         y="213.4458"
         x="223.0592"
         height="25.966757"
         width="49.521683"
         id="rect8503" /></flowRegion><flowPara
       style="stroke-width:0.32780707px"
       id="flowPara8505">54mm</flowPara></flowRoot>
</svg>
