  0
SECTION
  2
HEADER
  9
$ACADVER
  1
AC1014
  9
$HANDSEED
  5
FFFF
  9
$MEASUREMENT
 70
     1
  0
ENDSEC
  0
SECTION
  2
TABLES
  0
TABLE
  2
VPORT
  5
8
330
0
100
AcDbSymbolTable
 70
     4
  0
VPORT
  5
2E
330
8
100
AcDbSymbolTableRecord
100
AcDbViewportTableRecord
  2
*ACTIVE
 70
     0
 10
0.0
 20
0.0
 11
1.0
 21
1.0
 12
210.0
 22
148.5
 13
0.0
 23
0.0
 14
10.0
 24
10.0
 15
10.0
 25
10.0
 16
0.0
 26
0.0
 36
1.0
 17
0.0
 27
0.0
 37
0.0
 40
341.0
 41
1.24
 42
50.0
 43
0.0
 44
0.0
 50
0.0
 51
0.0
 71
     0
 72
   100
 73
     1
 74
     3
 75
     0
 76
     0
 77
     0
 78
     0
  0
ENDTAB
  0
TABLE
  2
LTYPE
  5
5
330
0
100
AcDbSymbolTable
 70
     1
  0
LTYPE
  5
14
330
5
100
AcDbSymbolTableRecord
100
AcDbLinetypeTableRecord
  2
BYBLOCK
 70
     0
  3

 72
    65
 73
     0
 40
0.0
  0
LTYPE
  5
15
330
5
100
AcDbSymbolTableRecord
100
AcDbLinetypeTableRecord
  2
BYLAYER
 70
     0
  3

 72
    65
 73
     0
 40
0.0
  0
LTYPE
  5
16
330
5
100
AcDbSymbolTableRecord
100
AcDbLinetypeTableRecord
  2
CONTINUOUS
 70
     0
  3
Solid line
 72
    65
 73
     0
 40
0.0
  0
ENDTAB
  0
TABLE
  2
LAYER
  5
2
100
AcDbSymbolTable
 70
1
  0
LAYER
  5
50
100
AcDbSymbolTableRecord
100
AcDbLayerTableRecord
  2
0
 70
0
  6
CONTINUOUS
  0
ENDTAB
  0
TABLE
  2
STYLE
  5
3
330
0
100
AcDbSymbolTable
 70
     1
  0
STYLE
  5
11
330
3
100
AcDbSymbolTableRecord
100
AcDbTextStyleTableRecord
  2
STANDARD
 70
     0
 40
0.0
 41
1.0
 50
0.0
 71
     0
 42
2.5
  3
txt
  4

  0
ENDTAB
  0
TABLE
  2
VIEW
  5
6
330
0
100
AcDbSymbolTable
 70
     0
  0
ENDTAB
  0
TABLE
  2
UCS
  5
7
330
0
100
AcDbSymbolTable
 70
     0
  0
ENDTAB
  0
TABLE
  2
APPID
  5
9
330
0
100
AcDbSymbolTable
 70
     2
  0
APPID
  5
12
330
9
100
AcDbSymbolTableRecord
100
AcDbRegAppTableRecord
  2
ACAD
 70
     0
  0
ENDTAB
  0
TABLE
  2
DIMSTYLE
  5
A
330
0
100
AcDbSymbolTable
 70
     1
  0
DIMSTYLE
105
27
330
A
100
AcDbSymbolTableRecord
100
AcDbDimStyleTableRecord
  2
ISO-25
 70
     0
  3

  4

  5

  6

  7

 40
1.0
 41
2.5
 42
0.625
 43
3.75
 44
1.25
 45
0.0
 46
0.0
 47
0.0
 48
0.0
140
2.5
141
2.5
142
0.0
143
0.03937007874016
144
1.0
145
0.0
146
1.0
147
0.625
 71
     0
 72
     0
 73
     0
 74
     0
 75
     0
 76
     0
 77
     1
 78
     8
170
     0
171
     3
172
     1
173
     0
174
     0
175
     0
176
     0
177
     0
178
     0
270
     2
271
     2
272
     2
273
     2
274
     3
340
11
275
     0
280
     0
281
     0
282
     0
283
     0
284
     8
285
     0
286
     0
287
     3
288
     0
  0
ENDTAB
  0
TABLE
  2
BLOCK_RECORD
  5
1
330
0
100
AcDbSymbolTable
 70
     1
  0
BLOCK_RECORD
  5
1F
330
1
100
AcDbSymbolTableRecord
100
AcDbBlockTableRecord
  2
*MODEL_SPACE
  0
BLOCK_RECORD
  5
1B
330
1
100
AcDbSymbolTableRecord
100
AcDbBlockTableRecord
  2
*PAPER_SPACE
  0
ENDTAB
  0
ENDSEC
  0
SECTION
  2
BLOCKS
  0
BLOCK
  5
20
330
1F
100
AcDbEntity
  8
0
100
AcDbBlockBegin
  2
*MODEL_SPACE
 70
     0
 10
0.0
 20
0.0
 30
0.0
  3
*MODEL_SPACE
  1

  0
ENDBLK
  5
21
330
1F
100
AcDbEntity
  8
0
100
AcDbBlockEnd
  0
BLOCK
  5
1C
330
1B
100
AcDbEntity
 67
     1
  8
0
100
AcDbBlockBegin
  2
*PAPER_SPACE
  1

  0
ENDBLK
  5
1D
330
1B
100
AcDbEntity
 67
     1
  8
0
100
AcDbBlockEnd
  0
ENDSEC
  0
SECTION
  2
ENTITIES
  0
SPLINE
  5
100
100
AcDbEntity
  8
0
 62
7
100
AcDbSpline
 70
8
 71
3
 72
8
 73
4
 74
0
 40
0
 40
0
 40
0
 40
0
 40
1
 40
1
 40
1
 40
1
 10
14.000092
 20
64.002550
 30
0.0
 10
11.784096
 20
64.002550
 30
0.0
 10
9.999823
 20
62.218805
 30
0.0
 10
9.999823
 20
60.002798
 30
0.0
  0
LINE
  5
101
100
AcDbEntity
  8
0
 62
7
100
AcDbLine
 10
9.999823
 20
60.002798
 30
0.0
 11
9.999823
 21
46.139055
 31
0.0
  0
LINE
  5
102
100
AcDbEntity
  8
0
 62
7
100
AcDbLine
 10
9.999823
 20
46.139055
 30
0.0
 11
14.362861
 21
46.139055
 31
0.0
  0
SPLINE
  5
103
100
AcDbEntity
  8
0
 62
7
100
AcDbSpline
 70
8
 71
3
 72
8
 73
4
 74
0
 40
0
 40
0
 40
0
 40
0
 40
1
 40
1
 40
1
 40
1
 10
14.362861
 20
46.139055
 30
0.0
 10
14.639860
 20
46.139055
 30
0.0
 10
14.863088
 20
45.915829
 30
0.0
 10
14.863088
 20
45.638829
 30
0.0
  0
LINE
  5
104
100
AcDbEntity
  8
0
 62
7
100
AcDbLine
 10
14.863088
 20
45.638829
 30
0.0
 11
14.863088
 21
40.468089
 31
0.0
  0
SPLINE
  5
105
100
AcDbEntity
  8
0
 62
7
100
AcDbSpline
 70
8
 71
3
 72
8
 73
4
 74
0
 40
0
 40
0
 40
0
 40
0
 40
1
 40
1
 40
1
 40
1
 10
14.863088
 20
40.468089
 30
0.0
 10
14.863088
 20
40.191089
 30
0.0
 10
14.639860
 20
39.968379
 30
0.0
 10
14.362861
 20
39.968379
 30
0.0
  0
LINE
  5
106
100
AcDbEntity
  8
0
 62
7
100
AcDbLine
 10
14.362861
 20
39.968379
 30
0.0
 11
9.999823
 21
39.968379
 31
0.0
  0
LINE
  5
107
100
AcDbEntity
  8
0
 62
7
100
AcDbLine
 10
9.999823
 20
39.968379
 30
0.0
 11
9.999823
 21
14.002544
 31
0.0
  0
SPLINE
  5
108
100
AcDbEntity
  8
0
 62
7
100
AcDbSpline
 70
8
 71
3
 72
8
 73
4
 74
0
 40
0
 40
0
 40
0
 40
0
 40
1
 40
1
 40
1
 40
1
 10
9.999823
 20
14.002544
 30
0.0
 10
9.999823
 20
11.786550
 30
0.0
 10
11.784110
 20
10.002791
 30
0.0
 10
14.000092
 20
10.002791
 30
0.0
  0
LINE
  5
109
100
AcDbEntity
  8
0
 62
7
100
AcDbLine
 10
14.000092
 20
10.002791
 30
0.0
 11
14.705992
 21
10.002791
 31
0.0
  0
LINE
  5
10a
100
AcDbEntity
  8
0
 62
7
100
AcDbLine
 10
14.705992
 20
10.002791
 30
0.0
 11
14.705992
 21
22.340011
 31
0.0
  0
LINE
  5
10b
100
AcDbEntity
  8
0
 62
7
100
AcDbLine
 10
14.705992
 20
22.340011
 30
0.0
 11
14.705992
 21
33.739307
 31
0.0
  0
LINE
  5
10c
100
AcDbEntity
  8
0
 62
7
100
AcDbLine
 10
14.705992
 20
33.739307
 30
0.0
 11
14.705992
 21
36.516395
 31
0.0
  0
LINE
  5
10d
100
AcDbEntity
  8
0
 62
7
100
AcDbLine
 10
14.705992
 20
36.516395
 30
0.0
 11
14.705992
 21
37.285340
 31
0.0
  0
SPLINE
  5
10e
100
AcDbEntity
  8
0
 62
7
100
AcDbSpline
 70
8
 71
3
 72
8
 73
4
 74
0
 40
0
 40
0
 40
0
 40
0
 40
1
 40
1
 40
1
 40
1
 10
14.705992
 20
37.285340
 30
0.0
 10
14.705992
 20
37.562340
 30
0.0
 10
14.929220
 20
37.785568
 30
0.0
 10
15.206219
 20
37.785568
 30
0.0
  0
LINE
  5
10f
100
AcDbEntity
  8
0
 62
7
100
AcDbLine
 10
15.206219
 20
37.785568
 30
0.0
 11
15.894549
 21
37.785568
 31
0.0
  0
LINE
  5
110
100
AcDbEntity
  8
0
 62
7
100
AcDbLine
 10
15.894549
 20
37.785568
 30
0.0
 11
19.210106
 21
37.785568
 31
0.0
  0
LINE
  5
111
100
AcDbEntity
  8
0
 62
7
100
AcDbLine
 10
19.210106
 20
37.785568
 30
0.0
 11
33.006153
 21
37.785568
 31
0.0
  0
LINE
  5
112
100
AcDbEntity
  8
0
 62
7
100
AcDbLine
 10
33.006153
 20
37.785568
 30
0.0
 11
36.649854
 21
37.785568
 31
0.0
  0
LINE
  5
113
100
AcDbEntity
  8
0
 62
7
100
AcDbLine
 10
36.649854
 20
37.785568
 30
0.0
 11
36.649854
 21
48.460360
 31
0.0
  0
LINE
  5
114
100
AcDbEntity
  8
0
 62
7
100
AcDbLine
 10
36.649854
 20
48.460360
 30
0.0
 11
32.652685
 21
48.460360
 31
0.0
  0
LINE
  5
115
100
AcDbEntity
  8
0
 62
7
100
AcDbLine
 10
32.652685
 20
48.460360
 30
0.0
 11
30.391325
 21
48.460360
 31
0.0
  0
SPLINE
  5
116
100
AcDbEntity
  8
0
 62
7
100
AcDbSpline
 70
8
 71
3
 72
8
 73
4
 74
0
 40
0
 40
0
 40
0
 40
0
 40
1
 40
1
 40
1
 40
1
 10
30.391325
 20
48.460360
 30
0.0
 10
30.114328
 20
48.460360
 30
0.0
 10
29.891099
 20
48.237131
 30
0.0
 10
29.891099
 20
47.960132
 30
0.0
  0
LINE
  5
117
100
AcDbEntity
  8
0
 62
7
100
AcDbLine
 10
29.891099
 20
47.960132
 30
0.0
 11
29.891099
 21
46.545233
 31
0.0
  0
LINE
  5
118
100
AcDbEntity
  8
0
 62
7
100
AcDbLine
 10
29.891099
 20
46.545233
 30
0.0
 11
29.891099
 21
42.610593
 31
0.0
  0
SPLINE
  5
119
100
AcDbEntity
  8
0
 62
7
100
AcDbSpline
 70
8
 71
3
 72
8
 73
4
 74
0
 40
0
 40
0
 40
0
 40
0
 40
1
 40
1
 40
1
 40
1
 10
29.891099
 20
42.610593
 30
0.0
 10
29.891099
 20
42.333593
 30
0.0
 10
29.667870
 20
42.110365
 30
0.0
 10
29.390870
 20
42.110365
 30
0.0
  0
LINE
  5
11a
100
AcDbEntity
  8
0
 62
7
100
AcDbLine
 10
29.390870
 20
42.110365
 30
0.0
 11
20.891139
 21
42.110365
 31
0.0
  0
SPLINE
  5
11b
100
AcDbEntity
  8
0
 62
7
100
AcDbSpline
 70
8
 71
3
 72
8
 73
4
 74
0
 40
0
 40
0
 40
0
 40
0
 40
1
 40
1
 40
1
 40
1
 10
20.891139
 20
42.110365
 30
0.0
 10
20.614140
 20
42.110365
 30
0.0
 10
20.390911
 20
42.333593
 30
0.0
 10
20.390911
 20
42.610593
 30
0.0
  0
LINE
  5
11c
100
AcDbEntity
  8
0
 62
7
100
AcDbLine
 10
20.390911
 20
42.610593
 30
0.0
 11
20.390911
 21
46.545233
 31
0.0
  0
LINE
  5
11d
100
AcDbEntity
  8
0
 62
7
100
AcDbLine
 10
20.390911
 20
46.545233
 30
0.0
 11
20.390911
 21
47.960132
 31
0.0
  0
SPLINE
  5
11e
100
AcDbEntity
  8
0
 62
7
100
AcDbSpline
 70
8
 71
3
 72
8
 73
4
 74
0
 40
0
 40
0
 40
0
 40
0
 40
1
 40
1
 40
1
 40
1
 10
20.390911
 20
47.960132
 30
0.0
 10
20.390911
 20
48.237131
 30
0.0
 10
20.167683
 20
48.460360
 30
0.0
 10
19.890684
 20
48.460360
 30
0.0
  0
LINE
  5
11f
100
AcDbEntity
  8
0
 62
7
100
AcDbLine
 10
19.890684
 20
48.460360
 30
0.0
 11
18.219986
 21
48.460360
 31
0.0
  0
LINE
  5
120
100
AcDbEntity
  8
0
 62
7
100
AcDbLine
 10
18.219986
 20
48.460360
 30
0.0
 11
14.541144
 21
48.460360
 31
0.0
  0
SPLINE
  5
121
100
AcDbEntity
  8
0
 62
7
100
AcDbSpline
 70
8
 71
3
 72
8
 73
4
 74
0
 40
0
 40
0
 40
0
 40
0
 40
1
 40
1
 40
1
 40
1
 10
14.541144
 20
48.460360
 30
0.0
 10
14.264145
 20
48.460360
 30
0.0
 10
14.040917
 20
48.683588
 30
0.0
 10
14.040917
 20
48.960587
 30
0.0
  0
LINE
  5
122
100
AcDbEntity
  8
0
 62
7
100
AcDbLine
 10
14.040917
 20
48.960587
 30
0.0
 11
14.040917
 21
55.310065
 31
0.0
  0
SPLINE
  5
123
100
AcDbEntity
  8
0
 62
7
100
AcDbSpline
 70
8
 71
3
 72
8
 73
4
 74
0
 40
0
 40
0
 40
0
 40
0
 40
1
 40
1
 40
1
 40
1
 10
14.040917
 20
55.310065
 30
0.0
 10
14.040917
 20
55.587066
 30
0.0
 10
14.264145
 20
55.810292
 30
0.0
 10
14.541144
 20
55.810292
 30
0.0
  0
LINE
  5
124
100
AcDbEntity
  8
0
 62
7
100
AcDbLine
 10
14.541144
 20
55.810292
 30
0.0
 11
18.219986
 21
55.810292
 31
0.0
  0
LINE
  5
125
100
AcDbEntity
  8
0
 62
7
100
AcDbLine
 10
18.219986
 20
55.810292
 30
0.0
 11
19.890684
 21
55.810292
 31
0.0
  0
SPLINE
  5
126
100
AcDbEntity
  8
0
 62
7
100
AcDbSpline
 70
8
 71
3
 72
8
 73
4
 74
0
 40
0
 40
0
 40
0
 40
0
 40
1
 40
1
 40
1
 40
1
 10
19.890684
 20
55.810292
 30
0.0
 10
20.167683
 20
55.810292
 30
0.0
 10
20.390911
 20
56.033520
 30
0.0
 10
20.390911
 20
56.310520
 30
0.0
  0
LINE
  5
127
100
AcDbEntity
  8
0
 62
7
100
AcDbLine
 10
20.390911
 20
56.310520
 30
0.0
 11
20.390911
 21
57.425179
 31
0.0
  0
LINE
  5
128
100
AcDbEntity
  8
0
 62
7
100
AcDbLine
 10
20.390911
 20
57.425179
 30
0.0
 11
20.390911
 21
61.660059
 31
0.0
  0
SPLINE
  5
129
100
AcDbEntity
  8
0
 62
7
100
AcDbSpline
 70
8
 71
3
 72
8
 73
4
 74
0
 40
0
 40
0
 40
0
 40
0
 40
1
 40
1
 40
1
 40
1
 10
20.390911
 20
61.660059
 30
0.0
 10
20.390911
 20
61.937061
 30
0.0
 10
20.614140
 20
62.160287
 30
0.0
 10
20.891139
 20
62.160287
 30
0.0
  0
LINE
  5
12a
100
AcDbEntity
  8
0
 62
7
100
AcDbLine
 10
20.891139
 20
62.160287
 30
0.0
 11
29.390870
 21
62.160287
 31
0.0
  0
SPLINE
  5
12b
100
AcDbEntity
  8
0
 62
7
100
AcDbSpline
 70
8
 71
3
 72
8
 73
4
 74
0
 40
0
 40
0
 40
0
 40
0
 40
1
 40
1
 40
1
 40
1
 10
29.390870
 20
62.160287
 30
0.0
 10
29.667870
 20
62.160287
 30
0.0
 10
29.891099
 20
61.937061
 30
0.0
 10
29.891099
 20
61.660059
 30
0.0
  0
LINE
  5
12c
100
AcDbEntity
  8
0
 62
7
100
AcDbLine
 10
29.891099
 20
61.660059
 30
0.0
 11
29.891099
 21
57.425179
 31
0.0
  0
LINE
  5
12d
100
AcDbEntity
  8
0
 62
7
100
AcDbLine
 10
29.891099
 20
57.425179
 30
0.0
 11
29.891099
 21
56.310520
 31
0.0
  0
SPLINE
  5
12e
100
AcDbEntity
  8
0
 62
7
100
AcDbSpline
 70
8
 71
3
 72
8
 73
4
 74
0
 40
0
 40
0
 40
0
 40
0
 40
1
 40
1
 40
1
 40
1
 10
29.891099
 20
56.310520
 30
0.0
 10
29.891099
 20
56.033520
 30
0.0
 10
30.114328
 20
55.810292
 30
0.0
 10
30.391325
 20
55.810292
 30
0.0
  0
LINE
  5
12f
100
AcDbEntity
  8
0
 62
7
100
AcDbLine
 10
30.391325
 20
55.810292
 30
0.0
 11
32.652685
 21
55.810292
 31
0.0
  0
LINE
  5
130
100
AcDbEntity
  8
0
 62
7
100
AcDbLine
 10
32.652685
 20
55.810292
 30
0.0
 11
36.649854
 21
55.810292
 31
0.0
  0
LINE
  5
131
100
AcDbEntity
  8
0
 62
7
100
AcDbLine
 10
36.649854
 20
55.810292
 30
0.0
 11
36.649854
 21
63.502323
 31
0.0
  0
LINE
  5
132
100
AcDbEntity
  8
0
 62
7
100
AcDbLine
 10
36.649854
 20
63.502323
 30
0.0
 11
36.649854
 21
64.002550
 31
0.0
  0
LINE
  5
133
100
AcDbEntity
  8
0
 62
7
100
AcDbLine
 10
36.649854
 20
64.002550
 30
0.0
 11
14.000092
 21
64.002550
 31
0.0
  0
LINE
  5
134
100
AcDbEntity
  8
0
 62
7
100
AcDbLine
 10
14.000092
 20
64.002550
 30
0.0
 11
14.000092
 21
64.002550
 31
0.0
  0
SPLINE
  5
135
100
AcDbEntity
  8
0
 62
7
100
AcDbSpline
 70
8
 71
3
 72
8
 73
4
 74
0
 40
0
 40
0
 40
0
 40
0
 40
1
 40
1
 40
1
 40
1
 10
34.831361
 20
63.105448
 30
0.0
 10
35.438822
 20
63.105269
 30
0.0
 10
35.931140
 20
62.612719
 30
0.0
 10
35.931034
 20
62.005258
 30
0.0
  0
SPLINE
  5
136
100
AcDbEntity
  8
0
 62
7
100
AcDbSpline
 70
8
 71
3
 72
8
 73
4
 74
0
 40
0
 40
0
 40
0
 40
0
 40
1
 40
1
 40
1
 40
1
 10
35.931034
 20
62.005258
 30
0.0
 10
35.931140
 20
61.397797
 30
0.0
 10
35.438822
 20
60.905246
 30
0.0
 10
34.831361
 20
60.905068
 30
0.0
  0
SPLINE
  5
137
100
AcDbEntity
  8
0
 62
7
100
AcDbSpline
 70
8
 71
3
 72
8
 73
4
 74
0
 40
0
 40
0
 40
0
 40
0
 40
1
 40
1
 40
1
 40
1
 10
34.831361
 20
60.905068
 30
0.0
 10
34.223698
 20
60.904962
 30
0.0
 10
33.731065
 20
61.397596
 30
0.0
 10
33.731171
 20
62.005258
 30
0.0
  0
SPLINE
  5
138
100
AcDbEntity
  8
0
 62
7
100
AcDbSpline
 70
8
 71
3
 72
8
 73
4
 74
0
 40
0
 40
0
 40
0
 40
0
 40
1
 40
1
 40
1
 40
1
 10
33.731171
 20
62.005258
 30
0.0
 10
33.731065
 20
62.612920
 30
0.0
 10
34.223698
 20
63.105554
 30
0.0
 10
34.831361
 20
63.105448
 30
0.0
  0
LINE
  5
139
100
AcDbEntity
  8
0
 62
7
100
AcDbLine
 10
34.831361
 20
63.105448
 30
0.0
 11
34.831361
 21
63.105448
 31
0.0
  0
SPLINE
  5
13a
100
AcDbEntity
  8
0
 62
7
100
AcDbSpline
 70
8
 71
3
 72
8
 73
4
 74
0
 40
0
 40
0
 40
0
 40
0
 40
1
 40
1
 40
1
 40
1
 10
12.606380
 20
61.200140
 30
0.0
 10
13.213639
 20
61.199961
 30
0.0
 10
13.705875
 20
60.707725
 30
0.0
 10
13.706054
 20
60.100466
 30
0.0
  0
SPLINE
  5
13b
100
AcDbEntity
  8
0
 62
7
100
AcDbSpline
 70
8
 71
3
 72
8
 73
4
 74
0
 40
0
 40
0
 40
0
 40
0
 40
1
 40
1
 40
1
 40
1
 10
13.706054
 20
60.100466
 30
0.0
 10
13.706160
 20
59.493006
 30
0.0
 10
13.213841
 20
59.000455
 30
0.0
 10
12.606380
 20
59.000276
 30
0.0
  0
SPLINE
  5
13c
100
AcDbEntity
  8
0
 62
7
100
AcDbSpline
 70
8
 71
3
 72
8
 73
4
 74
0
 40
0
 40
0
 40
0
 40
0
 40
1
 40
1
 40
1
 40
1
 10
12.606380
 20
59.000276
 30
0.0
 10
11.998718
 20
59.000169
 30
0.0
 10
11.506083
 20
59.492804
 30
0.0
 10
11.506190
 20
60.100466
 30
0.0
  0
SPLINE
  5
13d
100
AcDbEntity
  8
0
 62
7
100
AcDbSpline
 70
8
 71
3
 72
8
 73
4
 74
0
 40
0
 40
0
 40
0
 40
0
 40
1
 40
1
 40
1
 40
1
 10
11.506190
 20
60.100466
 30
0.0
 10
11.506369
 20
60.707927
 30
0.0
 10
11.998920
 20
61.200246
 30
0.0
 10
12.606380
 20
61.200140
 30
0.0
  0
LINE
  5
13e
100
AcDbEntity
  8
0
 62
7
100
AcDbLine
 10
12.606380
 20
61.200140
 30
0.0
 11
12.606380
 21
61.200140
 31
0.0
  0
SPLINE
  5
13f
100
AcDbEntity
  8
0
 62
7
100
AcDbSpline
 70
8
 71
3
 72
8
 73
4
 74
0
 40
0
 40
0
 40
0
 40
0
 40
1
 40
1
 40
1
 40
1
 10
12.606380
 20
15.480487
 30
0.0
 10
13.213841
 20
15.480307
 30
0.0
 10
13.706160
 20
14.987759
 30
0.0
 10
13.706054
 20
14.380298
 30
0.0
  0
SPLINE
  5
140
100
AcDbEntity
  8
0
 62
7
100
AcDbSpline
 70
8
 71
3
 72
8
 73
4
 74
0
 40
0
 40
0
 40
0
 40
0
 40
1
 40
1
 40
1
 40
1
 10
13.706054
 20
14.380298
 30
0.0
 10
13.705875
 20
13.773040
 30
0.0
 10
13.213639
 20
13.280804
 30
0.0
 10
12.606380
 20
13.280624
 30
0.0
  0
SPLINE
  5
141
100
AcDbEntity
  8
0
 62
7
100
AcDbSpline
 70
8
 71
3
 72
8
 73
4
 74
0
 40
0
 40
0
 40
0
 40
0
 40
1
 40
1
 40
1
 40
1
 10
12.606380
 20
13.280624
 30
0.0
 10
11.998920
 20
13.280518
 30
0.0
 10
11.506369
 20
13.772836
 30
0.0
 10
11.506190
 20
14.380298
 30
0.0
  0
SPLINE
  5
142
100
AcDbEntity
  8
0
 62
7
100
AcDbSpline
 70
8
 71
3
 72
8
 73
4
 74
0
 40
0
 40
0
 40
0
 40
0
 40
1
 40
1
 40
1
 40
1
 10
11.506190
 20
14.380298
 30
0.0
 10
11.506084
 20
14.987960
 30
0.0
 10
11.998718
 20
15.480593
 30
0.0
 10
12.606380
 20
15.480487
 30
0.0
  0
LINE
  5
143
100
AcDbEntity
  8
0
 62
7
100
AcDbLine
 10
12.606380
 20
15.480487
 30
0.0
 11
12.606380
 21
15.480487
 31
0.0
  0
ENDSEC
  0
SECTION
  2
OBJECTS
  0
DICTIONARY
  5
C
330
0
100
AcDbDictionary
  3
ACAD_GROUP
350
D
  3
ACAD_MLINESTYLE
350
17
  0
DICTIONARY
  5
D
330
C
100
AcDbDictionary
  0
DICTIONARY
  5
1A
330
C
100
AcDbDictionary
  0
DICTIONARY
  5
17
330
C
100
AcDbDictionary
  3
STANDARD
350
18
  0
DICTIONARY
  5
19
330
C
100
AcDbDictionary
  0
ENDSEC
  0
EOF
