  0
SECTION
  2
HEADER
  9
$ACADVER
  1
AC1014
  9
$HANDSEED
  5
FFFF
  9
$MEASUREMENT
 70
     1
  0
ENDSEC
  0
SECTION
  2
TABLES
  0
TABLE
  2
VPORT
  5
8
330
0
100
AcDbSymbolTable
 70
     4
  0
VPORT
  5
2E
330
8
100
AcDbSymbolTableRecord
100
AcDbViewportTableRecord
  2
*ACTIVE
 70
     0
 10
0.0
 20
0.0
 11
1.0
 21
1.0
 12
210.0
 22
148.5
 13
0.0
 23
0.0
 14
10.0
 24
10.0
 15
10.0
 25
10.0
 16
0.0
 26
0.0
 36
1.0
 17
0.0
 27
0.0
 37
0.0
 40
341.0
 41
1.24
 42
50.0
 43
0.0
 44
0.0
 50
0.0
 51
0.0
 71
     0
 72
   100
 73
     1
 74
     3
 75
     0
 76
     0
 77
     0
 78
     0
  0
ENDTAB
  0
TABLE
  2
LTYPE
  5
5
330
0
100
AcDbSymbolTable
 70
     1
  0
LTYPE
  5
14
330
5
100
AcDbSymbolTableRecord
100
AcDbLinetypeTableRecord
  2
BYBLOCK
 70
     0
  3

 72
    65
 73
     0
 40
0.0
  0
LTYPE
  5
15
330
5
100
AcDbSymbolTableRecord
100
AcDbLinetypeTableRecord
  2
BYLAYER
 70
     0
  3

 72
    65
 73
     0
 40
0.0
  0
LTYPE
  5
16
330
5
100
AcDbSymbolTableRecord
100
AcDbLinetypeTableRecord
  2
CONTINUOUS
 70
     0
  3
Solid line
 72
    65
 73
     0
 40
0.0
  0
ENDTAB
  0
TABLE
  2
LAYER
  5
2
100
AcDbSymbolTable
 70
1
  0
LAYER
  5
50
100
AcDbSymbolTableRecord
100
AcDbLayerTableRecord
  2
0
 70
0
  6
CONTINUOUS
  0
ENDTAB
  0
TABLE
  2
STYLE
  5
3
330
0
100
AcDbSymbolTable
 70
     1
  0
STYLE
  5
11
330
3
100
AcDbSymbolTableRecord
100
AcDbTextStyleTableRecord
  2
STANDARD
 70
     0
 40
0.0
 41
1.0
 50
0.0
 71
     0
 42
2.5
  3
txt
  4

  0
ENDTAB
  0
TABLE
  2
VIEW
  5
6
330
0
100
AcDbSymbolTable
 70
     0
  0
ENDTAB
  0
TABLE
  2
UCS
  5
7
330
0
100
AcDbSymbolTable
 70
     0
  0
ENDTAB
  0
TABLE
  2
APPID
  5
9
330
0
100
AcDbSymbolTable
 70
     2
  0
APPID
  5
12
330
9
100
AcDbSymbolTableRecord
100
AcDbRegAppTableRecord
  2
ACAD
 70
     0
  0
ENDTAB
  0
TABLE
  2
DIMSTYLE
  5
A
330
0
100
AcDbSymbolTable
 70
     1
  0
DIMSTYLE
105
27
330
A
100
AcDbSymbolTableRecord
100
AcDbDimStyleTableRecord
  2
ISO-25
 70
     0
  3

  4

  5

  6

  7

 40
1.0
 41
2.5
 42
0.625
 43
3.75
 44
1.25
 45
0.0
 46
0.0
 47
0.0
 48
0.0
140
2.5
141
2.5
142
0.0
143
0.03937007874016
144
1.0
145
0.0
146
1.0
147
0.625
 71
     0
 72
     0
 73
     0
 74
     0
 75
     0
 76
     0
 77
     1
 78
     8
170
     0
171
     3
172
     1
173
     0
174
     0
175
     0
176
     0
177
     0
178
     0
270
     2
271
     2
272
     2
273
     2
274
     3
340
11
275
     0
280
     0
281
     0
282
     0
283
     0
284
     8
285
     0
286
     0
287
     3
288
     0
  0
ENDTAB
  0
TABLE
  2
BLOCK_RECORD
  5
1
330
0
100
AcDbSymbolTable
 70
     1
  0
BLOCK_RECORD
  5
1F
330
1
100
AcDbSymbolTableRecord
100
AcDbBlockTableRecord
  2
*MODEL_SPACE
  0
BLOCK_RECORD
  5
1B
330
1
100
AcDbSymbolTableRecord
100
AcDbBlockTableRecord
  2
*PAPER_SPACE
  0
ENDTAB
  0
ENDSEC
  0
SECTION
  2
BLOCKS
  0
BLOCK
  5
20
330
1F
100
AcDbEntity
  8
0
100
AcDbBlockBegin
  2
*MODEL_SPACE
 70
     0
 10
0.0
 20
0.0
 30
0.0
  3
*MODEL_SPACE
  1

  0
ENDBLK
  5
21
330
1F
100
AcDbEntity
  8
0
100
AcDbBlockEnd
  0
BLOCK
  5
1C
330
1B
100
AcDbEntity
 67
     1
  8
0
100
AcDbBlockBegin
  2
*PAPER_SPACE
  1

  0
ENDBLK
  5
1D
330
1B
100
AcDbEntity
 67
     1
  8
0
100
AcDbBlockEnd
  0
ENDSEC
  0
SECTION
  2
ENTITIES
  0
LINE
  5
100
100
AcDbEntity
  8
0
 62
7
100
AcDbLine
 10
40.582945
 20
64.002550
 30
0.0
 11
40.582945
 21
63.502323
 31
0.0
  0
LINE
  5
101
100
AcDbEntity
  8
0
 62
7
100
AcDbLine
 10
40.582945
 20
63.502323
 30
0.0
 11
40.582945
 21
48.685152
 31
0.0
  0
LINE
  5
102
100
AcDbEntity
  8
0
 62
7
100
AcDbLine
 10
40.582945
 20
48.685152
 30
0.0
 11
40.583461
 21
48.685152
 31
0.0
  0
LINE
  5
103
100
AcDbEntity
  8
0
 62
7
100
AcDbLine
 10
40.583461
 20
48.685152
 30
0.0
 11
40.583461
 21
50.095400
 31
0.0
  0
LINE
  5
104
100
AcDbEntity
  8
0
 62
7
100
AcDbLine
 10
40.583461
 20
50.095400
 30
0.0
 11
46.284399
 21
50.095400
 31
0.0
  0
SPLINE
  5
105
100
AcDbEntity
  8
0
 62
7
100
AcDbSpline
 70
8
 71
3
 72
8
 73
4
 74
0
 40
0
 40
0
 40
0
 40
0
 40
1
 40
1
 40
1
 40
1
 10
46.284399
 20
50.095400
 30
0.0
 10
46.286121
 20
50.095401
 30
0.0
 10
46.287844
 20
50.095401
 30
0.0
 10
46.289566
 20
50.095400
 30
0.0
  0
SPLINE
  5
106
100
AcDbEntity
  8
0
 62
7
100
AcDbSpline
 70
8
 71
3
 72
8
 73
4
 74
0
 40
0
 40
0
 40
0
 40
0
 40
1
 40
1
 40
1
 40
1
 10
46.289566
 20
50.095400
 30
0.0
 10
47.501397
 20
50.093596
 30
0.0
 10
48.656482
 20
49.581706
 30
0.0
 10
49.471800
 20
48.685152
 30
0.0
  0
LINE
  5
107
100
AcDbEntity
  8
0
 62
7
100
AcDbLine
 10
49.471800
 20
48.685152
 30
0.0
 11
49.972026
 21
48.685152
 31
0.0
  0
LINE
  5
108
100
AcDbEntity
  8
0
 62
7
100
AcDbLine
 10
49.972026
 20
48.685152
 30
0.0
 11
50.023704
 21
48.685152
 31
0.0
  0
LINE
  5
109
100
AcDbEntity
  8
0
 62
7
100
AcDbLine
 10
50.023704
 20
48.685152
 30
0.0
 11
50.539433
 21
48.685152
 31
0.0
  0
SPLINE
  5
10a
100
AcDbEntity
  8
0
 62
7
100
AcDbSpline
 70
8
 71
3
 72
8
 73
4
 74
0
 40
0
 40
0
 40
0
 40
0
 40
1
 40
1
 40
1
 40
1
 10
50.539433
 20
48.685152
 30
0.0
 10
50.816451
 20
48.685152
 30
0.0
 10
51.039661
 20
48.461924
 30
0.0
 10
51.039661
 20
48.184924
 30
0.0
  0
LINE
  5
10b
100
AcDbEntity
  8
0
 62
7
100
AcDbLine
 10
51.039661
 20
48.184924
 30
0.0
 11
51.039661
 21
43.385737
 31
0.0
  0
SPLINE
  5
10c
100
AcDbEntity
  8
0
 62
7
100
AcDbSpline
 70
8
 71
3
 72
8
 73
4
 74
0
 40
0
 40
0
 40
0
 40
0
 40
1
 40
1
 40
1
 40
1
 10
51.039661
 20
43.385737
 30
0.0
 10
51.039661
 20
43.108740
 30
0.0
 10
50.816451
 20
42.885511
 30
0.0
 10
50.539433
 20
42.885511
 30
0.0
  0
LINE
  5
10d
100
AcDbEntity
  8
0
 62
7
100
AcDbLine
 10
50.539433
 20
42.885511
 30
0.0
 11
50.023704
 21
42.885511
 31
0.0
  0
LINE
  5
10e
100
AcDbEntity
  8
0
 62
7
100
AcDbLine
 10
50.023704
 20
42.885511
 30
0.0
 11
49.972026
 21
42.885511
 31
0.0
  0
LINE
  5
10f
100
AcDbEntity
  8
0
 62
7
100
AcDbLine
 10
49.972026
 20
42.885511
 30
0.0
 11
49.471800
 21
42.885511
 31
0.0
  0
SPLINE
  5
110
100
AcDbEntity
  8
0
 62
7
100
AcDbSpline
 70
8
 71
3
 72
8
 73
4
 74
0
 40
0
 40
0
 40
0
 40
0
 40
1
 40
1
 40
1
 40
1
 10
49.471800
 20
42.885511
 30
0.0
 10
48.656482
 20
41.988957
 30
0.0
 10
47.501398
 20
41.477066
 30
0.0
 10
46.289566
 20
41.475262
 30
0.0
  0
SPLINE
  5
111
100
AcDbEntity
  8
0
 62
7
100
AcDbSpline
 70
8
 71
3
 72
8
 73
4
 74
0
 40
0
 40
0
 40
0
 40
0
 40
1
 40
1
 40
1
 40
1
 10
46.289566
 20
41.475262
 30
0.0
 10
46.287672
 20
41.475261
 30
0.0
 10
46.285777
 20
41.475261
 30
0.0
 10
46.283883
 20
41.475262
 30
0.0
  0
LINE
  5
112
100
AcDbEntity
  8
0
 62
7
100
AcDbLine
 10
46.283883
 20
41.475262
 30
0.0
 11
45.481865
 21
41.475262
 31
0.0
  0
LINE
  5
113
100
AcDbEntity
  8
0
 62
7
100
AcDbLine
 10
45.481865
 20
41.475262
 30
0.0
 11
45.165088
 21
41.475262
 31
0.0
  0
SPLINE
  5
114
100
AcDbEntity
  8
0
 62
7
100
AcDbSpline
 70
8
 71
3
 72
8
 73
4
 74
0
 40
0
 40
0
 40
0
 40
0
 40
1
 40
1
 40
1
 40
1
 10
45.165088
 20
41.475262
 30
0.0
 10
44.888091
 20
41.475262
 30
0.0
 10
44.664862
 20
41.252036
 30
0.0
 10
44.664862
 20
40.975033
 30
0.0
  0
LINE
  5
115
100
AcDbEntity
  8
0
 62
7
100
AcDbLine
 10
44.664862
 20
40.975033
 30
0.0
 11
44.664862
 21
38.734348
 31
0.0
  0
LINE
  5
116
100
AcDbEntity
  8
0
 62
7
100
AcDbLine
 10
44.664862
 20
38.734348
 30
0.0
 11
44.664862
 21
38.435141
 31
0.0
  0
LINE
  5
117
100
AcDbEntity
  8
0
 62
7
100
AcDbLine
 10
44.664862
 20
38.435141
 30
0.0
 11
44.664862
 21
32.595707
 31
0.0
  0
SPLINE
  5
118
100
AcDbEntity
  8
0
 62
7
100
AcDbSpline
 70
8
 71
3
 72
8
 73
4
 74
0
 40
0
 40
0
 40
0
 40
0
 40
1
 40
1
 40
1
 40
1
 10
44.664862
 20
32.595707
 30
0.0
 10
44.664862
 20
32.318710
 30
0.0
 10
44.441633
 20
32.095481
 30
0.0
 10
44.164636
 20
32.095481
 30
0.0
  0
LINE
  5
119
100
AcDbEntity
  8
0
 62
7
100
AcDbLine
 10
44.164636
 20
32.095481
 30
0.0
 11
42.867041
 21
32.095481
 31
0.0
  0
LINE
  5
11a
100
AcDbEntity
  8
0
 62
7
100
AcDbLine
 10
42.867041
 20
32.095481
 30
0.0
 11
41.083687
 21
32.095481
 31
0.0
  0
LINE
  5
11b
100
AcDbEntity
  8
0
 62
7
100
AcDbLine
 10
41.083687
 20
32.095481
 30
0.0
 11
40.583461
 21
32.095481
 31
0.0
  0
LINE
  5
11c
100
AcDbEntity
  8
0
 62
7
100
AcDbLine
 10
40.583461
 20
32.095481
 30
0.0
 11
40.583461
 21
32.595707
 31
0.0
  0
LINE
  5
11d
100
AcDbEntity
  8
0
 62
7
100
AcDbLine
 10
40.583461
 20
32.595707
 30
0.0
 11
40.583461
 21
40.975033
 31
0.0
  0
LINE
  5
11e
100
AcDbEntity
  8
0
 62
7
100
AcDbLine
 10
40.583461
 20
40.975033
 30
0.0
 11
40.583461
 21
42.885511
 31
0.0
  0
LINE
  5
11f
100
AcDbEntity
  8
0
 62
7
100
AcDbLine
 10
40.583461
 20
42.885511
 30
0.0
 11
40.582945
 21
42.885511
 31
0.0
  0
LINE
  5
120
100
AcDbEntity
  8
0
 62
7
100
AcDbLine
 10
40.582945
 20
42.885511
 30
0.0
 11
40.582945
 21
10.502501
 31
0.0
  0
LINE
  5
121
100
AcDbEntity
  8
0
 62
7
100
AcDbLine
 10
40.582945
 20
10.502501
 30
0.0
 11
40.582945
 21
10.002791
 31
0.0
  0
LINE
  5
122
100
AcDbEntity
  8
0
 62
7
100
AcDbLine
 10
40.582945
 20
10.002791
 30
0.0
 11
46.134539
 21
10.002791
 31
0.0
  0
LINE
  5
123
100
AcDbEntity
  8
0
 62
7
100
AcDbLine
 10
46.134539
 20
10.002791
 30
0.0
 11
46.134539
 21
10.503017
 31
0.0
  0
LINE
  5
124
100
AcDbEntity
  8
0
 62
7
100
AcDbLine
 10
46.134539
 20
10.503017
 30
0.0
 11
46.134539
 21
13.495598
 31
0.0
  0
LINE
  5
125
100
AcDbEntity
  8
0
 62
7
100
AcDbLine
 10
46.134539
 20
13.495598
 30
0.0
 11
46.134539
 21
14.630411
 31
0.0
  0
SPLINE
  5
126
100
AcDbEntity
  8
0
 62
7
100
AcDbSpline
 70
8
 71
3
 72
8
 73
4
 74
0
 40
0
 40
0
 40
0
 40
0
 40
1
 40
1
 40
1
 40
1
 10
46.134539
 20
14.630411
 30
0.0
 10
46.134539
 20
14.907411
 30
0.0
 10
46.357768
 20
15.130639
 30
0.0
 10
46.634765
 20
15.130639
 30
0.0
  0
LINE
  5
127
100
AcDbEntity
  8
0
 62
7
100
AcDbLine
 10
46.634765
 20
15.130639
 30
0.0
 11
54.934510
 21
15.130639
 31
0.0
  0
SPLINE
  5
128
100
AcDbEntity
  8
0
 62
7
100
AcDbSpline
 70
8
 71
3
 72
8
 73
4
 74
0
 40
0
 40
0
 40
0
 40
0
 40
1
 40
1
 40
1
 40
1
 10
54.934510
 20
15.130639
 30
0.0
 10
55.211510
 20
15.130639
 30
0.0
 10
55.434739
 20
14.907411
 30
0.0
 10
55.434739
 20
14.630411
 30
0.0
  0
LINE
  5
129
100
AcDbEntity
  8
0
 62
7
100
AcDbLine
 10
55.434739
 20
14.630411
 30
0.0
 11
55.434739
 21
13.495598
 31
0.0
  0
LINE
  5
12a
100
AcDbEntity
  8
0
 62
7
100
AcDbLine
 10
55.434739
 20
13.495598
 30
0.0
 11
55.434739
 21
10.503017
 31
0.0
  0
LINE
  5
12b
100
AcDbEntity
  8
0
 62
7
100
AcDbLine
 10
55.434739
 20
10.503017
 30
0.0
 11
55.434739
 21
10.002791
 31
0.0
  0
LINE
  5
12c
100
AcDbEntity
  8
0
 62
7
100
AcDbLine
 10
55.434739
 20
10.002791
 30
0.0
 11
57.333329
 21
10.002791
 31
0.0
  0
SPLINE
  5
12d
100
AcDbEntity
  8
0
 62
7
100
AcDbSpline
 70
8
 71
3
 72
8
 73
4
 74
0
 40
0
 40
0
 40
0
 40
0
 40
1
 40
1
 40
1
 40
1
 10
57.333329
 20
10.002791
 30
0.0
 10
59.549321
 20
10.002791
 30
0.0
 10
61.333082
 20
11.786542
 30
0.0
 10
61.333082
 20
14.002544
 30
0.0
  0
LINE
  5
12e
100
AcDbEntity
  8
0
 62
7
100
AcDbLine
 10
61.333082
 20
14.002544
 30
0.0
 11
61.333082
 21
60.002798
 31
0.0
  0
SPLINE
  5
12f
100
AcDbEntity
  8
0
 62
7
100
AcDbSpline
 70
8
 71
3
 72
8
 73
4
 74
0
 40
0
 40
0
 40
0
 40
0
 40
1
 40
1
 40
1
 40
1
 10
61.333082
 20
60.002798
 30
0.0
 10
61.332907
 20
62.218802
 30
0.0
 10
59.549191
 20
64.002550
 30
0.0
 10
57.333329
 20
64.002550
 30
0.0
  0
LINE
  5
130
100
AcDbEntity
  8
0
 62
7
100
AcDbLine
 10
57.333329
 20
64.002550
 30
0.0
 11
40.582945
 21
64.002550
 31
0.0
  0
LINE
  5
131
100
AcDbEntity
  8
0
 62
7
100
AcDbLine
 10
40.582945
 20
64.002550
 30
0.0
 11
40.582945
 21
64.002550
 31
0.0
  0
SPLINE
  5
132
100
AcDbEntity
  8
0
 62
7
100
AcDbSpline
 70
8
 71
3
 72
8
 73
4
 74
0
 40
0
 40
0
 40
0
 40
0
 40
1
 40
1
 40
1
 40
1
 10
42.644315
 20
63.105448
 30
0.0
 10
42.936119
 20
63.105499
 30
0.0
 10
43.215986
 20
62.989603
 30
0.0
 10
43.422323
 20
62.783266
 30
0.0
  0
SPLINE
  5
133
100
AcDbEntity
  8
0
 62
7
100
AcDbSpline
 70
8
 71
3
 72
8
 73
4
 74
0
 40
0
 40
0
 40
0
 40
0
 40
1
 40
1
 40
1
 40
1
 10
43.422323
 20
62.783266
 30
0.0
 10
43.628659
 20
62.576929
 30
0.0
 10
43.744555
 20
62.297062
 30
0.0
 10
43.744504
 20
62.005258
 30
0.0
  0
SPLINE
  5
134
100
AcDbEntity
  8
0
 62
7
100
AcDbSpline
 70
8
 71
3
 72
8
 73
4
 74
0
 40
0
 40
0
 40
0
 40
0
 40
1
 40
1
 40
1
 40
1
 10
43.744504
 20
62.005258
 30
0.0
 10
43.744555
 20
61.713454
 30
0.0
 10
43.628659
 20
61.433586
 30
0.0
 10
43.422323
 20
61.227250
 30
0.0
  0
SPLINE
  5
135
100
AcDbEntity
  8
0
 62
7
100
AcDbSpline
 70
8
 71
3
 72
8
 73
4
 74
0
 40
0
 40
0
 40
0
 40
0
 40
1
 40
1
 40
1
 40
1
 10
43.422323
 20
61.227250
 30
0.0
 10
43.215986
 20
61.020913
 30
0.0
 10
42.936119
 20
60.905017
 30
0.0
 10
42.644315
 20
60.905068
 30
0.0
  0
SPLINE
  5
136
100
AcDbEntity
  8
0
 62
7
100
AcDbSpline
 70
8
 71
3
 72
8
 73
4
 74
0
 40
0
 40
0
 40
0
 40
0
 40
1
 40
1
 40
1
 40
1
 10
42.644315
 20
60.905068
 30
0.0
 10
42.036854
 20
60.905246
 30
0.0
 10
41.544535
 20
61.397797
 30
0.0
 10
41.544641
 20
62.005258
 30
0.0
  0
SPLINE
  5
137
100
AcDbEntity
  8
0
 62
7
100
AcDbSpline
 70
8
 71
3
 72
8
 73
4
 74
0
 40
0
 40
0
 40
0
 40
0
 40
1
 40
1
 40
1
 40
1
 10
41.544641
 20
62.005258
 30
0.0
 10
41.544535
 20
62.612719
 30
0.0
 10
42.036854
 20
63.105269
 30
0.0
 10
42.644315
 20
63.105448
 30
0.0
  0
LINE
  5
138
100
AcDbEntity
  8
0
 62
7
100
AcDbLine
 10
42.644315
 20
63.105448
 30
0.0
 11
42.644315
 21
63.105448
 31
0.0
  0
SPLINE
  5
139
100
AcDbEntity
  8
0
 62
7
100
AcDbSpline
 70
8
 71
3
 72
8
 73
4
 74
0
 40
0
 40
0
 40
0
 40
0
 40
1
 40
1
 40
1
 40
1
 10
52.639561
 20
62.160287
 30
0.0
 10
53.851392
 20
62.158483
 30
0.0
 10
55.006477
 20
61.646592
 30
0.0
 10
55.821795
 20
60.750038
 30
0.0
  0
LINE
  5
13a
100
AcDbEntity
  8
0
 62
7
100
AcDbLine
 10
55.821795
 20
60.750038
 30
0.0
 11
56.476535
 21
60.750038
 31
0.0
  0
LINE
  5
13b
100
AcDbEntity
  8
0
 62
7
100
AcDbLine
 10
56.476535
 20
60.750038
 30
0.0
 11
56.889427
 21
60.750038
 31
0.0
  0
SPLINE
  5
13c
100
AcDbEntity
  8
0
 62
7
100
AcDbSpline
 70
8
 71
3
 72
8
 73
4
 74
0
 40
0
 40
0
 40
0
 40
0
 40
1
 40
1
 40
1
 40
1
 10
56.889427
 20
60.750038
 30
0.0
 10
57.166451
 20
60.750038
 30
0.0
 10
57.389656
 20
60.526810
 30
0.0
 10
57.389656
 20
60.249811
 30
0.0
  0
LINE
  5
13d
100
AcDbEntity
  8
0
 62
7
100
AcDbLine
 10
57.389656
 20
60.249811
 30
0.0
 11
57.389656
 21
55.450108
 31
0.0
  0
SPLINE
  5
13e
100
AcDbEntity
  8
0
 62
7
100
AcDbSpline
 70
8
 71
3
 72
8
 73
4
 74
0
 40
0
 40
0
 40
0
 40
0
 40
1
 40
1
 40
1
 40
1
 10
57.389656
 20
55.450108
 30
0.0
 10
57.389656
 20
55.173109
 30
0.0
 10
57.166451
 20
54.950397
 30
0.0
 10
56.889427
 20
54.950397
 30
0.0
  0
LINE
  5
13f
100
AcDbEntity
  8
0
 62
7
100
AcDbLine
 10
56.889427
 20
54.950397
 30
0.0
 11
56.476535
 21
54.950397
 31
0.0
  0
LINE
  5
140
100
AcDbEntity
  8
0
 62
7
100
AcDbLine
 10
56.476535
 20
54.950397
 30
0.0
 11
55.820760
 21
54.950397
 31
0.0
  0
SPLINE
  5
141
100
AcDbEntity
  8
0
 62
7
100
AcDbSpline
 70
8
 71
3
 72
8
 73
4
 74
0
 40
0
 40
0
 40
0
 40
0
 40
1
 40
1
 40
1
 40
1
 10
55.820760
 20
54.950397
 30
0.0
 10
55.005685
 20
54.054109
 30
0.0
 10
53.851032
 20
53.542243
 30
0.0
 10
52.639561
 20
53.540148
 30
0.0
  0
SPLINE
  5
142
100
AcDbEntity
  8
0
 62
7
100
AcDbSpline
 70
8
 71
3
 72
8
 73
4
 74
0
 40
0
 40
0
 40
0
 40
0
 40
1
 40
1
 40
1
 40
1
 10
52.639561
 20
53.540148
 30
0.0
 10
51.427731
 20
53.541953
 30
0.0
 10
50.272647
 20
54.053844
 30
0.0
 10
49.457330
 20
54.950397
 30
0.0
  0
LINE
  5
143
100
AcDbEntity
  8
0
 62
7
100
AcDbLine
 10
49.457330
 20
54.950397
 30
0.0
 11
48.733862
 21
54.950397
 31
0.0
  0
LINE
  5
144
100
AcDbEntity
  8
0
 62
7
100
AcDbLine
 10
48.733862
 20
54.950397
 30
0.0
 11
48.390213
 21
54.950397
 31
0.0
  0
SPLINE
  5
145
100
AcDbEntity
  8
0
 62
7
100
AcDbSpline
 70
8
 71
3
 72
8
 73
4
 74
0
 40
0
 40
0
 40
0
 40
0
 40
1
 40
1
 40
1
 40
1
 10
48.390213
 20
54.950397
 30
0.0
 10
48.113213
 20
54.950397
 30
0.0
 10
47.889985
 20
55.173109
 30
0.0
 10
47.889985
 20
55.450108
 30
0.0
  0
LINE
  5
146
100
AcDbEntity
  8
0
 62
7
100
AcDbLine
 10
47.889985
 20
55.450108
 30
0.0
 11
47.889985
 21
60.249811
 31
0.0
  0
SPLINE
  5
147
100
AcDbEntity
  8
0
 62
7
100
AcDbSpline
 70
8
 71
3
 72
8
 73
4
 74
0
 40
0
 40
0
 40
0
 40
0
 40
1
 40
1
 40
1
 40
1
 10
47.889985
 20
60.249811
 30
0.0
 10
47.889985
 20
60.526810
 30
0.0
 10
48.113213
 20
60.750038
 30
0.0
 10
48.390213
 20
60.750038
 30
0.0
  0
LINE
  5
148
100
AcDbEntity
  8
0
 62
7
100
AcDbLine
 10
48.390213
 20
60.750038
 30
0.0
 11
48.733862
 21
60.750038
 31
0.0
  0
LINE
  5
149
100
AcDbEntity
  8
0
 62
7
100
AcDbLine
 10
48.733862
 20
60.750038
 30
0.0
 11
49.457846
 21
60.750038
 31
0.0
  0
SPLINE
  5
14a
100
AcDbEntity
  8
0
 62
7
100
AcDbSpline
 70
8
 71
3
 72
8
 73
4
 74
0
 40
0
 40
0
 40
0
 40
0
 40
1
 40
1
 40
1
 40
1
 10
49.457846
 20
60.750038
 30
0.0
 10
50.273042
 20
61.646459
 30
0.0
 10
51.427910
 20
62.158337
 30
0.0
 10
52.639561
 20
62.160287
 30
0.0
  0
LINE
  5
14b
100
AcDbEntity
  8
0
 62
7
100
AcDbLine
 10
52.639561
 20
62.160287
 30
0.0
 11
52.639561
 21
62.160287
 31
0.0
  0
SPLINE
  5
14c
100
AcDbEntity
  8
0
 62
7
100
AcDbSpline
 70
8
 71
3
 72
8
 73
4
 74
0
 40
0
 40
0
 40
0
 40
0
 40
1
 40
1
 40
1
 40
1
 10
59.154404
 20
61.200140
 30
0.0
 10
59.761866
 20
61.200247
 30
0.0
 10
60.254418
 20
60.707928
 30
0.0
 10
60.254596
 20
60.100466
 30
0.0
  0
SPLINE
  5
14d
100
AcDbEntity
  8
0
 62
7
100
AcDbSpline
 70
8
 71
3
 72
8
 73
4
 74
0
 40
0
 40
0
 40
0
 40
0
 40
1
 40
1
 40
1
 40
1
 10
60.254596
 20
60.100466
 30
0.0
 10
60.254648
 20
59.808662
 30
0.0
 10
60.138751
 20
59.528794
 30
0.0
 10
59.932414
 20
59.322457
 30
0.0
  0
SPLINE
  5
14e
100
AcDbEntity
  8
0
 62
7
100
AcDbSpline
 70
8
 71
3
 72
8
 73
4
 74
0
 40
0
 40
0
 40
0
 40
0
 40
1
 40
1
 40
1
 40
1
 10
59.932414
 20
59.322457
 30
0.0
 10
59.726077
 20
59.116120
 30
0.0
 10
59.446209
 20
59.000224
 30
0.0
 10
59.154404
 20
59.000276
 30
0.0
  0
SPLINE
  5
14f
100
AcDbEntity
  8
0
 62
7
100
AcDbSpline
 70
8
 71
3
 72
8
 73
4
 74
0
 40
0
 40
0
 40
0
 40
0
 40
1
 40
1
 40
1
 40
1
 10
59.154404
 20
59.000276
 30
0.0
 10
58.862600
 20
59.000225
 30
0.0
 10
58.582733
 20
59.116121
 30
0.0
 10
58.376396
 20
59.322458
 30
0.0
  0
SPLINE
  5
150
100
AcDbEntity
  8
0
 62
7
100
AcDbSpline
 70
8
 71
3
 72
8
 73
4
 74
0
 40
0
 40
0
 40
0
 40
0
 40
1
 40
1
 40
1
 40
1
 10
58.376396
 20
59.322458
 30
0.0
 10
58.170060
 20
59.528795
 30
0.0
 10
58.054164
 20
59.808662
 30
0.0
 10
58.054215
 20
60.100466
 30
0.0
  0
SPLINE
  5
151
100
AcDbEntity
  8
0
 62
7
100
AcDbSpline
 70
8
 71
3
 72
8
 73
4
 74
0
 40
0
 40
0
 40
0
 40
0
 40
1
 40
1
 40
1
 40
1
 10
58.054215
 20
60.100466
 30
0.0
 10
58.054394
 20
60.707926
 30
0.0
 10
58.546944
 20
61.200246
 30
0.0
 10
59.154404
 20
61.200140
 30
0.0
  0
LINE
  5
152
100
AcDbEntity
  8
0
 62
7
100
AcDbLine
 10
59.154404
 20
61.200140
 30
0.0
 11
59.154404
 21
61.200140
 31
0.0
  0
LINE
  5
153
100
AcDbEntity
  8
0
 62
7
100
AcDbLine
 10
40.583461
 20
25.965627
 30
0.0
 11
46.289566
 21
25.965627
 31
0.0
  0
SPLINE
  5
154
100
AcDbEntity
  8
0
 62
7
100
AcDbSpline
 70
8
 71
3
 72
8
 73
4
 74
0
 40
0
 40
0
 40
0
 40
0
 40
1
 40
1
 40
1
 40
1
 10
46.289566
 20
25.965627
 30
0.0
 10
47.501398
 20
25.963823
 30
0.0
 10
48.656482
 20
25.451932
 30
0.0
 10
49.471800
 20
24.555378
 30
0.0
  0
LINE
  5
155
100
AcDbEntity
  8
0
 62
7
100
AcDbLine
 10
49.471800
 20
24.555378
 30
0.0
 11
49.971510
 21
24.555378
 31
0.0
  0
LINE
  5
156
100
AcDbEntity
  8
0
 62
7
100
AcDbLine
 10
49.971510
 20
24.555378
 30
0.0
 11
50.285187
 21
24.555378
 31
0.0
  0
LINE
  5
157
100
AcDbEntity
  8
0
 62
7
100
AcDbLine
 10
50.285187
 20
24.555378
 30
0.0
 11
50.539433
 21
24.555378
 31
0.0
  0
SPLINE
  5
158
100
AcDbEntity
  8
0
 62
7
100
AcDbSpline
 70
8
 71
3
 72
8
 73
4
 74
0
 40
0
 40
0
 40
0
 40
0
 40
1
 40
1
 40
1
 40
1
 10
50.539433
 20
24.555378
 30
0.0
 10
50.816446
 20
24.555378
 30
0.0
 10
51.039661
 20
24.332149
 30
0.0
 10
51.039661
 20
24.055152
 30
0.0
  0
LINE
  5
159
100
AcDbEntity
  8
0
 62
7
100
AcDbLine
 10
51.039661
 20
24.055152
 30
0.0
 11
51.039661
 21
19.255448
 31
0.0
  0
SPLINE
  5
15a
100
AcDbEntity
  8
0
 62
7
100
AcDbSpline
 70
8
 71
3
 72
8
 73
4
 74
0
 40
0
 40
0
 40
0
 40
0
 40
1
 40
1
 40
1
 40
1
 10
51.039661
 20
19.255448
 30
0.0
 10
51.039661
 20
18.978448
 30
0.0
 10
50.816446
 20
18.755222
 30
0.0
 10
50.539433
 20
18.755222
 30
0.0
  0
LINE
  5
15b
100
AcDbEntity
  8
0
 62
7
100
AcDbLine
 10
50.539433
 20
18.755222
 30
0.0
 11
50.285187
 21
18.755222
 31
0.0
  0
LINE
  5
15c
100
AcDbEntity
  8
0
 62
7
100
AcDbLine
 10
50.285187
 20
18.755222
 30
0.0
 11
49.971510
 21
18.755222
 31
0.0
  0
LINE
  5
15d
100
AcDbEntity
  8
0
 62
7
100
AcDbLine
 10
49.971510
 20
18.755222
 30
0.0
 11
49.471284
 21
18.755222
 31
0.0
  0
SPLINE
  5
15e
100
AcDbEntity
  8
0
 62
7
100
AcDbSpline
 70
8
 71
3
 72
8
 73
4
 74
0
 40
0
 40
0
 40
0
 40
0
 40
1
 40
1
 40
1
 40
1
 10
49.471284
 20
18.755222
 30
0.0
 10
48.655995
 20
17.858991
 30
0.0
 10
47.501139
 20
17.347305
 30
0.0
 10
46.289566
 20
17.345488
 30
0.0
  0
LINE
  5
15f
100
AcDbEntity
  8
0
 62
7
100
AcDbLine
 10
46.289566
 20
17.345488
 30
0.0
 11
40.583461
 21
17.345488
 31
0.0
  0
LINE
  5
160
100
AcDbEntity
  8
0
 62
7
100
AcDbLine
 10
40.583461
 20
17.345488
 30
0.0
 11
40.583461
 21
25.965627
 31
0.0
  0
LINE
  5
161
100
AcDbEntity
  8
0
 62
7
100
AcDbLine
 10
40.583461
 20
25.965627
 30
0.0
 11
40.583461
 21
25.965627
 31
0.0
  0
SPLINE
  5
162
100
AcDbEntity
  8
0
 62
7
100
AcDbSpline
 70
8
 71
3
 72
8
 73
4
 74
0
 40
0
 40
0
 40
0
 40
0
 40
1
 40
1
 40
1
 40
1
 10
59.154404
 20
15.480487
 30
0.0
 10
59.446209
 20
15.480539
 30
0.0
 10
59.726076
 20
15.364643
 30
0.0
 10
59.932414
 20
15.158306
 30
0.0
  0
SPLINE
  5
163
100
AcDbEntity
  8
0
 62
7
100
AcDbSpline
 70
8
 71
3
 72
8
 73
4
 74
0
 40
0
 40
0
 40
0
 40
0
 40
1
 40
1
 40
1
 40
1
 10
59.932414
 20
15.158306
 30
0.0
 10
60.138751
 20
14.951970
 30
0.0
 10
60.254647
 20
14.672102
 30
0.0
 10
60.254596
 20
14.380298
 30
0.0
  0
SPLINE
  5
164
100
AcDbEntity
  8
0
 62
7
100
AcDbSpline
 70
8
 71
3
 72
8
 73
4
 74
0
 40
0
 40
0
 40
0
 40
0
 40
1
 40
1
 40
1
 40
1
 10
60.254596
 20
14.380298
 30
0.0
 10
60.254418
 20
13.772836
 30
0.0
 10
59.761866
 20
13.280516
 30
0.0
 10
59.154404
 20
13.280624
 30
0.0
  0
SPLINE
  5
165
100
AcDbEntity
  8
0
 62
7
100
AcDbSpline
 70
8
 71
3
 72
8
 73
4
 74
0
 40
0
 40
0
 40
0
 40
0
 40
1
 40
1
 40
1
 40
1
 10
59.154404
 20
13.280624
 30
0.0
 10
58.546944
 20
13.280518
 30
0.0
 10
58.054394
 20
13.772837
 30
0.0
 10
58.054215
 20
14.380298
 30
0.0
  0
SPLINE
  5
166
100
AcDbEntity
  8
0
 62
7
100
AcDbSpline
 70
8
 71
3
 72
8
 73
4
 74
0
 40
0
 40
0
 40
0
 40
0
 40
1
 40
1
 40
1
 40
1
 10
58.054215
 20
14.380298
 30
0.0
 10
58.054164
 20
14.672102
 30
0.0
 10
58.170060
 20
14.951969
 30
0.0
 10
58.376396
 20
15.158305
 30
0.0
  0
SPLINE
  5
167
100
AcDbEntity
  8
0
 62
7
100
AcDbSpline
 70
8
 71
3
 72
8
 73
4
 74
0
 40
0
 40
0
 40
0
 40
0
 40
1
 40
1
 40
1
 40
1
 10
58.376396
 20
15.158305
 30
0.0
 10
58.582733
 20
15.364642
 30
0.0
 10
58.862600
 20
15.480538
 30
0.0
 10
59.154404
 20
15.480487
 30
0.0
  0
LINE
  5
168
100
AcDbEntity
  8
0
 62
7
100
AcDbLine
 10
59.154404
 20
15.480487
 30
0.0
 11
59.154404
 21
15.480487
 31
0.0
  0
SPLINE
  5
169
100
AcDbEntity
  8
0
 62
7
100
AcDbSpline
 70
8
 71
3
 72
8
 73
4
 74
0
 40
0
 40
0
 40
0
 40
0
 40
1
 40
1
 40
1
 40
1
 10
42.644315
 20
13.575179
 30
0.0
 10
43.251775
 20
13.575285
 30
0.0
 10
43.744325
 20
13.082966
 30
0.0
 10
43.744504
 20
12.475505
 30
0.0
  0
SPLINE
  5
16a
100
AcDbEntity
  8
0
 62
7
100
AcDbSpline
 70
8
 71
3
 72
8
 73
4
 74
0
 40
0
 40
0
 40
0
 40
0
 40
1
 40
1
 40
1
 40
1
 10
43.744504
 20
12.475505
 30
0.0
 10
43.744555
 20
12.183701
 30
0.0
 10
43.628659
 20
11.903834
 30
0.0
 10
43.422323
 20
11.697498
 30
0.0
  0
SPLINE
  5
16b
100
AcDbEntity
  8
0
 62
7
100
AcDbSpline
 70
8
 71
3
 72
8
 73
4
 74
0
 40
0
 40
0
 40
0
 40
0
 40
1
 40
1
 40
1
 40
1
 10
43.422323
 20
11.697498
 30
0.0
 10
43.215986
 20
11.491161
 30
0.0
 10
42.936119
 20
11.375265
 30
0.0
 10
42.644315
 20
11.375316
 30
0.0
  0
SPLINE
  5
16c
100
AcDbEntity
  8
0
 62
7
100
AcDbSpline
 70
8
 71
3
 72
8
 73
4
 74
0
 40
0
 40
0
 40
0
 40
0
 40
1
 40
1
 40
1
 40
1
 10
42.644315
 20
11.375316
 30
0.0
 10
42.036854
 20
11.375495
 30
0.0
 10
41.544535
 20
11.868045
 30
0.0
 10
41.544641
 20
12.475505
 30
0.0
  0
SPLINE
  5
16d
100
AcDbEntity
  8
0
 62
7
100
AcDbSpline
 70
8
 71
3
 72
8
 73
4
 74
0
 40
0
 40
0
 40
0
 40
0
 40
1
 40
1
 40
1
 40
1
 10
41.544641
 20
12.475505
 30
0.0
 10
41.544820
 20
13.082764
 30
0.0
 10
42.037056
 20
13.575000
 30
0.0
 10
42.644315
 20
13.575179
 30
0.0
  0
LINE
  5
16e
100
AcDbEntity
  8
0
 62
7
100
AcDbLine
 10
42.644315
 20
13.575179
 30
0.0
 11
42.644315
 21
13.575179
 31
0.0
  0
SPLINE
  5
16f
100
AcDbEntity
  8
0
 62
7
100
AcDbSpline
 70
8
 71
3
 72
8
 73
4
 74
0
 40
0
 40
0
 40
0
 40
0
 40
1
 40
1
 40
1
 40
1
 10
14.000092
 20
64.002550
 30
0.0
 10
11.784096
 20
64.002550
 30
0.0
 10
9.999823
 20
62.218805
 30
0.0
 10
9.999823
 20
60.002798
 30
0.0
  0
LINE
  5
170
100
AcDbEntity
  8
0
 62
7
100
AcDbLine
 10
9.999823
 20
60.002798
 30
0.0
 11
9.999823
 21
46.139055
 31
0.0
  0
LINE
  5
171
100
AcDbEntity
  8
0
 62
7
100
AcDbLine
 10
9.999823
 20
46.139055
 30
0.0
 11
14.362861
 21
46.139055
 31
0.0
  0
SPLINE
  5
172
100
AcDbEntity
  8
0
 62
7
100
AcDbSpline
 70
8
 71
3
 72
8
 73
4
 74
0
 40
0
 40
0
 40
0
 40
0
 40
1
 40
1
 40
1
 40
1
 10
14.362861
 20
46.139055
 30
0.0
 10
14.639860
 20
46.139055
 30
0.0
 10
14.863088
 20
45.915829
 30
0.0
 10
14.863088
 20
45.638829
 30
0.0
  0
LINE
  5
173
100
AcDbEntity
  8
0
 62
7
100
AcDbLine
 10
14.863088
 20
45.638829
 30
0.0
 11
14.863088
 21
40.468089
 31
0.0
  0
SPLINE
  5
174
100
AcDbEntity
  8
0
 62
7
100
AcDbSpline
 70
8
 71
3
 72
8
 73
4
 74
0
 40
0
 40
0
 40
0
 40
0
 40
1
 40
1
 40
1
 40
1
 10
14.863088
 20
40.468089
 30
0.0
 10
14.863088
 20
40.191089
 30
0.0
 10
14.639860
 20
39.968379
 30
0.0
 10
14.362861
 20
39.968379
 30
0.0
  0
LINE
  5
175
100
AcDbEntity
  8
0
 62
7
100
AcDbLine
 10
14.362861
 20
39.968379
 30
0.0
 11
9.999823
 21
39.968379
 31
0.0
  0
LINE
  5
176
100
AcDbEntity
  8
0
 62
7
100
AcDbLine
 10
9.999823
 20
39.968379
 30
0.0
 11
9.999823
 21
14.002544
 31
0.0
  0
SPLINE
  5
177
100
AcDbEntity
  8
0
 62
7
100
AcDbSpline
 70
8
 71
3
 72
8
 73
4
 74
0
 40
0
 40
0
 40
0
 40
0
 40
1
 40
1
 40
1
 40
1
 10
9.999823
 20
14.002544
 30
0.0
 10
9.999823
 20
11.786550
 30
0.0
 10
11.784110
 20
10.002791
 30
0.0
 10
14.000092
 20
10.002791
 30
0.0
  0
LINE
  5
178
100
AcDbEntity
  8
0
 62
7
100
AcDbLine
 10
14.000092
 20
10.002791
 30
0.0
 11
14.705992
 21
10.002791
 31
0.0
  0
LINE
  5
179
100
AcDbEntity
  8
0
 62
7
100
AcDbLine
 10
14.705992
 20
10.002791
 30
0.0
 11
14.705992
 21
22.340011
 31
0.0
  0
LINE
  5
17a
100
AcDbEntity
  8
0
 62
7
100
AcDbLine
 10
14.705992
 20
22.340011
 30
0.0
 11
14.705992
 21
33.739307
 31
0.0
  0
LINE
  5
17b
100
AcDbEntity
  8
0
 62
7
100
AcDbLine
 10
14.705992
 20
33.739307
 30
0.0
 11
14.705992
 21
36.516395
 31
0.0
  0
LINE
  5
17c
100
AcDbEntity
  8
0
 62
7
100
AcDbLine
 10
14.705992
 20
36.516395
 30
0.0
 11
14.705992
 21
37.285340
 31
0.0
  0
SPLINE
  5
17d
100
AcDbEntity
  8
0
 62
7
100
AcDbSpline
 70
8
 71
3
 72
8
 73
4
 74
0
 40
0
 40
0
 40
0
 40
0
 40
1
 40
1
 40
1
 40
1
 10
14.705992
 20
37.285340
 30
0.0
 10
14.705992
 20
37.562340
 30
0.0
 10
14.929220
 20
37.785568
 30
0.0
 10
15.206219
 20
37.785568
 30
0.0
  0
LINE
  5
17e
100
AcDbEntity
  8
0
 62
7
100
AcDbLine
 10
15.206219
 20
37.785568
 30
0.0
 11
15.894549
 21
37.785568
 31
0.0
  0
LINE
  5
17f
100
AcDbEntity
  8
0
 62
7
100
AcDbLine
 10
15.894549
 20
37.785568
 30
0.0
 11
19.210106
 21
37.785568
 31
0.0
  0
LINE
  5
180
100
AcDbEntity
  8
0
 62
7
100
AcDbLine
 10
19.210106
 20
37.785568
 30
0.0
 11
33.006153
 21
37.785568
 31
0.0
  0
LINE
  5
181
100
AcDbEntity
  8
0
 62
7
100
AcDbLine
 10
33.006153
 20
37.785568
 30
0.0
 11
36.649854
 21
37.785568
 31
0.0
  0
LINE
  5
182
100
AcDbEntity
  8
0
 62
7
100
AcDbLine
 10
36.649854
 20
37.785568
 30
0.0
 11
36.649854
 21
48.460360
 31
0.0
  0
LINE
  5
183
100
AcDbEntity
  8
0
 62
7
100
AcDbLine
 10
36.649854
 20
48.460360
 30
0.0
 11
32.652685
 21
48.460360
 31
0.0
  0
LINE
  5
184
100
AcDbEntity
  8
0
 62
7
100
AcDbLine
 10
32.652685
 20
48.460360
 30
0.0
 11
30.391325
 21
48.460360
 31
0.0
  0
SPLINE
  5
185
100
AcDbEntity
  8
0
 62
7
100
AcDbSpline
 70
8
 71
3
 72
8
 73
4
 74
0
 40
0
 40
0
 40
0
 40
0
 40
1
 40
1
 40
1
 40
1
 10
30.391325
 20
48.460360
 30
0.0
 10
30.114328
 20
48.460360
 30
0.0
 10
29.891099
 20
48.237131
 30
0.0
 10
29.891099
 20
47.960132
 30
0.0
  0
LINE
  5
186
100
AcDbEntity
  8
0
 62
7
100
AcDbLine
 10
29.891099
 20
47.960132
 30
0.0
 11
29.891099
 21
46.545233
 31
0.0
  0
LINE
  5
187
100
AcDbEntity
  8
0
 62
7
100
AcDbLine
 10
29.891099
 20
46.545233
 30
0.0
 11
29.891099
 21
42.610593
 31
0.0
  0
SPLINE
  5
188
100
AcDbEntity
  8
0
 62
7
100
AcDbSpline
 70
8
 71
3
 72
8
 73
4
 74
0
 40
0
 40
0
 40
0
 40
0
 40
1
 40
1
 40
1
 40
1
 10
29.891099
 20
42.610593
 30
0.0
 10
29.891099
 20
42.333593
 30
0.0
 10
29.667870
 20
42.110365
 30
0.0
 10
29.390870
 20
42.110365
 30
0.0
  0
LINE
  5
189
100
AcDbEntity
  8
0
 62
7
100
AcDbLine
 10
29.390870
 20
42.110365
 30
0.0
 11
20.891139
 21
42.110365
 31
0.0
  0
SPLINE
  5
18a
100
AcDbEntity
  8
0
 62
7
100
AcDbSpline
 70
8
 71
3
 72
8
 73
4
 74
0
 40
0
 40
0
 40
0
 40
0
 40
1
 40
1
 40
1
 40
1
 10
20.891139
 20
42.110365
 30
0.0
 10
20.614140
 20
42.110365
 30
0.0
 10
20.390911
 20
42.333593
 30
0.0
 10
20.390911
 20
42.610593
 30
0.0
  0
LINE
  5
18b
100
AcDbEntity
  8
0
 62
7
100
AcDbLine
 10
20.390911
 20
42.610593
 30
0.0
 11
20.390911
 21
46.545233
 31
0.0
  0
LINE
  5
18c
100
AcDbEntity
  8
0
 62
7
100
AcDbLine
 10
20.390911
 20
46.545233
 30
0.0
 11
20.390911
 21
47.960132
 31
0.0
  0
SPLINE
  5
18d
100
AcDbEntity
  8
0
 62
7
100
AcDbSpline
 70
8
 71
3
 72
8
 73
4
 74
0
 40
0
 40
0
 40
0
 40
0
 40
1
 40
1
 40
1
 40
1
 10
20.390911
 20
47.960132
 30
0.0
 10
20.390911
 20
48.237131
 30
0.0
 10
20.167683
 20
48.460360
 30
0.0
 10
19.890684
 20
48.460360
 30
0.0
  0
LINE
  5
18e
100
AcDbEntity
  8
0
 62
7
100
AcDbLine
 10
19.890684
 20
48.460360
 30
0.0
 11
18.219986
 21
48.460360
 31
0.0
  0
LINE
  5
18f
100
AcDbEntity
  8
0
 62
7
100
AcDbLine
 10
18.219986
 20
48.460360
 30
0.0
 11
14.541144
 21
48.460360
 31
0.0
  0
SPLINE
  5
190
100
AcDbEntity
  8
0
 62
7
100
AcDbSpline
 70
8
 71
3
 72
8
 73
4
 74
0
 40
0
 40
0
 40
0
 40
0
 40
1
 40
1
 40
1
 40
1
 10
14.541144
 20
48.460360
 30
0.0
 10
14.264145
 20
48.460360
 30
0.0
 10
14.040917
 20
48.683588
 30
0.0
 10
14.040917
 20
48.960587
 30
0.0
  0
LINE
  5
191
100
AcDbEntity
  8
0
 62
7
100
AcDbLine
 10
14.040917
 20
48.960587
 30
0.0
 11
14.040917
 21
55.310065
 31
0.0
  0
SPLINE
  5
192
100
AcDbEntity
  8
0
 62
7
100
AcDbSpline
 70
8
 71
3
 72
8
 73
4
 74
0
 40
0
 40
0
 40
0
 40
0
 40
1
 40
1
 40
1
 40
1
 10
14.040917
 20
55.310065
 30
0.0
 10
14.040917
 20
55.587066
 30
0.0
 10
14.264145
 20
55.810292
 30
0.0
 10
14.541144
 20
55.810292
 30
0.0
  0
LINE
  5
193
100
AcDbEntity
  8
0
 62
7
100
AcDbLine
 10
14.541144
 20
55.810292
 30
0.0
 11
18.219986
 21
55.810292
 31
0.0
  0
LINE
  5
194
100
AcDbEntity
  8
0
 62
7
100
AcDbLine
 10
18.219986
 20
55.810292
 30
0.0
 11
19.890684
 21
55.810292
 31
0.0
  0
SPLINE
  5
195
100
AcDbEntity
  8
0
 62
7
100
AcDbSpline
 70
8
 71
3
 72
8
 73
4
 74
0
 40
0
 40
0
 40
0
 40
0
 40
1
 40
1
 40
1
 40
1
 10
19.890684
 20
55.810292
 30
0.0
 10
20.167683
 20
55.810292
 30
0.0
 10
20.390911
 20
56.033520
 30
0.0
 10
20.390911
 20
56.310520
 30
0.0
  0
LINE
  5
196
100
AcDbEntity
  8
0
 62
7
100
AcDbLine
 10
20.390911
 20
56.310520
 30
0.0
 11
20.390911
 21
57.425179
 31
0.0
  0
LINE
  5
197
100
AcDbEntity
  8
0
 62
7
100
AcDbLine
 10
20.390911
 20
57.425179
 30
0.0
 11
20.390911
 21
61.660059
 31
0.0
  0
SPLINE
  5
198
100
AcDbEntity
  8
0
 62
7
100
AcDbSpline
 70
8
 71
3
 72
8
 73
4
 74
0
 40
0
 40
0
 40
0
 40
0
 40
1
 40
1
 40
1
 40
1
 10
20.390911
 20
61.660059
 30
0.0
 10
20.390911
 20
61.937061
 30
0.0
 10
20.614140
 20
62.160287
 30
0.0
 10
20.891139
 20
62.160287
 30
0.0
  0
LINE
  5
199
100
AcDbEntity
  8
0
 62
7
100
AcDbLine
 10
20.891139
 20
62.160287
 30
0.0
 11
29.390870
 21
62.160287
 31
0.0
  0
SPLINE
  5
19a
100
AcDbEntity
  8
0
 62
7
100
AcDbSpline
 70
8
 71
3
 72
8
 73
4
 74
0
 40
0
 40
0
 40
0
 40
0
 40
1
 40
1
 40
1
 40
1
 10
29.390870
 20
62.160287
 30
0.0
 10
29.667870
 20
62.160287
 30
0.0
 10
29.891099
 20
61.937061
 30
0.0
 10
29.891099
 20
61.660059
 30
0.0
  0
LINE
  5
19b
100
AcDbEntity
  8
0
 62
7
100
AcDbLine
 10
29.891099
 20
61.660059
 30
0.0
 11
29.891099
 21
57.425179
 31
0.0
  0
LINE
  5
19c
100
AcDbEntity
  8
0
 62
7
100
AcDbLine
 10
29.891099
 20
57.425179
 30
0.0
 11
29.891099
 21
56.310520
 31
0.0
  0
SPLINE
  5
19d
100
AcDbEntity
  8
0
 62
7
100
AcDbSpline
 70
8
 71
3
 72
8
 73
4
 74
0
 40
0
 40
0
 40
0
 40
0
 40
1
 40
1
 40
1
 40
1
 10
29.891099
 20
56.310520
 30
0.0
 10
29.891099
 20
56.033520
 30
0.0
 10
30.114328
 20
55.810292
 30
0.0
 10
30.391325
 20
55.810292
 30
0.0
  0
LINE
  5
19e
100
AcDbEntity
  8
0
 62
7
100
AcDbLine
 10
30.391325
 20
55.810292
 30
0.0
 11
32.652685
 21
55.810292
 31
0.0
  0
LINE
  5
19f
100
AcDbEntity
  8
0
 62
7
100
AcDbLine
 10
32.652685
 20
55.810292
 30
0.0
 11
36.649854
 21
55.810292
 31
0.0
  0
LINE
  5
1a0
100
AcDbEntity
  8
0
 62
7
100
AcDbLine
 10
36.649854
 20
55.810292
 30
0.0
 11
36.649854
 21
63.502323
 31
0.0
  0
LINE
  5
1a1
100
AcDbEntity
  8
0
 62
7
100
AcDbLine
 10
36.649854
 20
63.502323
 30
0.0
 11
36.649854
 21
64.002550
 31
0.0
  0
LINE
  5
1a2
100
AcDbEntity
  8
0
 62
7
100
AcDbLine
 10
36.649854
 20
64.002550
 30
0.0
 11
14.000092
 21
64.002550
 31
0.0
  0
LINE
  5
1a3
100
AcDbEntity
  8
0
 62
7
100
AcDbLine
 10
14.000092
 20
64.002550
 30
0.0
 11
14.000092
 21
64.002550
 31
0.0
  0
SPLINE
  5
1a4
100
AcDbEntity
  8
0
 62
7
100
AcDbSpline
 70
8
 71
3
 72
8
 73
4
 74
0
 40
0
 40
0
 40
0
 40
0
 40
1
 40
1
 40
1
 40
1
 10
34.831361
 20
63.105448
 30
0.0
 10
35.438822
 20
63.105269
 30
0.0
 10
35.931140
 20
62.612719
 30
0.0
 10
35.931034
 20
62.005258
 30
0.0
  0
SPLINE
  5
1a5
100
AcDbEntity
  8
0
 62
7
100
AcDbSpline
 70
8
 71
3
 72
8
 73
4
 74
0
 40
0
 40
0
 40
0
 40
0
 40
1
 40
1
 40
1
 40
1
 10
35.931034
 20
62.005258
 30
0.0
 10
35.931140
 20
61.397797
 30
0.0
 10
35.438822
 20
60.905246
 30
0.0
 10
34.831361
 20
60.905068
 30
0.0
  0
SPLINE
  5
1a6
100
AcDbEntity
  8
0
 62
7
100
AcDbSpline
 70
8
 71
3
 72
8
 73
4
 74
0
 40
0
 40
0
 40
0
 40
0
 40
1
 40
1
 40
1
 40
1
 10
34.831361
 20
60.905068
 30
0.0
 10
34.223698
 20
60.904962
 30
0.0
 10
33.731065
 20
61.397596
 30
0.0
 10
33.731171
 20
62.005258
 30
0.0
  0
SPLINE
  5
1a7
100
AcDbEntity
  8
0
 62
7
100
AcDbSpline
 70
8
 71
3
 72
8
 73
4
 74
0
 40
0
 40
0
 40
0
 40
0
 40
1
 40
1
 40
1
 40
1
 10
33.731171
 20
62.005258
 30
0.0
 10
33.731065
 20
62.612920
 30
0.0
 10
34.223698
 20
63.105554
 30
0.0
 10
34.831361
 20
63.105448
 30
0.0
  0
LINE
  5
1a8
100
AcDbEntity
  8
0
 62
7
100
AcDbLine
 10
34.831361
 20
63.105448
 30
0.0
 11
34.831361
 21
63.105448
 31
0.0
  0
SPLINE
  5
1a9
100
AcDbEntity
  8
0
 62
7
100
AcDbSpline
 70
8
 71
3
 72
8
 73
4
 74
0
 40
0
 40
0
 40
0
 40
0
 40
1
 40
1
 40
1
 40
1
 10
12.606380
 20
61.200140
 30
0.0
 10
13.213639
 20
61.199961
 30
0.0
 10
13.705875
 20
60.707725
 30
0.0
 10
13.706054
 20
60.100466
 30
0.0
  0
SPLINE
  5
1aa
100
AcDbEntity
  8
0
 62
7
100
AcDbSpline
 70
8
 71
3
 72
8
 73
4
 74
0
 40
0
 40
0
 40
0
 40
0
 40
1
 40
1
 40
1
 40
1
 10
13.706054
 20
60.100466
 30
0.0
 10
13.706160
 20
59.493006
 30
0.0
 10
13.213841
 20
59.000455
 30
0.0
 10
12.606380
 20
59.000276
 30
0.0
  0
SPLINE
  5
1ab
100
AcDbEntity
  8
0
 62
7
100
AcDbSpline
 70
8
 71
3
 72
8
 73
4
 74
0
 40
0
 40
0
 40
0
 40
0
 40
1
 40
1
 40
1
 40
1
 10
12.606380
 20
59.000276
 30
0.0
 10
11.998718
 20
59.000169
 30
0.0
 10
11.506083
 20
59.492804
 30
0.0
 10
11.506190
 20
60.100466
 30
0.0
  0
SPLINE
  5
1ac
100
AcDbEntity
  8
0
 62
7
100
AcDbSpline
 70
8
 71
3
 72
8
 73
4
 74
0
 40
0
 40
0
 40
0
 40
0
 40
1
 40
1
 40
1
 40
1
 10
11.506190
 20
60.100466
 30
0.0
 10
11.506369
 20
60.707927
 30
0.0
 10
11.998920
 20
61.200246
 30
0.0
 10
12.606380
 20
61.200140
 30
0.0
  0
LINE
  5
1ad
100
AcDbEntity
  8
0
 62
7
100
AcDbLine
 10
12.606380
 20
61.200140
 30
0.0
 11
12.606380
 21
61.200140
 31
0.0
  0
SPLINE
  5
1ae
100
AcDbEntity
  8
0
 62
7
100
AcDbSpline
 70
8
 71
3
 72
8
 73
4
 74
0
 40
0
 40
0
 40
0
 40
0
 40
1
 40
1
 40
1
 40
1
 10
12.606380
 20
15.480487
 30
0.0
 10
13.213841
 20
15.480307
 30
0.0
 10
13.706160
 20
14.987759
 30
0.0
 10
13.706054
 20
14.380298
 30
0.0
  0
SPLINE
  5
1af
100
AcDbEntity
  8
0
 62
7
100
AcDbSpline
 70
8
 71
3
 72
8
 73
4
 74
0
 40
0
 40
0
 40
0
 40
0
 40
1
 40
1
 40
1
 40
1
 10
13.706054
 20
14.380298
 30
0.0
 10
13.705875
 20
13.773040
 30
0.0
 10
13.213639
 20
13.280804
 30
0.0
 10
12.606380
 20
13.280624
 30
0.0
  0
SPLINE
  5
1b0
100
AcDbEntity
  8
0
 62
7
100
AcDbSpline
 70
8
 71
3
 72
8
 73
4
 74
0
 40
0
 40
0
 40
0
 40
0
 40
1
 40
1
 40
1
 40
1
 10
12.606380
 20
13.280624
 30
0.0
 10
11.998920
 20
13.280518
 30
0.0
 10
11.506369
 20
13.772836
 30
0.0
 10
11.506190
 20
14.380298
 30
0.0
  0
SPLINE
  5
1b1
100
AcDbEntity
  8
0
 62
7
100
AcDbSpline
 70
8
 71
3
 72
8
 73
4
 74
0
 40
0
 40
0
 40
0
 40
0
 40
1
 40
1
 40
1
 40
1
 10
11.506190
 20
14.380298
 30
0.0
 10
11.506084
 20
14.987960
 30
0.0
 10
11.998718
 20
15.480593
 30
0.0
 10
12.606380
 20
15.480487
 30
0.0
  0
LINE
  5
1b2
100
AcDbEntity
  8
0
 62
7
100
AcDbLine
 10
12.606380
 20
15.480487
 30
0.0
 11
12.606380
 21
15.480487
 31
0.0
  0
SPLINE
  5
1b3
100
AcDbEntity
  8
0
 62
7
100
AcDbSpline
 70
8
 71
3
 72
8
 73
4
 74
0
 40
0
 40
0
 40
0
 40
0
 40
1
 40
1
 40
1
 40
1
 10
17.229867
 20
35.211050
 30
0.0
 10
16.952868
 20
35.211050
 30
0.0
 10
16.729639
 20
34.988338
 30
0.0
 10
16.729639
 20
34.711340
 30
0.0
  0
LINE
  5
1b4
100
AcDbEntity
  8
0
 62
7
100
AcDbLine
 10
16.729639
 20
34.711340
 30
0.0
 11
16.729639
 21
33.775481
 31
0.0
  0
LINE
  5
1b5
100
AcDbEntity
  8
0
 62
7
100
AcDbLine
 10
16.729639
 20
33.775481
 30
0.0
 11
16.729639
 21
30.083202
 31
0.0
  0
LINE
  5
1b6
100
AcDbEntity
  8
0
 62
7
100
AcDbLine
 10
16.729639
 20
30.083202
 30
0.0
 11
20.373342
 21
30.083202
 31
0.0
  0
LINE
  5
1b7
100
AcDbEntity
  8
0
 62
7
100
AcDbLine
 10
20.373342
 20
30.083202
 30
0.0
 11
20.373342
 21
30.582912
 31
0.0
  0
LINE
  5
1b8
100
AcDbEntity
  8
0
 62
7
100
AcDbLine
 10
20.373342
 20
30.582912
 30
0.0
 11
20.373342
 21
35.211050
 31
0.0
  0
LINE
  5
1b9
100
AcDbEntity
  8
0
 62
7
100
AcDbLine
 10
20.373342
 20
35.211050
 30
0.0
 11
17.902177
 21
35.211050
 31
0.0
  0
LINE
  5
1ba
100
AcDbEntity
  8
0
 62
7
100
AcDbLine
 10
17.902177
 20
35.211050
 30
0.0
 11
17.229867
 21
35.211050
 31
0.0
  0
LINE
  5
1bb
100
AcDbEntity
  8
0
 62
7
100
AcDbLine
 10
17.229867
 20
35.211050
 30
0.0
 11
17.229867
 21
35.211050
 31
0.0
  0
SPLINE
  5
1bc
100
AcDbEntity
  8
0
 62
7
100
AcDbSpline
 70
8
 71
3
 72
8
 73
4
 74
0
 40
0
 40
0
 40
0
 40
0
 40
1
 40
1
 40
1
 40
1
 10
18.554849
 20
33.655590
 30
0.0
 10
19.162108
 20
33.655411
 30
0.0
 10
19.654344
 20
33.163175
 30
0.0
 10
19.654523
 20
32.555917
 30
0.0
  0
SPLINE
  5
1bd
100
AcDbEntity
  8
0
 62
7
100
AcDbSpline
 70
8
 71
3
 72
8
 73
4
 74
0
 40
0
 40
0
 40
0
 40
0
 40
1
 40
1
 40
1
 40
1
 10
19.654523
 20
32.555917
 30
0.0
 10
19.654629
 20
31.948456
 30
0.0
 10
19.162310
 20
31.455906
 30
0.0
 10
18.554849
 20
31.455727
 30
0.0
  0
SPLINE
  5
1be
100
AcDbEntity
  8
0
 62
7
100
AcDbSpline
 70
8
 71
3
 72
8
 73
4
 74
0
 40
0
 40
0
 40
0
 40
0
 40
1
 40
1
 40
1
 40
1
 10
18.554849
 20
31.455727
 30
0.0
 10
18.263045
 20
31.455676
 30
0.0
 10
17.983178
 20
31.571572
 30
0.0
 10
17.776841
 20
31.777908
 30
0.0
  0
SPLINE
  5
1bf
100
AcDbEntity
  8
0
 62
7
100
AcDbSpline
 70
8
 71
3
 72
8
 73
4
 74
0
 40
0
 40
0
 40
0
 40
0
 40
1
 40
1
 40
1
 40
1
 10
17.776841
 20
31.777908
 30
0.0
 10
17.570504
 20
31.984245
 30
0.0
 10
17.454608
 20
32.264112
 30
0.0
 10
17.454659
 20
32.555917
 30
0.0
  0
SPLINE
  5
1c0
100
AcDbEntity
  8
0
 62
7
100
AcDbSpline
 70
8
 71
3
 72
8
 73
4
 74
0
 40
0
 40
0
 40
0
 40
0
 40
1
 40
1
 40
1
 40
1
 10
17.454659
 20
32.555917
 30
0.0
 10
17.454838
 20
33.163377
 30
0.0
 10
17.947389
 20
33.655697
 30
0.0
 10
18.554849
 20
33.655590
 30
0.0
  0
LINE
  5
1c1
100
AcDbEntity
  8
0
 62
7
100
AcDbLine
 10
18.554849
 20
33.655590
 30
0.0
 11
18.554849
 21
33.655590
 31
0.0
  0
SPLINE
  5
1c2
100
AcDbEntity
  8
0
 62
7
100
AcDbSpline
 70
8
 71
3
 72
8
 73
4
 74
0
 40
0
 40
0
 40
0
 40
0
 40
1
 40
1
 40
1
 40
1
 10
22.526862
 20
29.702122
 30
0.0
 10
22.195565
 20
29.701993
 30
0.0
 10
21.927028
 20
29.433456
 30
0.0
 10
21.926899
 20
29.102159
 30
0.0
  0
LINE
  5
1c3
100
AcDbEntity
  8
0
 62
7
100
AcDbLine
 10
21.926899
 20
29.102159
 30
0.0
 11
21.926899
 21
23.352126
 31
0.0
  0
LINE
  5
1c4
100
AcDbEntity
  8
0
 62
7
100
AcDbLine
 10
21.926899
 20
23.352126
 30
0.0
 11
16.176866
 21
23.352126
 31
0.0
  0
SPLINE
  5
1c5
100
AcDbEntity
  8
0
 62
7
100
AcDbSpline
 70
8
 71
3
 72
8
 73
4
 74
0
 40
0
 40
0
 40
0
 40
0
 40
1
 40
1
 40
1
 40
1
 10
16.176866
 20
23.352126
 30
0.0
 10
15.845569
 20
23.351997
 30
0.0
 10
15.577032
 20
23.083460
 30
0.0
 10
15.576903
 20
22.752163
 30
0.0
  0
LINE
  5
1c6
100
AcDbEntity
  8
0
 62
7
100
AcDbLine
 10
15.576903
 20
22.752163
 30
0.0
 11
15.576903
 21
16.952521
 31
0.0
  0
SPLINE
  5
1c7
100
AcDbEntity
  8
0
 62
7
100
AcDbSpline
 70
8
 71
3
 72
8
 73
4
 74
0
 40
0
 40
0
 40
0
 40
0
 40
1
 40
1
 40
1
 40
1
 10
15.576903
 20
16.952521
 30
0.0
 10
15.577032
 20
16.621224
 30
0.0
 10
15.845569
 20
16.352687
 30
0.0
 10
16.176866
 20
16.352558
 30
0.0
  0
LINE
  5
1c8
100
AcDbEntity
  8
0
 62
7
100
AcDbLine
 10
16.176866
 20
16.352558
 30
0.0
 11
21.926899
 21
16.352558
 31
0.0
  0
LINE
  5
1c9
100
AcDbEntity
  8
0
 62
7
100
AcDbLine
 10
21.926899
 20
16.352558
 30
0.0
 11
21.926899
 21
10.602526
 31
0.0
  0
SPLINE
  5
1ca
100
AcDbEntity
  8
0
 62
7
100
AcDbSpline
 70
8
 71
3
 72
8
 73
4
 74
0
 40
0
 40
0
 40
0
 40
0
 40
1
 40
1
 40
1
 40
1
 10
21.926899
 20
10.602526
 30
0.0
 10
21.927028
 20
10.271229
 30
0.0
 10
22.195565
 20
10.002692
 30
0.0
 10
22.526862
 20
10.002563
 30
0.0
  0
LINE
  5
1cb
100
AcDbEntity
  8
0
 62
7
100
AcDbLine
 10
22.526862
 20
10.002563
 30
0.0
 11
28.926984
 21
10.002563
 31
0.0
  0
SPLINE
  5
1cc
100
AcDbEntity
  8
0
 62
7
100
AcDbSpline
 70
8
 71
3
 72
8
 73
4
 74
0
 40
0
 40
0
 40
0
 40
0
 40
1
 40
1
 40
1
 40
1
 10
28.926984
 20
10.002563
 30
0.0
 10
29.258281
 20
10.002692
 30
0.0
 10
29.526818
 20
10.271229
 30
0.0
 10
29.526947
 20
10.602526
 30
0.0
  0
LINE
  5
1cd
100
AcDbEntity
  8
0
 62
7
100
AcDbLine
 10
29.526947
 20
10.602526
 30
0.0
 11
29.526947
 21
16.352558
 31
0.0
  0
LINE
  5
1ce
100
AcDbEntity
  8
0
 62
7
100
AcDbLine
 10
29.526947
 20
16.352558
 30
0.0
 11
35.276979
 21
16.352558
 31
0.0
  0
SPLINE
  5
1cf
100
AcDbEntity
  8
0
 62
7
100
AcDbSpline
 70
8
 71
3
 72
8
 73
4
 74
0
 40
0
 40
0
 40
0
 40
0
 40
1
 40
1
 40
1
 40
1
 10
35.276979
 20
16.352558
 30
0.0
 10
35.608276
 20
16.352687
 30
0.0
 10
35.876813
 20
16.621224
 30
0.0
 10
35.876942
 20
16.952521
 30
0.0
  0
LINE
  5
1d0
100
AcDbEntity
  8
0
 62
7
100
AcDbLine
 10
35.876942
 20
16.952521
 30
0.0
 11
35.876942
 21
22.752163
 31
0.0
  0
SPLINE
  5
1d1
100
AcDbEntity
  8
0
 62
7
100
AcDbSpline
 70
8
 71
3
 72
8
 73
4
 74
0
 40
0
 40
0
 40
0
 40
0
 40
1
 40
1
 40
1
 40
1
 10
35.876942
 20
22.752163
 30
0.0
 10
35.876813
 20
23.083460
 30
0.0
 10
35.608276
 20
23.351997
 30
0.0
 10
35.276979
 20
23.352126
 30
0.0
  0
LINE
  5
1d2
100
AcDbEntity
  8
0
 62
7
100
AcDbLine
 10
35.276979
 20
23.352126
 30
0.0
 11
29.526947
 21
23.352126
 31
0.0
  0
LINE
  5
1d3
100
AcDbEntity
  8
0
 62
7
100
AcDbLine
 10
29.526947
 20
23.352126
 30
0.0
 11
29.526947
 21
29.102159
 31
0.0
  0
SPLINE
  5
1d4
100
AcDbEntity
  8
0
 62
7
100
AcDbSpline
 70
8
 71
3
 72
8
 73
4
 74
0
 40
0
 40
0
 40
0
 40
0
 40
1
 40
1
 40
1
 40
1
 10
29.526947
 20
29.102159
 30
0.0
 10
29.526818
 20
29.433456
 30
0.0
 10
29.258281
 20
29.701993
 30
0.0
 10
28.926984
 20
29.702122
 30
0.0
  0
LINE
  5
1d5
100
AcDbEntity
  8
0
 62
7
100
AcDbLine
 10
28.926984
 20
29.702122
 30
0.0
 11
22.526862
 21
29.702122
 31
0.0
  0
SPLINE
  5
1d6
100
AcDbEntity
  8
0
 62
1
100
AcDbSpline
 70
8
 71
3
 72
8
 73
4
 74
0
 40
0
 40
0
 40
0
 40
0
 40
1
 40
1
 40
1
 40
1
 10
55.522142
 20
40.618527
 30
0.0
 10
53.292208
 20
40.618527
 30
0.0
 10
51.281848
 20
39.275250
 30
0.0
 10
50.428490
 20
37.215065
 30
0.0
  0
SPLINE
  5
1d7
100
AcDbEntity
  8
0
 62
1
100
AcDbSpline
 70
8
 71
3
 72
8
 73
4
 74
0
 40
0
 40
0
 40
0
 40
0
 40
1
 40
1
 40
1
 40
1
 10
50.428490
 20
37.215065
 30
0.0
 10
49.575131
 20
35.154880
 30
0.0
 10
50.046828
 20
32.783504
 30
0.0
 10
51.623629
 20
31.206707
 30
0.0
  0
SPLINE
  5
1d8
100
AcDbEntity
  8
0
 62
1
100
AcDbSpline
 70
8
 71
3
 72
8
 73
4
 74
0
 40
0
 40
0
 40
0
 40
0
 40
1
 40
1
 40
1
 40
1
 10
51.623629
 20
31.206707
 30
0.0
 10
53.200430
 20
29.629909
 30
0.0
 10
55.571811
 20
29.158213
 30
0.0
 10
57.632001
 20
30.011570
 30
0.0
  0
SPLINE
  5
1d9
100
AcDbEntity
  8
0
 62
1
100
AcDbSpline
 70
8
 71
3
 72
8
 73
4
 74
0
 40
0
 40
0
 40
0
 40
0
 40
1
 40
1
 40
1
 40
1
 10
57.632001
 20
30.011570
 30
0.0
 10
59.692191
 20
30.864927
 30
0.0
 10
61.035471
 20
32.875282
 30
0.0
 10
61.035471
 20
35.105210
 30
0.0
  0
SPLINE
  5
1da
100
AcDbEntity
  8
0
 62
1
100
AcDbSpline
 70
8
 71
3
 72
8
 73
4
 74
0
 40
0
 40
0
 40
0
 40
0
 40
1
 40
1
 40
1
 40
1
 10
61.035471
 20
35.105210
 30
0.0
 10
61.035471
 20
36.567433
 30
0.0
 10
60.454604
 20
37.969766
 30
0.0
 10
59.420654
 20
39.003714
 30
0.0
  0
SPLINE
  5
1db
100
AcDbEntity
  8
0
 62
1
100
AcDbSpline
 70
8
 71
3
 72
8
 73
4
 74
0
 40
0
 40
0
 40
0
 40
0
 40
1
 40
1
 40
1
 40
1
 10
59.420654
 20
39.003714
 30
0.0
 10
58.386704
 20
40.037661
 30
0.0
 10
56.984367
 20
40.618527
 30
0.0
 10
55.522142
 20
40.618527
 30
0.0
  0
LINE
  5
1dc
100
AcDbEntity
  8
0
 62
1
100
AcDbLine
 10
55.522142
 20
40.618527
 30
0.0
 11
55.522142
 21
40.618527
 31
0.0
  0
SPLINE
  5
1dd
100
AcDbEntity
  8
0
 62
1
100
AcDbSpline
 70
8
 71
3
 72
8
 73
4
 74
0
 40
0
 40
0
 40
0
 40
0
 40
1
 40
1
 40
1
 40
1
 10
33.403612
 20
49.587862
 30
0.0
 10
31.173679
 20
49.587862
 30
0.0
 10
29.163319
 20
48.244586
 30
0.0
 10
28.309960
 20
46.184401
 30
0.0
  0
SPLINE
  5
1de
100
AcDbEntity
  8
0
 62
1
100
AcDbSpline
 70
8
 71
3
 72
8
 73
4
 74
0
 40
0
 40
0
 40
0
 40
0
 40
1
 40
1
 40
1
 40
1
 10
28.309960
 20
46.184401
 30
0.0
 10
27.456602
 20
44.124216
 30
0.0
 10
27.928299
 20
41.752840
 30
0.0
 10
29.505100
 20
40.176042
 30
0.0
  0
SPLINE
  5
1df
100
AcDbEntity
  8
0
 62
1
100
AcDbSpline
 70
8
 71
3
 72
8
 73
4
 74
0
 40
0
 40
0
 40
0
 40
0
 40
1
 40
1
 40
1
 40
1
 10
29.505100
 20
40.176042
 30
0.0
 10
31.081901
 20
38.599245
 30
0.0
 10
33.453282
 20
38.127549
 30
0.0
 10
35.513472
 20
38.980906
 30
0.0
  0
SPLINE
  5
1e0
100
AcDbEntity
  8
0
 62
1
100
AcDbSpline
 70
8
 71
3
 72
8
 73
4
 74
0
 40
0
 40
0
 40
0
 40
0
 40
1
 40
1
 40
1
 40
1
 10
35.513472
 20
38.980906
 30
0.0
 10
37.573662
 20
39.834262
 30
0.0
 10
38.916942
 20
41.844618
 30
0.0
 10
38.916942
 20
44.074546
 30
0.0
  0
SPLINE
  5
1e1
100
AcDbEntity
  8
0
 62
1
100
AcDbSpline
 70
8
 71
3
 72
8
 73
4
 74
0
 40
0
 40
0
 40
0
 40
0
 40
1
 40
1
 40
1
 40
1
 10
38.916942
 20
44.074546
 30
0.0
 10
38.916942
 20
45.536768
 30
0.0
 10
38.336075
 20
46.939102
 30
0.0
 10
37.302125
 20
47.973049
 30
0.0
  0
SPLINE
  5
1e2
100
AcDbEntity
  8
0
 62
1
100
AcDbSpline
 70
8
 71
3
 72
8
 73
4
 74
0
 40
0
 40
0
 40
0
 40
0
 40
1
 40
1
 40
1
 40
1
 10
37.302125
 20
47.973049
 30
0.0
 10
36.268175
 20
49.006997
 30
0.0
 10
34.865838
 20
49.587862
 30
0.0
 10
33.403612
 20
49.587862
 30
0.0
  0
LINE
  5
1e3
100
AcDbEntity
  8
0
 62
1
100
AcDbLine
 10
33.403612
 20
49.587862
 30
0.0
 11
33.403612
 21
49.587862
 31
0.0
  0
SPLINE
  5
1e4
100
AcDbEntity
  8
0
 62
1
100
AcDbSpline
 70
8
 71
3
 72
8
 73
4
 74
0
 40
0
 40
0
 40
0
 40
0
 40
1
 40
1
 40
1
 40
1
 10
46.357920
 20
21.303297
 30
0.0
 10
44.127987
 20
21.303297
 30
0.0
 10
42.117627
 20
19.960021
 30
0.0
 10
41.264268
 20
17.899835
 30
0.0
  0
SPLINE
  5
1e5
100
AcDbEntity
  8
0
 62
1
100
AcDbSpline
 70
8
 71
3
 72
8
 73
4
 74
0
 40
0
 40
0
 40
0
 40
0
 40
1
 40
1
 40
1
 40
1
 10
41.264268
 20
17.899835
 30
0.0
 10
40.410910
 20
15.839650
 30
0.0
 10
40.882607
 20
13.468274
 30
0.0
 10
42.459408
 20
11.891477
 30
0.0
  0
SPLINE
  5
1e6
100
AcDbEntity
  8
0
 62
1
100
AcDbSpline
 70
8
 71
3
 72
8
 73
4
 74
0
 40
0
 40
0
 40
0
 40
0
 40
1
 40
1
 40
1
 40
1
 10
42.459408
 20
11.891477
 30
0.0
 10
44.036209
 20
10.314679
 30
0.0
 10
46.407590
 20
9.842984
 30
0.0
 10
48.467780
 20
10.696340
 30
0.0
  0
SPLINE
  5
1e7
100
AcDbEntity
  8
0
 62
1
100
AcDbSpline
 70
8
 71
3
 72
8
 73
4
 74
0
 40
0
 40
0
 40
0
 40
0
 40
1
 40
1
 40
1
 40
1
 10
48.467780
 20
10.696340
 30
0.0
 10
50.527970
 20
11.549697
 30
0.0
 10
51.871249
 20
13.560052
 30
0.0
 10
51.871249
 20
15.789980
 30
0.0
  0
SPLINE
  5
1e8
100
AcDbEntity
  8
0
 62
1
100
AcDbSpline
 70
8
 71
3
 72
8
 73
4
 74
0
 40
0
 40
0
 40
0
 40
0
 40
1
 40
1
 40
1
 40
1
 10
51.871249
 20
15.789980
 30
0.0
 10
51.871249
 20
17.252203
 30
0.0
 10
51.290383
 20
18.654537
 30
0.0
 10
50.256433
 20
19.688484
 30
0.0
  0
SPLINE
  5
1e9
100
AcDbEntity
  8
0
 62
1
100
AcDbSpline
 70
8
 71
3
 72
8
 73
4
 74
0
 40
0
 40
0
 40
0
 40
0
 40
1
 40
1
 40
1
 40
1
 10
50.256433
 20
19.688484
 30
0.0
 10
49.222483
 20
20.722431
 30
0.0
 10
47.820146
 20
21.303297
 30
0.0
 10
46.357920
 20
21.303297
 30
0.0
  0
LINE
  5
1ea
100
AcDbEntity
  8
0
 62
1
100
AcDbLine
 10
46.357920
 20
21.303297
 30
0.0
 11
46.357920
 21
21.303297
 31
0.0
  0
LINE
  5
1eb
100
AcDbEntity
  8
0
 62
7
100
AcDbLine
 10
67.827316
 20
10.513535
 30
0.0
 11
67.827316
 21
63.778193
 31
0.0
  0
ENDSEC
  0
SECTION
  2
OBJECTS
  0
DICTIONARY
  5
C
330
0
100
AcDbDictionary
  3
ACAD_GROUP
350
D
  3
ACAD_MLINESTYLE
350
17
  0
DICTIONARY
  5
D
330
C
100
AcDbDictionary
  0
DICTIONARY
  5
1A
330
C
100
AcDbDictionary
  0
DICTIONARY
  5
17
330
C
100
AcDbDictionary
  3
STANDARD
350
18
  0
DICTIONARY
  5
19
330
C
100
AcDbDictionary
  0
ENDSEC
  0
EOF
