  0
SECTION
  2
HEADER
  9
$ACADVER
  1
AC1014
  9
$HANDSEED
  5
FFFF
  9
$MEASUREMENT
 70
     1
  0
ENDSEC
  0
SECTION
  2
TABLES
  0
TABLE
  2
VPORT
  5
8
330
0
100
AcDbSymbolTable
 70
     4
  0
VPORT
  5
2E
330
8
100
AcDbSymbolTableRecord
100
AcDbViewportTableRecord
  2
*ACTIVE
 70
     0
 10
0.0
 20
0.0
 11
1.0
 21
1.0
 12
210.0
 22
148.5
 13
0.0
 23
0.0
 14
10.0
 24
10.0
 15
10.0
 25
10.0
 16
0.0
 26
0.0
 36
1.0
 17
0.0
 27
0.0
 37
0.0
 40
341.0
 41
1.24
 42
50.0
 43
0.0
 44
0.0
 50
0.0
 51
0.0
 71
     0
 72
   100
 73
     1
 74
     3
 75
     0
 76
     0
 77
     0
 78
     0
  0
ENDTAB
  0
TABLE
  2
LTYPE
  5
5
330
0
100
AcDbSymbolTable
 70
     1
  0
LTYPE
  5
14
330
5
100
AcDbSymbolTableRecord
100
AcDbLinetypeTableRecord
  2
BYBLOCK
 70
     0
  3

 72
    65
 73
     0
 40
0.0
  0
LTYPE
  5
15
330
5
100
AcDbSymbolTableRecord
100
AcDbLinetypeTableRecord
  2
BYLAYER
 70
     0
  3

 72
    65
 73
     0
 40
0.0
  0
LTYPE
  5
16
330
5
100
AcDbSymbolTableRecord
100
AcDbLinetypeTableRecord
  2
CONTINUOUS
 70
     0
  3
Solid line
 72
    65
 73
     0
 40
0.0
  0
ENDTAB
  0
TABLE
  2
LAYER
  5
2
100
AcDbSymbolTable
 70
1
  0
LAYER
  5
50
100
AcDbSymbolTableRecord
100
AcDbLayerTableRecord
  2
0
 70
0
  6
CONTINUOUS
  0
ENDTAB
  0
TABLE
  2
STYLE
  5
3
330
0
100
AcDbSymbolTable
 70
     1
  0
STYLE
  5
11
330
3
100
AcDbSymbolTableRecord
100
AcDbTextStyleTableRecord
  2
STANDARD
 70
     0
 40
0.0
 41
1.0
 50
0.0
 71
     0
 42
2.5
  3
txt
  4

  0
ENDTAB
  0
TABLE
  2
VIEW
  5
6
330
0
100
AcDbSymbolTable
 70
     0
  0
ENDTAB
  0
TABLE
  2
UCS
  5
7
330
0
100
AcDbSymbolTable
 70
     0
  0
ENDTAB
  0
TABLE
  2
APPID
  5
9
330
0
100
AcDbSymbolTable
 70
     2
  0
APPID
  5
12
330
9
100
AcDbSymbolTableRecord
100
AcDbRegAppTableRecord
  2
ACAD
 70
     0
  0
ENDTAB
  0
TABLE
  2
DIMSTYLE
  5
A
330
0
100
AcDbSymbolTable
 70
     1
  0
DIMSTYLE
105
27
330
A
100
AcDbSymbolTableRecord
100
AcDbDimStyleTableRecord
  2
ISO-25
 70
     0
  3

  4

  5

  6

  7

 40
1.0
 41
2.5
 42
0.625
 43
3.75
 44
1.25
 45
0.0
 46
0.0
 47
0.0
 48
0.0
140
2.5
141
2.5
142
0.0
143
0.03937007874016
144
1.0
145
0.0
146
1.0
147
0.625
 71
     0
 72
     0
 73
     0
 74
     0
 75
     0
 76
     0
 77
     1
 78
     8
170
     0
171
     3
172
     1
173
     0
174
     0
175
     0
176
     0
177
     0
178
     0
270
     2
271
     2
272
     2
273
     2
274
     3
340
11
275
     0
280
     0
281
     0
282
     0
283
     0
284
     8
285
     0
286
     0
287
     3
288
     0
  0
ENDTAB
  0
TABLE
  2
BLOCK_RECORD
  5
1
330
0
100
AcDbSymbolTable
 70
     1
  0
BLOCK_RECORD
  5
1F
330
1
100
AcDbSymbolTableRecord
100
AcDbBlockTableRecord
  2
*MODEL_SPACE
  0
BLOCK_RECORD
  5
1B
330
1
100
AcDbSymbolTableRecord
100
AcDbBlockTableRecord
  2
*PAPER_SPACE
  0
ENDTAB
  0
ENDSEC
  0
SECTION
  2
BLOCKS
  0
BLOCK
  5
20
330
1F
100
AcDbEntity
  8
0
100
AcDbBlockBegin
  2
*MODEL_SPACE
 70
     0
 10
0.0
 20
0.0
 30
0.0
  3
*MODEL_SPACE
  1

  0
ENDBLK
  5
21
330
1F
100
AcDbEntity
  8
0
100
AcDbBlockEnd
  0
BLOCK
  5
1C
330
1B
100
AcDbEntity
 67
     1
  8
0
100
AcDbBlockBegin
  2
*PAPER_SPACE
  1

  0
ENDBLK
  5
1D
330
1B
100
AcDbEntity
 67
     1
  8
0
100
AcDbBlockEnd
  0
ENDSEC
  0
SECTION
  2
ENTITIES
  0
LINE
  5
100
100
AcDbEntity
  8
0
 62
7
100
AcDbLine
 10
40.582959
 20
64.002390
 30
0.0
 11
40.582959
 21
63.502162
 31
0.0
  0
LINE
  5
101
100
AcDbEntity
  8
0
 62
7
100
AcDbLine
 10
40.582959
 20
63.502162
 30
0.0
 11
40.582959
 21
48.684977
 31
0.0
  0
LINE
  5
102
100
AcDbEntity
  8
0
 62
7
100
AcDbLine
 10
40.582959
 20
48.684977
 30
0.0
 11
40.583312
 21
48.684977
 31
0.0
  0
LINE
  5
103
100
AcDbEntity
  8
0
 62
7
100
AcDbLine
 10
40.583312
 20
48.684977
 30
0.0
 11
40.583312
 21
50.095225
 31
0.0
  0
LINE
  5
104
100
AcDbEntity
  8
0
 62
7
100
AcDbLine
 10
40.583312
 20
50.095225
 30
0.0
 11
46.284259
 21
50.095225
 31
0.0
  0
SPLINE
  5
105
100
AcDbEntity
  8
0
 62
7
100
AcDbSpline
 70
8
 71
3
 72
8
 73
4
 74
0
 40
0
 40
0
 40
0
 40
0
 40
1
 40
1
 40
1
 40
1
 10
46.284259
 20
50.095225
 30
0.0
 10
46.285976
 20
50.095226
 30
0.0
 10
46.287693
 20
50.095226
 30
0.0
 10
46.289410
 20
50.095225
 30
0.0
  0
SPLINE
  5
106
100
AcDbEntity
  8
0
 62
7
100
AcDbSpline
 70
8
 71
3
 72
8
 73
4
 74
0
 40
0
 40
0
 40
0
 40
0
 40
1
 40
1
 40
1
 40
1
 10
46.289410
 20
50.095225
 30
0.0
 10
47.501242
 20
50.093422
 30
0.0
 10
48.656328
 20
49.581531
 30
0.0
 10
49.471647
 20
48.684977
 30
0.0
  0
LINE
  5
107
100
AcDbEntity
  8
0
 62
7
100
AcDbLine
 10
49.471647
 20
48.684977
 30
0.0
 11
51.039509
 21
48.684977
 31
0.0
  0
LINE
  5
108
100
AcDbEntity
  8
0
 62
7
100
AcDbLine
 10
51.039509
 20
48.684977
 30
0.0
 11
51.039509
 21
42.885330
 31
0.0
  0
SPLINE
  5
109
100
AcDbEntity
  8
0
 62
7
100
AcDbSpline
 70
8
 71
3
 72
8
 73
4
 74
0
 40
0
 40
0
 40
0
 40
0
 40
1
 40
1
 40
1
 40
1
 10
51.039509
 20
42.885330
 30
0.0
 10
51.039509
 20
42.885330
 30
0.0
 10
49.471647
 20
42.885330
 30
0.0
 10
49.471647
 20
42.885330
 30
0.0
  0
SPLINE
  5
10a
100
AcDbEntity
  8
0
 62
7
100
AcDbSpline
 70
8
 71
3
 72
8
 73
4
 74
0
 40
0
 40
0
 40
0
 40
0
 40
1
 40
1
 40
1
 40
1
 10
49.471647
 20
42.885330
 30
0.0
 10
48.656328
 20
41.988775
 30
0.0
 10
47.501242
 20
41.476885
 30
0.0
 10
46.289410
 20
41.475081
 30
0.0
  0
SPLINE
  5
10b
100
AcDbEntity
  8
0
 62
7
100
AcDbSpline
 70
8
 71
3
 72
8
 73
4
 74
0
 40
0
 40
0
 40
0
 40
0
 40
1
 40
1
 40
1
 40
1
 10
46.289410
 20
41.475081
 30
0.0
 10
46.287516
 20
41.475080
 30
0.0
 10
46.285623
 20
41.475080
 30
0.0
 10
46.283730
 20
41.475081
 30
0.0
  0
LINE
  5
10c
100
AcDbEntity
  8
0
 62
7
100
AcDbLine
 10
46.283730
 20
41.475081
 30
0.0
 11
44.664704
 21
41.475081
 31
0.0
  0
LINE
  5
10d
100
AcDbEntity
  8
0
 62
7
100
AcDbLine
 10
44.664704
 20
41.475081
 30
0.0
 11
44.664704
 21
32.095292
 31
0.0
  0
LINE
  5
10e
100
AcDbEntity
  8
0
 62
7
100
AcDbLine
 10
44.664704
 20
32.095292
 30
0.0
 11
40.583294
 21
32.095292
 31
0.0
  0
LINE
  5
10f
100
AcDbEntity
  8
0
 62
7
100
AcDbLine
 10
40.583294
 20
32.095292
 30
0.0
 11
40.583294
 21
42.885330
 31
0.0
  0
LINE
  5
110
100
AcDbEntity
  8
0
 62
7
100
AcDbLine
 10
40.583294
 20
42.885330
 30
0.0
 11
40.582941
 21
42.885330
 31
0.0
  0
LINE
  5
111
100
AcDbEntity
  8
0
 62
7
100
AcDbLine
 10
40.582941
 20
42.885330
 30
0.0
 11
40.582941
 21
10.502294
 31
0.0
  0
LINE
  5
112
100
AcDbEntity
  8
0
 62
7
100
AcDbLine
 10
40.582941
 20
10.502294
 30
0.0
 11
40.582941
 21
10.002581
 31
0.0
  0
LINE
  5
113
100
AcDbEntity
  8
0
 62
7
100
AcDbLine
 10
40.582941
 20
10.002581
 30
0.0
 11
46.134544
 21
10.002581
 31
0.0
  0
LINE
  5
114
100
AcDbEntity
  8
0
 62
7
100
AcDbLine
 10
46.134544
 20
10.002581
 30
0.0
 11
46.134544
 21
15.130435
 31
0.0
  0
LINE
  5
115
100
AcDbEntity
  8
0
 62
7
100
AcDbLine
 10
46.134544
 20
15.130435
 30
0.0
 11
55.434751
 21
15.130435
 31
0.0
  0
LINE
  5
116
100
AcDbEntity
  8
0
 62
7
100
AcDbLine
 10
55.434751
 20
15.130435
 30
0.0
 11
55.434751
 21
10.002581
 31
0.0
  0
LINE
  5
117
100
AcDbEntity
  8
0
 62
7
100
AcDbLine
 10
55.434751
 20
10.002581
 30
0.0
 11
57.333345
 21
10.002581
 31
0.0
  0
SPLINE
  5
118
100
AcDbEntity
  8
0
 62
7
100
AcDbSpline
 70
8
 71
3
 72
8
 73
4
 74
0
 40
0
 40
0
 40
0
 40
0
 40
1
 40
1
 40
1
 40
1
 10
57.333345
 20
10.002581
 30
0.0
 10
59.549340
 20
10.002581
 30
0.0
 10
61.333098
 20
11.786336
 30
0.0
 10
61.333098
 20
14.002338
 30
0.0
  0
LINE
  5
119
100
AcDbEntity
  8
0
 62
7
100
AcDbLine
 10
61.333098
 20
14.002338
 30
0.0
 11
61.333098
 21
60.002633
 31
0.0
  0
SPLINE
  5
11a
100
AcDbEntity
  8
0
 62
7
100
AcDbSpline
 70
8
 71
3
 72
8
 73
4
 74
0
 40
0
 40
0
 40
0
 40
0
 40
1
 40
1
 40
1
 40
1
 10
61.333098
 20
60.002633
 30
0.0
 10
61.332925
 20
62.218638
 30
0.0
 10
59.549209
 20
64.002390
 30
0.0
 10
57.333345
 20
64.002390
 30
0.0
  0
LINE
  5
11b
100
AcDbEntity
  8
0
 62
7
100
AcDbLine
 10
57.333345
 20
64.002390
 30
0.0
 11
40.582959
 21
64.002390
 31
0.0
  0
SPLINE
  5
11c
100
AcDbEntity
  8
0
 62
7
100
AcDbSpline
 70
8
 71
3
 72
8
 73
4
 74
0
 40
0
 40
0
 40
0
 40
0
 40
1
 40
1
 40
1
 40
1
 10
42.644335
 20
63.105288
 30
0.0
 10
42.936139
 20
63.105338
 30
0.0
 10
43.216007
 20
62.989441
 30
0.0
 10
43.422343
 20
62.783104
 30
0.0
  0
SPLINE
  5
11d
100
AcDbEntity
  8
0
 62
7
100
AcDbSpline
 70
8
 71
3
 72
8
 73
4
 74
0
 40
0
 40
0
 40
0
 40
0
 40
1
 40
1
 40
1
 40
1
 10
43.422343
 20
62.783104
 30
0.0
 10
43.628680
 20
62.576767
 30
0.0
 10
43.744575
 20
62.296900
 30
0.0
 10
43.744524
 20
62.005095
 30
0.0
  0
SPLINE
  5
11e
100
AcDbEntity
  8
0
 62
7
100
AcDbSpline
 70
8
 71
3
 72
8
 73
4
 74
0
 40
0
 40
0
 40
0
 40
0
 40
1
 40
1
 40
1
 40
1
 10
43.744524
 20
62.005095
 30
0.0
 10
43.744575
 20
61.713291
 30
0.0
 10
43.628680
 20
61.433423
 30
0.0
 10
43.422343
 20
61.227086
 30
0.0
  0
SPLINE
  5
11f
100
AcDbEntity
  8
0
 62
7
100
AcDbSpline
 70
8
 71
3
 72
8
 73
4
 74
0
 40
0
 40
0
 40
0
 40
0
 40
1
 40
1
 40
1
 40
1
 10
43.422343
 20
61.227086
 30
0.0
 10
43.216007
 20
61.020749
 30
0.0
 10
42.936139
 20
60.904852
 30
0.0
 10
42.644335
 20
60.904903
 30
0.0
  0
SPLINE
  5
120
100
AcDbEntity
  8
0
 62
7
100
AcDbSpline
 70
8
 71
3
 72
8
 73
4
 74
0
 40
0
 40
0
 40
0
 40
0
 40
1
 40
1
 40
1
 40
1
 10
42.644335
 20
60.904903
 30
0.0
 10
42.036874
 20
60.905082
 30
0.0
 10
41.544554
 20
61.397634
 30
0.0
 10
41.544661
 20
62.005095
 30
0.0
  0
SPLINE
  5
121
100
AcDbEntity
  8
0
 62
7
100
AcDbSpline
 70
8
 71
3
 72
8
 73
4
 74
0
 40
0
 40
0
 40
0
 40
0
 40
1
 40
1
 40
1
 40
1
 10
41.544661
 20
62.005095
 30
0.0
 10
41.544554
 20
62.612557
 30
0.0
 10
42.036874
 20
63.105108
 30
0.0
 10
42.644335
 20
63.105288
 30
0.0
  0
LINE
  5
122
100
AcDbEntity
  8
0
 62
7
100
AcDbLine
 10
42.644335
 20
63.105288
 30
0.0
 11
42.644335
 21
63.105288
 31
0.0
  0
SPLINE
  5
123
100
AcDbEntity
  8
0
 62
7
100
AcDbSpline
 70
8
 71
3
 72
8
 73
4
 74
0
 40
0
 40
0
 40
0
 40
0
 40
1
 40
1
 40
1
 40
1
 10
52.639587
 20
62.160123
 30
0.0
 10
53.851420
 20
62.158320
 30
0.0
 10
55.006505
 20
61.646429
 30
0.0
 10
55.821825
 20
60.749875
 30
0.0
  0
LINE
  5
124
100
AcDbEntity
  8
0
 62
7
100
AcDbLine
 10
55.821825
 20
60.749875
 30
0.0
 11
57.389687
 21
60.749875
 31
0.0
  0
LINE
  5
125
100
AcDbEntity
  8
0
 62
7
100
AcDbLine
 10
57.389687
 20
60.749875
 30
0.0
 11
57.389687
 21
54.950227
 31
0.0
  0
LINE
  5
126
100
AcDbEntity
  8
0
 62
7
100
AcDbLine
 10
57.389687
 20
54.950227
 30
0.0
 11
55.820791
 21
54.950227
 31
0.0
  0
SPLINE
  5
127
100
AcDbEntity
  8
0
 62
7
100
AcDbSpline
 70
8
 71
3
 72
8
 73
4
 74
0
 40
0
 40
0
 40
0
 40
0
 40
1
 40
1
 40
1
 40
1
 10
55.820791
 20
54.950227
 30
0.0
 10
55.005714
 20
54.053938
 30
0.0
 10
53.851059
 20
53.542072
 30
0.0
 10
52.639587
 20
53.539979
 30
0.0
  0
SPLINE
  5
128
100
AcDbEntity
  8
0
 62
7
100
AcDbSpline
 70
8
 71
3
 72
8
 73
4
 74
0
 40
0
 40
0
 40
0
 40
0
 40
1
 40
1
 40
1
 40
1
 10
52.639587
 20
53.539979
 30
0.0
 10
51.427756
 20
53.541783
 30
0.0
 10
50.272671
 20
54.053673
 30
0.0
 10
49.457353
 20
54.950227
 30
0.0
  0
LINE
  5
129
100
AcDbEntity
  8
0
 62
7
100
AcDbLine
 10
49.457353
 20
54.950227
 30
0.0
 11
47.890009
 21
54.950227
 31
0.0
  0
LINE
  5
12a
100
AcDbEntity
  8
0
 62
7
100
AcDbLine
 10
47.890009
 20
54.950227
 30
0.0
 11
47.890009
 21
60.749875
 31
0.0
  0
LINE
  5
12b
100
AcDbEntity
  8
0
 62
7
100
AcDbLine
 10
47.890009
 20
60.749875
 30
0.0
 11
49.457871
 21
60.749875
 31
0.0
  0
SPLINE
  5
12c
100
AcDbEntity
  8
0
 62
7
100
AcDbSpline
 70
8
 71
3
 72
8
 73
4
 74
0
 40
0
 40
0
 40
0
 40
0
 40
1
 40
1
 40
1
 40
1
 10
49.457871
 20
60.749875
 30
0.0
 10
50.273068
 20
61.646295
 30
0.0
 10
51.427936
 20
62.158173
 30
0.0
 10
52.639587
 20
62.160123
 30
0.0
  0
LINE
  5
12d
100
AcDbEntity
  8
0
 62
7
100
AcDbLine
 10
52.639587
 20
62.160123
 30
0.0
 11
52.639587
 21
62.160123
 31
0.0
  0
SPLINE
  5
12e
100
AcDbEntity
  8
0
 62
7
100
AcDbSpline
 70
8
 71
3
 72
8
 73
4
 74
0
 40
0
 40
0
 40
0
 40
0
 40
1
 40
1
 40
1
 40
1
 10
59.154434
 20
61.199976
 30
0.0
 10
59.761895
 20
61.200084
 30
0.0
 10
60.254447
 20
60.707764
 30
0.0
 10
60.254626
 20
60.100303
 30
0.0
  0
SPLINE
  5
12f
100
AcDbEntity
  8
0
 62
7
100
AcDbSpline
 70
8
 71
3
 72
8
 73
4
 74
0
 40
0
 40
0
 40
0
 40
0
 40
1
 40
1
 40
1
 40
1
 10
60.254626
 20
60.100303
 30
0.0
 10
60.254678
 20
59.808498
 30
0.0
 10
60.138781
 20
59.528630
 30
0.0
 10
59.932444
 20
59.322292
 30
0.0
  0
SPLINE
  5
130
100
AcDbEntity
  8
0
 62
7
100
AcDbSpline
 70
8
 71
3
 72
8
 73
4
 74
0
 40
0
 40
0
 40
0
 40
0
 40
1
 40
1
 40
1
 40
1
 10
59.932444
 20
59.322292
 30
0.0
 10
59.726107
 20
59.115955
 30
0.0
 10
59.446239
 20
59.000059
 30
0.0
 10
59.154434
 20
59.000110
 30
0.0
  0
SPLINE
  5
131
100
AcDbEntity
  8
0
 62
7
100
AcDbSpline
 70
8
 71
3
 72
8
 73
4
 74
0
 40
0
 40
0
 40
0
 40
0
 40
1
 40
1
 40
1
 40
1
 10
59.154434
 20
59.000110
 30
0.0
 10
58.862630
 20
59.000060
 30
0.0
 10
58.582762
 20
59.115957
 30
0.0
 10
58.376426
 20
59.322294
 30
0.0
  0
SPLINE
  5
132
100
AcDbEntity
  8
0
 62
7
100
AcDbSpline
 70
8
 71
3
 72
8
 73
4
 74
0
 40
0
 40
0
 40
0
 40
0
 40
1
 40
1
 40
1
 40
1
 10
58.376426
 20
59.322294
 30
0.0
 10
58.170089
 20
59.528631
 30
0.0
 10
58.054194
 20
59.808498
 30
0.0
 10
58.054245
 20
60.100303
 30
0.0
  0
SPLINE
  5
133
100
AcDbEntity
  8
0
 62
7
100
AcDbSpline
 70
8
 71
3
 72
8
 73
4
 74
0
 40
0
 40
0
 40
0
 40
0
 40
1
 40
1
 40
1
 40
1
 10
58.054245
 20
60.100303
 30
0.0
 10
58.054424
 20
60.707763
 30
0.0
 10
58.546974
 20
61.200082
 30
0.0
 10
59.154434
 20
61.199976
 30
0.0
  0
LINE
  5
134
100
AcDbEntity
  8
0
 62
7
100
AcDbLine
 10
59.154434
 20
61.199976
 30
0.0
 11
59.154434
 21
61.199976
 31
0.0
  0
LINE
  5
135
100
AcDbEntity
  8
0
 62
7
100
AcDbLine
 10
40.583474
 20
25.965431
 30
0.0
 11
46.289589
 21
25.965431
 31
0.0
  0
SPLINE
  5
136
100
AcDbEntity
  8
0
 62
7
100
AcDbSpline
 70
8
 71
3
 72
8
 73
4
 74
0
 40
0
 40
0
 40
0
 40
0
 40
1
 40
1
 40
1
 40
1
 10
46.289589
 20
25.965431
 30
0.0
 10
47.501421
 20
25.963627
 30
0.0
 10
48.656505
 20
25.451736
 30
0.0
 10
49.471824
 20
24.555183
 30
0.0
  0
LINE
  5
137
100
AcDbEntity
  8
0
 62
7
100
AcDbLine
 10
49.471824
 20
24.555183
 30
0.0
 11
51.039686
 21
24.555183
 31
0.0
  0
LINE
  5
138
100
AcDbEntity
  8
0
 62
7
100
AcDbLine
 10
51.039686
 20
24.555183
 30
0.0
 11
51.039686
 21
18.755020
 31
0.0
  0
LINE
  5
139
100
AcDbEntity
  8
0
 62
7
100
AcDbLine
 10
51.039686
 20
18.755020
 30
0.0
 11
49.471305
 21
18.755020
 31
0.0
  0
SPLINE
  5
13a
100
AcDbEntity
  8
0
 62
7
100
AcDbSpline
 70
8
 71
3
 72
8
 73
4
 74
0
 40
0
 40
0
 40
0
 40
0
 40
1
 40
1
 40
1
 40
1
 10
49.471305
 20
18.755020
 30
0.0
 10
48.656017
 20
17.858791
 30
0.0
 10
47.501161
 20
17.347105
 30
0.0
 10
46.289589
 20
17.345287
 30
0.0
  0
LINE
  5
13b
100
AcDbEntity
  8
0
 62
7
100
AcDbLine
 10
46.289589
 20
17.345287
 30
0.0
 11
40.583474
 21
17.345287
 31
0.0
  0
LINE
  5
13c
100
AcDbEntity
  8
0
 62
7
100
AcDbLine
 10
40.583474
 20
17.345287
 30
0.0
 11
40.583474
 21
25.965431
 31
0.0
  0
SPLINE
  5
13d
100
AcDbEntity
  8
0
 62
7
100
AcDbSpline
 70
8
 71
3
 72
8
 73
4
 74
0
 40
0
 40
0
 40
0
 40
0
 40
1
 40
1
 40
1
 40
1
 10
59.154434
 20
15.480284
 30
0.0
 10
59.446238
 20
15.480336
 30
0.0
 10
59.726106
 20
15.364440
 30
0.0
 10
59.932443
 20
15.158103
 30
0.0
  0
SPLINE
  5
13e
100
AcDbEntity
  8
0
 62
7
100
AcDbSpline
 70
8
 71
3
 72
8
 73
4
 74
0
 40
0
 40
0
 40
0
 40
0
 40
1
 40
1
 40
1
 40
1
 10
59.932443
 20
15.158103
 30
0.0
 10
60.138780
 20
14.951767
 30
0.0
 10
60.254677
 20
14.671900
 30
0.0
 10
60.254626
 20
14.380095
 30
0.0
  0
SPLINE
  5
13f
100
AcDbEntity
  8
0
 62
7
100
AcDbSpline
 70
8
 71
3
 72
8
 73
4
 74
0
 40
0
 40
0
 40
0
 40
0
 40
1
 40
1
 40
1
 40
1
 10
60.254626
 20
14.380095
 30
0.0
 10
60.254449
 20
13.772633
 30
0.0
 10
59.761897
 20
13.280311
 30
0.0
 10
59.154434
 20
13.280418
 30
0.0
  0
SPLINE
  5
140
100
AcDbEntity
  8
0
 62
7
100
AcDbSpline
 70
8
 71
3
 72
8
 73
4
 74
0
 40
0
 40
0
 40
0
 40
0
 40
1
 40
1
 40
1
 40
1
 10
59.154434
 20
13.280418
 30
0.0
 10
58.546973
 20
13.280313
 30
0.0
 10
58.054422
 20
13.772634
 30
0.0
 10
58.054245
 20
14.380095
 30
0.0
  0
SPLINE
  5
141
100
AcDbEntity
  8
0
 62
7
100
AcDbSpline
 70
8
 71
3
 72
8
 73
4
 74
0
 40
0
 40
0
 40
0
 40
0
 40
1
 40
1
 40
1
 40
1
 10
58.054245
 20
14.380095
 30
0.0
 10
58.054195
 20
14.671899
 30
0.0
 10
58.170091
 20
14.951766
 30
0.0
 10
58.376427
 20
15.158102
 30
0.0
  0
SPLINE
  5
142
100
AcDbEntity
  8
0
 62
7
100
AcDbSpline
 70
8
 71
3
 72
8
 73
4
 74
0
 40
0
 40
0
 40
0
 40
0
 40
1
 40
1
 40
1
 40
1
 10
58.376427
 20
15.158102
 30
0.0
 10
58.582764
 20
15.364439
 30
0.0
 10
58.862630
 20
15.480335
 30
0.0
 10
59.154434
 20
15.480284
 30
0.0
  0
LINE
  5
143
100
AcDbEntity
  8
0
 62
7
100
AcDbLine
 10
59.154434
 20
15.480284
 30
0.0
 11
59.154434
 21
15.480284
 31
0.0
  0
SPLINE
  5
144
100
AcDbEntity
  8
0
 62
7
100
AcDbSpline
 70
8
 71
3
 72
8
 73
4
 74
0
 40
0
 40
0
 40
0
 40
0
 40
1
 40
1
 40
1
 40
1
 10
42.644332
 20
13.574973
 30
0.0
 10
43.251791
 20
13.575078
 30
0.0
 10
43.744341
 20
13.082759
 30
0.0
 10
43.744520
 20
12.475299
 30
0.0
  0
SPLINE
  5
145
100
AcDbEntity
  8
0
 62
7
100
AcDbSpline
 70
8
 71
3
 72
8
 73
4
 74
0
 40
0
 40
0
 40
0
 40
0
 40
1
 40
1
 40
1
 40
1
 10
43.744520
 20
12.475299
 30
0.0
 10
43.744572
 20
12.183495
 30
0.0
 10
43.628676
 20
11.903627
 30
0.0
 10
43.422340
 20
11.697290
 30
0.0
  0
SPLINE
  5
146
100
AcDbEntity
  8
0
 62
7
100
AcDbSpline
 70
8
 71
3
 72
8
 73
4
 74
0
 40
0
 40
0
 40
0
 40
0
 40
1
 40
1
 40
1
 40
1
 10
43.422340
 20
11.697290
 30
0.0
 10
43.216003
 20
11.490953
 30
0.0
 10
42.936136
 20
11.375056
 30
0.0
 10
42.644332
 20
11.375107
 30
0.0
  0
SPLINE
  5
147
100
AcDbEntity
  8
0
 62
7
100
AcDbSpline
 70
8
 71
3
 72
8
 73
4
 74
0
 40
0
 40
0
 40
0
 40
0
 40
1
 40
1
 40
1
 40
1
 10
42.644332
 20
11.375107
 30
0.0
 10
42.036870
 20
11.375286
 30
0.0
 10
41.544551
 20
11.867838
 30
0.0
 10
41.544658
 20
12.475299
 30
0.0
  0
SPLINE
  5
148
100
AcDbEntity
  8
0
 62
7
100
AcDbSpline
 70
8
 71
3
 72
8
 73
4
 74
0
 40
0
 40
0
 40
0
 40
0
 40
1
 40
1
 40
1
 40
1
 10
41.544658
 20
12.475299
 30
0.0
 10
41.544837
 20
13.082558
 30
0.0
 10
42.037073
 20
13.574794
 30
0.0
 10
42.644332
 20
13.574973
 30
0.0
  0
LINE
  5
149
100
AcDbEntity
  8
0
 62
7
100
AcDbLine
 10
42.644332
 20
13.574973
 30
0.0
 11
42.644332
 21
13.574973
 31
0.0
  0
SPLINE
  5
14a
100
AcDbEntity
  8
0
 62
7
100
AcDbSpline
 70
8
 71
3
 72
8
 73
4
 74
0
 40
0
 40
0
 40
0
 40
0
 40
1
 40
1
 40
1
 40
1
 10
12.606431
 20
15.480274
 30
0.0
 10
13.213892
 20
15.480096
 30
0.0
 10
13.706213
 20
14.987546
 30
0.0
 10
13.706108
 20
14.380085
 30
0.0
  0
SPLINE
  5
14b
100
AcDbEntity
  8
0
 62
7
100
AcDbSpline
 70
8
 71
3
 72
8
 73
4
 74
0
 40
0
 40
0
 40
0
 40
0
 40
1
 40
1
 40
1
 40
1
 10
13.706108
 20
14.380085
 30
0.0
 10
13.705931
 20
13.772823
 30
0.0
 10
13.213692
 20
13.280585
 30
0.0
 10
12.606431
 20
13.280408
 30
0.0
  0
SPLINE
  5
14c
100
AcDbEntity
  8
0
 62
7
100
AcDbSpline
 70
8
 71
3
 72
8
 73
4
 74
0
 40
0
 40
0
 40
0
 40
0
 40
1
 40
1
 40
1
 40
1
 10
12.606431
 20
13.280408
 30
0.0
 10
11.998969
 20
13.280302
 30
0.0
 10
11.506419
 20
13.772624
 30
0.0
 10
11.506242
 20
14.380085
 30
0.0
  0
SPLINE
  5
14d
100
AcDbEntity
  8
0
 62
7
100
AcDbSpline
 70
8
 71
3
 72
8
 73
4
 74
0
 40
0
 40
0
 40
0
 40
0
 40
1
 40
1
 40
1
 40
1
 10
11.506242
 20
14.380085
 30
0.0
 10
11.506191
 20
14.671889
 30
0.0
 10
11.622087
 20
14.951755
 30
0.0
 10
11.828424
 20
15.158092
 30
0.0
  0
SPLINE
  5
14e
100
AcDbEntity
  8
0
 62
7
100
AcDbSpline
 70
8
 71
3
 72
8
 73
4
 74
0
 40
0
 40
0
 40
0
 40
0
 40
1
 40
1
 40
1
 40
1
 10
11.828424
 20
15.158092
 30
0.0
 10
12.034760
 20
15.364428
 30
0.0
 10
12.314627
 20
15.480324
 30
0.0
 10
12.606431
 20
15.480274
 30
0.0
  0
LINE
  5
14f
100
AcDbEntity
  8
0
 62
7
100
AcDbLine
 10
12.606431
 20
15.480274
 30
0.0
 11
12.606431
 21
15.480274
 31
0.0
  0
SPLINE
  5
150
100
AcDbEntity
  8
0
 62
7
100
AcDbSpline
 70
8
 71
3
 72
8
 73
4
 74
0
 40
0
 40
0
 40
0
 40
0
 40
1
 40
1
 40
1
 40
1
 10
12.606431
 20
61.199971
 30
0.0
 10
13.213692
 20
61.199794
 30
0.0
 10
13.705931
 20
60.707556
 30
0.0
 10
13.706108
 20
60.100294
 30
0.0
  0
SPLINE
  5
151
100
AcDbEntity
  8
0
 62
7
100
AcDbSpline
 70
8
 71
3
 72
8
 73
4
 74
0
 40
0
 40
0
 40
0
 40
0
 40
1
 40
1
 40
1
 40
1
 10
13.706108
 20
60.100294
 30
0.0
 10
13.706213
 20
59.492833
 30
0.0
 10
13.213892
 20
59.000283
 30
0.0
 10
12.606431
 20
59.000105
 30
0.0
  0
SPLINE
  5
152
100
AcDbEntity
  8
0
 62
7
100
AcDbSpline
 70
8
 71
3
 72
8
 73
4
 74
0
 40
0
 40
0
 40
0
 40
0
 40
1
 40
1
 40
1
 40
1
 10
12.606431
 20
59.000105
 30
0.0
 10
12.314627
 20
59.000055
 30
0.0
 10
12.034760
 20
59.115951
 30
0.0
 10
11.828424
 20
59.322287
 30
0.0
  0
SPLINE
  5
153
100
AcDbEntity
  8
0
 62
7
100
AcDbSpline
 70
8
 71
3
 72
8
 73
4
 74
0
 40
0
 40
0
 40
0
 40
0
 40
1
 40
1
 40
1
 40
1
 10
11.828424
 20
59.322287
 30
0.0
 10
11.622087
 20
59.528624
 30
0.0
 10
11.506191
 20
59.808491
 30
0.0
 10
11.506242
 20
60.100294
 30
0.0
  0
SPLINE
  5
154
100
AcDbEntity
  8
0
 62
7
100
AcDbSpline
 70
8
 71
3
 72
8
 73
4
 74
0
 40
0
 40
0
 40
0
 40
0
 40
1
 40
1
 40
1
 40
1
 10
11.506242
 20
60.100294
 30
0.0
 10
11.506419
 20
60.707756
 30
0.0
 10
11.998969
 20
61.200077
 30
0.0
 10
12.606431
 20
61.199971
 30
0.0
  0
LINE
  5
155
100
AcDbEntity
  8
0
 62
7
100
AcDbLine
 10
12.606431
 20
61.199971
 30
0.0
 11
12.606431
 21
61.199971
 31
0.0
  0
SPLINE
  5
156
100
AcDbEntity
  8
0
 62
7
100
AcDbSpline
 70
8
 71
3
 72
8
 73
4
 74
0
 40
0
 40
0
 40
0
 40
0
 40
1
 40
1
 40
1
 40
1
 10
34.831433
 20
63.105283
 30
0.0
 10
35.438895
 20
63.105106
 30
0.0
 10
35.931216
 20
62.612555
 30
0.0
 10
35.931111
 20
62.005094
 30
0.0
  0
SPLINE
  5
157
100
AcDbEntity
  8
0
 62
7
100
AcDbSpline
 70
8
 71
3
 72
8
 73
4
 74
0
 40
0
 40
0
 40
0
 40
0
 40
1
 40
1
 40
1
 40
1
 10
35.931111
 20
62.005094
 30
0.0
 10
35.931220
 20
61.397630
 30
0.0
 10
35.438897
 20
60.905075
 30
0.0
 10
34.831433
 20
60.904898
 30
0.0
  0
SPLINE
  5
158
100
AcDbEntity
  8
0
 62
7
100
AcDbSpline
 70
8
 71
3
 72
8
 73
4
 74
0
 40
0
 40
0
 40
0
 40
0
 40
1
 40
1
 40
1
 40
1
 10
34.831433
 20
60.904898
 30
0.0
 10
34.539628
 20
60.904847
 30
0.0
 10
34.259760
 20
61.020745
 30
0.0
 10
34.053424
 20
61.227083
 30
0.0
  0
SPLINE
  5
159
100
AcDbEntity
  8
0
 62
7
100
AcDbSpline
 70
8
 71
3
 72
8
 73
4
 74
0
 40
0
 40
0
 40
0
 40
0
 40
1
 40
1
 40
1
 40
1
 10
34.053424
 20
61.227083
 30
0.0
 10
33.847087
 20
61.433420
 30
0.0
 10
33.731192
 20
61.713289
 30
0.0
 10
33.731244
 20
62.005094
 30
0.0
  0
SPLINE
  5
15a
100
AcDbEntity
  8
0
 62
7
100
AcDbSpline
 70
8
 71
3
 72
8
 73
4
 74
0
 40
0
 40
0
 40
0
 40
0
 40
1
 40
1
 40
1
 40
1
 10
33.731244
 20
62.005094
 30
0.0
 10
33.731194
 20
62.296898
 30
0.0
 10
33.847090
 20
62.576764
 30
0.0
 10
34.053426
 20
62.783101
 30
0.0
  0
SPLINE
  5
15b
100
AcDbEntity
  8
0
 62
7
100
AcDbSpline
 70
8
 71
3
 72
8
 73
4
 74
0
 40
0
 40
0
 40
0
 40
0
 40
1
 40
1
 40
1
 40
1
 10
34.053426
 20
62.783101
 30
0.0
 10
34.259763
 20
62.989437
 30
0.0
 10
34.539629
 20
63.105333
 30
0.0
 10
34.831433
 20
63.105283
 30
0.0
  0
LINE
  5
15c
100
AcDbEntity
  8
0
 62
7
100
AcDbLine
 10
34.831433
 20
63.105283
 30
0.0
 11
34.831433
 21
63.105283
 31
0.0
  0
SPLINE
  5
15d
100
AcDbEntity
  8
0
 62
7
100
AcDbSpline
 70
8
 71
3
 72
8
 73
4
 74
0
 40
0
 40
0
 40
0
 40
0
 40
1
 40
1
 40
1
 40
1
 10
14.000144
 20
64.002388
 30
0.0
 10
11.784146
 20
64.002388
 30
0.0
 10
9.999873
 20
62.218637
 30
0.0
 10
9.999873
 20
60.002628
 30
0.0
  0
LINE
  5
15e
100
AcDbEntity
  8
0
 62
7
100
AcDbLine
 10
9.999873
 20
60.002628
 30
0.0
 11
9.999873
 21
14.002327
 31
0.0
  0
SPLINE
  5
15f
100
AcDbEntity
  8
0
 62
7
100
AcDbSpline
 70
8
 71
3
 72
8
 73
4
 74
0
 40
0
 40
0
 40
0
 40
0
 40
1
 40
1
 40
1
 40
1
 10
9.999873
 20
14.002327
 30
0.0
 10
9.999873
 20
11.786332
 30
0.0
 10
11.784160
 20
10.002571
 30
0.0
 10
14.000144
 20
10.002571
 30
0.0
  0
LINE
  5
160
100
AcDbEntity
  8
0
 62
7
100
AcDbLine
 10
14.000144
 20
10.002571
 30
0.0
 11
14.706045
 21
10.002571
 31
0.0
  0
LINE
  5
161
100
AcDbEntity
  8
0
 62
7
100
AcDbLine
 10
14.706045
 20
10.002571
 30
0.0
 11
14.706045
 21
22.339805
 31
0.0
  0
LINE
  5
162
100
AcDbEntity
  8
0
 62
7
100
AcDbLine
 10
14.706045
 20
22.339805
 30
0.0
 11
14.706045
 21
37.785377
 31
0.0
  0
LINE
  5
163
100
AcDbEntity
  8
0
 62
7
100
AcDbLine
 10
14.706045
 20
37.785377
 30
0.0
 11
33.006223
 21
37.785377
 31
0.0
  0
LINE
  5
164
100
AcDbEntity
  8
0
 62
7
100
AcDbLine
 10
33.006223
 20
37.785377
 30
0.0
 11
36.649930
 21
37.785377
 31
0.0
  0
LINE
  5
165
100
AcDbEntity
  8
0
 62
7
100
AcDbLine
 10
36.649930
 20
37.785377
 30
0.0
 11
36.649930
 21
48.460183
 31
0.0
  0
LINE
  5
166
100
AcDbEntity
  8
0
 62
7
100
AcDbLine
 10
36.649930
 20
48.460183
 30
0.0
 11
29.891167
 21
48.460183
 31
0.0
  0
LINE
  5
167
100
AcDbEntity
  8
0
 62
7
100
AcDbLine
 10
29.891167
 20
48.460183
 30
0.0
 11
29.891167
 21
42.110182
 31
0.0
  0
LINE
  5
168
100
AcDbEntity
  8
0
 62
7
100
AcDbLine
 10
29.891167
 20
42.110182
 30
0.0
 11
20.390972
 21
42.110182
 31
0.0
  0
LINE
  5
169
100
AcDbEntity
  8
0
 62
7
100
AcDbLine
 10
20.390972
 20
42.110182
 30
0.0
 11
20.390972
 21
48.460183
 31
0.0
  0
LINE
  5
16a
100
AcDbEntity
  8
0
 62
7
100
AcDbLine
 10
20.390972
 20
48.460183
 30
0.0
 11
14.040971
 21
48.460183
 31
0.0
  0
LINE
  5
16b
100
AcDbEntity
  8
0
 62
7
100
AcDbLine
 10
14.040971
 20
48.460183
 30
0.0
 11
14.040971
 21
55.810117
 31
0.0
  0
LINE
  5
16c
100
AcDbEntity
  8
0
 62
7
100
AcDbLine
 10
14.040971
 20
55.810117
 30
0.0
 11
20.390972
 21
55.810117
 31
0.0
  0
LINE
  5
16d
100
AcDbEntity
  8
0
 62
7
100
AcDbLine
 10
20.390972
 20
55.810117
 30
0.0
 11
20.390972
 21
62.160122
 31
0.0
  0
LINE
  5
16e
100
AcDbEntity
  8
0
 62
7
100
AcDbLine
 10
20.390972
 20
62.160122
 30
0.0
 11
29.891167
 21
62.160122
 31
0.0
  0
LINE
  5
16f
100
AcDbEntity
  8
0
 62
7
100
AcDbLine
 10
29.891167
 20
62.160122
 30
0.0
 11
29.891167
 21
55.810117
 31
0.0
  0
LINE
  5
170
100
AcDbEntity
  8
0
 62
7
100
AcDbLine
 10
29.891167
 20
55.810117
 30
0.0
 11
36.649930
 21
55.810117
 31
0.0
  0
LINE
  5
171
100
AcDbEntity
  8
0
 62
7
100
AcDbLine
 10
36.649930
 20
55.810117
 30
0.0
 11
36.649930
 21
63.502161
 31
0.0
  0
LINE
  5
172
100
AcDbEntity
  8
0
 62
7
100
AcDbLine
 10
36.649930
 20
63.502161
 30
0.0
 11
36.649930
 21
64.002388
 31
0.0
  0
LINE
  5
173
100
AcDbEntity
  8
0
 62
7
100
AcDbLine
 10
36.649930
 20
64.002388
 30
0.0
 11
14.000144
 21
64.002388
 31
0.0
  0
SPLINE
  5
174
100
AcDbEntity
  8
0
 62
7
100
AcDbSpline
 70
8
 71
3
 72
8
 73
4
 74
0
 40
0
 40
0
 40
0
 40
0
 40
1
 40
1
 40
1
 40
1
 10
18.554970
 20
33.655732
 30
0.0
 10
19.162229
 20
33.655552
 30
0.0
 10
19.654465
 20
33.163317
 30
0.0
 10
19.654644
 20
32.556058
 30
0.0
  0
SPLINE
  5
175
100
AcDbEntity
  8
0
 62
7
100
AcDbSpline
 70
8
 71
3
 72
8
 73
4
 74
0
 40
0
 40
0
 40
0
 40
0
 40
1
 40
1
 40
1
 40
1
 10
19.654644
 20
32.556058
 30
0.0
 10
19.654751
 20
31.948596
 30
0.0
 10
19.162432
 20
31.456045
 30
0.0
 10
18.554970
 20
31.455866
 30
0.0
  0
SPLINE
  5
176
100
AcDbEntity
  8
0
 62
7
100
AcDbSpline
 70
8
 71
3
 72
8
 73
4
 74
0
 40
0
 40
0
 40
0
 40
0
 40
1
 40
1
 40
1
 40
1
 10
18.554970
 20
31.455866
 30
0.0
 10
18.263166
 20
31.455814
 30
0.0
 10
17.983297
 20
31.571710
 30
0.0
 10
17.776960
 20
31.778048
 30
0.0
  0
SPLINE
  5
177
100
AcDbEntity
  8
0
 62
7
100
AcDbSpline
 70
8
 71
3
 72
8
 73
4
 74
0
 40
0
 40
0
 40
0
 40
0
 40
1
 40
1
 40
1
 40
1
 10
17.776960
 20
31.778048
 30
0.0
 10
17.570623
 20
31.984385
 30
0.0
 10
17.454727
 20
32.264253
 30
0.0
 10
17.454778
 20
32.556058
 30
0.0
  0
SPLINE
  5
178
100
AcDbEntity
  8
0
 62
7
100
AcDbSpline
 70
8
 71
3
 72
8
 73
4
 74
0
 40
0
 40
0
 40
0
 40
0
 40
1
 40
1
 40
1
 40
1
 10
17.454778
 20
32.556058
 30
0.0
 10
17.454957
 20
33.163519
 30
0.0
 10
17.947509
 20
33.655839
 30
0.0
 10
18.554970
 20
33.655732
 30
0.0
  0
LINE
  5
179
100
AcDbEntity
  8
0
 62
7
100
AcDbLine
 10
18.554970
 20
33.655732
 30
0.0
 11
18.554970
 21
33.655732
 31
0.0
  0
LINE
  5
17a
100
AcDbEntity
  8
0
 62
7
100
AcDbLine
 10
16.729757
 20
35.211193
 30
0.0
 11
16.729757
 21
30.083340
 31
0.0
  0
LINE
  5
17b
100
AcDbEntity
  8
0
 62
7
100
AcDbLine
 10
16.729757
 20
30.083340
 30
0.0
 11
20.373463
 21
30.083340
 31
0.0
  0
LINE
  5
17c
100
AcDbEntity
  8
0
 62
7
100
AcDbLine
 10
20.373463
 20
30.083340
 30
0.0
 11
20.373463
 21
30.583052
 31
0.0
  0
LINE
  5
17d
100
AcDbEntity
  8
0
 62
7
100
AcDbLine
 10
20.373463
 20
30.583052
 30
0.0
 11
20.373463
 21
35.211193
 31
0.0
  0
LINE
  5
17e
100
AcDbEntity
  8
0
 62
7
100
AcDbLine
 10
20.373463
 20
35.211193
 30
0.0
 11
16.729757
 21
35.211193
 31
0.0
  0
SPLINE
  5
17f
100
AcDbEntity
  8
0
 62
7
100
AcDbSpline
 70
8
 71
3
 72
8
 73
4
 74
0
 40
0
 40
0
 40
0
 40
0
 40
1
 40
1
 40
1
 40
1
 10
22.526880
 20
29.702146
 30
0.0
 10
22.195583
 20
29.702017
 30
0.0
 10
21.927046
 20
29.433479
 30
0.0
 10
21.926917
 20
29.102182
 30
0.0
  0
LINE
  5
180
100
AcDbEntity
  8
0
 62
7
100
AcDbLine
 10
21.926917
 20
29.102182
 30
0.0
 11
21.926917
 21
23.352145
 31
0.0
  0
LINE
  5
181
100
AcDbEntity
  8
0
 62
7
100
AcDbLine
 10
21.926917
 20
23.352145
 30
0.0
 11
16.176879
 21
23.352145
 31
0.0
  0
SPLINE
  5
182
100
AcDbEntity
  8
0
 62
7
100
AcDbSpline
 70
8
 71
3
 72
8
 73
4
 74
0
 40
0
 40
0
 40
0
 40
0
 40
1
 40
1
 40
1
 40
1
 10
16.176879
 20
23.352145
 30
0.0
 10
15.845582
 20
23.352016
 30
0.0
 10
15.577045
 20
23.083479
 30
0.0
 10
15.576916
 20
22.752182
 30
0.0
  0
SPLINE
  5
183
100
AcDbEntity
  8
0
 62
7
100
AcDbSpline
 70
8
 71
3
 72
8
 73
4
 74
0
 40
0
 40
0
 40
0
 40
0
 40
1
 40
1
 40
1
 40
1
 10
15.576916
 20
22.752182
 30
0.0
 10
15.576916
 20
22.752182
 30
0.0
 10
15.576916
 20
16.952535
 30
0.0
 10
15.576916
 20
16.952535
 30
0.0
  0
SPLINE
  5
184
100
AcDbEntity
  8
0
 62
7
100
AcDbSpline
 70
8
 71
3
 72
8
 73
4
 74
0
 40
0
 40
0
 40
0
 40
0
 40
1
 40
1
 40
1
 40
1
 10
15.576916
 20
16.952535
 30
0.0
 10
15.577045
 20
16.621238
 30
0.0
 10
15.845582
 20
16.352700
 30
0.0
 10
16.176879
 20
16.352572
 30
0.0
  0
LINE
  5
185
100
AcDbEntity
  8
0
 62
7
100
AcDbLine
 10
16.176879
 20
16.352572
 30
0.0
 11
21.926917
 21
16.352572
 31
0.0
  0
SPLINE
  5
186
100
AcDbEntity
  8
0
 62
7
100
AcDbSpline
 70
8
 71
3
 72
8
 73
4
 74
0
 40
0
 40
0
 40
0
 40
0
 40
1
 40
1
 40
1
 40
1
 10
21.926917
 20
16.352572
 30
0.0
 10
21.926917
 20
16.352572
 30
0.0
 10
21.926917
 20
10.602534
 30
0.0
 10
21.926917
 20
10.602534
 30
0.0
  0
SPLINE
  5
187
100
AcDbEntity
  8
0
 62
7
100
AcDbSpline
 70
8
 71
3
 72
8
 73
4
 74
0
 40
0
 40
0
 40
0
 40
0
 40
1
 40
1
 40
1
 40
1
 10
21.926917
 20
10.602534
 30
0.0
 10
21.927046
 20
10.271237
 30
0.0
 10
22.195583
 20
10.002700
 30
0.0
 10
22.526880
 20
10.002571
 30
0.0
  0
SPLINE
  5
188
100
AcDbEntity
  8
0
 62
7
100
AcDbSpline
 70
8
 71
3
 72
8
 73
4
 74
0
 40
0
 40
0
 40
0
 40
0
 40
1
 40
1
 40
1
 40
1
 10
22.526880
 20
10.002571
 30
0.0
 10
22.526880
 20
10.002571
 30
0.0
 10
28.927007
 20
10.002571
 30
0.0
 10
28.927007
 20
10.002571
 30
0.0
  0
SPLINE
  5
189
100
AcDbEntity
  8
0
 62
7
100
AcDbSpline
 70
8
 71
3
 72
8
 73
4
 74
0
 40
0
 40
0
 40
0
 40
0
 40
1
 40
1
 40
1
 40
1
 10
28.927007
 20
10.002571
 30
0.0
 10
29.258304
 20
10.002700
 30
0.0
 10
29.526842
 20
10.271237
 30
0.0
 10
29.526971
 20
10.602534
 30
0.0
  0
LINE
  5
18a
100
AcDbEntity
  8
0
 62
7
100
AcDbLine
 10
29.526971
 20
10.602534
 30
0.0
 11
29.526971
 21
16.352572
 31
0.0
  0
SPLINE
  5
18b
100
AcDbEntity
  8
0
 62
7
100
AcDbSpline
 70
8
 71
3
 72
8
 73
4
 74
0
 40
0
 40
0
 40
0
 40
0
 40
1
 40
1
 40
1
 40
1
 10
29.526971
 20
16.352572
 30
0.0
 10
29.526971
 20
16.352572
 30
0.0
 10
35.277008
 20
16.352572
 30
0.0
 10
35.277008
 20
16.352572
 30
0.0
  0
SPLINE
  5
18c
100
AcDbEntity
  8
0
 62
7
100
AcDbSpline
 70
8
 71
3
 72
8
 73
4
 74
0
 40
0
 40
0
 40
0
 40
0
 40
1
 40
1
 40
1
 40
1
 10
35.277008
 20
16.352572
 30
0.0
 10
35.608305
 20
16.352700
 30
0.0
 10
35.876842
 20
16.621238
 30
0.0
 10
35.876971
 20
16.952535
 30
0.0
  0
SPLINE
  5
18d
100
AcDbEntity
  8
0
 62
7
100
AcDbSpline
 70
8
 71
3
 72
8
 73
4
 74
0
 40
0
 40
0
 40
0
 40
0
 40
1
 40
1
 40
1
 40
1
 10
35.876971
 20
16.952535
 30
0.0
 10
35.876971
 20
16.952535
 30
0.0
 10
35.876971
 20
22.752182
 30
0.0
 10
35.876971
 20
22.752182
 30
0.0
  0
SPLINE
  5
18e
100
AcDbEntity
  8
0
 62
7
100
AcDbSpline
 70
8
 71
3
 72
8
 73
4
 74
0
 40
0
 40
0
 40
0
 40
0
 40
1
 40
1
 40
1
 40
1
 10
35.876971
 20
22.752182
 30
0.0
 10
35.876842
 20
23.083479
 30
0.0
 10
35.608305
 20
23.352016
 30
0.0
 10
35.277008
 20
23.352145
 30
0.0
  0
LINE
  5
18f
100
AcDbEntity
  8
0
 62
7
100
AcDbLine
 10
35.277008
 20
23.352145
 30
0.0
 11
29.526971
 21
23.352145
 31
0.0
  0
SPLINE
  5
190
100
AcDbEntity
  8
0
 62
7
100
AcDbSpline
 70
8
 71
3
 72
8
 73
4
 74
0
 40
0
 40
0
 40
0
 40
0
 40
1
 40
1
 40
1
 40
1
 10
29.526971
 20
23.352145
 30
0.0
 10
29.526971
 20
23.352145
 30
0.0
 10
29.526971
 20
29.102182
 30
0.0
 10
29.526971
 20
29.102182
 30
0.0
  0
SPLINE
  5
191
100
AcDbEntity
  8
0
 62
7
100
AcDbSpline
 70
8
 71
3
 72
8
 73
4
 74
0
 40
0
 40
0
 40
0
 40
0
 40
1
 40
1
 40
1
 40
1
 10
29.526971
 20
29.102182
 30
0.0
 10
29.526842
 20
29.433479
 30
0.0
 10
29.258304
 20
29.702017
 30
0.0
 10
28.927007
 20
29.702146
 30
0.0
  0
LINE
  5
192
100
AcDbEntity
  8
0
 62
7
100
AcDbLine
 10
28.927007
 20
29.702146
 30
0.0
 11
22.526880
 21
29.702146
 31
0.0
  0
SPLINE
  5
193
100
AcDbEntity
  8
0
 62
1
100
AcDbSpline
 70
8
 71
3
 72
8
 73
4
 74
0
 40
0
 40
0
 40
0
 40
0
 40
1
 40
1
 40
1
 40
1
 10
45.776640
 20
44.901903
 30
0.0
 10
45.776640
 20
43.424613
 30
0.0
 10
44.988513
 20
42.059541
 30
0.0
 10
43.709140
 20
41.320896
 30
0.0
  0
SPLINE
  5
194
100
AcDbEntity
  8
0
 62
1
100
AcDbSpline
 70
8
 71
3
 72
8
 73
4
 74
0
 40
0
 40
0
 40
0
 40
0
 40
1
 40
1
 40
1
 40
1
 10
43.709140
 20
41.320896
 30
0.0
 10
42.429766
 20
40.582251
 30
0.0
 10
40.853513
 20
40.582251
 30
0.0
 10
39.574140
 20
41.320896
 30
0.0
  0
SPLINE
  5
195
100
AcDbEntity
  8
0
 62
1
100
AcDbSpline
 70
8
 71
3
 72
8
 73
4
 74
0
 40
0
 40
0
 40
0
 40
0
 40
1
 40
1
 40
1
 40
1
 10
39.574140
 20
41.320896
 30
0.0
 10
38.294766
 20
42.059541
 30
0.0
 10
37.506640
 20
43.424613
 30
0.0
 10
37.506640
 20
44.901903
 30
0.0
  0
SPLINE
  5
196
100
AcDbEntity
  8
0
 62
1
100
AcDbSpline
 70
8
 71
3
 72
8
 73
4
 74
0
 40
0
 40
0
 40
0
 40
0
 40
1
 40
1
 40
1
 40
1
 10
37.506640
 20
44.901903
 30
0.0
 10
37.506640
 20
46.379193
 30
0.0
 10
38.294766
 20
47.744265
 30
0.0
 10
39.574140
 20
48.482910
 30
0.0
  0
SPLINE
  5
197
100
AcDbEntity
  8
0
 62
1
100
AcDbSpline
 70
8
 71
3
 72
8
 73
4
 74
0
 40
0
 40
0
 40
0
 40
0
 40
1
 40
1
 40
1
 40
1
 10
39.574140
 20
48.482910
 30
0.0
 10
40.853513
 20
49.221555
 30
0.0
 10
42.429766
 20
49.221555
 30
0.0
 10
43.709140
 20
48.482910
 30
0.0
  0
SPLINE
  5
198
100
AcDbEntity
  8
0
 62
1
100
AcDbSpline
 70
8
 71
3
 72
8
 73
4
 74
0
 40
0
 40
0
 40
0
 40
0
 40
1
 40
1
 40
1
 40
1
 10
43.709140
 20
48.482910
 30
0.0
 10
44.988513
 20
47.744265
 30
0.0
 10
45.776640
 20
46.379193
 30
0.0
 10
45.776640
 20
44.901903
 30
0.0
  0
LINE
  5
199
100
AcDbEntity
  8
0
 62
1
100
AcDbLine
 10
45.776640
 20
44.901903
 30
0.0
 11
45.776640
 21
44.901903
 31
0.0
  0
SPLINE
  5
19a
100
AcDbEntity
  8
0
 62
1
100
AcDbSpline
 70
8
 71
3
 72
8
 73
4
 74
0
 40
0
 40
0
 40
0
 40
0
 40
1
 40
1
 40
1
 40
1
 10
29.187730
 20
51.628910
 30
0.0
 10
29.187730
 20
50.151620
 30
0.0
 10
28.399603
 20
48.786548
 30
0.0
 10
27.120230
 20
48.047903
 30
0.0
  0
SPLINE
  5
19b
100
AcDbEntity
  8
0
 62
1
100
AcDbSpline
 70
8
 71
3
 72
8
 73
4
 74
0
 40
0
 40
0
 40
0
 40
0
 40
1
 40
1
 40
1
 40
1
 10
27.120230
 20
48.047903
 30
0.0
 10
25.840856
 20
47.309258
 30
0.0
 10
24.264603
 20
47.309258
 30
0.0
 10
22.985229
 20
48.047903
 30
0.0
  0
SPLINE
  5
19c
100
AcDbEntity
  8
0
 62
1
100
AcDbSpline
 70
8
 71
3
 72
8
 73
4
 74
0
 40
0
 40
0
 40
0
 40
0
 40
1
 40
1
 40
1
 40
1
 10
22.985229
 20
48.047903
 30
0.0
 10
21.705856
 20
48.786548
 30
0.0
 10
20.917729
 20
50.151620
 30
0.0
 10
20.917729
 20
51.628910
 30
0.0
  0
SPLINE
  5
19d
100
AcDbEntity
  8
0
 62
1
100
AcDbSpline
 70
8
 71
3
 72
8
 73
4
 74
0
 40
0
 40
0
 40
0
 40
0
 40
1
 40
1
 40
1
 40
1
 10
20.917729
 20
51.628910
 30
0.0
 10
20.917729
 20
53.106200
 30
0.0
 10
21.705856
 20
54.471272
 30
0.0
 10
22.985229
 20
55.209917
 30
0.0
  0
SPLINE
  5
19e
100
AcDbEntity
  8
0
 62
1
100
AcDbSpline
 70
8
 71
3
 72
8
 73
4
 74
0
 40
0
 40
0
 40
0
 40
0
 40
1
 40
1
 40
1
 40
1
 10
22.985229
 20
55.209917
 30
0.0
 10
24.264603
 20
55.948562
 30
0.0
 10
25.840856
 20
55.948562
 30
0.0
 10
27.120230
 20
55.209917
 30
0.0
  0
SPLINE
  5
19f
100
AcDbEntity
  8
0
 62
1
100
AcDbSpline
 70
8
 71
3
 72
8
 73
4
 74
0
 40
0
 40
0
 40
0
 40
0
 40
1
 40
1
 40
1
 40
1
 10
27.120230
 20
55.209917
 30
0.0
 10
28.399603
 20
54.471272
 30
0.0
 10
29.187730
 20
53.106200
 30
0.0
 10
29.187730
 20
51.628910
 30
0.0
  0
LINE
  5
1a0
100
AcDbEntity
  8
0
 62
1
100
AcDbLine
 10
29.187730
 20
51.628910
 30
0.0
 11
29.187730
 21
51.628910
 31
0.0
  0
SPLINE
  5
1a1
100
AcDbEntity
  8
0
 62
1
100
AcDbSpline
 70
8
 71
3
 72
8
 73
4
 74
0
 40
0
 40
0
 40
0
 40
0
 40
1
 40
1
 40
1
 40
1
 10
38.903469
 20
30.415469
 30
0.0
 10
38.903469
 20
28.938179
 30
0.0
 10
38.115342
 20
27.573107
 30
0.0
 10
36.835968
 20
26.834462
 30
0.0
  0
SPLINE
  5
1a2
100
AcDbEntity
  8
0
 62
1
100
AcDbSpline
 70
8
 71
3
 72
8
 73
4
 74
0
 40
0
 40
0
 40
0
 40
0
 40
1
 40
1
 40
1
 40
1
 10
36.835968
 20
26.834462
 30
0.0
 10
35.556595
 20
26.095817
 30
0.0
 10
33.980342
 20
26.095817
 30
0.0
 10
32.700968
 20
26.834462
 30
0.0
  0
SPLINE
  5
1a3
100
AcDbEntity
  8
0
 62
1
100
AcDbSpline
 70
8
 71
3
 72
8
 73
4
 74
0
 40
0
 40
0
 40
0
 40
0
 40
1
 40
1
 40
1
 40
1
 10
32.700968
 20
26.834462
 30
0.0
 10
31.421595
 20
27.573107
 30
0.0
 10
30.633468
 20
28.938179
 30
0.0
 10
30.633468
 20
30.415469
 30
0.0
  0
SPLINE
  5
1a4
100
AcDbEntity
  8
0
 62
1
100
AcDbSpline
 70
8
 71
3
 72
8
 73
4
 74
0
 40
0
 40
0
 40
0
 40
0
 40
1
 40
1
 40
1
 40
1
 10
30.633468
 20
30.415469
 30
0.0
 10
30.633468
 20
31.892759
 30
0.0
 10
31.421595
 20
33.257831
 30
0.0
 10
32.700968
 20
33.996476
 30
0.0
  0
SPLINE
  5
1a5
100
AcDbEntity
  8
0
 62
1
100
AcDbSpline
 70
8
 71
3
 72
8
 73
4
 74
0
 40
0
 40
0
 40
0
 40
0
 40
1
 40
1
 40
1
 40
1
 10
32.700968
 20
33.996476
 30
0.0
 10
33.980342
 20
34.735121
 30
0.0
 10
35.556595
 20
34.735121
 30
0.0
 10
36.835968
 20
33.996476
 30
0.0
  0
SPLINE
  5
1a6
100
AcDbEntity
  8
0
 62
1
100
AcDbSpline
 70
8
 71
3
 72
8
 73
4
 74
0
 40
0
 40
0
 40
0
 40
0
 40
1
 40
1
 40
1
 40
1
 10
36.835968
 20
33.996476
 30
0.0
 10
38.115342
 20
33.257831
 30
0.0
 10
38.903469
 20
31.892759
 30
0.0
 10
38.903469
 20
30.415469
 30
0.0
  0
LINE
  5
1a7
100
AcDbEntity
  8
0
 62
1
100
AcDbLine
 10
38.903469
 20
30.415469
 30
0.0
 11
38.903469
 21
30.415469
 31
0.0
  0
LINE
  5
1a8
100
AcDbEntity
  8
0
 62
7
100
AcDbLine
 10
67.827371
 20
10.513544
 30
0.0
 11
67.827371
 21
63.778244
 31
0.0
  0
ENDSEC
  0
SECTION
  2
OBJECTS
  0
DICTIONARY
  5
C
330
0
100
AcDbDictionary
  3
ACAD_GROUP
350
D
  3
ACAD_MLINESTYLE
350
17
  0
DICTIONARY
  5
D
330
C
100
AcDbDictionary
  0
DICTIONARY
  5
1A
330
C
100
AcDbDictionary
  0
DICTIONARY
  5
17
330
C
100
AcDbDictionary
  3
STANDARD
350
18
  0
DICTIONARY
  5
19
330
C
100
AcDbDictionary
  0
ENDSEC
  0
EOF
