<?xml version="1.0" encoding="UTF-8" standalone="no"?>
<svg
   xmlns:dc="http://purl.org/dc/elements/1.1/"
   xmlns:cc="http://creativecommons.org/ns#"
   xmlns:rdf="http://www.w3.org/1999/02/22-rdf-syntax-ns#"
   xmlns:svg="http://www.w3.org/2000/svg"
   xmlns="http://www.w3.org/2000/svg"
   id="svg3794"
   viewBox="0 0 259.07032 210.59183"
   height="74.292007mm"
   width="91.394272mm"
   y="0in"
   x="0in"
   version="1.2">
  <metadata
     id="metadata3800">
    <rdf:RDF>
      <cc:Work
         rdf:about="">
        <dc:title></dc:title>
        <dc:format>image/svg+xml</dc:format>
        <dc:type
           rdf:resource="http://purl.org/dc/dcmitype/StillImage" />
      </cc:Work>
    </rdf:RDF>
  </metadata>
  <defs
     id="defs3798">
    <marker
       style="overflow:visible"
       id="marker9598"
       refX="0"
       refY="0"
       orient="auto">
      <path
         transform="matrix(0.8,0,0,0.8,10,0)"
         style="fill:#000000;fill-opacity:1;fill-rule:evenodd;stroke:#000000;stroke-width:1.00000003pt;stroke-opacity:1"
         d="M 0,0 5,-5 -12.5,0 5,5 Z"
         id="path9596" />
    </marker>
    <marker
       style="overflow:visible"
       id="Arrow1Lend"
       refX="0"
       refY="0"
       orient="auto">
      <path
         transform="matrix(-0.8,0,0,-0.8,-10,0)"
         style="fill:#000000;fill-opacity:1;fill-rule:evenodd;stroke:#000000;stroke-width:1.00000003pt;stroke-opacity:1"
         d="M 0,0 5,-5 -12.5,0 5,5 Z"
         id="path9315" />
    </marker>
    <marker
       style="overflow:visible"
       id="Arrow1Lstart"
       refX="0"
       refY="0"
       orient="auto">
      <path
         transform="matrix(0.8,0,0,0.8,10,0)"
         style="fill-rule:evenodd;stroke:#000000;stroke-width:1.00000003pt"
         d="M 0,0 5,-5 -12.5,0 5,5 Z"
         id="path9312" />
    </marker>
    <defs
       id="defs2" />
    <defs
       id="defs4" />
  </defs>
  <path
     id="path8417"
     d="m 115.03848,29.167149 v 1.41797 42.001532 h 10e-4 v -3.99756 h 16.16019 a 12.217343,12.217451 0 0 1 0.0146,0 12.217343,12.217451 0 0 1 9.02053,3.99756 h 4.44434 v 16.43997 h -4.44434 a 12.217343,12.217451 0 0 1 -9.02053,3.99756 12.217343,12.217451 0 0 1 -0.0161,0 H 126.6088 V 119.6126 H 115.03943 V 89.026621 h -10e-4 v 91.794569 1.41651 h 15.73685 v -14.53567 h 26.36283 v 14.53567 h 5.38185 c 6.28157,0 11.3379,-5.05632 11.3379,-11.33791 V 40.505059 c -4.9e-4,-6.2816 -5.0567,-11.33791 -11.3379,-11.33791 z m 5.84328,2.54297 a 3.11811,3.11811 0 0 1 3.11865,3.11866 3.11811,3.11811 0 0 1 -3.11865,3.11866 3.11811,3.11811 0 0 1 -3.11719,-3.11866 3.11811,3.11811 0 0 1 3.11719,-3.11866 z m 28.33304,2.67921 a 12.217343,12.217451 0 0 1 9.02053,3.99756 h 4.44434 v 16.439972 h -4.44727 a 12.217343,12.217451 0 0 1 -9.0176,3.99756 12.217343,12.217451 0 0 1 -9.02052,-3.99756 h -4.44287 V 38.386889 h 4.44434 a 12.217343,12.217451 0 0 1 9.01905,-3.99756 z m 18.46731,2.72168 a 3.11811,3.11811 0 0 1 3.11866,3.11719 3.11811,3.11811 0 0 1 -3.11866,3.11866 3.11811,3.11811 0 0 1 -3.11865,-3.11866 3.11811,3.11811 0 0 1 3.11865,-3.11719 z m -52.64217,99.877601 h 16.17484 a 12.217343,12.217451 0 0 1 9.02052,3.99756 h 4.44434 v 16.44143 h -4.44581 a 12.217343,12.217451 0 0 1 -9.01905,3.9961 h -16.17484 z m 52.64217,29.72172 a 3.11811,3.11811 0 0 1 3.11866,3.11865 3.11811,3.11811 0 0 1 -3.11866,3.1172 3.11811,3.11811 0 0 1 -3.11865,-3.1172 3.11811,3.11811 0 0 1 3.11865,-3.11865 z m -46.80036,5.40089 a 3.11811,3.11811 0 0 1 3.11865,3.11719 3.11811,3.11811 0 0 1 -3.11865,3.11866 3.11811,3.11811 0 0 1 -3.11719,-3.11866 3.11811,3.11811 0 0 1 3.11719,-3.11719 z"
     style="opacity:1;fill:#729fcf;fill-opacity:1;stroke:none;stroke-width:0.70865911;stroke-linecap:round;stroke-linejoin:round;stroke-miterlimit:4;stroke-dasharray:none;stroke-opacity:1;paint-order:markers stroke fill" />
  <path
     d="m 35.734817,166.71036 a 3.11811,3.11811 0 0 1 3.1172,3.11865 3.11811,3.11811 0 0 1 -3.1172,3.1172 3.11811,3.11811 0 0 1 -3.11865,-3.1172 3.11811,3.11811 0 0 1 3.11865,-3.11865 z m 0,-129.599337 a 3.11811,3.11811 0 0 1 3.1172,3.1172 3.11811,3.11811 0 0 1 -3.1172,3.11865 3.11811,3.11811 0 0 1 -3.11865,-3.11865 3.11811,3.11811 0 0 1 3.11865,-3.1172 z m 63.000101,-5.40089 a 3.11811,3.11811 0 0 1 3.117202,3.11865 3.11811,3.11811 0 0 1 -3.117202,3.11867 3.11811,3.11811 0 0 1 -3.11865,-3.11867 3.11811,3.11811 0 0 1 3.11865,-3.11865 z m -59.049411,-2.54298 c -6.28158,0 -11.339369,5.05631 -11.339369,11.33792 V 170.89982 c 0,6.28157 5.05783,11.33791 11.339369,11.33791 h 2.000981 V 147.26599 103.4832 h 51.8746 10.328632 V 73.223863 H 84.730993 v 18.00003 H 57.801267 v -18.00003 h -18.00003 v -20.83449 h 18.00003 v -18.00004 h 26.929726 v 18.00004 h 19.158727 v -21.80425 -1.41797 z"
     style="opacity:1;fill:#729fcf;fill-opacity:1;stroke:none;stroke-width:0.70865911;stroke-linecap:round;stroke-linejoin:round;stroke-miterlimit:4;stroke-dasharray:none;stroke-opacity:1;paint-order:markers stroke fill"
     id="path8485" />
  <path
     d="m 52.596845,115.1893 a 3.11811,3.11811 0 0 1 3.11719,3.11719 3.11811,3.11811 0 0 1 -3.11719,3.11866 3.11811,3.11811 0 0 1 -3.11866,-3.11866 3.11811,3.11811 0 0 1 3.11866,-3.11719 z m -5.17384,-4.40919 v 14.53567 h 10.32863 v -1.41651 -13.11916 z"
     style="opacity:1;fill:#729fcf;fill-opacity:1;stroke:none;stroke-width:0.70865911;stroke-linecap:round;stroke-linejoin:round;stroke-miterlimit:4;stroke-dasharray:none;stroke-opacity:1;paint-order:markers stroke fill"
     id="path8419" />
  <path
     transform="matrix(0.7500012,0,0,0.7500012,30.006155,120.32308)"
     d="M 45.132812,8.0976562 A 2.2684608,2.2684608 0 0 0 42.865234,10.365234 V 32.097656 H 21.132812 a 2.2684608,2.2684608 0 0 0 -2.267578,2.267578 v 21.919922 a 2.2684608,2.2684608 0 0 0 2.267578,2.267578 h 21.732422 v 21.732422 a 2.2684608,2.2684608 0 0 0 2.267578,2.267578 h 24.189454 a 2.2684608,2.2684608 0 0 0 2.267578,-2.267578 V 58.552734 h 21.732422 a 2.2684608,2.2684608 0 0 0 2.267578,-2.267578 V 34.365234 A 2.2684608,2.2684608 0 0 0 93.322266,32.097656 H 71.589844 V 10.365234 A 2.2684608,2.2684608 0 0 0 69.322266,8.0976562 Z"
     id="path8465"
     style="opacity:1;fill:#729fcf;fill-opacity:1;stroke:#000000;stroke-width:0;stroke-linecap:round;stroke-linejoin:round;stroke-miterlimit:4;stroke-dasharray:none;stroke-opacity:1;paint-order:markers stroke fill" />
  <ellipse
     style="opacity:1;fill:#729fcf;fill-opacity:1;stroke:#a40000;stroke-width:0;stroke-linecap:round;stroke-linejoin:round;stroke-miterlimit:4;stroke-dasharray:none;stroke-opacity:1;paint-order:markers stroke fill"
     id="ellipse8473"
     cx="118.03947"
     cy="83.310341"
     rx="11.721278"
     ry="11.721251" />
  <ellipse
     ry="11.721251"
     rx="11.721278"
     cy="64.241631"
     cx="71.015717"
     id="ellipse8475"
     style="opacity:1;fill:#729fcf;fill-opacity:1;stroke:#a40000;stroke-width:0;stroke-linecap:round;stroke-linejoin:round;stroke-miterlimit:4;stroke-dasharray:none;stroke-opacity:1;paint-order:markers stroke fill" />
  <ellipse
     style="opacity:1;fill:#729fcf;fill-opacity:1;stroke:#a40000;stroke-width:0;stroke-linecap:round;stroke-linejoin:round;stroke-miterlimit:4;stroke-dasharray:none;stroke-opacity:1;paint-order:markers stroke fill"
     id="ellipse8477"
     cx="98.556435"
     cy="124.37431"
     rx="11.721278"
     ry="11.721251" />
  <path
     id="path8497"
     d="M 192.26685,180.7893 V 29.802523"
     style="fill:none;fill-rule:evenodd;stroke:#000000;stroke-width:0.75000119px;stroke-linecap:butt;stroke-linejoin:miter;stroke-opacity:1;marker-start:url(#marker9598);marker-end:url(#Arrow1Lend)" />
  <flowRoot
     transform="matrix(2.2879348,0,0,2.2879348,-353.62223,-390.16159)"
     style="font-style:normal;font-variant:normal;font-weight:normal;font-stretch:normal;font-size:8px;line-height:10.66666698px;font-family:Iosevka;-inkscape-font-specification:'Iosevka, Normal';font-variant-ligatures:normal;font-variant-caps:normal;font-variant-numeric:normal;font-feature-settings:normal;text-align:center;letter-spacing:0px;word-spacing:0px;writing-mode:lr-tb;text-anchor:middle;fill:#000000;fill-opacity:1;stroke:none;stroke-width:0.32780707px;stroke-linecap:butt;stroke-linejoin:miter;stroke-opacity:1"
     id="flowRoot8499"
     xml:space="preserve"><flowRegion
       style="stroke-width:0.32780707px"
       id="flowRegion8501"><rect
         style="stroke-width:0.32780707px"
         y="213.4458"
         x="223.0592"
         height="25.966757"
         width="49.521683"
         id="rect8503" /></flowRegion><flowPara
       style="stroke-width:0.32780707px"
       id="flowPara8505">54mm</flowPara></flowRoot></svg>
