  0
SECTION
  2
HEADER
  9
$ACADVER
  1
AC1014
  9
$HANDSEED
  5
FFFF
  9
$MEASUREMENT
 70
     1
  0
ENDSEC
  0
SECTION
  2
TABLES
  0
TABLE
  2
VPORT
  5
8
330
0
100
AcDbSymbolTable
 70
     4
  0
VPORT
  5
2E
330
8
100
AcDbSymbolTableRecord
100
AcDbViewportTableRecord
  2
*ACTIVE
 70
     0
 10
0.0
 20
0.0
 11
1.0
 21
1.0
 12
210.0
 22
148.5
 13
0.0
 23
0.0
 14
10.0
 24
10.0
 15
10.0
 25
10.0
 16
0.0
 26
0.0
 36
1.0
 17
0.0
 27
0.0
 37
0.0
 40
341.0
 41
1.24
 42
50.0
 43
0.0
 44
0.0
 50
0.0
 51
0.0
 71
     0
 72
   100
 73
     1
 74
     3
 75
     0
 76
     0
 77
     0
 78
     0
  0
ENDTAB
  0
TABLE
  2
LTYPE
  5
5
330
0
100
AcDbSymbolTable
 70
     1
  0
LTYPE
  5
14
330
5
100
AcDbSymbolTableRecord
100
AcDbLinetypeTableRecord
  2
BYBLOCK
 70
     0
  3

 72
    65
 73
     0
 40
0.0
  0
LTYPE
  5
15
330
5
100
AcDbSymbolTableRecord
100
AcDbLinetypeTableRecord
  2
BYLAYER
 70
     0
  3

 72
    65
 73
     0
 40
0.0
  0
LTYPE
  5
16
330
5
100
AcDbSymbolTableRecord
100
AcDbLinetypeTableRecord
  2
CONTINUOUS
 70
     0
  3
Solid line
 72
    65
 73
     0
 40
0.0
  0
ENDTAB
  0
TABLE
  2
LAYER
  5
2
100
AcDbSymbolTable
 70
1
  0
LAYER
  5
50
100
AcDbSymbolTableRecord
100
AcDbLayerTableRecord
  2
0
 70
0
  6
CONTINUOUS
  0
ENDTAB
  0
TABLE
  2
STYLE
  5
3
330
0
100
AcDbSymbolTable
 70
     1
  0
STYLE
  5
11
330
3
100
AcDbSymbolTableRecord
100
AcDbTextStyleTableRecord
  2
STANDARD
 70
     0
 40
0.0
 41
1.0
 50
0.0
 71
     0
 42
2.5
  3
txt
  4

  0
ENDTAB
  0
TABLE
  2
VIEW
  5
6
330
0
100
AcDbSymbolTable
 70
     0
  0
ENDTAB
  0
TABLE
  2
UCS
  5
7
330
0
100
AcDbSymbolTable
 70
     0
  0
ENDTAB
  0
TABLE
  2
APPID
  5
9
330
0
100
AcDbSymbolTable
 70
     2
  0
APPID
  5
12
330
9
100
AcDbSymbolTableRecord
100
AcDbRegAppTableRecord
  2
ACAD
 70
     0
  0
ENDTAB
  0
TABLE
  2
DIMSTYLE
  5
A
330
0
100
AcDbSymbolTable
 70
     1
  0
DIMSTYLE
105
27
330
A
100
AcDbSymbolTableRecord
100
AcDbDimStyleTableRecord
  2
ISO-25
 70
     0
  3

  4

  5

  6

  7

 40
1.0
 41
2.5
 42
0.625
 43
3.75
 44
1.25
 45
0.0
 46
0.0
 47
0.0
 48
0.0
140
2.5
141
2.5
142
0.0
143
0.03937007874016
144
1.0
145
0.0
146
1.0
147
0.625
 71
     0
 72
     0
 73
     0
 74
     0
 75
     0
 76
     0
 77
     1
 78
     8
170
     0
171
     3
172
     1
173
     0
174
     0
175
     0
176
     0
177
     0
178
     0
270
     2
271
     2
272
     2
273
     2
274
     3
340
11
275
     0
280
     0
281
     0
282
     0
283
     0
284
     8
285
     0
286
     0
287
     3
288
     0
  0
ENDTAB
  0
TABLE
  2
BLOCK_RECORD
  5
1
330
0
100
AcDbSymbolTable
 70
     1
  0
BLOCK_RECORD
  5
1F
330
1
100
AcDbSymbolTableRecord
100
AcDbBlockTableRecord
  2
*MODEL_SPACE
  0
BLOCK_RECORD
  5
1B
330
1
100
AcDbSymbolTableRecord
100
AcDbBlockTableRecord
  2
*PAPER_SPACE
  0
ENDTAB
  0
ENDSEC
  0
SECTION
  2
BLOCKS
  0
BLOCK
  5
20
330
1F
100
AcDbEntity
  8
0
100
AcDbBlockBegin
  2
*MODEL_SPACE
 70
     0
 10
0.0
 20
0.0
 30
0.0
  3
*MODEL_SPACE
  1

  0
ENDBLK
  5
21
330
1F
100
AcDbEntity
  8
0
100
AcDbBlockEnd
  0
BLOCK
  5
1C
330
1B
100
AcDbEntity
 67
     1
  8
0
100
AcDbBlockBegin
  2
*PAPER_SPACE
  1

  0
ENDBLK
  5
1D
330
1B
100
AcDbEntity
 67
     1
  8
0
100
AcDbBlockEnd
  0
ENDSEC
  0
SECTION
  2
ENTITIES
  0
LINE
  5
100
100
AcDbEntity
  8
0
 62
7
100
AcDbLine
 10
10.513516
 20
16.396137
 30
0.0
 11
134.270054
 21
16.396137
 31
0.0
  0
SPLINE
  5
101
100
AcDbEntity
  8
0
 62
1
100
AcDbSpline
 70
8
 71
3
 72
8
 73
4
 74
0
 40
0
 40
0
 40
0
 40
0
 40
1
 40
1
 40
1
 40
1
 10
133.346086
 20
68.967954
 30
0.0
 10
133.346086
 20
68.567548
 30
0.0
 10
133.021493
 20
68.242955
 30
0.0
 10
132.621087
 20
68.242955
 30
0.0
  0
SPLINE
  5
102
100
AcDbEntity
  8
0
 62
1
100
AcDbSpline
 70
8
 71
3
 72
8
 73
4
 74
0
 40
0
 40
0
 40
0
 40
0
 40
1
 40
1
 40
1
 40
1
 10
132.621087
 20
68.242955
 30
0.0
 10
132.220681
 20
68.242955
 30
0.0
 10
131.896088
 20
68.567548
 30
0.0
 10
131.896088
 20
68.967954
 30
0.0
  0
SPLINE
  5
103
100
AcDbEntity
  8
0
 62
1
100
AcDbSpline
 70
8
 71
3
 72
8
 73
4
 74
0
 40
0
 40
0
 40
0
 40
0
 40
1
 40
1
 40
1
 40
1
 10
131.896088
 20
68.967954
 30
0.0
 10
131.896088
 20
69.368360
 30
0.0
 10
132.220681
 20
69.692953
 30
0.0
 10
132.621087
 20
69.692953
 30
0.0
  0
SPLINE
  5
104
100
AcDbEntity
  8
0
 62
1
100
AcDbSpline
 70
8
 71
3
 72
8
 73
4
 74
0
 40
0
 40
0
 40
0
 40
0
 40
1
 40
1
 40
1
 40
1
 10
132.621087
 20
69.692953
 30
0.0
 10
133.021493
 20
69.692953
 30
0.0
 10
133.346086
 20
69.368360
 30
0.0
 10
133.346086
 20
68.967954
 30
0.0
  0
LINE
  5
105
100
AcDbEntity
  8
0
 62
1
100
AcDbLine
 10
133.346086
 20
68.967954
 30
0.0
 11
133.346086
 21
68.967954
 31
0.0
  0
SPLINE
  5
106
100
AcDbEntity
  8
0
 62
1
100
AcDbSpline
 70
8
 71
3
 72
8
 73
4
 74
0
 40
0
 40
0
 40
0
 40
0
 40
1
 40
1
 40
1
 40
1
 10
116.836247
 20
70.873007
 30
0.0
 10
116.836247
 20
70.472601
 30
0.0
 10
116.511654
 20
70.148008
 30
0.0
 10
116.111248
 20
70.148007
 30
0.0
  0
SPLINE
  5
107
100
AcDbEntity
  8
0
 62
1
100
AcDbSpline
 70
8
 71
3
 72
8
 73
4
 74
0
 40
0
 40
0
 40
0
 40
0
 40
1
 40
1
 40
1
 40
1
 10
116.111248
 20
70.148007
 30
0.0
 10
115.710842
 20
70.148008
 30
0.0
 10
115.386249
 20
70.472601
 30
0.0
 10
115.386249
 20
70.873007
 30
0.0
  0
SPLINE
  5
108
100
AcDbEntity
  8
0
 62
1
100
AcDbSpline
 70
8
 71
3
 72
8
 73
4
 74
0
 40
0
 40
0
 40
0
 40
0
 40
1
 40
1
 40
1
 40
1
 10
115.386249
 20
70.873007
 30
0.0
 10
115.386249
 20
71.273413
 30
0.0
 10
115.710842
 20
71.598006
 30
0.0
 10
116.111248
 20
71.598006
 30
0.0
  0
SPLINE
  5
109
100
AcDbEntity
  8
0
 62
1
100
AcDbSpline
 70
8
 71
3
 72
8
 73
4
 74
0
 40
0
 40
0
 40
0
 40
0
 40
1
 40
1
 40
1
 40
1
 10
116.111248
 20
71.598006
 30
0.0
 10
116.511654
 20
71.598006
 30
0.0
 10
116.836247
 20
71.273413
 30
0.0
 10
116.836247
 20
70.873007
 30
0.0
  0
LINE
  5
10a
100
AcDbEntity
  8
0
 62
1
100
AcDbLine
 10
116.836247
 20
70.873007
 30
0.0
 11
116.836247
 21
70.873007
 31
0.0
  0
SPLINE
  5
10b
100
AcDbEntity
  8
0
 62
1
100
AcDbSpline
 70
8
 71
3
 72
8
 73
4
 74
0
 40
0
 40
0
 40
0
 40
0
 40
1
 40
1
 40
1
 40
1
 10
133.346086
 20
23.248300
 30
0.0
 10
133.346086
 20
23.056018
 30
0.0
 10
133.269703
 20
22.871611
 30
0.0
 10
133.133740
 20
22.735646
 30
0.0
  0
SPLINE
  5
10c
100
AcDbEntity
  8
0
 62
1
100
AcDbSpline
 70
8
 71
3
 72
8
 73
4
 74
0
 40
0
 40
0
 40
0
 40
0
 40
1
 40
1
 40
1
 40
1
 10
133.133740
 20
22.735646
 30
0.0
 10
132.997776
 20
22.599682
 30
0.0
 10
132.813369
 20
22.523298
 30
0.0
 10
132.621087
 20
22.523298
 30
0.0
  0
SPLINE
  5
10d
100
AcDbEntity
  8
0
 62
1
100
AcDbSpline
 70
8
 71
3
 72
8
 73
4
 74
0
 40
0
 40
0
 40
0
 40
0
 40
1
 40
1
 40
1
 40
1
 10
132.621087
 20
22.523298
 30
0.0
 10
132.428804
 20
22.523298
 30
0.0
 10
132.244398
 20
22.599682
 30
0.0
 10
132.108434
 20
22.735646
 30
0.0
  0
SPLINE
  5
10e
100
AcDbEntity
  8
0
 62
1
100
AcDbSpline
 70
8
 71
3
 72
8
 73
4
 74
0
 40
0
 40
0
 40
0
 40
0
 40
1
 40
1
 40
1
 40
1
 10
132.108434
 20
22.735646
 30
0.0
 10
131.972470
 20
22.871611
 30
0.0
 10
131.896087
 20
23.056018
 30
0.0
 10
131.896088
 20
23.248300
 30
0.0
  0
SPLINE
  5
10f
100
AcDbEntity
  8
0
 62
1
100
AcDbSpline
 70
8
 71
3
 72
8
 73
4
 74
0
 40
0
 40
0
 40
0
 40
0
 40
1
 40
1
 40
1
 40
1
 10
131.896088
 20
23.248300
 30
0.0
 10
131.896088
 20
23.648706
 30
0.0
 10
132.220681
 20
23.973299
 30
0.0
 10
132.621087
 20
23.973299
 30
0.0
  0
SPLINE
  5
110
100
AcDbEntity
  8
0
 62
1
100
AcDbSpline
 70
8
 71
3
 72
8
 73
4
 74
0
 40
0
 40
0
 40
0
 40
0
 40
1
 40
1
 40
1
 40
1
 10
132.621087
 20
23.973299
 30
0.0
 10
133.021492
 20
23.973299
 30
0.0
 10
133.346085
 20
23.648706
 30
0.0
 10
133.346086
 20
23.248300
 30
0.0
  0
LINE
  5
111
100
AcDbEntity
  8
0
 62
1
100
AcDbLine
 10
133.346086
 20
23.248300
 30
0.0
 11
133.346086
 21
23.248300
 31
0.0
  0
SPLINE
  5
112
100
AcDbEntity
  8
0
 62
1
100
AcDbSpline
 70
8
 71
3
 72
8
 73
4
 74
0
 40
0
 40
0
 40
0
 40
0
 40
1
 40
1
 40
1
 40
1
 10
116.836247
 20
21.342994
 30
0.0
 10
116.836247
 20
20.942588
 30
0.0
 10
116.511654
 20
20.617995
 30
0.0
 10
116.111248
 20
20.617995
 30
0.0
  0
SPLINE
  5
113
100
AcDbEntity
  8
0
 62
1
100
AcDbSpline
 70
8
 71
3
 72
8
 73
4
 74
0
 40
0
 40
0
 40
0
 40
0
 40
1
 40
1
 40
1
 40
1
 10
116.111248
 20
20.617995
 30
0.0
 10
115.710843
 20
20.617995
 30
0.0
 10
115.386250
 20
20.942588
 30
0.0
 10
115.386249
 20
21.342994
 30
0.0
  0
SPLINE
  5
114
100
AcDbEntity
  8
0
 62
1
100
AcDbSpline
 70
8
 71
3
 72
8
 73
4
 74
0
 40
0
 40
0
 40
0
 40
0
 40
1
 40
1
 40
1
 40
1
 10
115.386249
 20
21.342994
 30
0.0
 10
115.386250
 20
21.743400
 30
0.0
 10
115.710843
 20
22.067993
 30
0.0
 10
116.111248
 20
22.067993
 30
0.0
  0
SPLINE
  5
115
100
AcDbEntity
  8
0
 62
1
100
AcDbSpline
 70
8
 71
3
 72
8
 73
4
 74
0
 40
0
 40
0
 40
0
 40
0
 40
1
 40
1
 40
1
 40
1
 10
116.111248
 20
22.067993
 30
0.0
 10
116.511654
 20
22.067993
 30
0.0
 10
116.836247
 20
21.743400
 30
0.0
 10
116.836247
 20
21.342994
 30
0.0
  0
LINE
  5
116
100
AcDbEntity
  8
0
 62
1
100
AcDbLine
 10
116.836247
 20
21.342994
 30
0.0
 11
116.836247
 21
21.342994
 31
0.0
  0
SPLINE
  5
117
100
AcDbEntity
  8
0
 62
1
100
AcDbSpline
 70
8
 71
3
 72
8
 73
4
 74
0
 40
0
 40
0
 40
0
 40
0
 40
1
 40
1
 40
1
 40
1
 10
35.556513
 20
21.342994
 30
0.0
 10
35.556513
 20
20.942588
 30
0.0
 10
35.231920
 20
20.617995
 30
0.0
 10
34.831514
 20
20.617995
 30
0.0
  0
SPLINE
  5
118
100
AcDbEntity
  8
0
 62
1
100
AcDbSpline
 70
8
 71
3
 72
8
 73
4
 74
0
 40
0
 40
0
 40
0
 40
0
 40
1
 40
1
 40
1
 40
1
 10
34.831514
 20
20.617995
 30
0.0
 10
34.431108
 20
20.617995
 30
0.0
 10
34.106515
 20
20.942588
 30
0.0
 10
34.106515
 20
21.342994
 30
0.0
  0
SPLINE
  5
119
100
AcDbEntity
  8
0
 62
1
100
AcDbSpline
 70
8
 71
3
 72
8
 73
4
 74
0
 40
0
 40
0
 40
0
 40
0
 40
1
 40
1
 40
1
 40
1
 10
34.106515
 20
21.342994
 30
0.0
 10
34.106515
 20
21.743400
 30
0.0
 10
34.431108
 20
22.067993
 30
0.0
 10
34.831514
 20
22.067993
 30
0.0
  0
SPLINE
  5
11a
100
AcDbEntity
  8
0
 62
1
100
AcDbSpline
 70
8
 71
3
 72
8
 73
4
 74
0
 40
0
 40
0
 40
0
 40
0
 40
1
 40
1
 40
1
 40
1
 10
34.831514
 20
22.067993
 30
0.0
 10
35.231920
 20
22.067993
 30
0.0
 10
35.556513
 20
21.743400
 30
0.0
 10
35.556513
 20
21.342994
 30
0.0
  0
LINE
  5
11b
100
AcDbEntity
  8
0
 62
1
100
AcDbLine
 10
35.556513
 20
21.342994
 30
0.0
 11
35.556513
 21
21.342994
 31
0.0
  0
SPLINE
  5
11c
100
AcDbEntity
  8
0
 62
1
100
AcDbSpline
 70
8
 71
3
 72
8
 73
4
 74
0
 40
0
 40
0
 40
0
 40
0
 40
1
 40
1
 40
1
 40
1
 10
13.331527
 20
23.248300
 30
0.0
 10
13.331528
 20
23.056018
 30
0.0
 10
13.255145
 20
22.871611
 30
0.0
 10
13.119181
 20
22.735646
 30
0.0
  0
SPLINE
  5
11d
100
AcDbEntity
  8
0
 62
1
100
AcDbSpline
 70
8
 71
3
 72
8
 73
4
 74
0
 40
0
 40
0
 40
0
 40
0
 40
1
 40
1
 40
1
 40
1
 10
13.119181
 20
22.735646
 30
0.0
 10
12.983217
 20
22.599682
 30
0.0
 10
12.798810
 20
22.523298
 30
0.0
 10
12.606528
 20
22.523298
 30
0.0
  0
SPLINE
  5
11e
100
AcDbEntity
  8
0
 62
1
100
AcDbSpline
 70
8
 71
3
 72
8
 73
4
 74
0
 40
0
 40
0
 40
0
 40
0
 40
1
 40
1
 40
1
 40
1
 10
12.606528
 20
22.523298
 30
0.0
 10
12.414246
 20
22.523297
 30
0.0
 10
12.229839
 20
22.599682
 30
0.0
 10
12.093875
 20
22.735646
 30
0.0
  0
SPLINE
  5
11f
100
AcDbEntity
  8
0
 62
1
100
AcDbSpline
 70
8
 71
3
 72
8
 73
4
 74
0
 40
0
 40
0
 40
0
 40
0
 40
1
 40
1
 40
1
 40
1
 10
12.093875
 20
22.735646
 30
0.0
 10
11.957911
 20
22.871610
 30
0.0
 10
11.881528
 20
23.056018
 30
0.0
 10
11.881528
 20
23.248300
 30
0.0
  0
SPLINE
  5
120
100
AcDbEntity
  8
0
 62
1
100
AcDbSpline
 70
8
 71
3
 72
8
 73
4
 74
0
 40
0
 40
0
 40
0
 40
0
 40
1
 40
1
 40
1
 40
1
 10
11.881528
 20
23.248300
 30
0.0
 10
11.881529
 20
23.648706
 30
0.0
 10
12.206122
 20
23.973299
 30
0.0
 10
12.606528
 20
23.973299
 30
0.0
  0
SPLINE
  5
121
100
AcDbEntity
  8
0
 62
1
100
AcDbSpline
 70
8
 71
3
 72
8
 73
4
 74
0
 40
0
 40
0
 40
0
 40
0
 40
1
 40
1
 40
1
 40
1
 10
12.606528
 20
23.973299
 30
0.0
 10
13.006934
 20
23.973299
 30
0.0
 10
13.331527
 20
23.648706
 30
0.0
 10
13.331527
 20
23.248300
 30
0.0
  0
LINE
  5
122
100
AcDbEntity
  8
0
 62
1
100
AcDbLine
 10
13.331527
 20
23.248300
 30
0.0
 11
13.331527
 21
23.248300
 31
0.0
  0
SPLINE
  5
123
100
AcDbEntity
  8
0
 62
1
100
AcDbSpline
 70
8
 71
3
 72
8
 73
4
 74
0
 40
0
 40
0
 40
0
 40
0
 40
1
 40
1
 40
1
 40
1
 10
35.556513
 20
70.873007
 30
0.0
 10
35.556513
 20
70.472601
 30
0.0
 10
35.231920
 20
70.148007
 30
0.0
 10
34.831514
 20
70.148007
 30
0.0
  0
SPLINE
  5
124
100
AcDbEntity
  8
0
 62
1
100
AcDbSpline
 70
8
 71
3
 72
8
 73
4
 74
0
 40
0
 40
0
 40
0
 40
0
 40
1
 40
1
 40
1
 40
1
 10
34.831514
 20
70.148007
 30
0.0
 10
34.431108
 20
70.148007
 30
0.0
 10
34.106515
 20
70.472601
 30
0.0
 10
34.106515
 20
70.873007
 30
0.0
  0
SPLINE
  5
125
100
AcDbEntity
  8
0
 62
1
100
AcDbSpline
 70
8
 71
3
 72
8
 73
4
 74
0
 40
0
 40
0
 40
0
 40
0
 40
1
 40
1
 40
1
 40
1
 10
34.106515
 20
70.873007
 30
0.0
 10
34.106515
 20
71.273413
 30
0.0
 10
34.431108
 20
71.598006
 30
0.0
 10
34.831514
 20
71.598006
 30
0.0
  0
SPLINE
  5
126
100
AcDbEntity
  8
0
 62
1
100
AcDbSpline
 70
8
 71
3
 72
8
 73
4
 74
0
 40
0
 40
0
 40
0
 40
0
 40
1
 40
1
 40
1
 40
1
 10
34.831514
 20
71.598006
 30
0.0
 10
35.231920
 20
71.598006
 30
0.0
 10
35.556513
 20
71.273413
 30
0.0
 10
35.556513
 20
70.873007
 30
0.0
  0
LINE
  5
127
100
AcDbEntity
  8
0
 62
1
100
AcDbLine
 10
35.556513
 20
70.873007
 30
0.0
 11
35.556513
 21
70.873007
 31
0.0
  0
SPLINE
  5
128
100
AcDbEntity
  8
0
 62
1
100
AcDbSpline
 70
8
 71
3
 72
8
 73
4
 74
0
 40
0
 40
0
 40
0
 40
0
 40
1
 40
1
 40
1
 40
1
 10
13.331527
 20
68.967954
 30
0.0
 10
13.331527
 20
68.567548
 30
0.0
 10
13.006934
 20
68.242955
 30
0.0
 10
12.606528
 20
68.242955
 30
0.0
  0
SPLINE
  5
129
100
AcDbEntity
  8
0
 62
1
100
AcDbSpline
 70
8
 71
3
 72
8
 73
4
 74
0
 40
0
 40
0
 40
0
 40
0
 40
1
 40
1
 40
1
 40
1
 10
12.606528
 20
68.242955
 30
0.0
 10
12.414246
 20
68.242954
 30
0.0
 10
12.229840
 20
68.319338
 30
0.0
 10
12.093876
 20
68.455302
 30
0.0
  0
SPLINE
  5
12a
100
AcDbEntity
  8
0
 62
1
100
AcDbSpline
 70
8
 71
3
 72
8
 73
4
 74
0
 40
0
 40
0
 40
0
 40
0
 40
1
 40
1
 40
1
 40
1
 10
12.093876
 20
68.455302
 30
0.0
 10
11.957912
 20
68.591266
 30
0.0
 10
11.881528
 20
68.775672
 30
0.0
 10
11.881528
 20
68.967954
 30
0.0
  0
SPLINE
  5
12b
100
AcDbEntity
  8
0
 62
1
100
AcDbSpline
 70
8
 71
3
 72
8
 73
4
 74
0
 40
0
 40
0
 40
0
 40
0
 40
1
 40
1
 40
1
 40
1
 10
11.881528
 20
68.967954
 30
0.0
 10
11.881528
 20
69.160236
 30
0.0
 10
11.957912
 20
69.344642
 30
0.0
 10
12.093876
 20
69.480606
 30
0.0
  0
SPLINE
  5
12c
100
AcDbEntity
  8
0
 62
1
100
AcDbSpline
 70
8
 71
3
 72
8
 73
4
 74
0
 40
0
 40
0
 40
0
 40
0
 40
1
 40
1
 40
1
 40
1
 10
12.093876
 20
69.480606
 30
0.0
 10
12.229840
 20
69.616570
 30
0.0
 10
12.414246
 20
69.692953
 30
0.0
 10
12.606528
 20
69.692953
 30
0.0
  0
SPLINE
  5
12d
100
AcDbEntity
  8
0
 62
1
100
AcDbSpline
 70
8
 71
3
 72
8
 73
4
 74
0
 40
0
 40
0
 40
0
 40
0
 40
1
 40
1
 40
1
 40
1
 10
12.606528
 20
69.692953
 30
0.0
 10
13.006934
 20
69.692953
 30
0.0
 10
13.331527
 20
69.368360
 30
0.0
 10
13.331527
 20
68.967954
 30
0.0
  0
LINE
  5
12e
100
AcDbEntity
  8
0
 62
1
100
AcDbLine
 10
13.331527
 20
68.967954
 30
0.0
 11
13.331527
 21
68.967954
 31
0.0
  0
LINE
  5
12f
100
AcDbEntity
  8
0
 62
1
100
AcDbLine
 10
21.941611
 20
71.028034
 30
0.0
 11
28.341733
 21
71.028034
 31
0.0
  0
SPLINE
  5
130
100
AcDbEntity
  8
0
 62
1
100
AcDbSpline
 70
8
 71
3
 72
8
 73
4
 74
0
 40
0
 40
0
 40
0
 40
0
 40
1
 40
1
 40
1
 40
1
 10
28.341733
 20
71.028034
 30
0.0
 10
28.769808
 20
71.027970
 30
0.0
 10
29.116815
 20
70.680963
 30
0.0
 10
29.116879
 20
70.252888
 30
0.0
  0
LINE
  5
131
100
AcDbEntity
  8
0
 62
1
100
AcDbLine
 10
29.116879
 20
70.252888
 30
0.0
 11
29.116879
 21
64.678038
 31
0.0
  0
LINE
  5
132
100
AcDbEntity
  8
0
 62
1
100
AcDbLine
 10
29.116879
 20
64.678038
 30
0.0
 11
34.691729
 21
64.678038
 31
0.0
  0
SPLINE
  5
133
100
AcDbEntity
  8
0
 62
1
100
AcDbSpline
 70
8
 71
3
 72
8
 73
4
 74
0
 40
0
 40
0
 40
0
 40
0
 40
1
 40
1
 40
1
 40
1
 10
34.691729
 20
64.678038
 30
0.0
 10
35.119804
 20
64.677975
 30
0.0
 10
35.466812
 20
64.330967
 30
0.0
 10
35.466876
 20
63.902892
 30
0.0
  0
LINE
  5
134
100
AcDbEntity
  8
0
 62
1
100
AcDbLine
 10
35.466876
 20
63.902892
 30
0.0
 11
35.466876
 21
58.103253
 31
0.0
  0
SPLINE
  5
135
100
AcDbEntity
  8
0
 62
1
100
AcDbSpline
 70
8
 71
3
 72
8
 73
4
 74
0
 40
0
 40
0
 40
0
 40
0
 40
1
 40
1
 40
1
 40
1
 10
35.466876
 20
58.103253
 30
0.0
 10
35.466812
 20
57.675178
 30
0.0
 10
35.119804
 20
57.328171
 30
0.0
 10
34.691729
 20
57.328108
 30
0.0
  0
LINE
  5
136
100
AcDbEntity
  8
0
 62
1
100
AcDbLine
 10
34.691729
 20
57.328108
 30
0.0
 11
29.116879
 21
57.328108
 31
0.0
  0
LINE
  5
137
100
AcDbEntity
  8
0
 62
1
100
AcDbLine
 10
29.116879
 20
57.328108
 30
0.0
 11
29.116879
 21
51.753258
 31
0.0
  0
SPLINE
  5
138
100
AcDbEntity
  8
0
 62
1
100
AcDbSpline
 70
8
 71
3
 72
8
 73
4
 74
0
 40
0
 40
0
 40
0
 40
0
 40
1
 40
1
 40
1
 40
1
 10
29.116879
 20
51.753258
 30
0.0
 10
29.116815
 20
51.325183
 30
0.0
 10
28.769808
 20
50.978176
 30
0.0
 10
28.341733
 20
50.978112
 30
0.0
  0
LINE
  5
139
100
AcDbEntity
  8
0
 62
1
100
AcDbLine
 10
28.341733
 20
50.978112
 30
0.0
 11
21.941611
 21
50.978112
 31
0.0
  0
SPLINE
  5
13a
100
AcDbEntity
  8
0
 62
1
100
AcDbSpline
 70
8
 71
3
 72
8
 73
4
 74
0
 40
0
 40
0
 40
0
 40
0
 40
1
 40
1
 40
1
 40
1
 10
21.941611
 20
50.978112
 30
0.0
 10
21.513536
 20
50.978176
 30
0.0
 10
21.166529
 20
51.325184
 30
0.0
 10
21.166465
 20
51.753258
 30
0.0
  0
LINE
  5
13b
100
AcDbEntity
  8
0
 62
1
100
AcDbLine
 10
21.166465
 20
51.753258
 30
0.0
 11
21.166465
 21
57.328108
 31
0.0
  0
LINE
  5
13c
100
AcDbEntity
  8
0
 62
1
100
AcDbLine
 10
21.166465
 20
57.328108
 30
0.0
 11
15.591616
 21
57.328108
 31
0.0
  0
SPLINE
  5
13d
100
AcDbEntity
  8
0
 62
1
100
AcDbSpline
 70
8
 71
3
 72
8
 73
4
 74
0
 40
0
 40
0
 40
0
 40
0
 40
1
 40
1
 40
1
 40
1
 10
15.591616
 20
57.328108
 30
0.0
 10
15.163541
 20
57.328172
 30
0.0
 10
14.816534
 20
57.675179
 30
0.0
 10
14.816470
 20
58.103253
 30
0.0
  0
LINE
  5
13e
100
AcDbEntity
  8
0
 62
1
100
AcDbLine
 10
14.816470
 20
58.103253
 30
0.0
 11
14.816470
 21
63.902892
 31
0.0
  0
SPLINE
  5
13f
100
AcDbEntity
  8
0
 62
1
100
AcDbSpline
 70
8
 71
3
 72
8
 73
4
 74
0
 40
0
 40
0
 40
0
 40
0
 40
1
 40
1
 40
1
 40
1
 10
14.816470
 20
63.902892
 30
0.0
 10
14.816534
 20
64.330967
 30
0.0
 10
15.163541
 20
64.677974
 30
0.0
 10
15.591616
 20
64.678038
 30
0.0
  0
LINE
  5
140
100
AcDbEntity
  8
0
 62
1
100
AcDbLine
 10
15.591616
 20
64.678038
 30
0.0
 11
21.166465
 21
64.678038
 31
0.0
  0
LINE
  5
141
100
AcDbEntity
  8
0
 62
1
100
AcDbLine
 10
21.166465
 20
64.678038
 30
0.0
 11
21.166465
 21
70.252888
 31
0.0
  0
SPLINE
  5
142
100
AcDbEntity
  8
0
 62
1
100
AcDbSpline
 70
8
 71
3
 72
8
 73
4
 74
0
 40
0
 40
0
 40
0
 40
0
 40
1
 40
1
 40
1
 40
1
 10
21.166465
 20
70.252888
 30
0.0
 10
21.166529
 20
70.680963
 30
0.0
 10
21.513536
 20
71.027970
 30
0.0
 10
21.941611
 20
71.028034
 30
0.0
  0
LINE
  5
143
100
AcDbEntity
  8
0
 62
1
100
AcDbLine
 10
21.941611
 20
71.028034
 30
0.0
 11
21.941611
 21
71.028034
 31
0.0
  0
SPLINE
  5
144
100
AcDbEntity
  8
0
 62
1
100
AcDbSpline
 70
8
 71
3
 72
8
 73
4
 74
0
 40
0
 40
0
 40
0
 40
0
 40
1
 40
1
 40
1
 40
1
 10
126.106238
 20
71.028034
 30
0.0
 10
127.249339
 20
71.028123
 30
0.0
 10
128.345655
 20
70.574101
 30
0.0
 10
129.154002
 20
69.765852
 30
0.0
  0
SPLINE
  5
145
100
AcDbEntity
  8
0
 62
1
100
AcDbSpline
 70
8
 71
3
 72
8
 73
4
 74
0
 40
0
 40
0
 40
0
 40
0
 40
1
 40
1
 40
1
 40
1
 10
129.154002
 20
69.765852
 30
0.0
 10
129.962349
 20
68.957603
 30
0.0
 10
130.416509
 20
67.861336
 30
0.0
 10
130.416569
 20
66.718225
 30
0.0
  0
SPLINE
  5
146
100
AcDbEntity
  8
0
 62
1
100
AcDbSpline
 70
8
 71
3
 72
8
 73
4
 74
0
 40
0
 40
0
 40
0
 40
0
 40
1
 40
1
 40
1
 40
1
 10
130.416569
 20
66.718225
 30
0.0
 10
130.416648
 20
65.575023
 30
0.0
 10
129.962549
 20
64.478622
 30
0.0
 10
129.154187
 20
63.670260
 30
0.0
  0
SPLINE
  5
147
100
AcDbEntity
  8
0
 62
1
100
AcDbSpline
 70
8
 71
3
 72
8
 73
4
 74
0
 40
0
 40
0
 40
0
 40
0
 40
1
 40
1
 40
1
 40
1
 10
129.154187
 20
63.670260
 30
0.0
 10
128.345825
 20
62.861898
 30
0.0
 10
127.249430
 20
62.407805
 30
0.0
 10
126.106238
 20
62.407894
 30
0.0
  0
SPLINE
  5
148
100
AcDbEntity
  8
0
 62
1
100
AcDbSpline
 70
8
 71
3
 72
8
 73
4
 74
0
 40
0
 40
0
 40
0
 40
0
 40
1
 40
1
 40
1
 40
1
 10
126.106238
 20
62.407894
 30
0.0
 10
124.963137
 20
62.407944
 30
0.0
 10
123.866876
 20
62.862098
 30
0.0
 10
123.058627
 20
63.670445
 30
0.0
  0
SPLINE
  5
149
100
AcDbEntity
  8
0
 62
1
100
AcDbSpline
 70
8
 71
3
 72
8
 73
4
 74
0
 40
0
 40
0
 40
0
 40
0
 40
1
 40
1
 40
1
 40
1
 10
123.058627
 20
63.670445
 30
0.0
 10
122.250378
 20
64.478792
 30
0.0
 10
121.796351
 20
65.575114
 30
0.0
 10
121.796429
 20
66.718225
 30
0.0
  0
SPLINE
  5
14a
100
AcDbEntity
  8
0
 62
1
100
AcDbSpline
 70
8
 71
3
 72
8
 73
4
 74
0
 40
0
 40
0
 40
0
 40
0
 40
1
 40
1
 40
1
 40
1
 10
121.796429
 20
66.718225
 30
0.0
 10
121.796554
 20
69.098430
 30
0.0
 10
123.726054
 20
71.027930
 30
0.0
 10
126.106238
 20
71.028034
 30
0.0
  0
LINE
  5
14b
100
AcDbEntity
  8
0
 62
1
100
AcDbLine
 10
126.106238
 20
71.028034
 30
0.0
 11
126.106238
 21
71.028034
 31
0.0
  0
SPLINE
  5
14c
100
AcDbEntity
  8
0
 62
1
100
AcDbSpline
 70
8
 71
3
 72
8
 73
4
 74
0
 40
0
 40
0
 40
0
 40
0
 40
1
 40
1
 40
1
 40
1
 10
119.756246
 20
58.963147
 30
0.0
 10
120.899436
 20
58.963234
 30
0.0
 10
121.995829
 20
58.509141
 30
0.0
 10
122.804191
 20
57.700781
 30
0.0
  0
SPLINE
  5
14d
100
AcDbEntity
  8
0
 62
1
100
AcDbSpline
 70
8
 71
3
 72
8
 73
4
 74
0
 40
0
 40
0
 40
0
 40
0
 40
1
 40
1
 40
1
 40
1
 10
122.804191
 20
57.700781
 30
0.0
 10
123.612552
 20
56.892420
 30
0.0
 10
124.066651
 20
55.796021
 30
0.0
 10
124.066573
 20
54.652820
 30
0.0
  0
SPLINE
  5
14e
100
AcDbEntity
  8
0
 62
1
100
AcDbSpline
 70
8
 71
3
 72
8
 73
4
 74
0
 40
0
 40
0
 40
0
 40
0
 40
1
 40
1
 40
1
 40
1
 10
124.066573
 20
54.652820
 30
0.0
 10
124.066514
 20
53.509709
 30
0.0
 10
123.612355
 20
52.413442
 30
0.0
 10
122.804009
 20
51.605192
 30
0.0
  0
SPLINE
  5
14f
100
AcDbEntity
  8
0
 62
1
100
AcDbSpline
 70
8
 71
3
 72
8
 73
4
 74
0
 40
0
 40
0
 40
0
 40
0
 40
1
 40
1
 40
1
 40
1
 10
122.804009
 20
51.605192
 30
0.0
 10
121.995663
 20
50.796943
 30
0.0
 10
120.899347
 20
50.342920
 30
0.0
 10
119.756246
 20
50.343008
 30
0.0
  0
SPLINE
  5
150
100
AcDbEntity
  8
0
 62
1
100
AcDbSpline
 70
8
 71
3
 72
8
 73
4
 74
0
 40
0
 40
0
 40
0
 40
0
 40
1
 40
1
 40
1
 40
1
 10
119.756246
 20
50.343008
 30
0.0
 10
117.376059
 20
50.343110
 30
0.0
 10
115.446556
 20
52.272613
 30
0.0
 10
115.446433
 20
54.652820
 30
0.0
  0
SPLINE
  5
151
100
AcDbEntity
  8
0
 62
1
100
AcDbSpline
 70
8
 71
3
 72
8
 73
4
 74
0
 40
0
 40
0
 40
0
 40
0
 40
1
 40
1
 40
1
 40
1
 10
115.446433
 20
54.652820
 30
0.0
 10
115.446356
 20
55.795931
 30
0.0
 10
115.900384
 20
56.892252
 30
0.0
 10
116.708634
 20
57.700599
 30
0.0
  0
SPLINE
  5
152
100
AcDbEntity
  8
0
 62
1
100
AcDbSpline
 70
8
 71
3
 72
8
 73
4
 74
0
 40
0
 40
0
 40
0
 40
0
 40
1
 40
1
 40
1
 40
1
 10
116.708634
 20
57.700599
 30
0.0
 10
117.516884
 20
58.508945
 30
0.0
 10
118.613145
 20
58.963098
 30
0.0
 10
119.756246
 20
58.963147
 30
0.0
  0
LINE
  5
153
100
AcDbEntity
  8
0
 62
1
100
AcDbLine
 10
119.756246
 20
58.963147
 30
0.0
 11
119.756246
 21
58.963147
 31
0.0
  0
SPLINE
  5
154
100
AcDbEntity
  8
0
 62
1
100
AcDbSpline
 70
8
 71
3
 72
8
 73
4
 74
0
 40
0
 40
0
 40
0
 40
0
 40
1
 40
1
 40
1
 40
1
 10
119.756246
 20
34.833368
 30
0.0
 10
120.899435
 20
34.833456
 30
0.0
 10
121.995829
 20
34.379363
 30
0.0
 10
122.804190
 20
33.571003
 30
0.0
  0
SPLINE
  5
155
100
AcDbEntity
  8
0
 62
1
100
AcDbSpline
 70
8
 71
3
 72
8
 73
4
 74
0
 40
0
 40
0
 40
0
 40
0
 40
1
 40
1
 40
1
 40
1
 10
122.804190
 20
33.571003
 30
0.0
 10
123.612551
 20
32.762643
 30
0.0
 10
124.066650
 20
31.666244
 30
0.0
 10
124.066573
 20
30.523044
 30
0.0
  0
SPLINE
  5
156
100
AcDbEntity
  8
0
 62
1
100
AcDbSpline
 70
8
 71
3
 72
8
 73
4
 74
0
 40
0
 40
0
 40
0
 40
0
 40
1
 40
1
 40
1
 40
1
 10
124.066573
 20
30.523044
 30
0.0
 10
124.066514
 20
29.379933
 30
0.0
 10
123.612355
 20
28.283666
 30
0.0
 10
122.804009
 20
27.475416
 30
0.0
  0
SPLINE
  5
157
100
AcDbEntity
  8
0
 62
1
100
AcDbSpline
 70
8
 71
3
 72
8
 73
4
 74
0
 40
0
 40
0
 40
0
 40
0
 40
1
 40
1
 40
1
 40
1
 10
122.804009
 20
27.475416
 30
0.0
 10
121.995663
 20
26.667166
 30
0.0
 10
120.899347
 20
26.213144
 30
0.0
 10
119.756246
 20
26.213232
 30
0.0
  0
SPLINE
  5
158
100
AcDbEntity
  8
0
 62
1
100
AcDbSpline
 70
8
 71
3
 72
8
 73
4
 74
0
 40
0
 40
0
 40
0
 40
0
 40
1
 40
1
 40
1
 40
1
 10
119.756246
 20
26.213232
 30
0.0
 10
117.376059
 20
26.213334
 30
0.0
 10
115.446556
 20
28.142837
 30
0.0
 10
115.446433
 20
30.523044
 30
0.0
  0
SPLINE
  5
159
100
AcDbEntity
  8
0
 62
1
100
AcDbSpline
 70
8
 71
3
 72
8
 73
4
 74
0
 40
0
 40
0
 40
0
 40
0
 40
1
 40
1
 40
1
 40
1
 10
115.446433
 20
30.523044
 30
0.0
 10
115.446357
 20
31.666155
 30
0.0
 10
115.900385
 20
32.762475
 30
0.0
 10
116.708635
 20
33.570821
 30
0.0
  0
SPLINE
  5
15a
100
AcDbEntity
  8
0
 62
1
100
AcDbSpline
 70
8
 71
3
 72
8
 73
4
 74
0
 40
0
 40
0
 40
0
 40
0
 40
1
 40
1
 40
1
 40
1
 10
116.708635
 20
33.570821
 30
0.0
 10
117.516884
 20
34.379167
 30
0.0
 10
118.613145
 20
34.833320
 30
0.0
 10
119.756246
 20
34.833368
 30
0.0
  0
LINE
  5
15b
100
AcDbEntity
  8
0
 62
1
100
AcDbLine
 10
119.756246
 20
34.833368
 30
0.0
 11
119.756246
 21
34.833368
 31
0.0
  0
SPLINE
  5
15c
100
AcDbEntity
  8
0
 62
1
100
AcDbSpline
 70
8
 71
3
 72
8
 73
4
 74
0
 40
0
 40
0
 40
0
 40
0
 40
1
 40
1
 40
1
 40
1
 10
14.000500
 20
72.870299
 30
0.0
 10
11.784503
 20
72.870299
 30
0.0
 10
10.000230
 20
71.086549
 30
0.0
 10
10.000230
 20
68.870545
 30
0.0
  0
LINE
  5
15d
100
AcDbEntity
  8
0
 62
1
100
AcDbLine
 10
10.000230
 20
68.870545
 30
0.0
 11
10.000230
 21
22.870285
 31
0.0
  0
SPLINE
  5
15e
100
AcDbEntity
  8
0
 62
1
100
AcDbSpline
 70
8
 71
3
 72
8
 73
4
 74
0
 40
0
 40
0
 40
0
 40
0
 40
1
 40
1
 40
1
 40
1
 10
10.000230
 20
22.870285
 30
0.0
 10
10.000230
 20
20.654292
 30
0.0
 10
11.784515
 20
18.870532
 30
0.0
 10
14.000500
 20
18.870532
 30
0.0
  0
LINE
  5
15f
100
AcDbEntity
  8
0
 62
1
100
AcDbLine
 10
14.000500
 20
18.870532
 30
0.0
 11
130.800010
 21
18.870532
 31
0.0
  0
SPLINE
  5
160
100
AcDbEntity
  8
0
 62
1
100
AcDbSpline
 70
8
 71
3
 72
8
 73
4
 74
0
 40
0
 40
0
 40
0
 40
0
 40
1
 40
1
 40
1
 40
1
 10
130.800010
 20
18.870532
 30
0.0
 10
133.015999
 20
18.870532
 30
0.0
 10
134.799760
 20
20.654285
 30
0.0
 10
134.799760
 20
22.870285
 30
0.0
  0
LINE
  5
161
100
AcDbEntity
  8
0
 62
1
100
AcDbLine
 10
134.799760
 20
22.870285
 30
0.0
 11
134.799760
 21
68.870545
 31
0.0
  0
SPLINE
  5
162
100
AcDbEntity
  8
0
 62
1
100
AcDbSpline
 70
8
 71
3
 72
8
 73
4
 74
0
 40
0
 40
0
 40
0
 40
0
 40
1
 40
1
 40
1
 40
1
 10
134.799760
 20
68.870545
 30
0.0
 10
134.799583
 20
71.086549
 30
0.0
 10
133.015872
 20
72.870299
 30
0.0
 10
130.800010
 20
72.870299
 30
0.0
  0
LINE
  5
163
100
AcDbEntity
  8
0
 62
1
100
AcDbLine
 10
130.800010
 20
72.870299
 30
0.0
 11
14.000500
 21
72.870299
 31
0.0
  0
ENDSEC
  0
SECTION
  2
OBJECTS
  0
DICTIONARY
  5
C
330
0
100
AcDbDictionary
  3
ACAD_GROUP
350
D
  3
ACAD_MLINESTYLE
350
17
  0
DICTIONARY
  5
D
330
C
100
AcDbDictionary
  0
DICTIONARY
  5
1A
330
C
100
AcDbDictionary
  0
DICTIONARY
  5
17
330
C
100
AcDbDictionary
  3
STANDARD
350
18
  0
DICTIONARY
  5
19
330
C
100
AcDbDictionary
  0
ENDSEC
  0
EOF
