  0
SECTION
  2
HEADER
  9
$ACADVER
  1
AC1014
  9
$HANDSEED
  5
FFFF
  9
$MEASUREMENT
 70
     1
  0
ENDSEC
  0
SECTION
  2
TABLES
  0
TABLE
  2
VPORT
  5
8
330
0
100
AcDbSymbolTable
 70
     4
  0
VPORT
  5
2E
330
8
100
AcDbSymbolTableRecord
100
AcDbViewportTableRecord
  2
*ACTIVE
 70
     0
 10
0.0
 20
0.0
 11
1.0
 21
1.0
 12
210.0
 22
148.5
 13
0.0
 23
0.0
 14
10.0
 24
10.0
 15
10.0
 25
10.0
 16
0.0
 26
0.0
 36
1.0
 17
0.0
 27
0.0
 37
0.0
 40
341.0
 41
1.24
 42
50.0
 43
0.0
 44
0.0
 50
0.0
 51
0.0
 71
     0
 72
   100
 73
     1
 74
     3
 75
     0
 76
     0
 77
     0
 78
     0
  0
ENDTAB
  0
TABLE
  2
LTYPE
  5
5
330
0
100
AcDbSymbolTable
 70
     1
  0
LTYPE
  5
14
330
5
100
AcDbSymbolTableRecord
100
AcDbLinetypeTableRecord
  2
BYBLOCK
 70
     0
  3

 72
    65
 73
     0
 40
0.0
  0
LTYPE
  5
15
330
5
100
AcDbSymbolTableRecord
100
AcDbLinetypeTableRecord
  2
BYLAYER
 70
     0
  3

 72
    65
 73
     0
 40
0.0
  0
LTYPE
  5
16
330
5
100
AcDbSymbolTableRecord
100
AcDbLinetypeTableRecord
  2
CONTINUOUS
 70
     0
  3
Solid line
 72
    65
 73
     0
 40
0.0
  0
ENDTAB
  0
TABLE
  2
LAYER
  5
2
100
AcDbSymbolTable
 70
1
  0
LAYER
  5
50
100
AcDbSymbolTableRecord
100
AcDbLayerTableRecord
  2
0
 70
0
  6
CONTINUOUS
  0
ENDTAB
  0
TABLE
  2
STYLE
  5
3
330
0
100
AcDbSymbolTable
 70
     1
  0
STYLE
  5
11
330
3
100
AcDbSymbolTableRecord
100
AcDbTextStyleTableRecord
  2
STANDARD
 70
     0
 40
0.0
 41
1.0
 50
0.0
 71
     0
 42
2.5
  3
txt
  4

  0
ENDTAB
  0
TABLE
  2
VIEW
  5
6
330
0
100
AcDbSymbolTable
 70
     0
  0
ENDTAB
  0
TABLE
  2
UCS
  5
7
330
0
100
AcDbSymbolTable
 70
     0
  0
ENDTAB
  0
TABLE
  2
APPID
  5
9
330
0
100
AcDbSymbolTable
 70
     2
  0
APPID
  5
12
330
9
100
AcDbSymbolTableRecord
100
AcDbRegAppTableRecord
  2
ACAD
 70
     0
  0
ENDTAB
  0
TABLE
  2
DIMSTYLE
  5
A
330
0
100
AcDbSymbolTable
 70
     1
  0
DIMSTYLE
105
27
330
A
100
AcDbSymbolTableRecord
100
AcDbDimStyleTableRecord
  2
ISO-25
 70
     0
  3

  4

  5

  6

  7

 40
1.0
 41
2.5
 42
0.625
 43
3.75
 44
1.25
 45
0.0
 46
0.0
 47
0.0
 48
0.0
140
2.5
141
2.5
142
0.0
143
0.03937007874016
144
1.0
145
0.0
146
1.0
147
0.625
 71
     0
 72
     0
 73
     0
 74
     0
 75
     0
 76
     0
 77
     1
 78
     8
170
     0
171
     3
172
     1
173
     0
174
     0
175
     0
176
     0
177
     0
178
     0
270
     2
271
     2
272
     2
273
     2
274
     3
340
11
275
     0
280
     0
281
     0
282
     0
283
     0
284
     8
285
     0
286
     0
287
     3
288
     0
  0
ENDTAB
  0
TABLE
  2
BLOCK_RECORD
  5
1
330
0
100
AcDbSymbolTable
 70
     1
  0
BLOCK_RECORD
  5
1F
330
1
100
AcDbSymbolTableRecord
100
AcDbBlockTableRecord
  2
*MODEL_SPACE
  0
BLOCK_RECORD
  5
1B
330
1
100
AcDbSymbolTableRecord
100
AcDbBlockTableRecord
  2
*PAPER_SPACE
  0
ENDTAB
  0
ENDSEC
  0
SECTION
  2
BLOCKS
  0
BLOCK
  5
20
330
1F
100
AcDbEntity
  8
0
100
AcDbBlockBegin
  2
*MODEL_SPACE
 70
     0
 10
0.0
 20
0.0
 30
0.0
  3
*MODEL_SPACE
  1

  0
ENDBLK
  5
21
330
1F
100
AcDbEntity
  8
0
100
AcDbBlockEnd
  0
BLOCK
  5
1C
330
1B
100
AcDbEntity
 67
     1
  8
0
100
AcDbBlockBegin
  2
*PAPER_SPACE
  1

  0
ENDBLK
  5
1D
330
1B
100
AcDbEntity
 67
     1
  8
0
100
AcDbBlockEnd
  0
ENDSEC
  0
SECTION
  2
ENTITIES
  0
SPLINE
  5
100
100
AcDbEntity
  8
0
 62
7
100
AcDbSpline
 70
8
 71
3
 72
8
 73
4
 74
0
 40
0
 40
0
 40
0
 40
0
 40
1
 40
1
 40
1
 40
1
 10
14.000511
 20
72.870358
 30
0.0
 10
11.784513
 20
72.870358
 30
0.0
 10
10.000238
 20
71.086607
 30
0.0
 10
10.000238
 20
68.870601
 30
0.0
  0
LINE
  5
101
100
AcDbEntity
  8
0
 62
7
100
AcDbLine
 10
10.000238
 20
68.870601
 30
0.0
 11
10.000238
 21
22.870304
 31
0.0
  0
SPLINE
  5
102
100
AcDbEntity
  8
0
 62
7
100
AcDbSpline
 70
8
 71
3
 72
8
 73
4
 74
0
 40
0
 40
0
 40
0
 40
0
 40
1
 40
1
 40
1
 40
1
 10
10.000238
 20
22.870304
 30
0.0
 10
10.000238
 20
20.654309
 30
0.0
 10
11.784525
 20
18.870547
 30
0.0
 10
14.000511
 20
18.870547
 30
0.0
  0
LINE
  5
103
100
AcDbEntity
  8
0
 62
7
100
AcDbLine
 10
14.000511
 20
18.870547
 30
0.0
 11
130.800115
 21
18.870547
 31
0.0
  0
SPLINE
  5
104
100
AcDbEntity
  8
0
 62
7
100
AcDbSpline
 70
8
 71
3
 72
8
 73
4
 74
0
 40
0
 40
0
 40
0
 40
0
 40
1
 40
1
 40
1
 40
1
 10
130.800115
 20
18.870547
 30
0.0
 10
133.016107
 20
18.870547
 30
0.0
 10
134.799869
 20
20.654302
 30
0.0
 10
134.799869
 20
22.870304
 30
0.0
  0
LINE
  5
105
100
AcDbEntity
  8
0
 62
7
100
AcDbLine
 10
134.799869
 20
22.870304
 30
0.0
 11
134.799869
 21
68.870601
 31
0.0
  0
SPLINE
  5
106
100
AcDbEntity
  8
0
 62
7
100
AcDbSpline
 70
8
 71
3
 72
8
 73
4
 74
0
 40
0
 40
0
 40
0
 40
0
 40
1
 40
1
 40
1
 40
1
 10
134.799869
 20
68.870601
 30
0.0
 10
134.799692
 20
71.086607
 30
0.0
 10
133.015980
 20
72.870358
 30
0.0
 10
130.800115
 20
72.870358
 30
0.0
  0
LINE
  5
107
100
AcDbEntity
  8
0
 62
7
100
AcDbLine
 10
130.800115
 20
72.870358
 30
0.0
 11
14.000511
 21
72.870358
 31
0.0
  0
SPLINE
  5
108
100
AcDbEntity
  8
0
 62
7
100
AcDbSpline
 70
8
 71
3
 72
8
 73
4
 74
0
 40
0
 40
0
 40
0
 40
0
 40
1
 40
1
 40
1
 40
1
 10
34.831799
 20
71.822878
 30
0.0
 10
35.356325
 20
71.822775
 30
0.0
 10
35.781511
 20
71.397589
 30
0.0
 10
35.781614
 20
70.873064
 30
0.0
  0
SPLINE
  5
109
100
AcDbEntity
  8
0
 62
7
100
AcDbSpline
 70
8
 71
3
 72
8
 73
4
 74
0
 40
0
 40
0
 40
0
 40
0
 40
1
 40
1
 40
1
 40
1
 10
35.781614
 20
70.873064
 30
0.0
 10
35.781511
 20
70.348538
 30
0.0
 10
35.356325
 20
69.923352
 30
0.0
 10
34.831799
 20
69.923250
 30
0.0
  0
SPLINE
  5
10a
100
AcDbEntity
  8
0
 62
7
100
AcDbSpline
 70
8
 71
3
 72
8
 73
4
 74
0
 40
0
 40
0
 40
0
 40
0
 40
1
 40
1
 40
1
 40
1
 10
34.831799
 20
69.923250
 30
0.0
 10
34.579819
 20
69.923162
 30
0.0
 10
34.338126
 20
70.023187
 30
0.0
 10
34.159901
 20
70.201316
 30
0.0
  0
SPLINE
  5
10b
100
AcDbEntity
  8
0
 62
7
100
AcDbSpline
 70
8
 71
3
 72
8
 73
4
 74
0
 40
0
 40
0
 40
0
 40
0
 40
1
 40
1
 40
1
 40
1
 10
34.159901
 20
70.201316
 30
0.0
 10
33.981675
 20
70.379445
 30
0.0
 10
33.881519
 20
70.621083
 30
0.0
 10
33.881470
 20
70.873064
 30
0.0
  0
SPLINE
  5
10c
100
AcDbEntity
  8
0
 62
7
100
AcDbSpline
 70
8
 71
3
 72
8
 73
4
 74
0
 40
0
 40
0
 40
0
 40
0
 40
1
 40
1
 40
1
 40
1
 10
33.881470
 20
70.873064
 30
0.0
 10
33.881519
 20
71.125044
 30
0.0
 10
33.981675
 20
71.366682
 30
0.0
 10
34.159901
 20
71.544811
 30
0.0
  0
SPLINE
  5
10d
100
AcDbEntity
  8
0
 62
7
100
AcDbSpline
 70
8
 71
3
 72
8
 73
4
 74
0
 40
0
 40
0
 40
0
 40
0
 40
1
 40
1
 40
1
 40
1
 10
34.159901
 20
71.544811
 30
0.0
 10
34.338126
 20
71.722940
 30
0.0
 10
34.579819
 20
71.822965
 30
0.0
 10
34.831799
 20
71.822878
 30
0.0
  0
LINE
  5
10e
100
AcDbEntity
  8
0
 62
7
100
AcDbLine
 10
34.831799
 20
71.822878
 30
0.0
 11
34.831799
 21
71.822878
 31
0.0
  0
SPLINE
  5
10f
100
AcDbEntity
  8
0
 62
7
100
AcDbSpline
 70
8
 71
3
 72
8
 73
4
 74
0
 40
0
 40
0
 40
0
 40
0
 40
1
 40
1
 40
1
 40
1
 10
116.111085
 20
71.822878
 30
0.0
 10
116.363065
 20
71.822965
 30
0.0
 10
116.604758
 20
71.722940
 30
0.0
 10
116.782983
 20
71.544811
 30
0.0
  0
SPLINE
  5
110
100
AcDbEntity
  8
0
 62
7
100
AcDbSpline
 70
8
 71
3
 72
8
 73
4
 74
0
 40
0
 40
0
 40
0
 40
0
 40
1
 40
1
 40
1
 40
1
 10
116.782983
 20
71.544811
 30
0.0
 10
116.961208
 20
71.366682
 30
0.0
 10
117.061364
 20
71.125044
 30
0.0
 10
117.061414
 20
70.873064
 30
0.0
  0
SPLINE
  5
111
100
AcDbEntity
  8
0
 62
7
100
AcDbSpline
 70
8
 71
3
 72
8
 73
4
 74
0
 40
0
 40
0
 40
0
 40
0
 40
1
 40
1
 40
1
 40
1
 10
117.061414
 20
70.873064
 30
0.0
 10
117.061364
 20
70.621083
 30
0.0
 10
116.961208
 20
70.379445
 30
0.0
 10
116.782983
 20
70.201316
 30
0.0
  0
SPLINE
  5
112
100
AcDbEntity
  8
0
 62
7
100
AcDbSpline
 70
8
 71
3
 72
8
 73
4
 74
0
 40
0
 40
0
 40
0
 40
0
 40
1
 40
1
 40
1
 40
1
 10
116.782983
 20
70.201316
 30
0.0
 10
116.604758
 20
70.023187
 30
0.0
 10
116.363065
 20
69.923162
 30
0.0
 10
116.111085
 20
69.923250
 30
0.0
  0
SPLINE
  5
113
100
AcDbEntity
  8
0
 62
7
100
AcDbSpline
 70
8
 71
3
 72
8
 73
4
 74
0
 40
0
 40
0
 40
0
 40
0
 40
1
 40
1
 40
1
 40
1
 10
116.111085
 20
69.923250
 30
0.0
 10
115.586560
 20
69.923352
 30
0.0
 10
115.161374
 20
70.348538
 30
0.0
 10
115.161271
 20
70.873064
 30
0.0
  0
SPLINE
  5
114
100
AcDbEntity
  8
0
 62
7
100
AcDbSpline
 70
8
 71
3
 72
8
 73
4
 74
0
 40
0
 40
0
 40
0
 40
0
 40
1
 40
1
 40
1
 40
1
 10
115.161271
 20
70.873064
 30
0.0
 10
115.161374
 20
71.397589
 30
0.0
 10
115.586560
 20
71.822775
 30
0.0
 10
116.111085
 20
71.822878
 30
0.0
  0
LINE
  5
115
100
AcDbEntity
  8
0
 62
7
100
AcDbLine
 10
116.111085
 20
71.822878
 30
0.0
 11
116.111085
 21
71.822878
 31
0.0
  0
LINE
  5
116
100
AcDbEntity
  8
0
 62
7
100
AcDbLine
 10
21.941629
 20
71.028092
 30
0.0
 11
28.341756
 21
71.028092
 31
0.0
  0
SPLINE
  5
117
100
AcDbEntity
  8
0
 62
7
100
AcDbSpline
 70
8
 71
3
 72
8
 73
4
 74
0
 40
0
 40
0
 40
0
 40
0
 40
1
 40
1
 40
1
 40
1
 10
28.341756
 20
71.028092
 30
0.0
 10
28.769831
 20
71.028028
 30
0.0
 10
29.116839
 20
70.681020
 30
0.0
 10
29.116903
 20
70.252945
 30
0.0
  0
LINE
  5
118
100
AcDbEntity
  8
0
 62
7
100
AcDbLine
 10
29.116903
 20
70.252945
 30
0.0
 11
29.116903
 21
64.678091
 31
0.0
  0
LINE
  5
119
100
AcDbEntity
  8
0
 62
7
100
AcDbLine
 10
29.116903
 20
64.678091
 30
0.0
 11
34.691757
 21
64.678091
 31
0.0
  0
SPLINE
  5
11a
100
AcDbEntity
  8
0
 62
7
100
AcDbSpline
 70
8
 71
3
 72
8
 73
4
 74
0
 40
0
 40
0
 40
0
 40
0
 40
1
 40
1
 40
1
 40
1
 10
34.691757
 20
64.678091
 30
0.0
 10
35.119833
 20
64.678027
 30
0.0
 10
35.466841
 20
64.331019
 30
0.0
 10
35.466905
 20
63.902944
 30
0.0
  0
SPLINE
  5
11b
100
AcDbEntity
  8
0
 62
7
100
AcDbSpline
 70
8
 71
3
 72
8
 73
4
 74
0
 40
0
 40
0
 40
0
 40
0
 40
1
 40
1
 40
1
 40
1
 10
35.466905
 20
63.902944
 30
0.0
 10
35.466905
 20
63.902944
 30
0.0
 10
35.466905
 20
58.103300
 30
0.0
 10
35.466905
 20
58.103300
 30
0.0
  0
SPLINE
  5
11c
100
AcDbEntity
  8
0
 62
7
100
AcDbSpline
 70
8
 71
3
 72
8
 73
4
 74
0
 40
0
 40
0
 40
0
 40
0
 40
1
 40
1
 40
1
 40
1
 10
35.466905
 20
58.103300
 30
0.0
 10
35.466840
 20
57.675225
 30
0.0
 10
35.119832
 20
57.328218
 30
0.0
 10
34.691757
 20
57.328154
 30
0.0
  0
LINE
  5
11d
100
AcDbEntity
  8
0
 62
7
100
AcDbLine
 10
34.691757
 20
57.328154
 30
0.0
 11
29.116903
 21
57.328154
 31
0.0
  0
SPLINE
  5
11e
100
AcDbEntity
  8
0
 62
7
100
AcDbSpline
 70
8
 71
3
 72
8
 73
4
 74
0
 40
0
 40
0
 40
0
 40
0
 40
1
 40
1
 40
1
 40
1
 10
29.116903
 20
57.328154
 30
0.0
 10
29.116903
 20
57.328154
 30
0.0
 10
29.116903
 20
51.753300
 30
0.0
 10
29.116903
 20
51.753300
 30
0.0
  0
SPLINE
  5
11f
100
AcDbEntity
  8
0
 62
7
100
AcDbSpline
 70
8
 71
3
 72
8
 73
4
 74
0
 40
0
 40
0
 40
0
 40
0
 40
1
 40
1
 40
1
 40
1
 10
29.116903
 20
51.753300
 30
0.0
 10
29.116839
 20
51.325225
 30
0.0
 10
28.769831
 20
50.978217
 30
0.0
 10
28.341756
 20
50.978153
 30
0.0
  0
SPLINE
  5
120
100
AcDbEntity
  8
0
 62
7
100
AcDbSpline
 70
8
 71
3
 72
8
 73
4
 74
0
 40
0
 40
0
 40
0
 40
0
 40
1
 40
1
 40
1
 40
1
 10
28.341756
 20
50.978153
 30
0.0
 10
28.341756
 20
50.978153
 30
0.0
 10
21.941629
 20
50.978153
 30
0.0
 10
21.941629
 20
50.978153
 30
0.0
  0
SPLINE
  5
121
100
AcDbEntity
  8
0
 62
7
100
AcDbSpline
 70
8
 71
3
 72
8
 73
4
 74
0
 40
0
 40
0
 40
0
 40
0
 40
1
 40
1
 40
1
 40
1
 10
21.941629
 20
50.978153
 30
0.0
 10
21.513554
 20
50.978217
 30
0.0
 10
21.166546
 20
51.325225
 30
0.0
 10
21.166482
 20
51.753300
 30
0.0
  0
LINE
  5
122
100
AcDbEntity
  8
0
 62
7
100
AcDbLine
 10
21.166482
 20
51.753300
 30
0.0
 11
21.166482
 21
57.328154
 31
0.0
  0
LINE
  5
123
100
AcDbEntity
  8
0
 62
7
100
AcDbLine
 10
21.166482
 20
57.328154
 30
0.0
 11
15.591628
 21
57.328154
 31
0.0
  0
SPLINE
  5
124
100
AcDbEntity
  8
0
 62
7
100
AcDbSpline
 70
8
 71
3
 72
8
 73
4
 74
0
 40
0
 40
0
 40
0
 40
0
 40
1
 40
1
 40
1
 40
1
 10
15.591628
 20
57.328154
 30
0.0
 10
15.163554
 20
57.328218
 30
0.0
 10
14.816546
 20
57.675225
 30
0.0
 10
14.816482
 20
58.103300
 30
0.0
  0
SPLINE
  5
125
100
AcDbEntity
  8
0
 62
7
100
AcDbSpline
 70
8
 71
3
 72
8
 73
4
 74
0
 40
0
 40
0
 40
0
 40
0
 40
1
 40
1
 40
1
 40
1
 10
14.816482
 20
58.103300
 30
0.0
 10
14.816482
 20
58.103300
 30
0.0
 10
14.816482
 20
63.902944
 30
0.0
 10
14.816482
 20
63.902944
 30
0.0
  0
SPLINE
  5
126
100
AcDbEntity
  8
0
 62
7
100
AcDbSpline
 70
8
 71
3
 72
8
 73
4
 74
0
 40
0
 40
0
 40
0
 40
0
 40
1
 40
1
 40
1
 40
1
 10
14.816482
 20
63.902944
 30
0.0
 10
14.816546
 20
64.331019
 30
0.0
 10
15.163553
 20
64.678026
 30
0.0
 10
15.591628
 20
64.678091
 30
0.0
  0
LINE
  5
127
100
AcDbEntity
  8
0
 62
7
100
AcDbLine
 10
15.591628
 20
64.678091
 30
0.0
 11
21.166482
 21
64.678091
 31
0.0
  0
SPLINE
  5
128
100
AcDbEntity
  8
0
 62
7
100
AcDbSpline
 70
8
 71
3
 72
8
 73
4
 74
0
 40
0
 40
0
 40
0
 40
0
 40
1
 40
1
 40
1
 40
1
 10
21.166482
 20
64.678091
 30
0.0
 10
21.166482
 20
64.678091
 30
0.0
 10
21.166482
 20
70.252945
 30
0.0
 10
21.166482
 20
70.252945
 30
0.0
  0
SPLINE
  5
129
100
AcDbEntity
  8
0
 62
7
100
AcDbSpline
 70
8
 71
3
 72
8
 73
4
 74
0
 40
0
 40
0
 40
0
 40
0
 40
1
 40
1
 40
1
 40
1
 10
21.166482
 20
70.252945
 30
0.0
 10
21.166546
 20
70.681020
 30
0.0
 10
21.513554
 20
71.028027
 30
0.0
 10
21.941629
 20
71.028092
 30
0.0
  0
LINE
  5
12a
100
AcDbEntity
  8
0
 62
7
100
AcDbLine
 10
21.941629
 20
71.028092
 30
0.0
 11
21.941629
 21
71.028092
 31
0.0
  0
SPLINE
  5
12b
100
AcDbEntity
  8
0
 62
7
100
AcDbSpline
 70
8
 71
3
 72
8
 73
4
 74
0
 40
0
 40
0
 40
0
 40
0
 40
1
 40
1
 40
1
 40
1
 10
126.106340
 20
71.028092
 30
0.0
 10
127.249442
 20
71.028180
 30
0.0
 10
128.345759
 20
70.574158
 30
0.0
 10
129.154107
 20
69.765909
 30
0.0
  0
SPLINE
  5
12c
100
AcDbEntity
  8
0
 62
7
100
AcDbSpline
 70
8
 71
3
 72
8
 73
4
 74
0
 40
0
 40
0
 40
0
 40
0
 40
1
 40
1
 40
1
 40
1
 10
129.154107
 20
69.765909
 30
0.0
 10
129.962454
 20
68.957659
 30
0.0
 10
130.416615
 20
67.861391
 30
0.0
 10
130.416675
 20
66.718279
 30
0.0
  0
SPLINE
  5
12d
100
AcDbEntity
  8
0
 62
7
100
AcDbSpline
 70
8
 71
3
 72
8
 73
4
 74
0
 40
0
 40
0
 40
0
 40
0
 40
1
 40
1
 40
1
 40
1
 10
130.416675
 20
66.718279
 30
0.0
 10
130.416753
 20
65.575076
 30
0.0
 10
129.962654
 20
64.478675
 30
0.0
 10
129.154291
 20
63.670312
 30
0.0
  0
SPLINE
  5
12e
100
AcDbEntity
  8
0
 62
7
100
AcDbSpline
 70
8
 71
3
 72
8
 73
4
 74
0
 40
0
 40
0
 40
0
 40
0
 40
1
 40
1
 40
1
 40
1
 10
129.154291
 20
63.670312
 30
0.0
 10
128.345929
 20
62.861949
 30
0.0
 10
127.249533
 20
62.407856
 30
0.0
 10
126.106340
 20
62.407944
 30
0.0
  0
SPLINE
  5
12f
100
AcDbEntity
  8
0
 62
7
100
AcDbSpline
 70
8
 71
3
 72
8
 73
4
 74
0
 40
0
 40
0
 40
0
 40
0
 40
1
 40
1
 40
1
 40
1
 10
126.106340
 20
62.407944
 30
0.0
 10
124.963238
 20
62.407994
 30
0.0
 10
123.866976
 20
62.862149
 30
0.0
 10
123.058726
 20
63.670497
 30
0.0
  0
SPLINE
  5
130
100
AcDbEntity
  8
0
 62
7
100
AcDbSpline
 70
8
 71
3
 72
8
 73
4
 74
0
 40
0
 40
0
 40
0
 40
0
 40
1
 40
1
 40
1
 40
1
 10
123.058726
 20
63.670497
 30
0.0
 10
122.250477
 20
64.478844
 30
0.0
 10
121.796449
 20
65.575167
 30
0.0
 10
121.796528
 20
66.718279
 30
0.0
  0
SPLINE
  5
131
100
AcDbEntity
  8
0
 62
7
100
AcDbSpline
 70
8
 71
3
 72
8
 73
4
 74
0
 40
0
 40
0
 40
0
 40
0
 40
1
 40
1
 40
1
 40
1
 10
121.796528
 20
66.718279
 30
0.0
 10
121.796652
 20
69.098486
 30
0.0
 10
123.726154
 20
71.027988
 30
0.0
 10
126.106340
 20
71.028092
 30
0.0
  0
LINE
  5
132
100
AcDbEntity
  8
0
 62
7
100
AcDbLine
 10
126.106340
 20
71.028092
 30
0.0
 11
126.106340
 21
71.028092
 31
0.0
  0
SPLINE
  5
133
100
AcDbEntity
  8
0
 62
7
100
AcDbSpline
 70
8
 71
3
 72
8
 73
4
 74
0
 40
0
 40
0
 40
0
 40
0
 40
1
 40
1
 40
1
 40
1
 10
12.606797
 20
69.918081
 30
0.0
 10
13.131321
 20
69.917978
 30
0.0
 10
13.556505
 20
69.492794
 30
0.0
 10
13.556610
 20
68.968271
 30
0.0
  0
SPLINE
  5
134
100
AcDbEntity
  8
0
 62
7
100
AcDbSpline
 70
8
 71
3
 72
8
 73
4
 74
0
 40
0
 40
0
 40
0
 40
0
 40
1
 40
1
 40
1
 40
1
 10
13.556610
 20
68.968271
 30
0.0
 10
13.556698
 20
68.716290
 30
0.0
 10
13.456674
 20
68.474597
 30
0.0
 10
13.278545
 20
68.296371
 30
0.0
  0
SPLINE
  5
135
100
AcDbEntity
  8
0
 62
7
100
AcDbSpline
 70
8
 71
3
 72
8
 73
4
 74
0
 40
0
 40
0
 40
0
 40
0
 40
1
 40
1
 40
1
 40
1
 10
13.278545
 20
68.296371
 30
0.0
 10
13.100417
 20
68.118145
 30
0.0
 10
12.858778
 20
68.017988
 30
0.0
 10
12.606797
 20
68.017939
 30
0.0
  0
SPLINE
  5
136
100
AcDbEntity
  8
0
 62
7
100
AcDbSpline
 70
8
 71
3
 72
8
 73
4
 74
0
 40
0
 40
0
 40
0
 40
0
 40
1
 40
1
 40
1
 40
1
 10
12.606797
 20
68.017939
 30
0.0
 10
12.354727
 20
68.017851
 30
0.0
 10
12.112955
 20
68.117947
 30
0.0
 10
11.934715
 20
68.296188
 30
0.0
  0
SPLINE
  5
137
100
AcDbEntity
  8
0
 62
7
100
AcDbSpline
 70
8
 71
3
 72
8
 73
4
 74
0
 40
0
 40
0
 40
0
 40
0
 40
1
 40
1
 40
1
 40
1
 10
11.934715
 20
68.296188
 30
0.0
 10
11.756475
 20
68.474429
 30
0.0
 10
11.656379
 20
68.716201
 30
0.0
 10
11.656468
 20
68.968271
 30
0.0
  0
SPLINE
  5
138
100
AcDbEntity
  8
0
 62
7
100
AcDbSpline
 70
8
 71
3
 72
8
 73
4
 74
0
 40
0
 40
0
 40
0
 40
0
 40
1
 40
1
 40
1
 40
1
 10
11.656468
 20
68.968271
 30
0.0
 10
11.656518
 20
69.220251
 30
0.0
 10
11.756674
 20
69.461888
 30
0.0
 10
11.934900
 20
69.640017
 30
0.0
  0
SPLINE
  5
139
100
AcDbEntity
  8
0
 62
7
100
AcDbSpline
 70
8
 71
3
 72
8
 73
4
 74
0
 40
0
 40
0
 40
0
 40
0
 40
1
 40
1
 40
1
 40
1
 10
11.934900
 20
69.640017
 30
0.0
 10
12.113125
 20
69.818145
 30
0.0
 10
12.354817
 20
69.918169
 30
0.0
 10
12.606797
 20
69.918081
 30
0.0
  0
LINE
  5
13a
100
AcDbEntity
  8
0
 62
7
100
AcDbLine
 10
12.606797
 20
69.918081
 30
0.0
 11
12.606797
 21
69.918081
 31
0.0
  0
SPLINE
  5
13b
100
AcDbEntity
  8
0
 62
7
100
AcDbSpline
 70
8
 71
3
 72
8
 73
4
 74
0
 40
0
 40
0
 40
0
 40
0
 40
1
 40
1
 40
1
 40
1
 10
132.621190
 20
69.918081
 30
0.0
 10
133.145714
 20
69.917979
 30
0.0
 10
133.570900
 20
69.492795
 30
0.0
 10
133.571004
 20
68.968271
 30
0.0
  0
SPLINE
  5
13c
100
AcDbEntity
  8
0
 62
7
100
AcDbSpline
 70
8
 71
3
 72
8
 73
4
 74
0
 40
0
 40
0
 40
0
 40
0
 40
1
 40
1
 40
1
 40
1
 10
133.571004
 20
68.968271
 30
0.0
 10
133.571093
 20
68.716290
 30
0.0
 10
133.471068
 20
68.474597
 30
0.0
 10
133.292939
 20
68.296370
 30
0.0
  0
SPLINE
  5
13d
100
AcDbEntity
  8
0
 62
7
100
AcDbSpline
 70
8
 71
3
 72
8
 73
4
 74
0
 40
0
 40
0
 40
0
 40
0
 40
1
 40
1
 40
1
 40
1
 10
133.292939
 20
68.296370
 30
0.0
 10
133.114810
 20
68.118144
 30
0.0
 10
132.873171
 20
68.017988
 30
0.0
 10
132.621190
 20
68.017939
 30
0.0
  0
SPLINE
  5
13e
100
AcDbEntity
  8
0
 62
7
100
AcDbSpline
 70
8
 71
3
 72
8
 73
4
 74
0
 40
0
 40
0
 40
0
 40
0
 40
1
 40
1
 40
1
 40
1
 10
132.621190
 20
68.017939
 30
0.0
 10
132.369210
 20
68.017989
 30
0.0
 10
132.127572
 20
68.118146
 30
0.0
 10
131.949444
 20
68.296372
 30
0.0
  0
SPLINE
  5
13f
100
AcDbEntity
  8
0
 62
7
100
AcDbSpline
 70
8
 71
3
 72
8
 73
4
 74
0
 40
0
 40
0
 40
0
 40
0
 40
1
 40
1
 40
1
 40
1
 10
131.949444
 20
68.296372
 30
0.0
 10
131.771316
 20
68.474598
 30
0.0
 10
131.671292
 20
68.716291
 30
0.0
 10
131.671380
 20
68.968271
 30
0.0
  0
SPLINE
  5
140
100
AcDbEntity
  8
0
 62
7
100
AcDbSpline
 70
8
 71
3
 72
8
 73
4
 74
0
 40
0
 40
0
 40
0
 40
0
 40
1
 40
1
 40
1
 40
1
 10
131.671380
 20
68.968271
 30
0.0
 10
131.671485
 20
69.492794
 30
0.0
 10
132.096668
 20
69.917977
 30
0.0
 10
132.621190
 20
69.918081
 30
0.0
  0
LINE
  5
141
100
AcDbEntity
  8
0
 62
7
100
AcDbLine
 10
132.621190
 20
69.918081
 30
0.0
 11
132.621190
 21
69.918081
 31
0.0
  0
SPLINE
  5
142
100
AcDbEntity
  8
0
 62
7
100
AcDbSpline
 70
8
 71
3
 72
8
 73
4
 74
0
 40
0
 40
0
 40
0
 40
0
 40
1
 40
1
 40
1
 40
1
 10
119.756343
 20
58.963194
 30
0.0
 10
120.899534
 20
58.963282
 30
0.0
 10
121.995928
 20
58.509189
 30
0.0
 10
122.804290
 20
57.700827
 30
0.0
  0
SPLINE
  5
143
100
AcDbEntity
  8
0
 62
7
100
AcDbSpline
 70
8
 71
3
 72
8
 73
4
 74
0
 40
0
 40
0
 40
0
 40
0
 40
1
 40
1
 40
1
 40
1
 10
122.804290
 20
57.700827
 30
0.0
 10
123.612652
 20
56.892466
 30
0.0
 10
124.066751
 20
55.796066
 30
0.0
 10
124.066674
 20
54.652865
 30
0.0
  0
SPLINE
  5
144
100
AcDbEntity
  8
0
 62
7
100
AcDbSpline
 70
8
 71
3
 72
8
 73
4
 74
0
 40
0
 40
0
 40
0
 40
0
 40
1
 40
1
 40
1
 40
1
 10
124.066674
 20
54.652865
 30
0.0
 10
124.066615
 20
53.509753
 30
0.0
 10
123.612455
 20
52.413484
 30
0.0
 10
122.804108
 20
51.605234
 30
0.0
  0
SPLINE
  5
145
100
AcDbEntity
  8
0
 62
7
100
AcDbSpline
 70
8
 71
3
 72
8
 73
4
 74
0
 40
0
 40
0
 40
0
 40
0
 40
1
 40
1
 40
1
 40
1
 10
122.804108
 20
51.605234
 30
0.0
 10
121.995761
 20
50.796984
 30
0.0
 10
120.899445
 20
50.342961
 30
0.0
 10
119.756343
 20
50.343049
 30
0.0
  0
SPLINE
  5
146
100
AcDbEntity
  8
0
 62
7
100
AcDbSpline
 70
8
 71
3
 72
8
 73
4
 74
0
 40
0
 40
0
 40
0
 40
0
 40
1
 40
1
 40
1
 40
1
 10
119.756343
 20
50.343049
 30
0.0
 10
117.376154
 20
50.343150
 30
0.0
 10
115.446649
 20
52.272655
 30
0.0
 10
115.446527
 20
54.652865
 30
0.0
  0
SPLINE
  5
147
100
AcDbEntity
  8
0
 62
7
100
AcDbSpline
 70
8
 71
3
 72
8
 73
4
 74
0
 40
0
 40
0
 40
0
 40
0
 40
1
 40
1
 40
1
 40
1
 10
115.446527
 20
54.652865
 30
0.0
 10
115.446449
 20
55.795976
 30
0.0
 10
115.900478
 20
56.892298
 30
0.0
 10
116.708728
 20
57.700645
 30
0.0
  0
SPLINE
  5
148
100
AcDbEntity
  8
0
 62
7
100
AcDbSpline
 70
8
 71
3
 72
8
 73
4
 74
0
 40
0
 40
0
 40
0
 40
0
 40
1
 40
1
 40
1
 40
1
 10
116.708728
 20
57.700645
 30
0.0
 10
117.516979
 20
58.508992
 30
0.0
 10
118.613241
 20
58.963145
 30
0.0
 10
119.756343
 20
58.963194
 30
0.0
  0
LINE
  5
149
100
AcDbEntity
  8
0
 62
7
100
AcDbLine
 10
119.756343
 20
58.963194
 30
0.0
 11
119.756343
 21
58.963194
 31
0.0
  0
SPLINE
  5
14a
100
AcDbEntity
  8
0
 62
7
100
AcDbSpline
 70
8
 71
3
 72
8
 73
4
 74
0
 40
0
 40
0
 40
0
 40
0
 40
1
 40
1
 40
1
 40
1
 10
119.756343
 20
34.833397
 30
0.0
 10
120.899533
 20
34.833484
 30
0.0
 10
121.995927
 20
34.379391
 30
0.0
 10
122.804289
 20
33.571030
 30
0.0
  0
SPLINE
  5
14b
100
AcDbEntity
  8
0
 62
7
100
AcDbSpline
 70
8
 71
3
 72
8
 73
4
 74
0
 40
0
 40
0
 40
0
 40
0
 40
1
 40
1
 40
1
 40
1
 10
122.804289
 20
33.571030
 30
0.0
 10
123.612651
 20
32.762669
 30
0.0
 10
124.066750
 20
31.666270
 30
0.0
 10
124.066674
 20
30.523069
 30
0.0
  0
SPLINE
  5
14c
100
AcDbEntity
  8
0
 62
7
100
AcDbSpline
 70
8
 71
3
 72
8
 73
4
 74
0
 40
0
 40
0
 40
0
 40
0
 40
1
 40
1
 40
1
 40
1
 10
124.066674
 20
30.523069
 30
0.0
 10
124.066615
 20
29.379957
 30
0.0
 10
123.612455
 20
28.283689
 30
0.0
 10
122.804108
 20
27.475438
 30
0.0
  0
SPLINE
  5
14d
100
AcDbEntity
  8
0
 62
7
100
AcDbSpline
 70
8
 71
3
 72
8
 73
4
 74
0
 40
0
 40
0
 40
0
 40
0
 40
1
 40
1
 40
1
 40
1
 10
122.804108
 20
27.475438
 30
0.0
 10
121.995761
 20
26.667188
 30
0.0
 10
120.899445
 20
26.213165
 30
0.0
 10
119.756343
 20
26.213253
 30
0.0
  0
SPLINE
  5
14e
100
AcDbEntity
  8
0
 62
7
100
AcDbSpline
 70
8
 71
3
 72
8
 73
4
 74
0
 40
0
 40
0
 40
0
 40
0
 40
1
 40
1
 40
1
 40
1
 10
119.756343
 20
26.213253
 30
0.0
 10
117.376154
 20
26.213355
 30
0.0
 10
115.446649
 20
28.142859
 30
0.0
 10
115.446527
 20
30.523069
 30
0.0
  0
SPLINE
  5
14f
100
AcDbEntity
  8
0
 62
7
100
AcDbSpline
 70
8
 71
3
 72
8
 73
4
 74
0
 40
0
 40
0
 40
0
 40
0
 40
1
 40
1
 40
1
 40
1
 10
115.446527
 20
30.523069
 30
0.0
 10
115.446450
 20
31.666180
 30
0.0
 10
115.900479
 20
32.762502
 30
0.0
 10
116.708729
 20
33.570848
 30
0.0
  0
SPLINE
  5
150
100
AcDbEntity
  8
0
 62
7
100
AcDbSpline
 70
8
 71
3
 72
8
 73
4
 74
0
 40
0
 40
0
 40
0
 40
0
 40
1
 40
1
 40
1
 40
1
 10
116.708729
 20
33.570848
 30
0.0
 10
117.516979
 20
34.379194
 30
0.0
 10
118.613241
 20
34.833348
 30
0.0
 10
119.756343
 20
34.833397
 30
0.0
  0
LINE
  5
151
100
AcDbEntity
  8
0
 62
7
100
AcDbLine
 10
119.756343
 20
34.833397
 30
0.0
 11
119.756343
 21
34.833397
 31
0.0
  0
SPLINE
  5
152
100
AcDbEntity
  8
0
 62
7
100
AcDbSpline
 70
8
 71
3
 72
8
 73
4
 74
0
 40
0
 40
0
 40
0
 40
0
 40
1
 40
1
 40
1
 40
1
 10
12.606797
 20
24.198387
 30
0.0
 10
12.858777
 20
24.198337
 30
0.0
 10
13.100414
 20
24.098182
 30
0.0
 10
13.278543
 20
23.919957
 30
0.0
  0
SPLINE
  5
153
100
AcDbEntity
  8
0
 62
7
100
AcDbSpline
 70
8
 71
3
 72
8
 73
4
 74
0
 40
0
 40
0
 40
0
 40
0
 40
1
 40
1
 40
1
 40
1
 10
13.278543
 20
23.919957
 30
0.0
 10
13.456671
 20
23.741732
 30
0.0
 10
13.556696
 20
23.500041
 30
0.0
 10
13.556610
 20
23.248061
 30
0.0
  0
SPLINE
  5
154
100
AcDbEntity
  8
0
 62
7
100
AcDbSpline
 70
8
 71
3
 72
8
 73
4
 74
0
 40
0
 40
0
 40
0
 40
0
 40
1
 40
1
 40
1
 40
1
 10
13.556610
 20
23.248061
 30
0.0
 10
13.556509
 20
22.723535
 30
0.0
 10
13.131323
 20
22.298347
 30
0.0
 10
12.606797
 20
22.298244
 30
0.0
  0
SPLINE
  5
155
100
AcDbEntity
  8
0
 62
7
100
AcDbSpline
 70
8
 71
3
 72
8
 73
4
 74
0
 40
0
 40
0
 40
0
 40
0
 40
1
 40
1
 40
1
 40
1
 10
12.606797
 20
22.298244
 30
0.0
 10
12.354816
 20
22.298156
 30
0.0
 10
12.113123
 20
22.398182
 30
0.0
 10
11.934897
 20
22.576311
 30
0.0
  0
SPLINE
  5
156
100
AcDbEntity
  8
0
 62
7
100
AcDbSpline
 70
8
 71
3
 72
8
 73
4
 74
0
 40
0
 40
0
 40
0
 40
0
 40
1
 40
1
 40
1
 40
1
 10
11.934897
 20
22.576311
 30
0.0
 10
11.756672
 20
22.754441
 30
0.0
 10
11.656516
 20
22.996080
 30
0.0
 10
11.656468
 20
23.248061
 30
0.0
  0
SPLINE
  5
157
100
AcDbEntity
  8
0
 62
7
100
AcDbSpline
 70
8
 71
3
 72
8
 73
4
 74
0
 40
0
 40
0
 40
0
 40
0
 40
1
 40
1
 40
1
 40
1
 10
11.656468
 20
23.248061
 30
0.0
 10
11.656381
 20
23.500131
 30
0.0
 10
11.756477
 20
23.741900
 30
0.0
 10
11.934718
 20
23.920140
 30
0.0
  0
SPLINE
  5
158
100
AcDbEntity
  8
0
 62
7
100
AcDbSpline
 70
8
 71
3
 72
8
 73
4
 74
0
 40
0
 40
0
 40
0
 40
0
 40
1
 40
1
 40
1
 40
1
 10
11.934718
 20
23.920140
 30
0.0
 10
12.112958
 20
24.098379
 30
0.0
 10
12.354728
 20
24.198474
 30
0.0
 10
12.606797
 20
24.198387
 30
0.0
  0
LINE
  5
159
100
AcDbEntity
  8
0
 62
7
100
AcDbLine
 10
12.606797
 20
24.198387
 30
0.0
 11
12.606797
 21
24.198387
 31
0.0
  0
SPLINE
  5
15a
100
AcDbEntity
  8
0
 62
7
100
AcDbSpline
 70
8
 71
3
 72
8
 73
4
 74
0
 40
0
 40
0
 40
0
 40
0
 40
1
 40
1
 40
1
 40
1
 10
132.621190
 20
24.198387
 30
0.0
 10
132.873170
 20
24.198337
 30
0.0
 10
133.114808
 20
24.098182
 30
0.0
 10
133.292937
 20
23.919957
 30
0.0
  0
SPLINE
  5
15b
100
AcDbEntity
  8
0
 62
7
100
AcDbSpline
 70
8
 71
3
 72
8
 73
4
 74
0
 40
0
 40
0
 40
0
 40
0
 40
1
 40
1
 40
1
 40
1
 10
133.292937
 20
23.919957
 30
0.0
 10
133.471065
 20
23.741733
 30
0.0
 10
133.571091
 20
23.500041
 30
0.0
 10
133.571004
 20
23.248061
 30
0.0
  0
SPLINE
  5
15c
100
AcDbEntity
  8
0
 62
7
100
AcDbSpline
 70
8
 71
3
 72
8
 73
4
 74
0
 40
0
 40
0
 40
0
 40
0
 40
1
 40
1
 40
1
 40
1
 10
133.571004
 20
23.248061
 30
0.0
 10
133.570904
 20
22.723535
 30
0.0
 10
133.145717
 20
22.298347
 30
0.0
 10
132.621190
 20
22.298244
 30
0.0
  0
SPLINE
  5
15d
100
AcDbEntity
  8
0
 62
7
100
AcDbSpline
 70
8
 71
3
 72
8
 73
4
 74
0
 40
0
 40
0
 40
0
 40
0
 40
1
 40
1
 40
1
 40
1
 10
132.621190
 20
22.298244
 30
0.0
 10
132.096665
 20
22.298349
 30
0.0
 10
131.671481
 20
22.723536
 30
0.0
 10
131.671380
 20
23.248061
 30
0.0
  0
SPLINE
  5
15e
100
AcDbEntity
  8
0
 62
7
100
AcDbSpline
 70
8
 71
3
 72
8
 73
4
 74
0
 40
0
 40
0
 40
0
 40
0
 40
1
 40
1
 40
1
 40
1
 10
131.671380
 20
23.248061
 30
0.0
 10
131.671294
 20
23.500041
 30
0.0
 10
131.771319
 20
23.741732
 30
0.0
 10
131.949446
 20
23.919956
 30
0.0
  0
SPLINE
  5
15f
100
AcDbEntity
  8
0
 62
7
100
AcDbSpline
 70
8
 71
3
 72
8
 73
4
 74
0
 40
0
 40
0
 40
0
 40
0
 40
1
 40
1
 40
1
 40
1
 10
131.949446
 20
23.919956
 30
0.0
 10
132.127574
 20
24.098181
 30
0.0
 10
132.369211
 20
24.198336
 30
0.0
 10
132.621190
 20
24.198387
 30
0.0
  0
LINE
  5
160
100
AcDbEntity
  8
0
 62
7
100
AcDbLine
 10
132.621190
 20
24.198387
 30
0.0
 11
132.621190
 21
24.198387
 31
0.0
  0
SPLINE
  5
161
100
AcDbEntity
  8
0
 62
7
100
AcDbSpline
 70
8
 71
3
 72
8
 73
4
 74
0
 40
0
 40
0
 40
0
 40
0
 40
1
 40
1
 40
1
 40
1
 10
34.831799
 20
22.293079
 30
0.0
 10
35.356325
 20
22.292977
 30
0.0
 10
35.781511
 20
21.867791
 30
0.0
 10
35.781614
 20
21.343265
 30
0.0
  0
SPLINE
  5
162
100
AcDbEntity
  8
0
 62
7
100
AcDbSpline
 70
8
 71
3
 72
8
 73
4
 74
0
 40
0
 40
0
 40
0
 40
0
 40
1
 40
1
 40
1
 40
1
 10
35.781614
 20
21.343265
 30
0.0
 10
35.781701
 20
21.091285
 30
0.0
 10
35.681676
 20
20.849592
 30
0.0
 10
35.503547
 20
20.671367
 30
0.0
  0
SPLINE
  5
163
100
AcDbEntity
  8
0
 62
7
100
AcDbSpline
 70
8
 71
3
 72
8
 73
4
 74
0
 40
0
 40
0
 40
0
 40
0
 40
1
 40
1
 40
1
 40
1
 10
35.503547
 20
20.671367
 30
0.0
 10
35.325418
 20
20.493141
 30
0.0
 10
35.083780
 20
20.392985
 30
0.0
 10
34.831799
 20
20.392936
 30
0.0
  0
SPLINE
  5
164
100
AcDbEntity
  8
0
 62
7
100
AcDbSpline
 70
8
 71
3
 72
8
 73
4
 74
0
 40
0
 40
0
 40
0
 40
0
 40
1
 40
1
 40
1
 40
1
 10
34.831799
 20
20.392936
 30
0.0
 10
34.579729
 20
20.392849
 30
0.0
 10
34.337959
 20
20.492945
 30
0.0
 10
34.159719
 20
20.671185
 30
0.0
  0
SPLINE
  5
165
100
AcDbEntity
  8
0
 62
7
100
AcDbSpline
 70
8
 71
3
 72
8
 73
4
 74
0
 40
0
 40
0
 40
0
 40
0
 40
1
 40
1
 40
1
 40
1
 10
34.159719
 20
20.671185
 30
0.0
 10
33.981478
 20
20.849425
 30
0.0
 10
33.881383
 20
21.091196
 30
0.0
 10
33.881470
 20
21.343265
 30
0.0
  0
SPLINE
  5
166
100
AcDbEntity
  8
0
 62
7
100
AcDbSpline
 70
8
 71
3
 72
8
 73
4
 74
0
 40
0
 40
0
 40
0
 40
0
 40
1
 40
1
 40
1
 40
1
 10
33.881470
 20
21.343265
 30
0.0
 10
33.881519
 20
21.595246
 30
0.0
 10
33.981675
 20
21.836884
 30
0.0
 10
34.159901
 20
22.015013
 30
0.0
  0
SPLINE
  5
167
100
AcDbEntity
  8
0
 62
7
100
AcDbSpline
 70
8
 71
3
 72
8
 73
4
 74
0
 40
0
 40
0
 40
0
 40
0
 40
1
 40
1
 40
1
 40
1
 10
34.159901
 20
22.015013
 30
0.0
 10
34.338126
 20
22.193142
 30
0.0
 10
34.579819
 20
22.293166
 30
0.0
 10
34.831799
 20
22.293079
 30
0.0
  0
LINE
  5
168
100
AcDbEntity
  8
0
 62
7
100
AcDbLine
 10
34.831799
 20
22.293079
 30
0.0
 11
34.831799
 21
22.293079
 31
0.0
  0
SPLINE
  5
169
100
AcDbEntity
  8
0
 62
7
100
AcDbSpline
 70
8
 71
3
 72
8
 73
4
 74
0
 40
0
 40
0
 40
0
 40
0
 40
1
 40
1
 40
1
 40
1
 10
116.111085
 20
22.293079
 30
0.0
 10
116.363065
 20
22.293166
 30
0.0
 10
116.604758
 20
22.193142
 30
0.0
 10
116.782983
 20
22.015013
 30
0.0
  0
SPLINE
  5
16a
100
AcDbEntity
  8
0
 62
7
100
AcDbSpline
 70
8
 71
3
 72
8
 73
4
 74
0
 40
0
 40
0
 40
0
 40
0
 40
1
 40
1
 40
1
 40
1
 10
116.782983
 20
22.015013
 30
0.0
 10
116.961208
 20
21.836884
 30
0.0
 10
117.061364
 20
21.595246
 30
0.0
 10
117.061414
 20
21.343265
 30
0.0
  0
SPLINE
  5
16b
100
AcDbEntity
  8
0
 62
7
100
AcDbSpline
 70
8
 71
3
 72
8
 73
4
 74
0
 40
0
 40
0
 40
0
 40
0
 40
1
 40
1
 40
1
 40
1
 10
117.061414
 20
21.343265
 30
0.0
 10
117.061501
 20
21.091196
 30
0.0
 10
116.961405
 20
20.849425
 30
0.0
 10
116.783165
 20
20.671185
 30
0.0
  0
SPLINE
  5
16c
100
AcDbEntity
  8
0
 62
7
100
AcDbSpline
 70
8
 71
3
 72
8
 73
4
 74
0
 40
0
 40
0
 40
0
 40
0
 40
1
 40
1
 40
1
 40
1
 10
116.783165
 20
20.671185
 30
0.0
 10
116.604925
 20
20.492945
 30
0.0
 10
116.363154
 20
20.392849
 30
0.0
 10
116.111085
 20
20.392936
 30
0.0
  0
SPLINE
  5
16d
100
AcDbEntity
  8
0
 62
7
100
AcDbSpline
 70
8
 71
3
 72
8
 73
4
 74
0
 40
0
 40
0
 40
0
 40
0
 40
1
 40
1
 40
1
 40
1
 10
116.111085
 20
20.392936
 30
0.0
 10
115.859104
 20
20.392986
 30
0.0
 10
115.617466
 20
20.493142
 30
0.0
 10
115.439337
 20
20.671367
 30
0.0
  0
SPLINE
  5
16e
100
AcDbEntity
  8
0
 62
7
100
AcDbSpline
 70
8
 71
3
 72
8
 73
4
 74
0
 40
0
 40
0
 40
0
 40
0
 40
1
 40
1
 40
1
 40
1
 10
115.439337
 20
20.671367
 30
0.0
 10
115.261209
 20
20.849592
 30
0.0
 10
115.161184
 20
21.091285
 30
0.0
 10
115.161271
 20
21.343265
 30
0.0
  0
SPLINE
  5
16f
100
AcDbEntity
  8
0
 62
7
100
AcDbSpline
 70
8
 71
3
 72
8
 73
4
 74
0
 40
0
 40
0
 40
0
 40
0
 40
1
 40
1
 40
1
 40
1
 10
115.161271
 20
21.343265
 30
0.0
 10
115.161374
 20
21.867790
 30
0.0
 10
115.586560
 20
22.292976
 30
0.0
 10
116.111085
 20
22.293079
 30
0.0
  0
LINE
  5
170
100
AcDbEntity
  8
0
 62
7
100
AcDbLine
 10
116.111085
 20
22.293079
 30
0.0
 11
116.111085
 21
22.293079
 31
0.0
  0
LINE
  5
171
100
AcDbEntity
  8
0
 62
7
100
AcDbLine
 10
10.513525
 20
16.396150
 30
0.0
 11
134.270163
 21
16.396150
 31
0.0
  0
ENDSEC
  0
SECTION
  2
OBJECTS
  0
DICTIONARY
  5
C
330
0
100
AcDbDictionary
  3
ACAD_GROUP
350
D
  3
ACAD_MLINESTYLE
350
17
  0
DICTIONARY
  5
D
330
C
100
AcDbDictionary
  0
DICTIONARY
  5
1A
330
C
100
AcDbDictionary
  0
DICTIONARY
  5
17
330
C
100
AcDbDictionary
  3
STANDARD
350
18
  0
DICTIONARY
  5
19
330
C
100
AcDbDictionary
  0
ENDSEC
  0
EOF
