<?xml version="1.0" encoding="UTF-8" standalone="no"?>
<svg
   id="svg3794"
   viewBox="0 0 410.45661 234.90881"
   height="82.870483mm"
   width="144.8mm"
   y="0in"
   x="0in"
   version="1.2"
   sodipodi:docname="front-case-pi-v1.svg"
   inkscape:version="1.1.2 (0a00cf5339, 2022-02-04)"
   xmlns:inkscape="http://www.inkscape.org/namespaces/inkscape"
   xmlns:sodipodi="http://sodipodi.sourceforge.net/DTD/sodipodi-0.dtd"
   xmlns="http://www.w3.org/2000/svg"
   xmlns:svg="http://www.w3.org/2000/svg"
   xmlns:rdf="http://www.w3.org/1999/02/22-rdf-syntax-ns#"
   xmlns:cc="http://creativecommons.org/ns#"
   xmlns:dc="http://purl.org/dc/elements/1.1/">
  <sodipodi:namedview
     id="namedview19"
     pagecolor="#ffffff"
     bordercolor="#666666"
     borderopacity="1.0"
     inkscape:pageshadow="2"
     inkscape:pageopacity="0.0"
     inkscape:pagecheckerboard="0"
     inkscape:document-units="mm"
     showgrid="false"
     inkscape:snap-object-midpoints="true"
     inkscape:zoom="1.5848375"
     inkscape:cx="195.28817"
     inkscape:cy="99.063787"
     inkscape:current-layer="svg3794" />
  <metadata
     id="metadata3800">
    <rdf:RDF>
      <cc:Work
         rdf:about="">
        <dc:title />
      </cc:Work>
    </rdf:RDF>
  </metadata>
  <defs
     id="defs3798">
    <marker
       style="overflow:visible"
       id="marker9598"
       refX="0"
       refY="0"
       orient="auto">
      <path
         transform="matrix(0.8,0,0,0.8,10,0)"
         style="fill:#000000;fill-opacity:1;fill-rule:evenodd;stroke:#000000;stroke-width:1.00000003pt;stroke-opacity:1"
         d="M 0,0 5,-5 -12.5,0 5,5 Z"
         id="path9596" />
    </marker>
    <marker
       style="overflow:visible"
       id="Arrow1Lend"
       refX="0"
       refY="0"
       orient="auto">
      <path
         transform="matrix(-0.8,0,0,-0.8,-10,0)"
         style="fill:#000000;fill-opacity:1;fill-rule:evenodd;stroke:#000000;stroke-width:1.00000003pt;stroke-opacity:1"
         d="M 0,0 5,-5 -12.5,0 5,5 Z"
         id="path9315" />
    </marker>
    <marker
       style="overflow:visible"
       id="Arrow1Lstart"
       refX="0"
       refY="0"
       orient="auto">
      <path
         transform="matrix(0.8,0,0,0.8,10,0)"
         style="fill-rule:evenodd;stroke:#000000;stroke-width:1.00000003pt"
         d="M 0,0 5,-5 -12.5,0 5,5 Z"
         id="path9312" />
    </marker>
    <defs
       id="defs2" />
    <defs
       id="defs4" />
  </defs>
  <path
     id="path8397"
     d="m 39.686548,28.3465 c -6.28158,0 -11.339374,5.05631 -11.339374,11.33791 v 130.39474 c 0,6.28157 5.057829,11.33791 11.339374,11.33791 H 370.77254 c 6.28156,0 11.3379,-5.05632 11.3379,-11.33791 V 39.68441 c -5e-4,-6.2816 -5.0567,-11.33791 -11.3379,-11.33791 z m 59.049409,2.96924 a 2.6929176,2.6929176 0 0 1 2.692393,2.69239 2.6929176,2.6929176 0 0 1 -2.692393,2.69239 2.6929176,2.6929176 0 0 1 -2.69385,-2.69239 2.6929176,2.6929176 0 0 1 2.69385,-2.69239 z m 230.398323,0 a 2.6929176,2.6929176 0 0 1 2.69385,2.69239 2.6929176,2.6929176 0 0 1 -2.69385,2.69239 2.6929176,2.6929176 0 0 1 -2.69239,-2.69239 2.6929176,2.6929176 0 0 1 2.69239,-2.69239 z M 62.196837,33.56868 h 18.14212 a 2.1975979,2.1975979 0 0 1 2.19727,2.19727 v 15.80276 h 15.80276 a 2.1975979,2.1975979 0 0 1 2.197273,2.19727 v 16.43996 a 2.1975979,2.1975979 0 0 1 -2.197273,2.197266 h -15.80276 v 15.80276 a 2.1975979,2.1975979 0 0 1 -2.19727,2.19727 h -18.14212 a 2.1975979,2.1975979 0 0 1 -2.197269,-2.19727 V 72.403206 H 44.196808 A 2.1975979,2.1975979 0 0 1 41.999539,70.20594 V 53.76598 a 2.1975979,2.1975979 0 0 1 2.197269,-2.19727 h 15.80276 V 35.76595 a 2.1975979,2.1975979 0 0 1 2.197269,-2.19727 z m 295.270493,0 A 12.217343,12.217451 0 0 1 369.68562,45.78549 12.217343,12.217451 0 0 1 357.46733,58.00378 12.217343,12.217451 0 0 1 345.25052,45.78549 12.217343,12.217451 0 0 1 357.46733,33.56868 Z M 35.735857,36.71517 a 2.6929176,2.6929176 0 0 1 2.692387,2.69238 2.6929176,2.6929176 0 0 1 -2.692387,2.69386 2.6929176,2.6929176 0 0 1 -2.693852,-2.69386 2.6929176,2.6929176 0 0 1 2.693852,-2.69238 z m 340.198793,0 a 2.6929176,2.6929176 0 0 1 2.69239,2.69238 2.6929176,2.6929176 0 0 1 -2.69239,2.69386 2.6929176,2.6929176 0 0 1 -2.69238,-2.69386 2.6929176,2.6929176 0 0 1 2.69238,-2.69238 z m -36.46734,31.05327 a 12.217343,12.217451 0 0 1 12.21828,12.218276 12.217343,12.217451 0 0 1 -12.21828,12.21682 12.217343,12.217451 0 0 1 -12.21682,-12.21682 12.217343,12.217451 0 0 1 12.21682,-12.218276 z m 0,68.39953 a 12.217343,12.217451 0 0 1 12.21828,12.21827 12.217343,12.217451 0 0 1 -12.21828,12.21682 12.217343,12.217451 0 0 1 -12.21682,-12.21682 12.217343,12.217451 0 0 1 12.21682,-12.21827 z M 35.735857,166.3145 a 2.6929176,2.6929176 0 0 1 2.692387,2.69384 2.6929176,2.6929176 0 0 1 -2.692387,2.6924 2.6929176,2.6929176 0 0 1 -2.693852,-2.6924 2.6929176,2.6929176 0 0 1 2.693852,-2.69384 z m 340.198793,0 a 2.6929176,2.6929176 0 0 1 2.69239,2.69384 2.6929176,2.6929176 0 0 1 -2.69239,2.6924 2.6929176,2.6929176 0 0 1 -2.69238,-2.6924 2.6929176,2.6929176 0 0 1 2.69238,-2.69384 z m -277.198693,5.40088 a 2.6929176,2.6929176 0 0 1 2.692393,2.69239 2.6929176,2.6929176 0 0 1 -2.692393,2.69385 2.6929176,2.6929176 0 0 1 -2.69385,-2.69385 2.6929176,2.6929176 0 0 1 2.69385,-2.69239 z m 230.398323,0 a 2.6929176,2.6929176 0 0 1 2.69385,2.69239 2.6929176,2.6929176 0 0 1 -2.69385,2.69385 2.6929176,2.6929176 0 0 1 -2.69239,-2.69385 2.6929176,2.6929176 0 0 1 2.69239,-2.69239 z"
     style="opacity:1;fill:#729fcf;fill-opacity:1;stroke:none;stroke-width:0.70865911;stroke-linecap:round;stroke-linejoin:round;stroke-miterlimit:4;stroke-dasharray:none;stroke-opacity:1;paint-order:markers stroke fill" />
  <path
     id="path8497"
     d="M 29.802162,188.43111 H 380.60891"
     style="fill:none;fill-rule:evenodd;stroke:#000000;stroke-width:0.75000119px;stroke-linecap:butt;stroke-linejoin:miter;stroke-opacity:1;marker-start:url(#marker9598);marker-end:url(#Arrow1Lend)" />
  <flowRoot
     transform="matrix(2.2879348,0,0,2.2879348,-355.79709,-299.3011)"
     style="font-style:normal;font-variant:normal;font-weight:normal;font-stretch:normal;font-size:8px;line-height:10.66666698px;font-family:Iosevka;-inkscape-font-specification:'Iosevka, Normal';font-variant-ligatures:normal;font-variant-caps:normal;font-variant-numeric:normal;font-feature-settings:normal;text-align:center;letter-spacing:0px;word-spacing:0px;writing-mode:lr-tb;text-anchor:middle;fill:#000000;fill-opacity:1;stroke:none;stroke-width:0.32780707px;stroke-linecap:butt;stroke-linejoin:miter;stroke-opacity:1"
     id="flowRoot8499"
     xml:space="preserve"><flowRegion
       style="stroke-width:0.32780707px"
       id="flowRegion8501"><rect
         style="stroke-width:0.32780707px"
         y="213.4458"
         x="223.0592"
         height="25.966757"
         width="49.521683"
         id="rect8503" /></flowRegion><flowPara
       style="stroke-width:0.32780707px"
       id="flowPara8505">124.8mm</flowPara></flowRoot>
</svg>
