  0
SECTION
  2
HEADER
  9
$ACADVER
  1
AC1014
  9
$HANDSEED
  5
FFFF
  9
$MEASUREMENT
 70
     1
  0
ENDSEC
  0
SECTION
  2
TABLES
  0
TABLE
  2
VPORT
  5
8
330
0
100
AcDbSymbolTable
 70
     4
  0
VPORT
  5
2E
330
8
100
AcDbSymbolTableRecord
100
AcDbViewportTableRecord
  2
*ACTIVE
 70
     0
 10
0.0
 20
0.0
 11
1.0
 21
1.0
 12
210.0
 22
148.5
 13
0.0
 23
0.0
 14
10.0
 24
10.0
 15
10.0
 25
10.0
 16
0.0
 26
0.0
 36
1.0
 17
0.0
 27
0.0
 37
0.0
 40
341.0
 41
1.24
 42
50.0
 43
0.0
 44
0.0
 50
0.0
 51
0.0
 71
     0
 72
   100
 73
     1
 74
     3
 75
     0
 76
     0
 77
     0
 78
     0
  0
ENDTAB
  0
TABLE
  2
LTYPE
  5
5
330
0
100
AcDbSymbolTable
 70
     1
  0
LTYPE
  5
14
330
5
100
AcDbSymbolTableRecord
100
AcDbLinetypeTableRecord
  2
BYBLOCK
 70
     0
  3

 72
    65
 73
     0
 40
0.0
  0
LTYPE
  5
15
330
5
100
AcDbSymbolTableRecord
100
AcDbLinetypeTableRecord
  2
BYLAYER
 70
     0
  3

 72
    65
 73
     0
 40
0.0
  0
LTYPE
  5
16
330
5
100
AcDbSymbolTableRecord
100
AcDbLinetypeTableRecord
  2
CONTINUOUS
 70
     0
  3
Solid line
 72
    65
 73
     0
 40
0.0
  0
ENDTAB
  0
TABLE
  2
LAYER
  5
2
100
AcDbSymbolTable
 70
1
  0
LAYER
  5
50
100
AcDbSymbolTableRecord
100
AcDbLayerTableRecord
  2
0
 70
0
  6
CONTINUOUS
  0
ENDTAB
  0
TABLE
  2
STYLE
  5
3
330
0
100
AcDbSymbolTable
 70
     1
  0
STYLE
  5
11
330
3
100
AcDbSymbolTableRecord
100
AcDbTextStyleTableRecord
  2
STANDARD
 70
     0
 40
0.0
 41
1.0
 50
0.0
 71
     0
 42
2.5
  3
txt
  4

  0
ENDTAB
  0
TABLE
  2
VIEW
  5
6
330
0
100
AcDbSymbolTable
 70
     0
  0
ENDTAB
  0
TABLE
  2
UCS
  5
7
330
0
100
AcDbSymbolTable
 70
     0
  0
ENDTAB
  0
TABLE
  2
APPID
  5
9
330
0
100
AcDbSymbolTable
 70
     2
  0
APPID
  5
12
330
9
100
AcDbSymbolTableRecord
100
AcDbRegAppTableRecord
  2
ACAD
 70
     0
  0
ENDTAB
  0
TABLE
  2
DIMSTYLE
  5
A
330
0
100
AcDbSymbolTable
 70
     1
  0
DIMSTYLE
105
27
330
A
100
AcDbSymbolTableRecord
100
AcDbDimStyleTableRecord
  2
ISO-25
 70
     0
  3

  4

  5

  6

  7

 40
1.0
 41
2.5
 42
0.625
 43
3.75
 44
1.25
 45
0.0
 46
0.0
 47
0.0
 48
0.0
140
2.5
141
2.5
142
0.0
143
0.03937007874016
144
1.0
145
0.0
146
1.0
147
0.625
 71
     0
 72
     0
 73
     0
 74
     0
 75
     0
 76
     0
 77
     1
 78
     8
170
     0
171
     3
172
     1
173
     0
174
     0
175
     0
176
     0
177
     0
178
     0
270
     2
271
     2
272
     2
273
     2
274
     3
340
11
275
     0
280
     0
281
     0
282
     0
283
     0
284
     8
285
     0
286
     0
287
     3
288
     0
  0
ENDTAB
  0
TABLE
  2
BLOCK_RECORD
  5
1
330
0
100
AcDbSymbolTable
 70
     1
  0
BLOCK_RECORD
  5
1F
330
1
100
AcDbSymbolTableRecord
100
AcDbBlockTableRecord
  2
*MODEL_SPACE
  0
BLOCK_RECORD
  5
1B
330
1
100
AcDbSymbolTableRecord
100
AcDbBlockTableRecord
  2
*PAPER_SPACE
  0
ENDTAB
  0
ENDSEC
  0
SECTION
  2
BLOCKS
  0
BLOCK
  5
20
330
1F
100
AcDbEntity
  8
0
100
AcDbBlockBegin
  2
*MODEL_SPACE
 70
     0
 10
0.0
 20
0.0
 30
0.0
  3
*MODEL_SPACE
  1

  0
ENDBLK
  5
21
330
1F
100
AcDbEntity
  8
0
100
AcDbBlockEnd
  0
BLOCK
  5
1C
330
1B
100
AcDbEntity
 67
     1
  8
0
100
AcDbBlockBegin
  2
*PAPER_SPACE
  1

  0
ENDBLK
  5
1D
330
1B
100
AcDbEntity
 67
     1
  8
0
100
AcDbBlockEnd
  0
ENDSEC
  0
SECTION
  2
ENTITIES
  0
SPLINE
  5
100
100
AcDbEntity
  8
0
 62
7
100
AcDbSpline
 70
8
 71
3
 72
8
 73
4
 74
0
 40
0
 40
0
 40
0
 40
0
 40
1
 40
1
 40
1
 40
1
 10
14.000493
 20
97.130327
 30
0.0
 10
11.784495
 20
97.130327
 30
0.0
 10
10.000220
 20
95.346576
 30
0.0
 10
10.000220
 20
93.130570
 30
0.0
  0
LINE
  5
101
100
AcDbEntity
  8
0
 62
7
100
AcDbLine
 10
10.000220
 20
93.130570
 30
0.0
 11
10.000220
 21
47.130274
 31
0.0
  0
SPLINE
  5
102
100
AcDbEntity
  8
0
 62
7
100
AcDbSpline
 70
8
 71
3
 72
8
 73
4
 74
0
 40
0
 40
0
 40
0
 40
0
 40
1
 40
1
 40
1
 40
1
 10
10.000220
 20
47.130274
 30
0.0
 10
10.000220
 20
44.914279
 30
0.0
 10
11.784507
 20
43.130517
 30
0.0
 10
14.000493
 20
43.130517
 30
0.0
  0
LINE
  5
103
100
AcDbEntity
  8
0
 62
7
100
AcDbLine
 10
14.000493
 20
43.130517
 30
0.0
 11
130.800097
 21
43.130517
 31
0.0
  0
SPLINE
  5
104
100
AcDbEntity
  8
0
 62
7
100
AcDbSpline
 70
8
 71
3
 72
8
 73
4
 74
0
 40
0
 40
0
 40
0
 40
0
 40
1
 40
1
 40
1
 40
1
 10
130.800097
 20
43.130517
 30
0.0
 10
133.016088
 20
43.130517
 30
0.0
 10
134.799850
 20
44.914272
 30
0.0
 10
134.799850
 20
47.130274
 30
0.0
  0
LINE
  5
105
100
AcDbEntity
  8
0
 62
7
100
AcDbLine
 10
134.799850
 20
47.130274
 30
0.0
 11
134.799850
 21
93.130570
 31
0.0
  0
SPLINE
  5
106
100
AcDbEntity
  8
0
 62
7
100
AcDbSpline
 70
8
 71
3
 72
8
 73
4
 74
0
 40
0
 40
0
 40
0
 40
0
 40
1
 40
1
 40
1
 40
1
 10
134.799850
 20
93.130570
 30
0.0
 10
134.799673
 20
95.346576
 30
0.0
 10
133.015961
 20
97.130327
 30
0.0
 10
130.800097
 20
97.130327
 30
0.0
  0
LINE
  5
107
100
AcDbEntity
  8
0
 62
7
100
AcDbLine
 10
130.800097
 20
97.130327
 30
0.0
 11
14.000493
 21
97.130327
 31
0.0
  0
SPLINE
  5
108
100
AcDbEntity
  8
0
 62
7
100
AcDbSpline
 70
8
 71
3
 72
8
 73
4
 74
0
 40
0
 40
0
 40
0
 40
0
 40
1
 40
1
 40
1
 40
1
 10
34.831781
 20
96.082847
 30
0.0
 10
35.356306
 20
96.082745
 30
0.0
 10
35.781493
 20
95.657559
 30
0.0
 10
35.781596
 20
95.133033
 30
0.0
  0
SPLINE
  5
109
100
AcDbEntity
  8
0
 62
7
100
AcDbSpline
 70
8
 71
3
 72
8
 73
4
 74
0
 40
0
 40
0
 40
0
 40
0
 40
1
 40
1
 40
1
 40
1
 10
35.781596
 20
95.133033
 30
0.0
 10
35.781493
 20
94.608507
 30
0.0
 10
35.356306
 20
94.183321
 30
0.0
 10
34.831781
 20
94.183219
 30
0.0
  0
SPLINE
  5
10a
100
AcDbEntity
  8
0
 62
7
100
AcDbSpline
 70
8
 71
3
 72
8
 73
4
 74
0
 40
0
 40
0
 40
0
 40
0
 40
1
 40
1
 40
1
 40
1
 10
34.831781
 20
94.183219
 30
0.0
 10
34.579800
 20
94.183132
 30
0.0
 10
34.338108
 20
94.283157
 30
0.0
 10
34.159882
 20
94.461285
 30
0.0
  0
SPLINE
  5
10b
100
AcDbEntity
  8
0
 62
7
100
AcDbSpline
 70
8
 71
3
 72
8
 73
4
 74
0
 40
0
 40
0
 40
0
 40
0
 40
1
 40
1
 40
1
 40
1
 10
34.159882
 20
94.461285
 30
0.0
 10
33.981657
 20
94.639414
 30
0.0
 10
33.881501
 20
94.881052
 30
0.0
 10
33.881452
 20
95.133033
 30
0.0
  0
SPLINE
  5
10c
100
AcDbEntity
  8
0
 62
7
100
AcDbSpline
 70
8
 71
3
 72
8
 73
4
 74
0
 40
0
 40
0
 40
0
 40
0
 40
1
 40
1
 40
1
 40
1
 10
33.881452
 20
95.133033
 30
0.0
 10
33.881501
 20
95.385013
 30
0.0
 10
33.981657
 20
95.626652
 30
0.0
 10
34.159882
 20
95.804780
 30
0.0
  0
SPLINE
  5
10d
100
AcDbEntity
  8
0
 62
7
100
AcDbSpline
 70
8
 71
3
 72
8
 73
4
 74
0
 40
0
 40
0
 40
0
 40
0
 40
1
 40
1
 40
1
 40
1
 10
34.159882
 20
95.804780
 30
0.0
 10
34.338108
 20
95.982909
 30
0.0
 10
34.579800
 20
96.082934
 30
0.0
 10
34.831781
 20
96.082847
 30
0.0
  0
LINE
  5
10e
100
AcDbEntity
  8
0
 62
7
100
AcDbLine
 10
34.831781
 20
96.082847
 30
0.0
 11
34.831781
 21
96.082847
 31
0.0
  0
SPLINE
  5
10f
100
AcDbEntity
  8
0
 62
7
100
AcDbSpline
 70
8
 71
3
 72
8
 73
4
 74
0
 40
0
 40
0
 40
0
 40
0
 40
1
 40
1
 40
1
 40
1
 10
116.111066
 20
96.082847
 30
0.0
 10
116.363047
 20
96.082934
 30
0.0
 10
116.604739
 20
95.982909
 30
0.0
 10
116.782965
 20
95.804780
 30
0.0
  0
SPLINE
  5
110
100
AcDbEntity
  8
0
 62
7
100
AcDbSpline
 70
8
 71
3
 72
8
 73
4
 74
0
 40
0
 40
0
 40
0
 40
0
 40
1
 40
1
 40
1
 40
1
 10
116.782965
 20
95.804780
 30
0.0
 10
116.961190
 20
95.626652
 30
0.0
 10
117.061346
 20
95.385013
 30
0.0
 10
117.061395
 20
95.133033
 30
0.0
  0
SPLINE
  5
111
100
AcDbEntity
  8
0
 62
7
100
AcDbSpline
 70
8
 71
3
 72
8
 73
4
 74
0
 40
0
 40
0
 40
0
 40
0
 40
1
 40
1
 40
1
 40
1
 10
117.061395
 20
95.133033
 30
0.0
 10
117.061346
 20
94.881052
 30
0.0
 10
116.961190
 20
94.639414
 30
0.0
 10
116.782965
 20
94.461285
 30
0.0
  0
SPLINE
  5
112
100
AcDbEntity
  8
0
 62
7
100
AcDbSpline
 70
8
 71
3
 72
8
 73
4
 74
0
 40
0
 40
0
 40
0
 40
0
 40
1
 40
1
 40
1
 40
1
 10
116.782965
 20
94.461285
 30
0.0
 10
116.604739
 20
94.283157
 30
0.0
 10
116.363047
 20
94.183132
 30
0.0
 10
116.111066
 20
94.183219
 30
0.0
  0
SPLINE
  5
113
100
AcDbEntity
  8
0
 62
7
100
AcDbSpline
 70
8
 71
3
 72
8
 73
4
 74
0
 40
0
 40
0
 40
0
 40
0
 40
1
 40
1
 40
1
 40
1
 10
116.111066
 20
94.183219
 30
0.0
 10
115.586541
 20
94.183322
 30
0.0
 10
115.161355
 20
94.608508
 30
0.0
 10
115.161252
 20
95.133033
 30
0.0
  0
SPLINE
  5
114
100
AcDbEntity
  8
0
 62
7
100
AcDbSpline
 70
8
 71
3
 72
8
 73
4
 74
0
 40
0
 40
0
 40
0
 40
0
 40
1
 40
1
 40
1
 40
1
 10
115.161252
 20
95.133033
 30
0.0
 10
115.161355
 20
95.657558
 30
0.0
 10
115.586541
 20
96.082744
 30
0.0
 10
116.111066
 20
96.082847
 30
0.0
  0
LINE
  5
115
100
AcDbEntity
  8
0
 62
7
100
AcDbLine
 10
116.111066
 20
96.082847
 30
0.0
 11
116.111066
 21
96.082847
 31
0.0
  0
LINE
  5
116
100
AcDbEntity
  8
0
 62
7
100
AcDbLine
 10
21.941611
 20
95.288061
 30
0.0
 11
28.341738
 21
95.288061
 31
0.0
  0
SPLINE
  5
117
100
AcDbEntity
  8
0
 62
7
100
AcDbSpline
 70
8
 71
3
 72
8
 73
4
 74
0
 40
0
 40
0
 40
0
 40
0
 40
1
 40
1
 40
1
 40
1
 10
28.341738
 20
95.288061
 30
0.0
 10
28.769813
 20
95.287997
 30
0.0
 10
29.116821
 20
94.940989
 30
0.0
 10
29.116885
 20
94.512914
 30
0.0
  0
LINE
  5
118
100
AcDbEntity
  8
0
 62
7
100
AcDbLine
 10
29.116885
 20
94.512914
 30
0.0
 11
29.116885
 21
88.938060
 31
0.0
  0
LINE
  5
119
100
AcDbEntity
  8
0
 62
7
100
AcDbLine
 10
29.116885
 20
88.938060
 30
0.0
 11
34.691739
 21
88.938060
 31
0.0
  0
SPLINE
  5
11a
100
AcDbEntity
  8
0
 62
7
100
AcDbSpline
 70
8
 71
3
 72
8
 73
4
 74
0
 40
0
 40
0
 40
0
 40
0
 40
1
 40
1
 40
1
 40
1
 10
34.691739
 20
88.938060
 30
0.0
 10
35.119815
 20
88.937997
 30
0.0
 10
35.466823
 20
88.590989
 30
0.0
 10
35.466887
 20
88.162913
 30
0.0
  0
SPLINE
  5
11b
100
AcDbEntity
  8
0
 62
7
100
AcDbSpline
 70
8
 71
3
 72
8
 73
4
 74
0
 40
0
 40
0
 40
0
 40
0
 40
1
 40
1
 40
1
 40
1
 10
35.466887
 20
88.162913
 30
0.0
 10
35.466887
 20
88.162913
 30
0.0
 10
35.466887
 20
82.363269
 30
0.0
 10
35.466887
 20
82.363269
 30
0.0
  0
SPLINE
  5
11c
100
AcDbEntity
  8
0
 62
7
100
AcDbSpline
 70
8
 71
3
 72
8
 73
4
 74
0
 40
0
 40
0
 40
0
 40
0
 40
1
 40
1
 40
1
 40
1
 10
35.466887
 20
82.363269
 30
0.0
 10
35.466822
 20
81.935194
 30
0.0
 10
35.119814
 20
81.588187
 30
0.0
 10
34.691739
 20
81.588124
 30
0.0
  0
LINE
  5
11d
100
AcDbEntity
  8
0
 62
7
100
AcDbLine
 10
34.691739
 20
81.588124
 30
0.0
 11
29.116885
 21
81.588124
 31
0.0
  0
SPLINE
  5
11e
100
AcDbEntity
  8
0
 62
7
100
AcDbSpline
 70
8
 71
3
 72
8
 73
4
 74
0
 40
0
 40
0
 40
0
 40
0
 40
1
 40
1
 40
1
 40
1
 10
29.116885
 20
81.588124
 30
0.0
 10
29.116885
 20
81.588124
 30
0.0
 10
29.116885
 20
76.013270
 30
0.0
 10
29.116885
 20
76.013270
 30
0.0
  0
SPLINE
  5
11f
100
AcDbEntity
  8
0
 62
7
100
AcDbSpline
 70
8
 71
3
 72
8
 73
4
 74
0
 40
0
 40
0
 40
0
 40
0
 40
1
 40
1
 40
1
 40
1
 10
29.116885
 20
76.013270
 30
0.0
 10
29.116821
 20
75.585194
 30
0.0
 10
28.769813
 20
75.238187
 30
0.0
 10
28.341738
 20
75.238123
 30
0.0
  0
LINE
  5
120
100
AcDbEntity
  8
0
 62
7
100
AcDbLine
 10
28.341738
 20
75.238123
 30
0.0
 11
21.941611
 21
75.238123
 31
0.0
  0
SPLINE
  5
121
100
AcDbEntity
  8
0
 62
7
100
AcDbSpline
 70
8
 71
3
 72
8
 73
4
 74
0
 40
0
 40
0
 40
0
 40
0
 40
1
 40
1
 40
1
 40
1
 10
21.941611
 20
75.238123
 30
0.0
 10
21.513535
 20
75.238187
 30
0.0
 10
21.166528
 20
75.585195
 30
0.0
 10
21.166464
 20
76.013270
 30
0.0
  0
LINE
  5
122
100
AcDbEntity
  8
0
 62
7
100
AcDbLine
 10
21.166464
 20
76.013270
 30
0.0
 11
21.166464
 21
81.588124
 31
0.0
  0
SPLINE
  5
123
100
AcDbEntity
  8
0
 62
7
100
AcDbSpline
 70
8
 71
3
 72
8
 73
4
 74
0
 40
0
 40
0
 40
0
 40
0
 40
1
 40
1
 40
1
 40
1
 10
21.166464
 20
81.588124
 30
0.0
 10
21.166464
 20
81.588124
 30
0.0
 10
15.591610
 20
81.588124
 30
0.0
 10
15.591610
 20
81.588124
 30
0.0
  0
SPLINE
  5
124
100
AcDbEntity
  8
0
 62
7
100
AcDbSpline
 70
8
 71
3
 72
8
 73
4
 74
0
 40
0
 40
0
 40
0
 40
0
 40
1
 40
1
 40
1
 40
1
 10
15.591610
 20
81.588124
 30
0.0
 10
15.163535
 20
81.588188
 30
0.0
 10
14.816528
 20
81.935195
 30
0.0
 10
14.816464
 20
82.363269
 30
0.0
  0
SPLINE
  5
125
100
AcDbEntity
  8
0
 62
7
100
AcDbSpline
 70
8
 71
3
 72
8
 73
4
 74
0
 40
0
 40
0
 40
0
 40
0
 40
1
 40
1
 40
1
 40
1
 10
14.816464
 20
82.363269
 30
0.0
 10
14.816464
 20
82.363269
 30
0.0
 10
14.816464
 20
88.162913
 30
0.0
 10
14.816464
 20
88.162913
 30
0.0
  0
SPLINE
  5
126
100
AcDbEntity
  8
0
 62
7
100
AcDbSpline
 70
8
 71
3
 72
8
 73
4
 74
0
 40
0
 40
0
 40
0
 40
0
 40
1
 40
1
 40
1
 40
1
 10
14.816464
 20
88.162913
 30
0.0
 10
14.816527
 20
88.590988
 30
0.0
 10
15.163535
 20
88.937996
 30
0.0
 10
15.591610
 20
88.938060
 30
0.0
  0
LINE
  5
127
100
AcDbEntity
  8
0
 62
7
100
AcDbLine
 10
15.591610
 20
88.938060
 30
0.0
 11
21.166464
 21
88.938060
 31
0.0
  0
SPLINE
  5
128
100
AcDbEntity
  8
0
 62
7
100
AcDbSpline
 70
8
 71
3
 72
8
 73
4
 74
0
 40
0
 40
0
 40
0
 40
0
 40
1
 40
1
 40
1
 40
1
 10
21.166464
 20
88.938060
 30
0.0
 10
21.166464
 20
88.938060
 30
0.0
 10
21.166464
 20
94.512914
 30
0.0
 10
21.166464
 20
94.512914
 30
0.0
  0
SPLINE
  5
129
100
AcDbEntity
  8
0
 62
7
100
AcDbSpline
 70
8
 71
3
 72
8
 73
4
 74
0
 40
0
 40
0
 40
0
 40
0
 40
1
 40
1
 40
1
 40
1
 10
21.166464
 20
94.512914
 30
0.0
 10
21.166528
 20
94.940989
 30
0.0
 10
21.513535
 20
95.287997
 30
0.0
 10
21.941611
 20
95.288061
 30
0.0
  0
LINE
  5
12a
100
AcDbEntity
  8
0
 62
7
100
AcDbLine
 10
21.941611
 20
95.288061
 30
0.0
 11
21.941611
 21
95.288061
 31
0.0
  0
SPLINE
  5
12b
100
AcDbEntity
  8
0
 62
7
100
AcDbSpline
 70
8
 71
3
 72
8
 73
4
 74
0
 40
0
 40
0
 40
0
 40
0
 40
1
 40
1
 40
1
 40
1
 10
126.106321
 20
95.288061
 30
0.0
 10
127.249423
 20
95.288149
 30
0.0
 10
128.345740
 20
94.834128
 30
0.0
 10
129.154088
 20
94.025878
 30
0.0
  0
SPLINE
  5
12c
100
AcDbEntity
  8
0
 62
7
100
AcDbSpline
 70
8
 71
3
 72
8
 73
4
 74
0
 40
0
 40
0
 40
0
 40
0
 40
1
 40
1
 40
1
 40
1
 10
129.154088
 20
94.025878
 30
0.0
 10
129.962436
 20
93.217628
 30
0.0
 10
130.416596
 20
92.121360
 30
0.0
 10
130.416656
 20
90.978248
 30
0.0
  0
SPLINE
  5
12d
100
AcDbEntity
  8
0
 62
7
100
AcDbSpline
 70
8
 71
3
 72
8
 73
4
 74
0
 40
0
 40
0
 40
0
 40
0
 40
1
 40
1
 40
1
 40
1
 10
130.416656
 20
90.978248
 30
0.0
 10
130.416735
 20
89.835046
 30
0.0
 10
129.962635
 20
88.738644
 30
0.0
 10
129.154273
 20
87.930281
 30
0.0
  0
SPLINE
  5
12e
100
AcDbEntity
  8
0
 62
7
100
AcDbSpline
 70
8
 71
3
 72
8
 73
4
 74
0
 40
0
 40
0
 40
0
 40
0
 40
1
 40
1
 40
1
 40
1
 10
129.154273
 20
87.930281
 30
0.0
 10
128.345910
 20
87.121919
 30
0.0
 10
127.249514
 20
86.667825
 30
0.0
 10
126.106321
 20
86.667914
 30
0.0
  0
SPLINE
  5
12f
100
AcDbEntity
  8
0
 62
7
100
AcDbSpline
 70
8
 71
3
 72
8
 73
4
 74
0
 40
0
 40
0
 40
0
 40
0
 40
1
 40
1
 40
1
 40
1
 10
126.106321
 20
86.667914
 30
0.0
 10
124.963220
 20
86.667963
 30
0.0
 10
123.866957
 20
87.122118
 30
0.0
 10
123.058708
 20
87.930466
 30
0.0
  0
SPLINE
  5
130
100
AcDbEntity
  8
0
 62
7
100
AcDbSpline
 70
8
 71
3
 72
8
 73
4
 74
0
 40
0
 40
0
 40
0
 40
0
 40
1
 40
1
 40
1
 40
1
 10
123.058708
 20
87.930466
 30
0.0
 10
122.250458
 20
88.738814
 30
0.0
 10
121.796430
 20
89.835136
 30
0.0
 10
121.796509
 20
90.978248
 30
0.0
  0
SPLINE
  5
131
100
AcDbEntity
  8
0
 62
7
100
AcDbSpline
 70
8
 71
3
 72
8
 73
4
 74
0
 40
0
 40
0
 40
0
 40
0
 40
1
 40
1
 40
1
 40
1
 10
121.796509
 20
90.978248
 30
0.0
 10
121.796634
 20
93.358455
 30
0.0
 10
123.726136
 20
95.287957
 30
0.0
 10
126.106321
 20
95.288061
 30
0.0
  0
LINE
  5
132
100
AcDbEntity
  8
0
 62
7
100
AcDbLine
 10
126.106321
 20
95.288061
 30
0.0
 11
126.106321
 21
95.288061
 31
0.0
  0
SPLINE
  5
133
100
AcDbEntity
  8
0
 62
7
100
AcDbSpline
 70
8
 71
3
 72
8
 73
4
 74
0
 40
0
 40
0
 40
0
 40
0
 40
1
 40
1
 40
1
 40
1
 10
12.606779
 20
94.178051
 30
0.0
 10
13.131302
 20
94.177947
 30
0.0
 10
13.556487
 20
93.752764
 30
0.0
 10
13.556592
 20
93.228240
 30
0.0
  0
SPLINE
  5
134
100
AcDbEntity
  8
0
 62
7
100
AcDbSpline
 70
8
 71
3
 72
8
 73
4
 74
0
 40
0
 40
0
 40
0
 40
0
 40
1
 40
1
 40
1
 40
1
 10
13.556592
 20
93.228240
 30
0.0
 10
13.556680
 20
92.976260
 30
0.0
 10
13.456656
 20
92.734566
 30
0.0
 10
13.278527
 20
92.556340
 30
0.0
  0
SPLINE
  5
135
100
AcDbEntity
  8
0
 62
7
100
AcDbSpline
 70
8
 71
3
 72
8
 73
4
 74
0
 40
0
 40
0
 40
0
 40
0
 40
1
 40
1
 40
1
 40
1
 10
13.278527
 20
92.556340
 30
0.0
 10
13.100399
 20
92.378114
 30
0.0
 10
12.858760
 20
92.277958
 30
0.0
 10
12.606779
 20
92.277908
 30
0.0
  0
SPLINE
  5
136
100
AcDbEntity
  8
0
 62
7
100
AcDbSpline
 70
8
 71
3
 72
8
 73
4
 74
0
 40
0
 40
0
 40
0
 40
0
 40
1
 40
1
 40
1
 40
1
 10
12.606779
 20
92.277908
 30
0.0
 10
12.354709
 20
92.277820
 30
0.0
 10
12.112937
 20
92.377916
 30
0.0
 10
11.934697
 20
92.556157
 30
0.0
  0
SPLINE
  5
137
100
AcDbEntity
  8
0
 62
7
100
AcDbSpline
 70
8
 71
3
 72
8
 73
4
 74
0
 40
0
 40
0
 40
0
 40
0
 40
1
 40
1
 40
1
 40
1
 10
11.934697
 20
92.556157
 30
0.0
 10
11.756457
 20
92.734398
 30
0.0
 10
11.656361
 20
92.976170
 30
0.0
 10
11.656449
 20
93.228240
 30
0.0
  0
SPLINE
  5
138
100
AcDbEntity
  8
0
 62
7
100
AcDbSpline
 70
8
 71
3
 72
8
 73
4
 74
0
 40
0
 40
0
 40
0
 40
0
 40
1
 40
1
 40
1
 40
1
 10
11.656449
 20
93.228240
 30
0.0
 10
11.656500
 20
93.480220
 30
0.0
 10
11.756656
 20
93.721858
 30
0.0
 10
11.934882
 20
93.899986
 30
0.0
  0
SPLINE
  5
139
100
AcDbEntity
  8
0
 62
7
100
AcDbSpline
 70
8
 71
3
 72
8
 73
4
 74
0
 40
0
 40
0
 40
0
 40
0
 40
1
 40
1
 40
1
 40
1
 10
11.934882
 20
93.899986
 30
0.0
 10
12.113107
 20
94.078114
 30
0.0
 10
12.354799
 20
94.178138
 30
0.0
 10
12.606779
 20
94.178051
 30
0.0
  0
LINE
  5
13a
100
AcDbEntity
  8
0
 62
7
100
AcDbLine
 10
12.606779
 20
94.178051
 30
0.0
 11
12.606779
 21
94.178051
 31
0.0
  0
SPLINE
  5
13b
100
AcDbEntity
  8
0
 62
7
100
AcDbSpline
 70
8
 71
3
 72
8
 73
4
 74
0
 40
0
 40
0
 40
0
 40
0
 40
1
 40
1
 40
1
 40
1
 10
132.621172
 20
94.178051
 30
0.0
 10
133.145695
 20
94.177948
 30
0.0
 10
133.570881
 20
93.752764
 30
0.0
 10
133.570986
 20
93.228240
 30
0.0
  0
SPLINE
  5
13c
100
AcDbEntity
  8
0
 62
7
100
AcDbSpline
 70
8
 71
3
 72
8
 73
4
 74
0
 40
0
 40
0
 40
0
 40
0
 40
1
 40
1
 40
1
 40
1
 10
133.570986
 20
93.228240
 30
0.0
 10
133.571074
 20
92.976259
 30
0.0
 10
133.471049
 20
92.734566
 30
0.0
 10
133.292920
 20
92.556340
 30
0.0
  0
SPLINE
  5
13d
100
AcDbEntity
  8
0
 62
7
100
AcDbSpline
 70
8
 71
3
 72
8
 73
4
 74
0
 40
0
 40
0
 40
0
 40
0
 40
1
 40
1
 40
1
 40
1
 10
133.292920
 20
92.556340
 30
0.0
 10
133.114792
 20
92.378114
 30
0.0
 10
132.873153
 20
92.277957
 30
0.0
 10
132.621172
 20
92.277908
 30
0.0
  0
SPLINE
  5
13e
100
AcDbEntity
  8
0
 62
7
100
AcDbSpline
 70
8
 71
3
 72
8
 73
4
 74
0
 40
0
 40
0
 40
0
 40
0
 40
1
 40
1
 40
1
 40
1
 10
132.621172
 20
92.277908
 30
0.0
 10
132.369191
 20
92.277958
 30
0.0
 10
132.127553
 20
92.378115
 30
0.0
 10
131.949425
 20
92.556341
 30
0.0
  0
SPLINE
  5
13f
100
AcDbEntity
  8
0
 62
7
100
AcDbSpline
 70
8
 71
3
 72
8
 73
4
 74
0
 40
0
 40
0
 40
0
 40
0
 40
1
 40
1
 40
1
 40
1
 10
131.949425
 20
92.556341
 30
0.0
 10
131.771297
 20
92.734567
 30
0.0
 10
131.671273
 20
92.976260
 30
0.0
 10
131.671361
 20
93.228240
 30
0.0
  0
SPLINE
  5
140
100
AcDbEntity
  8
0
 62
7
100
AcDbSpline
 70
8
 71
3
 72
8
 73
4
 74
0
 40
0
 40
0
 40
0
 40
0
 40
1
 40
1
 40
1
 40
1
 10
131.671361
 20
93.228240
 30
0.0
 10
131.671466
 20
93.752763
 30
0.0
 10
132.096649
 20
94.177946
 30
0.0
 10
132.621172
 20
94.178051
 30
0.0
  0
LINE
  5
141
100
AcDbEntity
  8
0
 62
7
100
AcDbLine
 10
132.621172
 20
94.178051
 30
0.0
 11
132.621172
 21
94.178051
 31
0.0
  0
SPLINE
  5
142
100
AcDbEntity
  8
0
 62
7
100
AcDbSpline
 70
8
 71
3
 72
8
 73
4
 74
0
 40
0
 40
0
 40
0
 40
0
 40
1
 40
1
 40
1
 40
1
 10
119.756324
 20
83.223164
 30
0.0
 10
120.899515
 20
83.223251
 30
0.0
 10
121.995909
 20
82.769158
 30
0.0
 10
122.804271
 20
81.960797
 30
0.0
  0
SPLINE
  5
143
100
AcDbEntity
  8
0
 62
7
100
AcDbSpline
 70
8
 71
3
 72
8
 73
4
 74
0
 40
0
 40
0
 40
0
 40
0
 40
1
 40
1
 40
1
 40
1
 10
122.804271
 20
81.960797
 30
0.0
 10
123.612633
 20
81.152435
 30
0.0
 10
124.066732
 20
80.056035
 30
0.0
 10
124.066655
 20
78.912834
 30
0.0
  0
SPLINE
  5
144
100
AcDbEntity
  8
0
 62
7
100
AcDbSpline
 70
8
 71
3
 72
8
 73
4
 74
0
 40
0
 40
0
 40
0
 40
0
 40
1
 40
1
 40
1
 40
1
 10
124.066655
 20
78.912834
 30
0.0
 10
124.066596
 20
77.769722
 30
0.0
 10
123.612437
 20
76.673454
 30
0.0
 10
122.804090
 20
75.865204
 30
0.0
  0
SPLINE
  5
145
100
AcDbEntity
  8
0
 62
7
100
AcDbSpline
 70
8
 71
3
 72
8
 73
4
 74
0
 40
0
 40
0
 40
0
 40
0
 40
1
 40
1
 40
1
 40
1
 10
122.804090
 20
75.865204
 30
0.0
 10
121.995743
 20
75.056953
 30
0.0
 10
120.899426
 20
74.602930
 30
0.0
 10
119.756324
 20
74.603018
 30
0.0
  0
SPLINE
  5
146
100
AcDbEntity
  8
0
 62
7
100
AcDbSpline
 70
8
 71
3
 72
8
 73
4
 74
0
 40
0
 40
0
 40
0
 40
0
 40
1
 40
1
 40
1
 40
1
 10
119.756324
 20
74.603018
 30
0.0
 10
117.376135
 20
74.603120
 30
0.0
 10
115.446631
 20
76.532624
 30
0.0
 10
115.446508
 20
78.912834
 30
0.0
  0
SPLINE
  5
147
100
AcDbEntity
  8
0
 62
7
100
AcDbSpline
 70
8
 71
3
 72
8
 73
4
 74
0
 40
0
 40
0
 40
0
 40
0
 40
1
 40
1
 40
1
 40
1
 10
115.446508
 20
78.912834
 30
0.0
 10
115.446431
 20
80.055946
 30
0.0
 10
115.900459
 20
81.152268
 30
0.0
 10
116.708710
 20
81.960615
 30
0.0
  0
SPLINE
  5
148
100
AcDbEntity
  8
0
 62
7
100
AcDbSpline
 70
8
 71
3
 72
8
 73
4
 74
0
 40
0
 40
0
 40
0
 40
0
 40
1
 40
1
 40
1
 40
1
 10
116.708710
 20
81.960615
 30
0.0
 10
117.516960
 20
82.768961
 30
0.0
 10
118.613222
 20
83.223115
 30
0.0
 10
119.756324
 20
83.223164
 30
0.0
  0
LINE
  5
149
100
AcDbEntity
  8
0
 62
7
100
AcDbLine
 10
119.756324
 20
83.223164
 30
0.0
 11
119.756324
 21
83.223164
 31
0.0
  0
SPLINE
  5
14a
100
AcDbEntity
  8
0
 62
7
100
AcDbSpline
 70
8
 71
3
 72
8
 73
4
 74
0
 40
0
 40
0
 40
0
 40
0
 40
1
 40
1
 40
1
 40
1
 10
119.756324
 20
59.093367
 30
0.0
 10
120.899515
 20
59.093454
 30
0.0
 10
121.995909
 20
58.639361
 30
0.0
 10
122.804271
 20
57.831000
 30
0.0
  0
SPLINE
  5
14b
100
AcDbEntity
  8
0
 62
7
100
AcDbSpline
 70
8
 71
3
 72
8
 73
4
 74
0
 40
0
 40
0
 40
0
 40
0
 40
1
 40
1
 40
1
 40
1
 10
122.804271
 20
57.831000
 30
0.0
 10
123.612632
 20
57.022639
 30
0.0
 10
124.066732
 20
55.926240
 30
0.0
 10
124.066655
 20
54.783039
 30
0.0
  0
SPLINE
  5
14c
100
AcDbEntity
  8
0
 62
7
100
AcDbSpline
 70
8
 71
3
 72
8
 73
4
 74
0
 40
0
 40
0
 40
0
 40
0
 40
1
 40
1
 40
1
 40
1
 10
124.066655
 20
54.783039
 30
0.0
 10
124.066596
 20
53.639927
 30
0.0
 10
123.612437
 20
52.543659
 30
0.0
 10
122.804090
 20
51.735408
 30
0.0
  0
SPLINE
  5
14d
100
AcDbEntity
  8
0
 62
7
100
AcDbSpline
 70
8
 71
3
 72
8
 73
4
 74
0
 40
0
 40
0
 40
0
 40
0
 40
1
 40
1
 40
1
 40
1
 10
122.804090
 20
51.735408
 30
0.0
 10
121.995743
 20
50.927158
 30
0.0
 10
120.899426
 20
50.473135
 30
0.0
 10
119.756324
 20
50.473223
 30
0.0
  0
SPLINE
  5
14e
100
AcDbEntity
  8
0
 62
7
100
AcDbSpline
 70
8
 71
3
 72
8
 73
4
 74
0
 40
0
 40
0
 40
0
 40
0
 40
1
 40
1
 40
1
 40
1
 10
119.756324
 20
50.473223
 30
0.0
 10
117.376135
 20
50.473325
 30
0.0
 10
115.446631
 20
52.402829
 30
0.0
 10
115.446508
 20
54.783039
 30
0.0
  0
SPLINE
  5
14f
100
AcDbEntity
  8
0
 62
7
100
AcDbSpline
 70
8
 71
3
 72
8
 73
4
 74
0
 40
0
 40
0
 40
0
 40
0
 40
1
 40
1
 40
1
 40
1
 10
115.446508
 20
54.783039
 30
0.0
 10
115.446431
 20
55.926150
 30
0.0
 10
115.900460
 20
57.022472
 30
0.0
 10
116.708711
 20
57.830818
 30
0.0
  0
SPLINE
  5
150
100
AcDbEntity
  8
0
 62
7
100
AcDbSpline
 70
8
 71
3
 72
8
 73
4
 74
0
 40
0
 40
0
 40
0
 40
0
 40
1
 40
1
 40
1
 40
1
 10
116.708711
 20
57.830818
 30
0.0
 10
117.516961
 20
58.639164
 30
0.0
 10
118.613223
 20
59.093318
 30
0.0
 10
119.756324
 20
59.093367
 30
0.0
  0
LINE
  5
151
100
AcDbEntity
  8
0
 62
7
100
AcDbLine
 10
119.756324
 20
59.093367
 30
0.0
 11
119.756324
 21
59.093367
 31
0.0
  0
SPLINE
  5
152
100
AcDbEntity
  8
0
 62
7
100
AcDbSpline
 70
8
 71
3
 72
8
 73
4
 74
0
 40
0
 40
0
 40
0
 40
0
 40
1
 40
1
 40
1
 40
1
 10
12.606779
 20
48.458357
 30
0.0
 10
12.858759
 20
48.458307
 30
0.0
 10
13.100396
 20
48.358152
 30
0.0
 10
13.278525
 20
48.179927
 30
0.0
  0
SPLINE
  5
153
100
AcDbEntity
  8
0
 62
7
100
AcDbSpline
 70
8
 71
3
 72
8
 73
4
 74
0
 40
0
 40
0
 40
0
 40
0
 40
1
 40
1
 40
1
 40
1
 10
13.278525
 20
48.179927
 30
0.0
 10
13.456653
 20
48.001702
 30
0.0
 10
13.556678
 20
47.760011
 30
0.0
 10
13.556592
 20
47.508031
 30
0.0
  0
SPLINE
  5
154
100
AcDbEntity
  8
0
 62
7
100
AcDbSpline
 70
8
 71
3
 72
8
 73
4
 74
0
 40
0
 40
0
 40
0
 40
0
 40
1
 40
1
 40
1
 40
1
 10
13.556592
 20
47.508031
 30
0.0
 10
13.556491
 20
46.983505
 30
0.0
 10
13.131305
 20
46.558317
 30
0.0
 10
12.606779
 20
46.558214
 30
0.0
  0
SPLINE
  5
155
100
AcDbEntity
  8
0
 62
7
100
AcDbSpline
 70
8
 71
3
 72
8
 73
4
 74
0
 40
0
 40
0
 40
0
 40
0
 40
1
 40
1
 40
1
 40
1
 10
12.606779
 20
46.558214
 30
0.0
 10
12.354798
 20
46.558126
 30
0.0
 10
12.113105
 20
46.658152
 30
0.0
 10
11.934879
 20
46.836281
 30
0.0
  0
SPLINE
  5
156
100
AcDbEntity
  8
0
 62
7
100
AcDbSpline
 70
8
 71
3
 72
8
 73
4
 74
0
 40
0
 40
0
 40
0
 40
0
 40
1
 40
1
 40
1
 40
1
 10
11.934879
 20
46.836281
 30
0.0
 10
11.756653
 20
47.014411
 30
0.0
 10
11.656498
 20
47.256050
 30
0.0
 10
11.656449
 20
47.508031
 30
0.0
  0
SPLINE
  5
157
100
AcDbEntity
  8
0
 62
7
100
AcDbSpline
 70
8
 71
3
 72
8
 73
4
 74
0
 40
0
 40
0
 40
0
 40
0
 40
1
 40
1
 40
1
 40
1
 10
11.656449
 20
47.508031
 30
0.0
 10
11.656363
 20
47.760101
 30
0.0
 10
11.756459
 20
48.001870
 30
0.0
 10
11.934699
 20
48.180110
 30
0.0
  0
SPLINE
  5
158
100
AcDbEntity
  8
0
 62
7
100
AcDbSpline
 70
8
 71
3
 72
8
 73
4
 74
0
 40
0
 40
0
 40
0
 40
0
 40
1
 40
1
 40
1
 40
1
 10
11.934699
 20
48.180110
 30
0.0
 10
12.112940
 20
48.358349
 30
0.0
 10
12.354710
 20
48.458444
 30
0.0
 10
12.606779
 20
48.458357
 30
0.0
  0
LINE
  5
159
100
AcDbEntity
  8
0
 62
7
100
AcDbLine
 10
12.606779
 20
48.458357
 30
0.0
 11
12.606779
 21
48.458357
 31
0.0
  0
SPLINE
  5
15a
100
AcDbEntity
  8
0
 62
7
100
AcDbSpline
 70
8
 71
3
 72
8
 73
4
 74
0
 40
0
 40
0
 40
0
 40
0
 40
1
 40
1
 40
1
 40
1
 10
132.621172
 20
48.458357
 30
0.0
 10
132.873152
 20
48.458307
 30
0.0
 10
133.114789
 20
48.358152
 30
0.0
 10
133.292918
 20
48.179927
 30
0.0
  0
SPLINE
  5
15b
100
AcDbEntity
  8
0
 62
7
100
AcDbSpline
 70
8
 71
3
 72
8
 73
4
 74
0
 40
0
 40
0
 40
0
 40
0
 40
1
 40
1
 40
1
 40
1
 10
133.292918
 20
48.179927
 30
0.0
 10
133.471047
 20
48.001703
 30
0.0
 10
133.571072
 20
47.760011
 30
0.0
 10
133.570986
 20
47.508031
 30
0.0
  0
SPLINE
  5
15c
100
AcDbEntity
  8
0
 62
7
100
AcDbSpline
 70
8
 71
3
 72
8
 73
4
 74
0
 40
0
 40
0
 40
0
 40
0
 40
1
 40
1
 40
1
 40
1
 10
133.570986
 20
47.508031
 30
0.0
 10
133.570885
 20
46.983505
 30
0.0
 10
133.145698
 20
46.558317
 30
0.0
 10
132.621172
 20
46.558214
 30
0.0
  0
SPLINE
  5
15d
100
AcDbEntity
  8
0
 62
7
100
AcDbSpline
 70
8
 71
3
 72
8
 73
4
 74
0
 40
0
 40
0
 40
0
 40
0
 40
1
 40
1
 40
1
 40
1
 10
132.621172
 20
46.558214
 30
0.0
 10
132.096647
 20
46.558319
 30
0.0
 10
131.671462
 20
46.983506
 30
0.0
 10
131.671361
 20
47.508031
 30
0.0
  0
SPLINE
  5
15e
100
AcDbEntity
  8
0
 62
7
100
AcDbSpline
 70
8
 71
3
 72
8
 73
4
 74
0
 40
0
 40
0
 40
0
 40
0
 40
1
 40
1
 40
1
 40
1
 10
131.671361
 20
47.508031
 30
0.0
 10
131.671275
 20
47.760011
 30
0.0
 10
131.771300
 20
48.001702
 30
0.0
 10
131.949428
 20
48.179926
 30
0.0
  0
SPLINE
  5
15f
100
AcDbEntity
  8
0
 62
7
100
AcDbSpline
 70
8
 71
3
 72
8
 73
4
 74
0
 40
0
 40
0
 40
0
 40
0
 40
1
 40
1
 40
1
 40
1
 10
131.949428
 20
48.179926
 30
0.0
 10
132.127556
 20
48.358151
 30
0.0
 10
132.369192
 20
48.458307
 30
0.0
 10
132.621172
 20
48.458357
 30
0.0
  0
LINE
  5
160
100
AcDbEntity
  8
0
 62
7
100
AcDbLine
 10
132.621172
 20
48.458357
 30
0.0
 11
132.621172
 21
48.458357
 31
0.0
  0
SPLINE
  5
161
100
AcDbEntity
  8
0
 62
7
100
AcDbSpline
 70
8
 71
3
 72
8
 73
4
 74
0
 40
0
 40
0
 40
0
 40
0
 40
1
 40
1
 40
1
 40
1
 10
34.831781
 20
46.553049
 30
0.0
 10
35.356306
 20
46.552947
 30
0.0
 10
35.781493
 20
46.127761
 30
0.0
 10
35.781596
 20
45.603235
 30
0.0
  0
SPLINE
  5
162
100
AcDbEntity
  8
0
 62
7
100
AcDbSpline
 70
8
 71
3
 72
8
 73
4
 74
0
 40
0
 40
0
 40
0
 40
0
 40
1
 40
1
 40
1
 40
1
 10
35.781596
 20
45.603235
 30
0.0
 10
35.781683
 20
45.351255
 30
0.0
 10
35.681658
 20
45.109562
 30
0.0
 10
35.503529
 20
44.931337
 30
0.0
  0
SPLINE
  5
163
100
AcDbEntity
  8
0
 62
7
100
AcDbSpline
 70
8
 71
3
 72
8
 73
4
 74
0
 40
0
 40
0
 40
0
 40
0
 40
1
 40
1
 40
1
 40
1
 10
35.503529
 20
44.931337
 30
0.0
 10
35.325400
 20
44.753111
 30
0.0
 10
35.083761
 20
44.652955
 30
0.0
 10
34.831781
 20
44.652906
 30
0.0
  0
SPLINE
  5
164
100
AcDbEntity
  8
0
 62
7
100
AcDbSpline
 70
8
 71
3
 72
8
 73
4
 74
0
 40
0
 40
0
 40
0
 40
0
 40
1
 40
1
 40
1
 40
1
 10
34.831781
 20
44.652906
 30
0.0
 10
34.579711
 20
44.652819
 30
0.0
 10
34.337940
 20
44.752915
 30
0.0
 10
34.159700
 20
44.931155
 30
0.0
  0
SPLINE
  5
165
100
AcDbEntity
  8
0
 62
7
100
AcDbSpline
 70
8
 71
3
 72
8
 73
4
 74
0
 40
0
 40
0
 40
0
 40
0
 40
1
 40
1
 40
1
 40
1
 10
34.159700
 20
44.931155
 30
0.0
 10
33.981460
 20
45.109395
 30
0.0
 10
33.881364
 20
45.351166
 30
0.0
 10
33.881452
 20
45.603235
 30
0.0
  0
SPLINE
  5
166
100
AcDbEntity
  8
0
 62
7
100
AcDbSpline
 70
8
 71
3
 72
8
 73
4
 74
0
 40
0
 40
0
 40
0
 40
0
 40
1
 40
1
 40
1
 40
1
 10
33.881452
 20
45.603235
 30
0.0
 10
33.881501
 20
45.855216
 30
0.0
 10
33.981657
 20
46.096854
 30
0.0
 10
34.159882
 20
46.274983
 30
0.0
  0
SPLINE
  5
167
100
AcDbEntity
  8
0
 62
7
100
AcDbSpline
 70
8
 71
3
 72
8
 73
4
 74
0
 40
0
 40
0
 40
0
 40
0
 40
1
 40
1
 40
1
 40
1
 10
34.159882
 20
46.274983
 30
0.0
 10
34.338108
 20
46.453112
 30
0.0
 10
34.579800
 20
46.553136
 30
0.0
 10
34.831781
 20
46.553049
 30
0.0
  0
LINE
  5
168
100
AcDbEntity
  8
0
 62
7
100
AcDbLine
 10
34.831781
 20
46.553049
 30
0.0
 11
34.831781
 21
46.553049
 31
0.0
  0
SPLINE
  5
169
100
AcDbEntity
  8
0
 62
7
100
AcDbSpline
 70
8
 71
3
 72
8
 73
4
 74
0
 40
0
 40
0
 40
0
 40
0
 40
1
 40
1
 40
1
 40
1
 10
116.111066
 20
46.553049
 30
0.0
 10
116.363047
 20
46.553136
 30
0.0
 10
116.604739
 20
46.453112
 30
0.0
 10
116.782965
 20
46.274983
 30
0.0
  0
SPLINE
  5
16a
100
AcDbEntity
  8
0
 62
7
100
AcDbSpline
 70
8
 71
3
 72
8
 73
4
 74
0
 40
0
 40
0
 40
0
 40
0
 40
1
 40
1
 40
1
 40
1
 10
116.782965
 20
46.274983
 30
0.0
 10
116.961190
 20
46.096854
 30
0.0
 10
117.061346
 20
45.855216
 30
0.0
 10
117.061395
 20
45.603235
 30
0.0
  0
SPLINE
  5
16b
100
AcDbEntity
  8
0
 62
7
100
AcDbSpline
 70
8
 71
3
 72
8
 73
4
 74
0
 40
0
 40
0
 40
0
 40
0
 40
1
 40
1
 40
1
 40
1
 10
117.061395
 20
45.603235
 30
0.0
 10
117.061482
 20
45.351166
 30
0.0
 10
116.961387
 20
45.109395
 30
0.0
 10
116.783147
 20
44.931155
 30
0.0
  0
SPLINE
  5
16c
100
AcDbEntity
  8
0
 62
7
100
AcDbSpline
 70
8
 71
3
 72
8
 73
4
 74
0
 40
0
 40
0
 40
0
 40
0
 40
1
 40
1
 40
1
 40
1
 10
116.783147
 20
44.931155
 30
0.0
 10
116.604906
 20
44.752915
 30
0.0
 10
116.363136
 20
44.652819
 30
0.0
 10
116.111066
 20
44.652906
 30
0.0
  0
SPLINE
  5
16d
100
AcDbEntity
  8
0
 62
7
100
AcDbSpline
 70
8
 71
3
 72
8
 73
4
 74
0
 40
0
 40
0
 40
0
 40
0
 40
1
 40
1
 40
1
 40
1
 10
116.111066
 20
44.652906
 30
0.0
 10
115.859086
 20
44.652956
 30
0.0
 10
115.617447
 20
44.753112
 30
0.0
 10
115.439319
 20
44.931337
 30
0.0
  0
SPLINE
  5
16e
100
AcDbEntity
  8
0
 62
7
100
AcDbSpline
 70
8
 71
3
 72
8
 73
4
 74
0
 40
0
 40
0
 40
0
 40
0
 40
1
 40
1
 40
1
 40
1
 10
115.439319
 20
44.931337
 30
0.0
 10
115.261190
 20
45.109562
 30
0.0
 10
115.161165
 20
45.351255
 30
0.0
 10
115.161252
 20
45.603235
 30
0.0
  0
SPLINE
  5
16f
100
AcDbEntity
  8
0
 62
7
100
AcDbSpline
 70
8
 71
3
 72
8
 73
4
 74
0
 40
0
 40
0
 40
0
 40
0
 40
1
 40
1
 40
1
 40
1
 10
115.161252
 20
45.603235
 30
0.0
 10
115.161355
 20
46.127761
 30
0.0
 10
115.586541
 20
46.552946
 30
0.0
 10
116.111066
 20
46.553049
 30
0.0
  0
LINE
  5
170
100
AcDbEntity
  8
0
 62
7
100
AcDbLine
 10
116.111066
 20
46.553049
 30
0.0
 11
116.111066
 21
46.553049
 31
0.0
  0
LINE
  5
171
100
AcDbEntity
  8
0
 62
7
100
AcDbLine
 10
133.519177
 20
37.788256
 30
0.0
 11
133.018949
 21
37.788256
 31
0.0
  0
LINE
  5
172
100
AcDbEntity
  8
0
 62
7
100
AcDbLine
 10
133.018949
 20
37.788256
 30
0.0
 11
118.201765
 21
37.788256
 31
0.0
  0
LINE
  5
173
100
AcDbEntity
  8
0
 62
7
100
AcDbLine
 10
118.201765
 20
37.788256
 30
0.0
 11
118.201765
 21
37.787904
 31
0.0
  0
LINE
  5
174
100
AcDbEntity
  8
0
 62
7
100
AcDbLine
 10
118.201765
 20
37.787904
 30
0.0
 11
119.612013
 21
37.787904
 31
0.0
  0
SPLINE
  5
175
100
AcDbEntity
  8
0
 62
7
100
AcDbSpline
 70
8
 71
3
 72
8
 73
4
 74
0
 40
0
 40
0
 40
0
 40
0
 40
1
 40
1
 40
1
 40
1
 10
119.612013
 20
37.787904
 30
0.0
 10
119.612013
 20
37.787904
 30
0.0
 10
119.612013
 20
32.086956
 30
0.0
 10
119.612013
 20
32.086956
 30
0.0
  0
SPLINE
  5
176
100
AcDbEntity
  8
0
 62
7
100
AcDbSpline
 70
8
 71
3
 72
8
 73
4
 74
0
 40
0
 40
0
 40
0
 40
0
 40
1
 40
1
 40
1
 40
1
 10
119.612013
 20
32.086956
 30
0.0
 10
119.612014
 20
32.085239
 30
0.0
 10
119.612014
 20
32.083523
 30
0.0
 10
119.612013
 20
32.081806
 30
0.0
  0
SPLINE
  5
177
100
AcDbEntity
  8
0
 62
7
100
AcDbSpline
 70
8
 71
3
 72
8
 73
4
 74
0
 40
0
 40
0
 40
0
 40
0
 40
1
 40
1
 40
1
 40
1
 10
119.612013
 20
32.081806
 30
0.0
 10
119.610210
 20
30.869973
 30
0.0
 10
119.098320
 20
29.714887
 30
0.0
 10
118.201765
 20
28.899568
 30
0.0
  0
LINE
  5
178
100
AcDbEntity
  8
0
 62
7
100
AcDbLine
 10
118.201765
 20
28.899568
 30
0.0
 11
118.201765
 21
27.331706
 31
0.0
  0
LINE
  5
179
100
AcDbEntity
  8
0
 62
7
100
AcDbLine
 10
118.201765
 20
27.331706
 30
0.0
 11
112.402118
 21
27.331706
 31
0.0
  0
SPLINE
  5
17a
100
AcDbEntity
  8
0
 62
7
100
AcDbSpline
 70
8
 71
3
 72
8
 73
4
 74
0
 40
0
 40
0
 40
0
 40
0
 40
1
 40
1
 40
1
 40
1
 10
112.402118
 20
27.331706
 30
0.0
 10
112.402118
 20
27.331706
 30
0.0
 10
112.402118
 20
28.899568
 30
0.0
 10
112.402118
 20
28.899568
 30
0.0
  0
SPLINE
  5
17b
100
AcDbEntity
  8
0
 62
7
100
AcDbSpline
 70
8
 71
3
 72
8
 73
4
 74
0
 40
0
 40
0
 40
0
 40
0
 40
1
 40
1
 40
1
 40
1
 10
112.402118
 20
28.899568
 30
0.0
 10
111.505564
 20
29.714887
 30
0.0
 10
110.993673
 20
30.869973
 30
0.0
 10
110.991870
 20
32.081806
 30
0.0
  0
SPLINE
  5
17c
100
AcDbEntity
  8
0
 62
7
100
AcDbSpline
 70
8
 71
3
 72
8
 73
4
 74
0
 40
0
 40
0
 40
0
 40
0
 40
1
 40
1
 40
1
 40
1
 10
110.991870
 20
32.081806
 30
0.0
 10
110.991869
 20
32.083699
 30
0.0
 10
110.991869
 20
32.085592
 30
0.0
 10
110.991870
 20
32.087485
 30
0.0
  0
LINE
  5
17d
100
AcDbEntity
  8
0
 62
7
100
AcDbLine
 10
110.991870
 20
32.087485
 30
0.0
 11
110.991870
 21
33.706511
 31
0.0
  0
LINE
  5
17e
100
AcDbEntity
  8
0
 62
7
100
AcDbLine
 10
110.991870
 20
33.706511
 30
0.0
 11
101.612077
 21
33.706511
 31
0.0
  0
LINE
  5
17f
100
AcDbEntity
  8
0
 62
7
100
AcDbLine
 10
101.612077
 20
33.706511
 30
0.0
 11
101.612077
 21
37.787921
 31
0.0
  0
LINE
  5
180
100
AcDbEntity
  8
0
 62
7
100
AcDbLine
 10
101.612077
 20
37.787921
 30
0.0
 11
112.402118
 21
37.787921
 31
0.0
  0
LINE
  5
181
100
AcDbEntity
  8
0
 62
7
100
AcDbLine
 10
112.402118
 20
37.787921
 30
0.0
 11
112.402118
 21
37.788274
 31
0.0
  0
LINE
  5
182
100
AcDbEntity
  8
0
 62
7
100
AcDbLine
 10
112.402118
 20
37.788274
 30
0.0
 11
80.019079
 21
37.788274
 31
0.0
  0
LINE
  5
183
100
AcDbEntity
  8
0
 62
7
100
AcDbLine
 10
80.019079
 20
37.788274
 30
0.0
 11
79.519367
 21
37.788274
 31
0.0
  0
LINE
  5
184
100
AcDbEntity
  8
0
 62
7
100
AcDbLine
 10
79.519367
 20
37.788274
 30
0.0
 11
79.519367
 21
32.236671
 31
0.0
  0
LINE
  5
185
100
AcDbEntity
  8
0
 62
7
100
AcDbLine
 10
79.519367
 20
32.236671
 30
0.0
 11
84.647220
 21
32.236671
 31
0.0
  0
LINE
  5
186
100
AcDbEntity
  8
0
 62
7
100
AcDbLine
 10
84.647220
 20
32.236671
 30
0.0
 11
84.647220
 21
22.936465
 31
0.0
  0
LINE
  5
187
100
AcDbEntity
  8
0
 62
7
100
AcDbLine
 10
84.647220
 20
22.936465
 30
0.0
 11
79.519367
 21
22.936465
 31
0.0
  0
LINE
  5
188
100
AcDbEntity
  8
0
 62
7
100
AcDbLine
 10
79.519367
 20
22.936465
 30
0.0
 11
79.519367
 21
21.037871
 31
0.0
  0
SPLINE
  5
189
100
AcDbEntity
  8
0
 62
7
100
AcDbSpline
 70
8
 71
3
 72
8
 73
4
 74
0
 40
0
 40
0
 40
0
 40
0
 40
1
 40
1
 40
1
 40
1
 10
79.519367
 20
21.037871
 30
0.0
 10
79.519367
 20
18.821876
 30
0.0
 10
81.303121
 20
17.038118
 30
0.0
 10
83.519123
 20
17.038118
 30
0.0
  0
LINE
  5
18a
100
AcDbEntity
  8
0
 62
7
100
AcDbLine
 10
83.519123
 20
17.038118
 30
0.0
 11
129.519420
 21
17.038118
 31
0.0
  0
SPLINE
  5
18b
100
AcDbEntity
  8
0
 62
7
100
AcDbSpline
 70
8
 71
3
 72
8
 73
4
 74
0
 40
0
 40
0
 40
0
 40
0
 40
1
 40
1
 40
1
 40
1
 10
129.519420
 20
17.038118
 30
0.0
 10
131.735426
 20
17.038290
 30
0.0
 10
133.519177
 20
18.822006
 30
0.0
 10
133.519177
 20
21.037871
 30
0.0
  0
LINE
  5
18c
100
AcDbEntity
  8
0
 62
7
100
AcDbLine
 10
133.519177
 20
21.037871
 30
0.0
 11
133.519177
 21
37.788256
 31
0.0
  0
SPLINE
  5
18d
100
AcDbEntity
  8
0
 62
7
100
AcDbSpline
 70
8
 71
3
 72
8
 73
4
 74
0
 40
0
 40
0
 40
0
 40
0
 40
1
 40
1
 40
1
 40
1
 10
132.622075
 20
35.726880
 30
0.0
 10
132.622125
 20
35.435076
 30
0.0
 10
132.506229
 20
35.155209
 30
0.0
 10
132.299892
 20
34.948872
 30
0.0
  0
SPLINE
  5
18e
100
AcDbEntity
  8
0
 62
7
100
AcDbSpline
 70
8
 71
3
 72
8
 73
4
 74
0
 40
0
 40
0
 40
0
 40
0
 40
1
 40
1
 40
1
 40
1
 10
132.299892
 20
34.948872
 30
0.0
 10
132.093554
 20
34.742536
 30
0.0
 10
131.813687
 20
34.626640
 30
0.0
 10
131.521883
 20
34.626691
 30
0.0
  0
SPLINE
  5
18f
100
AcDbEntity
  8
0
 62
7
100
AcDbSpline
 70
8
 71
3
 72
8
 73
4
 74
0
 40
0
 40
0
 40
0
 40
0
 40
1
 40
1
 40
1
 40
1
 10
131.521883
 20
34.626691
 30
0.0
 10
131.230078
 20
34.626640
 30
0.0
 10
130.950211
 20
34.742536
 30
0.0
 10
130.743873
 20
34.948872
 30
0.0
  0
SPLINE
  5
190
100
AcDbEntity
  8
0
 62
7
100
AcDbSpline
 70
8
 71
3
 72
8
 73
4
 74
0
 40
0
 40
0
 40
0
 40
0
 40
1
 40
1
 40
1
 40
1
 10
130.743873
 20
34.948872
 30
0.0
 10
130.537536
 20
35.155209
 30
0.0
 10
130.421640
 20
35.435076
 30
0.0
 10
130.421690
 20
35.726880
 30
0.0
  0
SPLINE
  5
191
100
AcDbEntity
  8
0
 62
7
100
AcDbSpline
 70
8
 71
3
 72
8
 73
4
 74
0
 40
0
 40
0
 40
0
 40
0
 40
1
 40
1
 40
1
 40
1
 10
130.421690
 20
35.726880
 30
0.0
 10
130.421869
 20
36.334341
 30
0.0
 10
130.914421
 20
36.826661
 30
0.0
 10
131.521883
 20
36.826554
 30
0.0
  0
SPLINE
  5
192
100
AcDbEntity
  8
0
 62
7
100
AcDbSpline
 70
8
 71
3
 72
8
 73
4
 74
0
 40
0
 40
0
 40
0
 40
0
 40
1
 40
1
 40
1
 40
1
 10
131.521883
 20
36.826554
 30
0.0
 10
132.129344
 20
36.826661
 30
0.0
 10
132.621896
 20
36.334341
 30
0.0
 10
132.622075
 20
35.726880
 30
0.0
  0
LINE
  5
193
100
AcDbEntity
  8
0
 62
7
100
AcDbLine
 10
132.622075
 20
35.726880
 30
0.0
 11
132.622075
 21
35.726880
 31
0.0
  0
SPLINE
  5
194
100
AcDbEntity
  8
0
 62
7
100
AcDbSpline
 70
8
 71
3
 72
8
 73
4
 74
0
 40
0
 40
0
 40
0
 40
0
 40
1
 40
1
 40
1
 40
1
 10
131.676910
 20
25.731628
 30
0.0
 10
131.675107
 20
24.519796
 30
0.0
 10
131.163217
 20
23.364710
 30
0.0
 10
130.266662
 20
22.549391
 30
0.0
  0
LINE
  5
195
100
AcDbEntity
  8
0
 62
7
100
AcDbLine
 10
130.266662
 20
22.549391
 30
0.0
 11
130.266662
 21
20.981529
 31
0.0
  0
LINE
  5
196
100
AcDbEntity
  8
0
 62
7
100
AcDbLine
 10
130.266662
 20
20.981529
 30
0.0
 11
124.467015
 21
20.981529
 31
0.0
  0
LINE
  5
197
100
AcDbEntity
  8
0
 62
7
100
AcDbLine
 10
124.467015
 20
20.981529
 30
0.0
 11
124.467015
 21
22.550424
 31
0.0
  0
SPLINE
  5
198
100
AcDbEntity
  8
0
 62
7
100
AcDbSpline
 70
8
 71
3
 72
8
 73
4
 74
0
 40
0
 40
0
 40
0
 40
0
 40
1
 40
1
 40
1
 40
1
 10
124.467015
 20
22.550424
 30
0.0
 10
123.570726
 20
23.365501
 30
0.0
 10
123.058861
 20
24.520156
 30
0.0
 10
123.056767
 20
25.731628
 30
0.0
  0
SPLINE
  5
199
100
AcDbEntity
  8
0
 62
7
100
AcDbSpline
 70
8
 71
3
 72
8
 73
4
 74
0
 40
0
 40
0
 40
0
 40
0
 40
1
 40
1
 40
1
 40
1
 10
123.056767
 20
25.731628
 30
0.0
 10
123.058571
 20
26.943460
 30
0.0
 10
123.570462
 20
28.098544
 30
0.0
 10
124.467015
 20
28.913863
 30
0.0
  0
LINE
  5
19a
100
AcDbEntity
  8
0
 62
7
100
AcDbLine
 10
124.467015
 20
28.913863
 30
0.0
 11
124.467015
 21
30.481206
 31
0.0
  0
LINE
  5
19b
100
AcDbEntity
  8
0
 62
7
100
AcDbLine
 10
124.467015
 20
30.481206
 30
0.0
 11
130.266662
 21
30.481206
 31
0.0
  0
LINE
  5
19c
100
AcDbEntity
  8
0
 62
7
100
AcDbLine
 10
130.266662
 20
30.481206
 30
0.0
 11
130.266662
 21
28.913344
 31
0.0
  0
SPLINE
  5
19d
100
AcDbEntity
  8
0
 62
7
100
AcDbSpline
 70
8
 71
3
 72
8
 73
4
 74
0
 40
0
 40
0
 40
0
 40
0
 40
1
 40
1
 40
1
 40
1
 10
130.266662
 20
28.913344
 30
0.0
 10
131.163082
 20
28.098147
 30
0.0
 10
131.674960
 20
26.943279
 30
0.0
 10
131.676910
 20
25.731628
 30
0.0
  0
LINE
  5
19e
100
AcDbEntity
  8
0
 62
7
100
AcDbLine
 10
131.676910
 20
25.731628
 30
0.0
 11
131.676910
 21
25.731628
 31
0.0
  0
SPLINE
  5
19f
100
AcDbEntity
  8
0
 62
7
100
AcDbSpline
 70
8
 71
3
 72
8
 73
4
 74
0
 40
0
 40
0
 40
0
 40
0
 40
1
 40
1
 40
1
 40
1
 10
130.716764
 20
19.216782
 30
0.0
 10
130.716871
 20
18.609320
 30
0.0
 10
130.224551
 20
18.116769
 30
0.0
 10
129.617090
 20
18.116589
 30
0.0
  0
SPLINE
  5
1a0
100
AcDbEntity
  8
0
 62
7
100
AcDbSpline
 70
8
 71
3
 72
8
 73
4
 74
0
 40
0
 40
0
 40
0
 40
0
 40
1
 40
1
 40
1
 40
1
 10
129.617090
 20
18.116589
 30
0.0
 10
129.325285
 20
18.116538
 30
0.0
 10
129.045417
 20
18.232434
 30
0.0
 10
128.839080
 20
18.438771
 30
0.0
  0
SPLINE
  5
1a1
100
AcDbEntity
  8
0
 62
7
100
AcDbSpline
 70
8
 71
3
 72
8
 73
4
 74
0
 40
0
 40
0
 40
0
 40
0
 40
1
 40
1
 40
1
 40
1
 10
128.839080
 20
18.438771
 30
0.0
 10
128.632743
 20
18.645109
 30
0.0
 10
128.516846
 20
18.924977
 30
0.0
 10
128.516898
 20
19.216782
 30
0.0
  0
SPLINE
  5
1a2
100
AcDbEntity
  8
0
 62
7
100
AcDbSpline
 70
8
 71
3
 72
8
 73
4
 74
0
 40
0
 40
0
 40
0
 40
0
 40
1
 40
1
 40
1
 40
1
 10
128.516898
 20
19.216782
 30
0.0
 10
128.516847
 20
19.508586
 30
0.0
 10
128.632744
 20
19.788453
 30
0.0
 10
128.839081
 20
19.994790
 30
0.0
  0
SPLINE
  5
1a3
100
AcDbEntity
  8
0
 62
7
100
AcDbSpline
 70
8
 71
3
 72
8
 73
4
 74
0
 40
0
 40
0
 40
0
 40
0
 40
1
 40
1
 40
1
 40
1
 10
128.839081
 20
19.994790
 30
0.0
 10
129.045418
 20
20.201126
 30
0.0
 10
129.325286
 20
20.317022
 30
0.0
 10
129.617090
 20
20.316970
 30
0.0
  0
SPLINE
  5
1a4
100
AcDbEntity
  8
0
 62
7
100
AcDbSpline
 70
8
 71
3
 72
8
 73
4
 74
0
 40
0
 40
0
 40
0
 40
0
 40
1
 40
1
 40
1
 40
1
 10
129.617090
 20
20.316970
 30
0.0
 10
130.224550
 20
20.316791
 30
0.0
 10
130.716869
 20
19.824242
 30
0.0
 10
130.716764
 20
19.216782
 30
0.0
  0
LINE
  5
1a5
100
AcDbEntity
  8
0
 62
7
100
AcDbLine
 10
130.716764
 20
19.216782
 30
0.0
 11
130.716764
 21
19.216782
 31
0.0
  0
SPLINE
  5
1a6
100
AcDbEntity
  8
0
 62
7
100
AcDbSpline
 70
8
 71
3
 72
8
 73
4
 74
0
 40
0
 40
0
 40
0
 40
0
 40
1
 40
1
 40
1
 40
1
 10
95.482216
 20
37.787741
 30
0.0
 10
95.482216
 20
37.787741
 30
0.0
 10
95.482216
 20
32.081626
 30
0.0
 10
95.482216
 20
32.081626
 30
0.0
  0
SPLINE
  5
1a7
100
AcDbEntity
  8
0
 62
7
100
AcDbSpline
 70
8
 71
3
 72
8
 73
4
 74
0
 40
0
 40
0
 40
0
 40
0
 40
1
 40
1
 40
1
 40
1
 10
95.482216
 20
32.081626
 30
0.0
 10
95.480412
 20
30.869795
 30
0.0
 10
94.968521
 20
29.714710
 30
0.0
 10
94.071968
 20
28.899392
 30
0.0
  0
LINE
  5
1a8
100
AcDbEntity
  8
0
 62
7
100
AcDbLine
 10
94.071968
 20
28.899392
 30
0.0
 11
94.071968
 21
27.331530
 31
0.0
  0
LINE
  5
1a9
100
AcDbEntity
  8
0
 62
7
100
AcDbLine
 10
94.071968
 20
27.331530
 30
0.0
 11
88.271805
 21
27.331530
 31
0.0
  0
LINE
  5
1aa
100
AcDbEntity
  8
0
 62
7
100
AcDbLine
 10
88.271805
 20
27.331530
 30
0.0
 11
88.271805
 21
28.899910
 31
0.0
  0
SPLINE
  5
1ab
100
AcDbEntity
  8
0
 62
7
100
AcDbSpline
 70
8
 71
3
 72
8
 73
4
 74
0
 40
0
 40
0
 40
0
 40
0
 40
1
 40
1
 40
1
 40
1
 10
88.271805
 20
28.899910
 30
0.0
 10
87.375576
 20
29.715199
 30
0.0
 10
86.863890
 20
30.870054
 30
0.0
 10
86.862072
 20
32.081626
 30
0.0
  0
LINE
  5
1ac
100
AcDbEntity
  8
0
 62
7
100
AcDbLine
 10
86.862072
 20
32.081626
 30
0.0
 11
86.862072
 21
37.787741
 31
0.0
  0
LINE
  5
1ad
100
AcDbEntity
  8
0
 62
7
100
AcDbLine
 10
86.862072
 20
37.787741
 30
0.0
 11
95.482216
 21
37.787741
 31
0.0
  0
SPLINE
  5
1ae
100
AcDbEntity
  8
0
 62
7
100
AcDbSpline
 70
8
 71
3
 72
8
 73
4
 74
0
 40
0
 40
0
 40
0
 40
0
 40
1
 40
1
 40
1
 40
1
 10
84.997069
 20
19.216782
 30
0.0
 10
84.997121
 20
18.924977
 30
0.0
 10
84.881225
 20
18.645110
 30
0.0
 10
84.674889
 20
18.438773
 30
0.0
  0
SPLINE
  5
1af
100
AcDbEntity
  8
0
 62
7
100
AcDbSpline
 70
8
 71
3
 72
8
 73
4
 74
0
 40
0
 40
0
 40
0
 40
0
 40
1
 40
1
 40
1
 40
1
 10
84.674889
 20
18.438773
 30
0.0
 10
84.468552
 20
18.232436
 30
0.0
 10
84.188685
 20
18.116539
 30
0.0
 10
83.896881
 20
18.116589
 30
0.0
  0
SPLINE
  5
1b0
100
AcDbEntity
  8
0
 62
7
100
AcDbSpline
 70
8
 71
3
 72
8
 73
4
 74
0
 40
0
 40
0
 40
0
 40
0
 40
1
 40
1
 40
1
 40
1
 10
83.896881
 20
18.116589
 30
0.0
 10
83.289418
 20
18.116767
 30
0.0
 10
82.797096
 20
18.609319
 30
0.0
 10
82.797203
 20
19.216782
 30
0.0
  0
SPLINE
  5
1b1
100
AcDbEntity
  8
0
 62
7
100
AcDbSpline
 70
8
 71
3
 72
8
 73
4
 74
0
 40
0
 40
0
 40
0
 40
0
 40
1
 40
1
 40
1
 40
1
 10
82.797203
 20
19.216782
 30
0.0
 10
82.797098
 20
19.824243
 30
0.0
 10
83.289419
 20
20.316793
 30
0.0
 10
83.896881
 20
20.316970
 30
0.0
  0
SPLINE
  5
1b2
100
AcDbEntity
  8
0
 62
7
100
AcDbSpline
 70
8
 71
3
 72
8
 73
4
 74
0
 40
0
 40
0
 40
0
 40
0
 40
1
 40
1
 40
1
 40
1
 10
83.896881
 20
20.316970
 30
0.0
 10
84.188684
 20
20.317021
 30
0.0
 10
84.468551
 20
20.201125
 30
0.0
 10
84.674887
 20
19.994788
 30
0.0
  0
SPLINE
  5
1b3
100
AcDbEntity
  8
0
 62
7
100
AcDbSpline
 70
8
 71
3
 72
8
 73
4
 74
0
 40
0
 40
0
 40
0
 40
0
 40
1
 40
1
 40
1
 40
1
 10
84.674887
 20
19.994788
 30
0.0
 10
84.881224
 20
19.788452
 30
0.0
 10
84.997120
 20
19.508585
 30
0.0
 10
84.997069
 20
19.216782
 30
0.0
  0
LINE
  5
1b4
100
AcDbEntity
  8
0
 62
7
100
AcDbLine
 10
84.997069
 20
19.216782
 30
0.0
 11
84.997069
 21
19.216782
 31
0.0
  0
SPLINE
  5
1b5
100
AcDbEntity
  8
0
 62
7
100
AcDbSpline
 70
8
 71
3
 72
8
 73
4
 74
0
 40
0
 40
0
 40
0
 40
0
 40
1
 40
1
 40
1
 40
1
 10
83.091758
 20
35.726884
 30
0.0
 10
83.091864
 20
35.119424
 30
0.0
 10
82.599545
 20
34.626874
 30
0.0
 10
81.992085
 20
34.626695
 30
0.0
  0
SPLINE
  5
1b6
100
AcDbEntity
  8
0
 62
7
100
AcDbSpline
 70
8
 71
3
 72
8
 73
4
 74
0
 40
0
 40
0
 40
0
 40
0
 40
1
 40
1
 40
1
 40
1
 10
81.992085
 20
34.626695
 30
0.0
 10
81.700280
 20
34.626643
 30
0.0
 10
81.420413
 20
34.742539
 30
0.0
 10
81.214076
 20
34.948876
 30
0.0
  0
SPLINE
  5
1b7
100
AcDbEntity
  8
0
 62
7
100
AcDbSpline
 70
8
 71
3
 72
8
 73
4
 74
0
 40
0
 40
0
 40
0
 40
0
 40
1
 40
1
 40
1
 40
1
 10
81.214076
 20
34.948876
 30
0.0
 10
81.007738
 20
35.155212
 30
0.0
 10
80.891842
 20
35.435079
 30
0.0
 10
80.891892
 20
35.726884
 30
0.0
  0
SPLINE
  5
1b8
100
AcDbEntity
  8
0
 62
7
100
AcDbSpline
 70
8
 71
3
 72
8
 73
4
 74
0
 40
0
 40
0
 40
0
 40
0
 40
1
 40
1
 40
1
 40
1
 10
80.891892
 20
35.726884
 30
0.0
 10
80.892072
 20
36.334345
 30
0.0
 10
81.384623
 20
36.826665
 30
0.0
 10
81.992085
 20
36.826557
 30
0.0
  0
SPLINE
  5
1b9
100
AcDbEntity
  8
0
 62
7
100
AcDbSpline
 70
8
 71
3
 72
8
 73
4
 74
0
 40
0
 40
0
 40
0
 40
0
 40
1
 40
1
 40
1
 40
1
 10
81.992085
 20
36.826557
 30
0.0
 10
82.599343
 20
36.826378
 30
0.0
 10
83.091579
 20
36.334142
 30
0.0
 10
83.091758
 20
35.726884
 30
0.0
  0
LINE
  5
1ba
100
AcDbEntity
  8
0
 62
7
100
AcDbLine
 10
83.091758
 20
35.726884
 30
0.0
 11
83.091758
 21
35.726884
 31
0.0
  0
SPLINE
  5
1bb
100
AcDbEntity
  8
0
 62
7
100
AcDbSpline
 70
8
 71
3
 72
8
 73
4
 74
0
 40
0
 40
0
 40
0
 40
0
 40
1
 40
1
 40
1
 40
1
 10
59.705947
 20
12.606392
 30
0.0
 10
59.706124
 20
13.213854
 30
0.0
 10
60.198674
 20
13.706175
 30
0.0
 10
60.806135
 20
13.706070
 30
0.0
  0
SPLINE
  5
1bc
100
AcDbEntity
  8
0
 62
7
100
AcDbSpline
 70
8
 71
3
 72
8
 73
4
 74
0
 40
0
 40
0
 40
0
 40
0
 40
1
 40
1
 40
1
 40
1
 10
60.806135
 20
13.706070
 30
0.0
 10
61.413397
 20
13.705892
 30
0.0
 10
61.905636
 20
13.213654
 30
0.0
 10
61.905813
 20
12.606392
 30
0.0
  0
SPLINE
  5
1bd
100
AcDbEntity
  8
0
 62
7
100
AcDbSpline
 70
8
 71
3
 72
8
 73
4
 74
0
 40
0
 40
0
 40
0
 40
0
 40
1
 40
1
 40
1
 40
1
 10
61.905813
 20
12.606392
 30
0.0
 10
61.905918
 20
11.998931
 30
0.0
 10
61.413597
 20
11.506381
 30
0.0
 10
60.806135
 20
11.506204
 30
0.0
  0
SPLINE
  5
1be
100
AcDbEntity
  8
0
 62
7
100
AcDbSpline
 70
8
 71
3
 72
8
 73
4
 74
0
 40
0
 40
0
 40
0
 40
0
 40
1
 40
1
 40
1
 40
1
 10
60.806135
 20
11.506204
 30
0.0
 10
60.514332
 20
11.506153
 30
0.0
 10
60.234465
 20
11.622049
 30
0.0
 10
60.028129
 20
11.828386
 30
0.0
  0
SPLINE
  5
1bf
100
AcDbEntity
  8
0
 62
7
100
AcDbSpline
 70
8
 71
3
 72
8
 73
4
 74
0
 40
0
 40
0
 40
0
 40
0
 40
1
 40
1
 40
1
 40
1
 10
60.028129
 20
11.828386
 30
0.0
 10
59.821792
 20
12.034722
 30
0.0
 10
59.705896
 20
12.314589
 30
0.0
 10
59.705947
 20
12.606392
 30
0.0
  0
LINE
  5
1c0
100
AcDbEntity
  8
0
 62
7
100
AcDbLine
 10
59.705947
 20
12.606392
 30
0.0
 11
59.705947
 21
12.606392
 31
0.0
  0
SPLINE
  5
1c1
100
AcDbEntity
  8
0
 62
7
100
AcDbSpline
 70
8
 71
3
 72
8
 73
4
 74
0
 40
0
 40
0
 40
0
 40
0
 40
1
 40
1
 40
1
 40
1
 10
13.986249
 20
12.606392
 30
0.0
 10
13.986426
 20
13.213654
 30
0.0
 10
14.478665
 20
13.705892
 30
0.0
 10
15.085926
 20
13.706070
 30
0.0
  0
SPLINE
  5
1c2
100
AcDbEntity
  8
0
 62
7
100
AcDbSpline
 70
8
 71
3
 72
8
 73
4
 74
0
 40
0
 40
0
 40
0
 40
0
 40
1
 40
1
 40
1
 40
1
 10
15.085926
 20
13.706070
 30
0.0
 10
15.693387
 20
13.706175
 30
0.0
 10
16.185938
 20
13.213854
 30
0.0
 10
16.186115
 20
12.606392
 30
0.0
  0
SPLINE
  5
1c3
100
AcDbEntity
  8
0
 62
7
100
AcDbSpline
 70
8
 71
3
 72
8
 73
4
 74
0
 40
0
 40
0
 40
0
 40
0
 40
1
 40
1
 40
1
 40
1
 10
16.186115
 20
12.606392
 30
0.0
 10
16.186165
 20
12.314589
 30
0.0
 10
16.070269
 20
12.034722
 30
0.0
 10
15.863933
 20
11.828386
 30
0.0
  0
SPLINE
  5
1c4
100
AcDbEntity
  8
0
 62
7
100
AcDbSpline
 70
8
 71
3
 72
8
 73
4
 74
0
 40
0
 40
0
 40
0
 40
0
 40
1
 40
1
 40
1
 40
1
 10
15.863933
 20
11.828386
 30
0.0
 10
15.657596
 20
11.622049
 30
0.0
 10
15.377730
 20
11.506153
 30
0.0
 10
15.085926
 20
11.506204
 30
0.0
  0
SPLINE
  5
1c5
100
AcDbEntity
  8
0
 62
7
100
AcDbSpline
 70
8
 71
3
 72
8
 73
4
 74
0
 40
0
 40
0
 40
0
 40
0
 40
1
 40
1
 40
1
 40
1
 10
15.085926
 20
11.506204
 30
0.0
 10
14.478465
 20
11.506381
 30
0.0
 10
13.986144
 20
11.998931
 30
0.0
 10
13.986249
 20
12.606392
 30
0.0
  0
LINE
  5
1c6
100
AcDbEntity
  8
0
 62
7
100
AcDbLine
 10
13.986249
 20
12.606392
 30
0.0
 11
13.986249
 21
12.606392
 31
0.0
  0
SPLINE
  5
1c7
100
AcDbEntity
  8
0
 62
7
100
AcDbSpline
 70
8
 71
3
 72
8
 73
4
 74
0
 40
0
 40
0
 40
0
 40
0
 40
1
 40
1
 40
1
 40
1
 10
12.080941
 20
34.831394
 30
0.0
 10
12.081118
 20
35.438855
 30
0.0
 10
12.573668
 20
35.931176
 30
0.0
 10
13.181130
 20
35.931071
 30
0.0
  0
SPLINE
  5
1c8
100
AcDbEntity
  8
0
 62
7
100
AcDbSpline
 70
8
 71
3
 72
8
 73
4
 74
0
 40
0
 40
0
 40
0
 40
0
 40
1
 40
1
 40
1
 40
1
 10
13.181130
 20
35.931071
 30
0.0
 10
13.788593
 20
35.931178
 30
0.0
 10
14.281145
 20
35.438857
 30
0.0
 10
14.281322
 20
34.831394
 30
0.0
  0
SPLINE
  5
1c9
100
AcDbEntity
  8
0
 62
7
100
AcDbSpline
 70
8
 71
3
 72
8
 73
4
 74
0
 40
0
 40
0
 40
0
 40
0
 40
1
 40
1
 40
1
 40
1
 10
14.281322
 20
34.831394
 30
0.0
 10
14.281373
 20
34.539590
 30
0.0
 10
14.165476
 20
34.259722
 30
0.0
 10
13.959139
 20
34.053386
 30
0.0
  0
SPLINE
  5
1ca
100
AcDbEntity
  8
0
 62
7
100
AcDbSpline
 70
8
 71
3
 72
8
 73
4
 74
0
 40
0
 40
0
 40
0
 40
0
 40
1
 40
1
 40
1
 40
1
 10
13.959139
 20
34.053386
 30
0.0
 10
13.752802
 20
33.847049
 30
0.0
 10
13.472934
 20
33.731154
 30
0.0
 10
13.181130
 20
33.731205
 30
0.0
  0
SPLINE
  5
1cb
100
AcDbEntity
  8
0
 62
7
100
AcDbSpline
 70
8
 71
3
 72
8
 73
4
 74
0
 40
0
 40
0
 40
0
 40
0
 40
1
 40
1
 40
1
 40
1
 10
13.181130
 20
33.731205
 30
0.0
 10
12.889326
 20
33.731155
 30
0.0
 10
12.609459
 20
33.847051
 30
0.0
 10
12.403123
 20
34.053387
 30
0.0
  0
SPLINE
  5
1cc
100
AcDbEntity
  8
0
 62
7
100
AcDbSpline
 70
8
 71
3
 72
8
 73
4
 74
0
 40
0
 40
0
 40
0
 40
0
 40
1
 40
1
 40
1
 40
1
 10
12.403123
 20
34.053387
 30
0.0
 10
12.196787
 20
34.259724
 30
0.0
 10
12.080890
 20
34.539590
 30
0.0
 10
12.080941
 20
34.831394
 30
0.0
  0
LINE
  5
1cd
100
AcDbEntity
  8
0
 62
7
100
AcDbLine
 10
12.080941
 20
34.831394
 30
0.0
 11
12.080941
 21
34.831394
 31
0.0
  0
SPLINE
  5
1ce
100
AcDbEntity
  8
0
 62
7
100
AcDbSpline
 70
8
 71
3
 72
8
 73
4
 74
0
 40
0
 40
0
 40
0
 40
0
 40
1
 40
1
 40
1
 40
1
 10
11.183836
 20
14.000106
 30
0.0
 10
11.183836
 20
11.784107
 30
0.0
 10
12.967587
 20
9.999834
 30
0.0
 10
15.183593
 20
9.999834
 30
0.0
  0
LINE
  5
1cf
100
AcDbEntity
  8
0
 62
7
100
AcDbLine
 10
15.183593
 20
9.999834
 30
0.0
 11
61.183893
 21
9.999834
 31
0.0
  0
SPLINE
  5
1d0
100
AcDbEntity
  8
0
 62
7
100
AcDbSpline
 70
8
 71
3
 72
8
 73
4
 74
0
 40
0
 40
0
 40
0
 40
0
 40
1
 40
1
 40
1
 40
1
 10
61.183893
 20
9.999834
 30
0.0
 10
63.399888
 20
9.999834
 30
0.0
 10
65.183650
 20
11.784121
 30
0.0
 10
65.183650
 20
14.000106
 30
0.0
  0
LINE
  5
1d1
100
AcDbEntity
  8
0
 62
7
100
AcDbLine
 10
65.183650
 20
14.000106
 30
0.0
 11
65.183650
 21
14.706006
 31
0.0
  0
LINE
  5
1d2
100
AcDbEntity
  8
0
 62
7
100
AcDbLine
 10
65.183650
 20
14.706006
 30
0.0
 11
52.846416
 21
14.706006
 31
0.0
  0
LINE
  5
1d3
100
AcDbEntity
  8
0
 62
7
100
AcDbLine
 10
52.846416
 20
14.706006
 30
0.0
 11
37.400844
 21
14.706006
 31
0.0
  0
LINE
  5
1d4
100
AcDbEntity
  8
0
 62
7
100
AcDbLine
 10
37.400844
 20
14.706006
 30
0.0
 11
37.400844
 21
33.006184
 31
0.0
  0
LINE
  5
1d5
100
AcDbEntity
  8
0
 62
7
100
AcDbLine
 10
37.400844
 20
33.006184
 30
0.0
 11
37.400844
 21
36.649890
 31
0.0
  0
LINE
  5
1d6
100
AcDbEntity
  8
0
 62
7
100
AcDbLine
 10
37.400844
 20
36.649890
 30
0.0
 11
26.726039
 21
36.649890
 31
0.0
  0
LINE
  5
1d7
100
AcDbEntity
  8
0
 62
7
100
AcDbLine
 10
26.726039
 20
36.649890
 30
0.0
 11
26.726039
 21
29.891130
 31
0.0
  0
LINE
  5
1d8
100
AcDbEntity
  8
0
 62
7
100
AcDbLine
 10
26.726039
 20
29.891130
 30
0.0
 11
33.076040
 21
29.891130
 31
0.0
  0
LINE
  5
1d9
100
AcDbEntity
  8
0
 62
7
100
AcDbLine
 10
33.076040
 20
29.891130
 30
0.0
 11
33.076040
 21
20.390934
 31
0.0
  0
LINE
  5
1da
100
AcDbEntity
  8
0
 62
7
100
AcDbLine
 10
33.076040
 20
20.390934
 30
0.0
 11
26.726039
 21
20.390934
 31
0.0
  0
LINE
  5
1db
100
AcDbEntity
  8
0
 62
7
100
AcDbLine
 10
26.726039
 20
20.390934
 30
0.0
 11
26.726039
 21
14.040933
 31
0.0
  0
LINE
  5
1dc
100
AcDbEntity
  8
0
 62
7
100
AcDbLine
 10
26.726039
 20
14.040933
 30
0.0
 11
19.376103
 21
14.040933
 31
0.0
  0
LINE
  5
1dd
100
AcDbEntity
  8
0
 62
7
100
AcDbLine
 10
19.376103
 20
14.040933
 30
0.0
 11
19.376103
 21
20.390934
 31
0.0
  0
LINE
  5
1de
100
AcDbEntity
  8
0
 62
7
100
AcDbLine
 10
19.376103
 20
20.390934
 30
0.0
 11
13.026102
 21
20.390934
 31
0.0
  0
LINE
  5
1df
100
AcDbEntity
  8
0
 62
7
100
AcDbLine
 10
13.026102
 20
20.390934
 30
0.0
 11
13.026102
 21
29.891130
 31
0.0
  0
LINE
  5
1e0
100
AcDbEntity
  8
0
 62
7
100
AcDbLine
 10
13.026102
 20
29.891130
 30
0.0
 11
19.376103
 21
29.891130
 31
0.0
  0
LINE
  5
1e1
100
AcDbEntity
  8
0
 62
7
100
AcDbLine
 10
19.376103
 20
29.891130
 30
0.0
 11
19.376103
 21
36.649890
 31
0.0
  0
LINE
  5
1e2
100
AcDbEntity
  8
0
 62
7
100
AcDbLine
 10
19.376103
 20
36.649890
 30
0.0
 11
11.684063
 21
36.649890
 31
0.0
  0
LINE
  5
1e3
100
AcDbEntity
  8
0
 62
7
100
AcDbLine
 10
11.684063
 20
36.649890
 30
0.0
 11
11.183836
 21
36.649890
 31
0.0
  0
LINE
  5
1e4
100
AcDbEntity
  8
0
 62
7
100
AcDbLine
 10
11.183836
 20
36.649890
 30
0.0
 11
11.183836
 21
14.000106
 31
0.0
  0
SPLINE
  5
1e5
100
AcDbEntity
  8
0
 62
7
100
AcDbSpline
 70
8
 71
3
 72
8
 73
4
 74
0
 40
0
 40
0
 40
0
 40
0
 40
1
 40
1
 40
1
 40
1
 10
115.285663
 20
36.232459
 30
0.0
 10
115.892921
 20
36.232280
 30
0.0
 10
116.385157
 20
35.740044
 30
0.0
 10
116.385336
 20
35.132786
 30
0.0
  0
SPLINE
  5
1e6
100
AcDbEntity
  8
0
 62
7
100
AcDbSpline
 70
8
 71
3
 72
8
 73
4
 74
0
 40
0
 40
0
 40
0
 40
0
 40
1
 40
1
 40
1
 40
1
 10
116.385336
 20
35.132786
 30
0.0
 10
116.385444
 20
34.525324
 30
0.0
 10
115.893124
 20
34.032773
 30
0.0
 10
115.285663
 20
34.032593
 30
0.0
  0
SPLINE
  5
1e7
100
AcDbEntity
  8
0
 62
7
100
AcDbSpline
 70
8
 71
3
 72
8
 73
4
 74
0
 40
0
 40
0
 40
0
 40
0
 40
1
 40
1
 40
1
 40
1
 10
115.285663
 20
34.032593
 30
0.0
 10
114.993858
 20
34.032542
 30
0.0
 10
114.713990
 20
34.148438
 30
0.0
 10
114.507652
 20
34.354775
 30
0.0
  0
SPLINE
  5
1e8
100
AcDbEntity
  8
0
 62
7
100
AcDbSpline
 70
8
 71
3
 72
8
 73
4
 74
0
 40
0
 40
0
 40
0
 40
0
 40
1
 40
1
 40
1
 40
1
 10
114.507652
 20
34.354775
 30
0.0
 10
114.301315
 20
34.561113
 30
0.0
 10
114.185419
 20
34.840981
 30
0.0
 10
114.185470
 20
35.132786
 30
0.0
  0
SPLINE
  5
1e9
100
AcDbEntity
  8
0
 62
7
100
AcDbSpline
 70
8
 71
3
 72
8
 73
4
 74
0
 40
0
 40
0
 40
0
 40
0
 40
1
 40
1
 40
1
 40
1
 10
114.185470
 20
35.132786
 30
0.0
 10
114.185650
 20
35.740247
 30
0.0
 10
114.678201
 20
36.232566
 30
0.0
 10
115.285663
 20
36.232459
 30
0.0
  0
LINE
  5
1ea
100
AcDbEntity
  8
0
 62
7
100
AcDbLine
 10
115.285663
 20
36.232459
 30
0.0
 11
115.285663
 21
36.232459
 31
0.0
  0
LINE
  5
1eb
100
AcDbEntity
  8
0
 62
7
100
AcDbLine
 10
113.460450
 20
37.787921
 30
0.0
 11
113.460450
 21
32.660068
 31
0.0
  0
LINE
  5
1ec
100
AcDbEntity
  8
0
 62
7
100
AcDbLine
 10
113.460450
 20
32.660068
 30
0.0
 11
117.104155
 21
32.660068
 31
0.0
  0
LINE
  5
1ed
100
AcDbEntity
  8
0
 62
7
100
AcDbLine
 10
117.104155
 20
32.660068
 30
0.0
 11
117.104155
 21
33.159780
 31
0.0
  0
LINE
  5
1ee
100
AcDbEntity
  8
0
 62
7
100
AcDbLine
 10
117.104155
 20
33.159780
 30
0.0
 11
117.104155
 21
37.787921
 31
0.0
  0
LINE
  5
1ef
100
AcDbEntity
  8
0
 62
7
100
AcDbLine
 10
117.104155
 20
37.787921
 30
0.0
 11
113.460450
 21
37.787921
 31
0.0
  0
SPLINE
  5
1f0
100
AcDbEntity
  8
0
 62
7
100
AcDbSpline
 70
8
 71
3
 72
8
 73
4
 74
0
 40
0
 40
0
 40
0
 40
0
 40
1
 40
1
 40
1
 40
1
 10
47.523618
 20
36.967078
 30
0.0
 10
47.192321
 20
36.966950
 30
0.0
 10
46.923784
 20
36.698412
 30
0.0
 10
46.923655
 20
36.367115
 30
0.0
  0
LINE
  5
1f1
100
AcDbEntity
  8
0
 62
7
100
AcDbLine
 10
46.923655
 20
36.367115
 30
0.0
 11
46.923655
 21
30.617078
 31
0.0
  0
LINE
  5
1f2
100
AcDbEntity
  8
0
 62
7
100
AcDbLine
 10
46.923655
 20
30.617078
 30
0.0
 11
41.173618
 21
30.617078
 31
0.0
  0
SPLINE
  5
1f3
100
AcDbEntity
  8
0
 62
7
100
AcDbSpline
 70
8
 71
3
 72
8
 73
4
 74
0
 40
0
 40
0
 40
0
 40
0
 40
1
 40
1
 40
1
 40
1
 10
41.173618
 20
30.617078
 30
0.0
 10
40.842321
 20
30.616949
 30
0.0
 10
40.573783
 20
30.348412
 30
0.0
 10
40.573654
 20
30.017115
 30
0.0
  0
SPLINE
  5
1f4
100
AcDbEntity
  8
0
 62
7
100
AcDbSpline
 70
8
 71
3
 72
8
 73
4
 74
0
 40
0
 40
0
 40
0
 40
0
 40
1
 40
1
 40
1
 40
1
 10
40.573654
 20
30.017115
 30
0.0
 10
40.573654
 20
30.017115
 30
0.0
 10
40.573654
 20
24.217468
 30
0.0
 10
40.573654
 20
24.217468
 30
0.0
  0
SPLINE
  5
1f5
100
AcDbEntity
  8
0
 62
7
100
AcDbSpline
 70
8
 71
3
 72
8
 73
4
 74
0
 40
0
 40
0
 40
0
 40
0
 40
1
 40
1
 40
1
 40
1
 10
40.573654
 20
24.217468
 30
0.0
 10
40.573783
 20
23.886171
 30
0.0
 10
40.842321
 20
23.617634
 30
0.0
 10
41.173618
 20
23.617505
 30
0.0
  0
LINE
  5
1f6
100
AcDbEntity
  8
0
 62
7
100
AcDbLine
 10
41.173618
 20
23.617505
 30
0.0
 11
46.923655
 21
23.617505
 31
0.0
  0
SPLINE
  5
1f7
100
AcDbEntity
  8
0
 62
7
100
AcDbSpline
 70
8
 71
3
 72
8
 73
4
 74
0
 40
0
 40
0
 40
0
 40
0
 40
1
 40
1
 40
1
 40
1
 10
46.923655
 20
23.617505
 30
0.0
 10
46.923655
 20
23.617505
 30
0.0
 10
46.923655
 20
17.867468
 30
0.0
 10
46.923655
 20
17.867468
 30
0.0
  0
SPLINE
  5
1f8
100
AcDbEntity
  8
0
 62
7
100
AcDbSpline
 70
8
 71
3
 72
8
 73
4
 74
0
 40
0
 40
0
 40
0
 40
0
 40
1
 40
1
 40
1
 40
1
 10
46.923655
 20
17.867468
 30
0.0
 10
46.923784
 20
17.536170
 30
0.0
 10
47.192321
 20
17.267633
 30
0.0
 10
47.523618
 20
17.267504
 30
0.0
  0
SPLINE
  5
1f9
100
AcDbEntity
  8
0
 62
7
100
AcDbSpline
 70
8
 71
3
 72
8
 73
4
 74
0
 40
0
 40
0
 40
0
 40
0
 40
1
 40
1
 40
1
 40
1
 10
47.523618
 20
17.267504
 30
0.0
 10
47.523618
 20
17.267504
 30
0.0
 10
53.923745
 20
17.267504
 30
0.0
 10
53.923745
 20
17.267504
 30
0.0
  0
SPLINE
  5
1fa
100
AcDbEntity
  8
0
 62
7
100
AcDbSpline
 70
8
 71
3
 72
8
 73
4
 74
0
 40
0
 40
0
 40
0
 40
0
 40
1
 40
1
 40
1
 40
1
 10
53.923745
 20
17.267504
 30
0.0
 10
54.255042
 20
17.267633
 30
0.0
 10
54.523580
 20
17.536170
 30
0.0
 10
54.523709
 20
17.867468
 30
0.0
  0
LINE
  5
1fb
100
AcDbEntity
  8
0
 62
7
100
AcDbLine
 10
54.523709
 20
17.867468
 30
0.0
 11
54.523709
 21
23.617505
 31
0.0
  0
LINE
  5
1fc
100
AcDbEntity
  8
0
 62
7
100
AcDbLine
 10
54.523709
 20
23.617505
 30
0.0
 11
60.273746
 21
23.617505
 31
0.0
  0
SPLINE
  5
1fd
100
AcDbEntity
  8
0
 62
7
100
AcDbSpline
 70
8
 71
3
 72
8
 73
4
 74
0
 40
0
 40
0
 40
0
 40
0
 40
1
 40
1
 40
1
 40
1
 10
60.273746
 20
23.617505
 30
0.0
 10
60.605043
 20
23.617634
 30
0.0
 10
60.873580
 20
23.886171
 30
0.0
 10
60.873709
 20
24.217468
 30
0.0
  0
SPLINE
  5
1fe
100
AcDbEntity
  8
0
 62
7
100
AcDbSpline
 70
8
 71
3
 72
8
 73
4
 74
0
 40
0
 40
0
 40
0
 40
0
 40
1
 40
1
 40
1
 40
1
 10
60.873709
 20
24.217468
 30
0.0
 10
60.873709
 20
24.217468
 30
0.0
 10
60.873709
 20
30.017115
 30
0.0
 10
60.873709
 20
30.017115
 30
0.0
  0
SPLINE
  5
1ff
100
AcDbEntity
  8
0
 62
7
100
AcDbSpline
 70
8
 71
3
 72
8
 73
4
 74
0
 40
0
 40
0
 40
0
 40
0
 40
1
 40
1
 40
1
 40
1
 10
60.873709
 20
30.017115
 30
0.0
 10
60.873580
 20
30.348412
 30
0.0
 10
60.605043
 20
30.616949
 30
0.0
 10
60.273746
 20
30.617078
 30
0.0
  0
LINE
  5
200
100
AcDbEntity
  8
0
 62
7
100
AcDbLine
 10
60.273746
 20
30.617078
 30
0.0
 11
54.523709
 21
30.617078
 31
0.0
  0
SPLINE
  5
201
100
AcDbEntity
  8
0
 62
7
100
AcDbSpline
 70
8
 71
3
 72
8
 73
4
 74
0
 40
0
 40
0
 40
0
 40
0
 40
1
 40
1
 40
1
 40
1
 10
54.523709
 20
30.617078
 30
0.0
 10
54.523709
 20
30.617078
 30
0.0
 10
54.523709
 20
36.367115
 30
0.0
 10
54.523709
 20
36.367115
 30
0.0
  0
SPLINE
  5
202
100
AcDbEntity
  8
0
 62
7
100
AcDbSpline
 70
8
 71
3
 72
8
 73
4
 74
0
 40
0
 40
0
 40
0
 40
0
 40
1
 40
1
 40
1
 40
1
 10
54.523709
 20
36.367115
 30
0.0
 10
54.523580
 20
36.698412
 30
0.0
 10
54.255042
 20
36.966950
 30
0.0
 10
53.923745
 20
36.967078
 30
0.0
  0
LINE
  5
203
100
AcDbEntity
  8
0
 62
7
100
AcDbLine
 10
53.923745
 20
36.967078
 30
0.0
 11
47.523618
 21
36.967078
 31
0.0
  0
SPLINE
  5
204
100
AcDbEntity
  8
0
 62
1
100
AcDbSpline
 70
8
 71
3
 72
8
 73
4
 74
0
 40
0
 40
0
 40
0
 40
0
 40
1
 40
1
 40
1
 40
1
 10
70.834735
 20
33.213829
 30
0.0
 10
70.834735
 20
31.736539
 30
0.0
 10
70.046608
 20
30.371467
 30
0.0
 10
68.767234
 20
29.632822
 30
0.0
  0
SPLINE
  5
205
100
AcDbEntity
  8
0
 62
1
100
AcDbSpline
 70
8
 71
3
 72
8
 73
4
 74
0
 40
0
 40
0
 40
0
 40
0
 40
1
 40
1
 40
1
 40
1
 10
68.767234
 20
29.632822
 30
0.0
 10
67.487861
 20
28.894177
 30
0.0
 10
65.911608
 20
28.894177
 30
0.0
 10
64.632234
 20
29.632822
 30
0.0
  0
SPLINE
  5
206
100
AcDbEntity
  8
0
 62
1
100
AcDbSpline
 70
8
 71
3
 72
8
 73
4
 74
0
 40
0
 40
0
 40
0
 40
0
 40
1
 40
1
 40
1
 40
1
 10
64.632234
 20
29.632822
 30
0.0
 10
63.352861
 20
30.371467
 30
0.0
 10
62.564734
 20
31.736539
 30
0.0
 10
62.564734
 20
33.213829
 30
0.0
  0
SPLINE
  5
207
100
AcDbEntity
  8
0
 62
1
100
AcDbSpline
 70
8
 71
3
 72
8
 73
4
 74
0
 40
0
 40
0
 40
0
 40
0
 40
1
 40
1
 40
1
 40
1
 10
62.564734
 20
33.213829
 30
0.0
 10
62.564734
 20
34.691119
 30
0.0
 10
63.352861
 20
36.056191
 30
0.0
 10
64.632234
 20
36.794836
 30
0.0
  0
SPLINE
  5
208
100
AcDbEntity
  8
0
 62
1
100
AcDbSpline
 70
8
 71
3
 72
8
 73
4
 74
0
 40
0
 40
0
 40
0
 40
0
 40
1
 40
1
 40
1
 40
1
 10
64.632234
 20
36.794836
 30
0.0
 10
65.911608
 20
37.533481
 30
0.0
 10
67.487861
 20
37.533481
 30
0.0
 10
68.767234
 20
36.794836
 30
0.0
  0
SPLINE
  5
209
100
AcDbEntity
  8
0
 62
1
100
AcDbSpline
 70
8
 71
3
 72
8
 73
4
 74
0
 40
0
 40
0
 40
0
 40
0
 40
1
 40
1
 40
1
 40
1
 10
68.767234
 20
36.794836
 30
0.0
 10
70.046608
 20
36.056191
 30
0.0
 10
70.834735
 20
34.691119
 30
0.0
 10
70.834735
 20
33.213829
 30
0.0
  0
LINE
  5
20a
100
AcDbEntity
  8
0
 62
1
100
AcDbLine
 10
70.834735
 20
33.213829
 30
0.0
 11
70.834735
 21
33.213829
 31
0.0
  0
SPLINE
  5
20b
100
AcDbEntity
  8
0
 62
1
100
AcDbSpline
 70
8
 71
3
 72
8
 73
4
 74
0
 40
0
 40
0
 40
0
 40
0
 40
1
 40
1
 40
1
 40
1
 10
79.667324
 20
27.552463
 30
0.0
 10
79.667324
 20
26.075174
 30
0.0
 10
78.879198
 20
24.710101
 30
0.0
 10
77.599824
 20
23.971457
 30
0.0
  0
SPLINE
  5
20c
100
AcDbEntity
  8
0
 62
1
100
AcDbSpline
 70
8
 71
3
 72
8
 73
4
 74
0
 40
0
 40
0
 40
0
 40
0
 40
1
 40
1
 40
1
 40
1
 10
77.599824
 20
23.971457
 30
0.0
 10
76.320451
 20
23.232812
 30
0.0
 10
74.744198
 20
23.232812
 30
0.0
 10
73.464824
 20
23.971457
 30
0.0
  0
SPLINE
  5
20d
100
AcDbEntity
  8
0
 62
1
100
AcDbSpline
 70
8
 71
3
 72
8
 73
4
 74
0
 40
0
 40
0
 40
0
 40
0
 40
1
 40
1
 40
1
 40
1
 10
73.464824
 20
23.971457
 30
0.0
 10
72.185451
 20
24.710101
 30
0.0
 10
71.397324
 20
26.075174
 30
0.0
 10
71.397324
 20
27.552463
 30
0.0
  0
SPLINE
  5
20e
100
AcDbEntity
  8
0
 62
1
100
AcDbSpline
 70
8
 71
3
 72
8
 73
4
 74
0
 40
0
 40
0
 40
0
 40
0
 40
1
 40
1
 40
1
 40
1
 10
71.397324
 20
27.552463
 30
0.0
 10
71.397324
 20
29.029753
 30
0.0
 10
72.185451
 20
30.394825
 30
0.0
 10
73.464824
 20
31.133470
 30
0.0
  0
SPLINE
  5
20f
100
AcDbEntity
  8
0
 62
1
100
AcDbSpline
 70
8
 71
3
 72
8
 73
4
 74
0
 40
0
 40
0
 40
0
 40
0
 40
1
 40
1
 40
1
 40
1
 10
73.464824
 20
31.133470
 30
0.0
 10
74.744198
 20
31.872115
 30
0.0
 10
76.320451
 20
31.872115
 30
0.0
 10
77.599824
 20
31.133470
 30
0.0
  0
SPLINE
  5
210
100
AcDbEntity
  8
0
 62
1
100
AcDbSpline
 70
8
 71
3
 72
8
 73
4
 74
0
 40
0
 40
0
 40
0
 40
0
 40
1
 40
1
 40
1
 40
1
 10
77.599824
 20
31.133470
 30
0.0
 10
78.879198
 20
30.394825
 30
0.0
 10
79.667324
 20
29.029753
 30
0.0
 10
79.667324
 20
27.552463
 30
0.0
  0
LINE
  5
211
100
AcDbEntity
  8
0
 62
1
100
AcDbLine
 10
79.667324
 20
27.552463
 30
0.0
 11
79.667324
 21
27.552463
 31
0.0
  0
SPLINE
  5
212
100
AcDbEntity
  8
0
 62
1
100
AcDbSpline
 70
8
 71
3
 72
8
 73
4
 74
0
 40
0
 40
0
 40
0
 40
0
 40
1
 40
1
 40
1
 40
1
 10
71.105167
 20
21.025679
 30
0.0
 10
71.105166
 20
18.741987
 30
0.0
 10
69.253864
 20
16.890688
 30
0.0
 10
66.970166
 20
16.890688
 30
0.0
  0
SPLINE
  5
213
100
AcDbEntity
  8
0
 62
1
100
AcDbSpline
 70
8
 71
3
 72
8
 73
4
 74
0
 40
0
 40
0
 40
0
 40
0
 40
1
 40
1
 40
1
 40
1
 10
66.970166
 20
16.890688
 30
0.0
 10
64.686469
 20
16.890688
 30
0.0
 10
62.835166
 20
18.741987
 30
0.0
 10
62.835166
 20
21.025679
 30
0.0
  0
SPLINE
  5
214
100
AcDbEntity
  8
0
 62
1
100
AcDbSpline
 70
8
 71
3
 72
8
 73
4
 74
0
 40
0
 40
0
 40
0
 40
0
 40
1
 40
1
 40
1
 40
1
 10
62.835166
 20
21.025679
 30
0.0
 10
62.835166
 20
22.502969
 30
0.0
 10
63.623293
 20
23.868041
 30
0.0
 10
64.902666
 20
24.606686
 30
0.0
  0
SPLINE
  5
215
100
AcDbEntity
  8
0
 62
1
100
AcDbSpline
 70
8
 71
3
 72
8
 73
4
 74
0
 40
0
 40
0
 40
0
 40
0
 40
1
 40
1
 40
1
 40
1
 10
64.902666
 20
24.606686
 30
0.0
 10
66.182040
 20
25.345331
 30
0.0
 10
67.758293
 20
25.345331
 30
0.0
 10
69.037666
 20
24.606686
 30
0.0
  0
SPLINE
  5
216
100
AcDbEntity
  8
0
 62
1
100
AcDbSpline
 70
8
 71
3
 72
8
 73
4
 74
0
 40
0
 40
0
 40
0
 40
0
 40
1
 40
1
 40
1
 40
1
 10
69.037666
 20
24.606686
 30
0.0
 10
70.317040
 20
23.868041
 30
0.0
 10
71.105167
 20
22.502969
 30
0.0
 10
71.105167
 20
21.025679
 30
0.0
  0
LINE
  5
217
100
AcDbEntity
  8
0
 62
1
100
AcDbLine
 10
71.105167
 20
21.025679
 30
0.0
 11
71.105167
 21
21.025679
 31
0.0
  0
LINE
  5
218
100
AcDbEntity
  8
0
 62
7
100
AcDbLine
 10
10.513507
 20
40.656120
 30
0.0
 11
134.270144
 21
40.656120
 31
0.0
  0
ENDSEC
  0
SECTION
  2
OBJECTS
  0
DICTIONARY
  5
C
330
0
100
AcDbDictionary
  3
ACAD_GROUP
350
D
  3
ACAD_MLINESTYLE
350
17
  0
DICTIONARY
  5
D
330
C
100
AcDbDictionary
  0
DICTIONARY
  5
1A
330
C
100
AcDbDictionary
  0
DICTIONARY
  5
17
330
C
100
AcDbDictionary
  3
STANDARD
350
18
  0
DICTIONARY
  5
19
330
C
100
AcDbDictionary
  0
ENDSEC
  0
EOF
