<?xml version="1.0" encoding="UTF-8" standalone="no"?>
<!-- Created with Fritzing (https://fritzing.org/) -->

<svg
   version="1.2"
   x="0in"
   y="0in"
   width="85.543289mm"
   height="81.101135mm"
   viewBox="0 0 242.48486 229.89332"
   id="svg3794"
   sodipodi:docname="pewpewpi-v1.1-sticker.svg"
   inkscape:version="1.1.2 (0a00cf5339, 2022-02-04)"
   xmlns:inkscape="http://www.inkscape.org/namespaces/inkscape"
   xmlns:sodipodi="http://sodipodi.sourceforge.net/DTD/sodipodi-0.dtd"
   xmlns="http://www.w3.org/2000/svg"
   xmlns:svg="http://www.w3.org/2000/svg"
   xmlns:rdf="http://www.w3.org/1999/02/22-rdf-syntax-ns#"
   xmlns:cc="http://creativecommons.org/ns#">
  <metadata
     id="metadata3800">
    <rdf:RDF>
      <cc:Work
         rdf:about="" />
    </rdf:RDF>
  </metadata>
  <defs
     id="defs3798" />
  <sodipodi:namedview
     pagecolor="#ffffff"
     bordercolor="#666666"
     borderopacity="1"
     objecttolerance="10"
     gridtolerance="10"
     guidetolerance="10"
     inkscape:pageopacity="0"
     inkscape:pageshadow="2"
     inkscape:window-width="640"
     inkscape:window-height="480"
     id="namedview3796"
     showgrid="false"
     showguides="true"
     inkscape:guide-bbox="true"
     inkscape:snap-intersection-paths="true"
     inkscape:snap-smooth-nodes="true"
     inkscape:snap-object-midpoints="true"
     inkscape:object-paths="true"
     fit-margin-top="10"
     fit-margin-left="10"
     fit-margin-right="10"
     fit-margin-bottom="10"
     units="mm"
     inkscape:zoom="2.2257495"
     inkscape:cx="31.000793"
     inkscape:cy="198.58479"
     inkscape:current-layer="svg3794"
     inkscape:pagecheckerboard="0"
     inkscape:document-units="mm"
     inkscape:snap-bbox="true"
     inkscape:bbox-nodes="true"
     inkscape:snap-center="true"
     inkscape:snap-global="true" />
  <rect
     style="fill:#eeeeec;stroke-width:0.354331;stroke-linecap:round;stroke-linejoin:round;paint-order:markers stroke fill"
     id="rect5394"
     width="34.065674"
     height="185.79228"
     x="-201.54683"
     y="-214.13843"
     transform="matrix(0,-1,-1,0,0,0)" />
  <path
     id="path667-3"
     style="fill:none;stroke:#cc0000;stroke-width:0.354331;stroke-linecap:round;stroke-linejoin:round;paint-order:markers stroke fill"
     d="m 197.78738,28.525126 h -21.18754 c 0,0 0,10.40431 0,15.606465 0,1.338272 -1.09973,2.419095 -2.43896,2.419932 -1.34949,8.43e-4 -2.44337,-1.093382 -2.44337,-2.441899 0,-2.522954 0,-5.045907 0,-7.568861 0,-1.002489 -0.81245,-1.813481 -1.81494,-1.813481 -3.83692,0 -7.67384,0 -11.51076,0 -1.00249,0 -1.81494,0.810992 -1.81494,1.813481 0,2.522954 0,5.045907 0,7.568861 0,1.348517 -1.09388,2.443655 -2.44337,2.441899 -1.33583,-0.0017 -2.4375,-1.076252 -2.4375,-2.411142 0,-5.205573 0,-15.616718 0,-15.616718 H 44.716837 c 0,0 0,42.803774 0,64.205661 0,6.281537 5.056327,11.337066 11.337909,11.337906 l 15.035175,0.002 c 1.221594,1.6e-4 2.204591,0.983 2.204591,2.20459 0,0.0615 0,0.12305 0,0.18458 0,1.22159 -0.982997,2.20459 -2.204591,2.20459 H 56.054746 c -6.281597,0 -11.337909,5.05782 -11.337909,11.33937 v 64.2042 H 197.78738 v -64.20424 c 0,-6.28158 -5.05631,-11.33937 -11.33791,-11.33937 h -16.5718 c -1.2216,0 -2.20606,-0.983 -2.20606,-2.20459 0,-0.0615 0,-0.12305 0,-0.18457 0,-1.2216 0.98446,-2.20444 2.20606,-2.20459 l 16.5718,-0.002 c 6.2816,-7.6e-4 11.33791,-5.056332 11.33791,-11.337913 0,-21.401387 0,-64.204161 0,-64.204161 z m -3.18751,23.550327 c 0,6.047372 0,12.094743 0,18.142115 0,2.215736 -2.01621,4.231941 -4.23194,4.231941 -3.06592,0 -6.13185,0 -9.19777,0 -1.34264,0 -2.42791,-1.097289 -2.42871,-2.438966 -8.3e-4,-1.348524 1.09388,-2.441899 2.44336,-2.441899 2.23926,0 4.47853,0 6.71779,0 1.00248,0 1.81494,-0.812453 1.81494,-1.814942 0,-4.404304 0,-8.808609 0,-13.212913 0,-1.002489 -0.81246,-1.81348 -1.81494,-1.81348 -2.23926,0 -4.47853,0 -6.71779,0 -1.34948,0 -2.44336,-1.093374 -2.44336,-2.441898 0,-1.348517 1.09388,-2.441899 2.44336,-2.441899 3.06104,0 6.12208,0 9.18312,0 2.21573,0 4.23194,2.01622 4.23194,4.231941 z m -0.4292,81.228637 v 0.001 c -5.6e-4,3.61817 -1.4904,7.21357 -4.04883,9.77199 -1.04464,1.04464 -2.26751,1.89941 -3.58887,2.55909 v -0.0234 c -0.20969,0.0704 -0.42922,0.1074 -0.6504,0.1084 -1.15201,-4.2e-4 -2.08574,-0.93415 -2.08594,-2.08594 -1.5e-4,-0.74476 0.39679,-1.43313 1.04151,-1.80616 v -0.003 c 1.75384,-0.92698 3.17939,-2.37195 4.08252,-4.13819 0.0258,-0.051 0.0512,-0.10231 0.0762,-0.15381 0.18031,-0.36903 0.33688,-0.74921 0.46875,-1.13818 0.031,-0.087 0.0608,-0.17441 0.0893,-0.26221 0.11612,-0.38064 0.20859,-0.76809 0.27686,-1.16016 0.0172,-0.0808 0.0333,-0.16186 0.0483,-0.24316 0.0735,-0.46965 0.11212,-0.94409 0.11572,-1.41944 v -0.006 -0.001 c -0.003,-0.46196 -0.0393,-0.92312 -0.1084,-1.37989 -0.0399,-0.23167 -0.0883,-0.4618 -0.14502,-0.68994 -0.0443,-0.21705 -0.0961,-0.43252 -0.15527,-0.646 -0.0803,-0.26208 -0.17166,-0.5206 -0.27393,-0.7749 -0.0655,-0.17091 -0.13583,-0.33992 -0.21094,-0.50684 -0.12482,-0.27135 -0.26218,-0.53679 -0.41162,-0.79541 -0.0724,-0.12472 -0.14765,-0.24779 -0.22559,-0.36914 -0.17551,-0.27907 -0.36521,-0.54894 -0.56836,-0.80859 -0.0586,-0.0707 -0.11815,-0.14048 -0.17871,-0.20948 -0.80557,-0.97174 -1.79397,-1.77599 -2.90918,-2.36719 -0.62672,-0.37638 -1.01071,-1.05323 -1.01221,-1.78418 2e-4,-1.1518 0.93393,-2.08553 2.08594,-2.08594 0.22117,0.001 0.44071,0.038 0.65039,0.1084 v -0.0234 c 1.32172,0.65968 2.5456,1.51418 3.59034,2.55909 2.55848,2.55889 4.04739,6.15493 4.04737,9.77345 z m -17.27346,-10.33156 c -0.001,0.73096 -0.38549,1.40927 -1.01221,1.78565 -1.11521,0.5912 -2.10361,1.39545 -2.90918,2.36719 -0.0606,0.069 -0.12015,0.13878 -0.17872,0.20947 -0.20314,0.25965 -0.39284,0.52953 -0.56836,0.8086 -0.0779,0.12135 -0.15315,0.24442 -0.22558,0.36914 -0.14945,0.25862 -0.2868,0.52405 -0.41162,0.79541 -0.0751,0.16691 -0.14545,0.33446 -0.21094,0.50537 -0.10227,0.2543 -0.19367,0.51429 -0.27393,0.77637 -0.0592,0.21348 -0.11094,0.42748 -0.15527,0.64453 -0.0567,0.22814 -0.1051,0.45974 -0.14502,0.69141 -0.0691,0.45677 -0.1053,0.91646 -0.1084,1.37842 v 0.007 c 0.004,0.47535 0.0422,0.94979 0.11572,1.41944 0.0151,0.0813 0.0312,0.16237 0.0483,0.24316 0.0683,0.39207 0.16074,0.77953 0.27686,1.16017 0.0285,0.0878 0.0583,0.17517 0.0893,0.2622 0.13187,0.38898 0.28844,0.76915 0.46875,1.13818 0.0249,0.0515 0.0503,0.10281 0.0762,0.15381 0.90314,1.76624 2.32868,3.21122 4.08253,4.13819 v 0.005 c 0.64472,0.37303 1.04166,1.0614 1.0415,1.80616 -1.9e-4,1.1518 -0.93392,2.08553 -2.08594,2.08594 -0.22117,-0.002 -0.4407,-0.038 -0.65039,-0.1084 v 0.0249 c -1.32062,-0.65903 -2.54323,-1.51361 -3.5874,-2.55762 -2.55924,-2.55883 -4.04868,-6.15736 -4.04884,-9.77638 -4.2e-4,-3.61937 1.48954,-7.21562 4.04884,-9.77491 1.04416,-1.04416 2.26689,-1.89806 3.5874,-2.55763 v 0.022 c 0.20968,-0.0704 0.42922,-0.1074 0.65039,-0.1084 1.15202,4e-4 2.08575,0.93414 2.08594,2.08594 z m -0.29737,-44.808168 c 0,3.351568 0,6.703135 0,10.054703 0,1.806595 -1.86808,4.231949 -4.23194,4.231934 -1.99495,-1.3e-5 -10.95997,0 -16.43996,0 -2.21573,0 -4.23194,-2.016206 -4.23194,-4.231934 0,-3.35401 0,-6.70802 0,-10.06203 0,-1.33489 1.10167,-2.411358 2.4375,-2.412604 1.34949,-0.0013 2.44337,1.093382 2.44337,2.441899 0,2.522954 0,5.045907 0,7.568861 0,1.002482 0.81245,1.814943 1.81494,1.814943 3.83692,0 7.67384,0 11.51076,0 1.00249,0 1.81494,-0.812461 1.81494,-1.814943 0,-2.522954 0,-5.045907 0,-7.568861 0,-1.348517 1.09388,-2.443152 2.44337,-2.441899 1.33923,0.0012 2.43896,1.081659 2.43896,2.419931 z m -16.28908,28.108928 c 0,0.0615 0,0.12305 0,0.18457 0,1.22159 -0.983,2.20459 -2.2046,2.20459 -24.72611,0 -49.45222,0 -74.178327,0 -1.221595,0 -2.204599,-0.983 -2.204599,-2.20459 0,-0.0615 0,-0.12305 0,-0.18457 0,-1.2216 0.983004,-2.20459 2.204599,-2.20459 24.726107,0 49.452217,0 74.178327,0 1.2216,0 2.2046,0.98299 2.2046,2.20459 z m -0.33985,45.03083 v 10e-4 c -5.6e-4,3.61815 -1.4904,7.21356 -4.04883,9.77199 -1.04464,1.04464 -2.26751,1.89939 -3.58887,2.55908 v -0.0234 c -0.20968,0.0704 -0.42922,0.10741 -0.65039,0.1084 -1.15202,-4.1e-4 -2.08574,-0.93414 -2.08595,-2.08594 -1.5e-4,-0.74476 0.39679,-1.43312 1.04151,-1.80615 v -0.003 c 1.75386,-0.92697 3.17939,-2.37195 4.08253,-4.13819 0.0258,-0.051 0.0512,-0.10231 0.0762,-0.15381 0.18031,-0.36903 0.33688,-0.74921 0.46875,-1.13818 0.031,-0.087 0.0608,-0.17441 0.0893,-0.26221 0.11612,-0.38064 0.20859,-0.7681 0.27686,-1.16016 0.0172,-0.0808 0.0333,-0.16187 0.0483,-0.24317 0.0735,-0.46965 0.11212,-0.94408 0.11572,-1.41943 v -0.006 -0.002 c -0.003,-0.46197 -0.0393,-0.92312 -0.1084,-1.37989 -0.0399,-0.23167 -0.0883,-0.4618 -0.14502,-0.68994 -0.0443,-0.21705 -0.0961,-0.43252 -0.15527,-0.646 -0.0803,-0.26208 -0.17166,-0.5206 -0.27393,-0.7749 -0.0655,-0.17091 -0.13583,-0.33993 -0.21094,-0.50684 -0.12482,-0.27136 -0.26217,-0.53679 -0.41162,-0.79541 -0.0724,-0.12472 -0.14764,-0.24779 -0.22558,-0.36914 -0.17552,-0.27906 -0.36522,-0.54895 -0.56836,-0.8086 -0.0586,-0.0706 -0.11816,-0.14047 -0.17871,-0.20947 -0.80558,-0.97174 -1.79397,-1.77599 -2.90919,-2.36719 -0.62671,-0.37638 -1.01071,-1.05323 -1.01221,-1.78418 2.1e-4,-1.1518 0.93393,-2.08554 2.08594,-2.08594 0.22118,0.001 0.44071,0.038 0.65039,0.1084 v -0.0234 c 1.32173,0.65968 2.5456,1.51417 3.59034,2.55908 2.55849,2.55889 4.04739,6.15494 4.04737,9.77345 z M 149.55293,50.285411 c 0,1.348524 -1.09388,2.441898 -2.44336,2.441898 -2.23926,0 -4.47853,0 -6.71779,0 -1.00247,0 -1.81494,0.810991 -1.81494,1.81348 0,4.404304 0,8.808609 0,13.212913 0,1.002489 0.81247,1.814942 1.81494,1.814942 2.23926,0 4.47853,0 6.71779,0 1.34948,0 2.44414,1.093375 2.44336,2.441899 -7.7e-4,1.341677 -1.08608,2.438966 -2.42871,2.438966 -3.06544,0 -6.13087,0 -9.19631,0 -2.21574,0 -4.23194,-2.016205 -4.23194,-4.231941 0,-6.047372 0,-12.094743 0,-18.142115 0,-2.215721 2.0162,-4.231941 4.23194,-4.231941 3.06055,0 6.12111,0 9.18166,0 1.34948,0 2.44336,1.093382 2.44336,2.441899 z m -6.85548,90.688609 c -0.001,0.73095 -0.38549,1.40781 -1.01221,1.78419 -1.11521,0.59119 -2.10361,1.39545 -2.90918,2.36719 -0.0605,0.069 -0.12014,0.13877 -0.17871,0.20947 -0.20315,0.25964 -0.39284,0.52954 -0.56837,0.8086 -0.0779,0.12135 -0.15315,0.24441 -0.22558,0.36914 -0.14945,0.25861 -0.28679,0.52405 -0.41163,0.79541 -0.0751,0.16691 -0.14544,0.33592 -0.21093,0.50683 -0.10227,0.2543 -0.19367,0.51283 -0.27393,0.77491 -0.0592,0.21348 -0.11094,0.42895 -0.15527,0.646 -0.0567,0.22813 -0.1051,0.45826 -0.14502,0.68994 -0.0691,0.45677 -0.1053,0.91793 -0.1084,1.37988 v 0.006 c 0.004,0.47535 0.0422,0.94979 0.11572,1.41944 0.0151,0.0813 0.0312,0.16237 0.0484,0.24316 0.0683,0.39207 0.16073,0.77953 0.27685,1.16017 0.0285,0.0878 0.0584,0.17517 0.0894,0.2622 0.13186,0.38898 0.28843,0.76915 0.46875,1.13818 0.0249,0.0515 0.0503,0.10281 0.0762,0.15381 0.90313,1.76624 2.32868,3.21122 4.08252,4.13819 v 0.005 c 0.64472,0.37303 1.04166,1.0614 1.04151,1.80616 v 0.001 c -2e-4,1.15183 -0.93393,2.0855 -2.08594,2.08595 -0.22117,-0.001 -0.44071,-0.038 -0.65039,-0.10841 v 0.0249 c -1.32063,-0.65903 -2.54323,-1.51361 -3.58741,-2.55762 -2.55924,-2.55884 -4.04869,-6.15884 -4.04883,-9.77785 -4.7e-4,-3.61938 1.48954,-7.21416 4.04883,-9.77345 1.04417,-1.04416 2.26689,-1.89951 3.58741,-2.55909 v 0.0234 c 1.38852,-0.25216 2.25614,0.38256 2.73633,1.97754 z m -51.126056,10.3301 v 10e-4 c -5.47e-4,3.61815 -1.490402,7.21356 -4.048828,9.77199 -1.04464,1.04464 -2.267516,1.89939 -3.588876,2.55908 v -0.0234 c -0.209678,0.0704 -0.429218,0.10741 -0.650393,0.1084 -1.15201,-4.1e-4 -2.085738,-0.93414 -2.085941,-2.08594 -1.5e-4,-0.74475 0.396788,-1.43312 1.041504,-1.80615 v -0.003 c 1.753885,-0.92697 3.17939,-2.37195 4.082526,-4.13819 0.02587,-0.051 0.0513,-0.10231 0.07618,-0.15381 0.180308,-0.36903 0.336878,-0.74921 0.468751,-1.13818 0.03113,-0.087 0.06082,-0.17441 0.08935,-0.26221 0.116115,-0.38064 0.208552,-0.7681 0.276855,-1.16016 0.0171,-0.0808 0.03323,-0.16187 0.0483,-0.24317 0.0735,-0.46965 0.11172,-0.94408 0.115725,-1.41943 v -0.006 -0.002 c -0.003,-0.46197 -0.0393,-0.92312 -0.108397,-1.37989 -0.0399,-0.23167 -0.08832,-0.4618 -0.145021,-0.68994 -0.04433,-0.21705 -0.09607,-0.43252 -0.155272,-0.646 -0.08026,-0.26208 -0.171661,-0.5206 -0.273931,-0.7749 -0.06547,-0.17091 -0.135832,-0.33993 -0.210938,-0.50684 -0.124815,-0.27136 -0.262177,-0.53679 -0.411623,-0.79541 -0.07245,-0.12472 -0.147585,-0.24779 -0.225585,-0.36914 -0.175515,-0.27906 -0.365221,-0.54895 -0.568358,-0.8086 -0.05858,-0.0706 -0.11811,-0.14047 -0.178711,-0.20947 -0.805568,-0.97174 -1.793972,-1.77599 -2.909186,-2.36719 -0.626716,-0.37638 -1.010207,-1.05323 -1.012209,-1.78418 2.02e-4,-1.1518 0.933931,-2.08554 2.08594,-2.08594 0.221176,0.001 0.440716,0.038 0.650394,0.1084 v -0.0234 c 1.321719,0.65968 2.545586,1.51417 3.590338,2.55908 2.558486,2.55889 4.047388,6.15494 4.047366,9.77345 z m -17.273463,-10.3301 c -0.0015,0.73095 -0.385456,1.40781 -1.012209,1.78419 -1.115207,0.59119 -2.103611,1.39545 -2.90918,2.36719 -0.06052,0.069 -0.120112,0.13877 -0.17871,0.20947 -0.203145,0.25964 -0.392813,0.52954 -0.568366,0.8086 -0.07795,0.12135 -0.15318,0.24441 -0.225585,0.36914 -0.149438,0.25861 -0.2868,0.52405 -0.411616,0.79541 -0.07511,0.16691 -0.14544,0.33592 -0.210937,0.50683 -0.102271,0.2543 -0.193628,0.51283 -0.273931,0.77491 -0.05917,0.21348 -0.11097,0.42895 -0.155273,0.646 -0.0567,0.22813 -0.10512,0.45826 -0.14502,0.68994 -0.06907,0.45677 -0.105397,0.91793 -0.108397,1.37988 v 0.006 c 0.0037,0.47535 0.04223,0.94979 0.115725,1.41944 0.01507,0.0813 0.03127,0.16237 0.04837,0.24316 0.06825,0.39207 0.160732,0.77953 0.276855,1.16017 0.0285,0.0878 0.05835,0.17517 0.08935,0.2622 0.131873,0.38898 0.288443,0.76915 0.468751,1.13818 0.0249,0.0515 0.05025,0.10281 0.07617,0.15381 0.903144,1.76624 2.328679,3.21122 4.082526,4.13819 v 0.005 c 0.644724,0.37304 1.041654,1.06141 1.041504,1.80616 v 0.001 c -1.95e-4,1.15183 -0.933924,2.0855 -2.08594,2.08595 -0.221168,-0.001 -0.440709,-0.038 -0.650386,-0.10841 v 0.0249 c -1.320625,-0.65903 -2.543232,-1.51361 -3.587413,-2.55762 -2.559237,-2.55884 -4.048671,-6.15738 -4.048829,-9.77639 -4.2e-4,-3.61938 1.48954,-7.21562 4.048829,-9.77491 1.044174,-1.04416 2.266893,-1.89805 3.587413,-2.55762 v 0.022 c 0.209677,-0.0704 0.429218,-0.1074 0.650386,-0.1084 1.152016,4.1e-4 2.085745,0.93414 2.08594,2.08594 z"
     sodipodi:nodetypes="ccssssssssssccssssssssccsssssssscssssssssssssssscsscccsccccccccscsccccccccccccccscccccccccccccccccccccccccccscscccccsssssssssssssssssssssssscsscccsccccccccccsccccccccccccccsccssssssssssssssscccccccccccscccccccccsscccscscccccsscccsccccccccccsccccccccccccccscccccccccccccccccccccccsscccscsccccc" />
  <path
     id="path14338"
     style="font-size:6.00001px;line-height:8.00004px;font-family:Charcoal;-inkscape-font-specification:Charcoal;text-align:center;letter-spacing:0px;word-spacing:0px;text-anchor:middle;stroke-width:0.517048px"
     transform="matrix(1.0879093,0,0,1.0879093,-180.22721,-0.559404)"
     d="m 294.83594,158.50781 c -0.24898,0 -0.4903,0.0997 -0.66602,0.27539 -0.17571,0.17572 -0.27539,0.41705 -0.27539,0.66602 0,0.24929 0.0938,0.49096 0.26563,0.66992 a 0.28579092,0.28579092 0 0 0 0.006,0.004 c 0.0175,0.0175 0.0418,0.0251 0.0605,0.041 h -0.0156 a 0.28579092,0.28579092 0 0 0 -0.28516,0.28516 v 4.49609 a 0.28579092,0.28579092 0 0 0 0.28516,0.28516 h 1.25 a 0.28579092,0.28579092 0 0 0 0.28515,-0.28516 v -4.49609 a 0.28579092,0.28579092 0 0 0 -0.28515,-0.28516 h -0.0195 c 0.0186,-0.0159 0.0432,-0.0235 0.0605,-0.041 0.17709,-0.1771 0.27539,-0.42151 0.27539,-0.67383 0,-0.24897 -0.0997,-0.4903 -0.27539,-0.66602 -0.17571,-0.17573 -0.41705,-0.27539 -0.66601,-0.27539 z m -40.59375,0.25781 a 0.28579092,0.28579092 0 0 0 -0.28516,0.28516 v 5.89453 a 0.28579092,0.28579092 0 0 0 0.28516,0.28516 h 1.32812 a 0.28579092,0.28579092 0 0 0 0.28516,-0.28516 v -2.10547 h 0.51562 c 0.63296,0 1.14974,-0.13244 1.51758,-0.44531 0.36784,-0.31287 0.54492,-0.79166 0.54492,-1.35156 v -0.46485 c 0,-0.57152 -0.18895,-1.06122 -0.57421,-1.38281 -0.35447,-0.29698 -0.83635,-0.42968 -1.40626,-0.42969 z m 16.66797,0 a 0.28579092,0.28579092 0 0 0 -0.28516,0.28516 v 5.89453 a 0.28579092,0.28579092 0 0 0 0.28516,0.28516 h 1.32812 a 0.28579092,0.28579092 0 0 0 0.28516,-0.28516 v -2.10547 h 0.51562 c 0.63296,0 1.14974,-0.13244 1.51758,-0.44531 0.36784,-0.31287 0.54492,-0.79166 0.54492,-1.35156 v -0.46485 c 0,-0.57152 -0.18894,-1.06122 -0.57422,-1.38281 -0.35446,-0.29698 -0.83634,-0.42969 -1.40625,-0.42969 z m 18.66015,0 a 0.28579092,0.28579092 0 0 0 -0.28515,0.28516 v 5.89453 a 0.28579092,0.28579092 0 0 0 0.28515,0.28516 h 1.32813 a 0.28579092,0.28579092 0 0 0 0.28515,-0.28516 v -2.10547 h 0.51563 c 0.63295,0 1.14974,-0.13244 1.51758,-0.44531 0.36784,-0.31287 0.54492,-0.79166 0.54492,-1.35156 v -0.46485 c 0,-0.57152 -0.18894,-1.06122 -0.57422,-1.38281 -0.35447,-0.29698 -0.83635,-0.42968 -1.40625,-0.42969 z m -28.65234,1.28516 c -0.72911,0 -1.35375,0.22865 -1.80859,0.68945 -0.45412,0.46006 -0.67969,1.08609 -0.67969,1.81446 v 0.32031 c 0,0.75407 0.23352,1.38681 0.70898,1.82617 a 0.28579092,0.28579092 0 0 0 0,0.002 c 0.46027,0.42417 1.09432,0.625 1.84961,0.625 0.71829,0 1.34184,-0.13511 1.85742,-0.42187 a 0.28579092,0.28579092 0 0 0 0.14649,-0.25 v -0.75 a 0.28579092,0.28579092 0 0 0 -0.4043,-0.25977 c -0.50175,0.2312 -0.96495,0.3418 -1.39258,0.3418 -0.35551,0 -0.56731,-0.0895 -0.70703,-0.24219 -0.0997,-0.10895 -0.15865,-0.29419 -0.19336,-0.52343 h 2.73242 a 0.28579092,0.28579092 0 0 0 0.28516,-0.28516 v -0.41797 c 0,-0.72048 -0.20463,-1.33382 -0.62695,-1.78125 -0.43049,-0.46057 -1.04399,-0.6875 -1.76758,-0.6875 z m 16.66797,0 c -0.72911,0 -1.35375,0.22865 -1.8086,0.68945 -0.45414,0.46006 -0.67968,1.08609 -0.67968,1.81446 v 0.32031 c 0,0.75407 0.23352,1.38681 0.70898,1.82617 a 0.28579092,0.28579092 0 0 0 0,0.002 c 0.46027,0.42417 1.09433,0.625 1.84961,0.625 0.71828,0 1.34183,-0.13512 1.85742,-0.42187 a 0.28579092,0.28579092 0 0 0 0.14649,-0.25 v -0.75 a 0.28579092,0.28579092 0 0 0 -0.4043,-0.25977 c -0.50175,0.2312 -0.96495,0.3418 -1.39258,0.3418 -0.35551,0 -0.56731,-0.0895 -0.70703,-0.24219 -0.0997,-0.10895 -0.15865,-0.29419 -0.19336,-0.52343 h 2.73242 a 0.28579092,0.28579092 0 0 0 0.28516,-0.28516 v -0.41797 c 0,-0.72048 -0.20465,-1.33382 -0.62695,-1.78125 -0.43049,-0.46057 -1.04399,-0.6875 -1.76758,-0.6875 z m -14.19532,0.11328 a 0.28579092,0.28579092 0 0 0 -0.26562,0.38867 l 1.75,4.4961 a 0.28579092,0.28579092 0 0 0 0.26562,0.18164 h 0.76954 a 0.28579092,0.28579092 0 0 0 0.26367,-0.17578 l 0.67187,-1.63867 0.62891,1.63281 a 0.28579092,0.28579092 0 0 0 0.26758,0.18164 h 0.76953 a 0.28579092,0.28579092 0 0 0 0.26367,-0.17774 l 1.83203,-4.49609 a 0.28579092,0.28579092 0 0 0 -0.26367,-0.39258 h -0.99219 a 0.28579092,0.28579092 0 0 0 -0.26562,0.18164 l -0.79688,2.05274 -0.72656,-2.04492 a 0.28579092,0.28579092 0 0 0 -0.26953,-0.18946 h -0.57422 a 0.28579092,0.28579092 0 0 0 -0.26758,0.1875 l -0.7539,2.05469 -0.79297,-2.06055 a 0.28579092,0.28579092 0 0 0 -0.26758,-0.18164 z m 16.66797,0 a 0.28579092,0.28579092 0 0 0 -0.26562,0.38867 l 1.75,4.4961 a 0.28579092,0.28579092 0 0 0 0.26562,0.18164 h 0.76953 a 0.28579092,0.28579092 0 0 0 0.26368,-0.17578 l 0.67187,-1.63867 0.62891,1.63281 a 0.28579092,0.28579092 0 0 0 0.26758,0.18164 h 0.76953 a 0.28579092,0.28579092 0 0 0 0.26367,-0.17774 l 1.83203,-4.49609 a 0.28579092,0.28579092 0 0 0 -0.26367,-0.39258 h -0.99219 a 0.28579092,0.28579092 0 0 0 -0.26562,0.18164 l -0.79688,2.05274 -0.72656,-2.04492 a 0.28579092,0.28579092 0 0 0 -0.26953,-0.18946 h -0.57422 a 0.28579092,0.28579092 0 0 0 -0.26758,0.1875 l -0.75391,2.05469 -0.79296,-2.06055 a 0.28579092,0.28579092 0 0 0 -0.26758,-0.18164 z m -24.20312,0.0273 h 0.12891 c 0.22938,0 0.36202,0.0492 0.42382,0.0996 0.0618,0.0504 0.0957,0.11113 0.0957,0.27148 v 0.56641 c 0,0.13002 -0.0264,0.17763 -0.10938,0.24023 -0.0752,0.0557 -0.17758,0.0918 -0.33984,0.0918 h -0.19922 z m 16.66797,0 h 0.1289 c 0.22939,0 0.36203,0.0492 0.42383,0.0996 0.0618,0.0504 0.0957,0.11113 0.0957,0.27148 v 0.56641 c 0,0.13001 -0.0264,0.17762 -0.10938,0.24023 -0.0753,0.0557 -0.17758,0.0918 -0.33984,0.0918 h -0.19922 z m 18.66015,0 h 0.12891 c 0.22938,0 0.36202,0.0492 0.42383,0.0996 0.0618,0.0504 0.0957,0.11113 0.0957,0.27148 v 0.56641 c 0,0.13002 -0.0264,0.17762 -0.10937,0.24023 -0.0753,0.0557 -0.17758,0.0918 -0.33985,0.0918 h -0.19922 z m -30.26562,1.15234 c 0.22424,0 0.34064,0.0601 0.44726,0.19922 0.0648,0.0845 0.0907,0.29731 0.13086,0.46875 h -1.15625 c 0.0305,-0.13989 0.0439,-0.31092 0.0996,-0.40234 0.12122,-0.19819 0.24123,-0.26563 0.47852,-0.26563 z m 16.66797,0 c 0.22424,0 0.34064,0.0601 0.44726,0.19922 0.0648,0.0845 0.0907,0.29731 0.13086,0.46875 h -1.15625 c 0.0304,-0.13989 0.0439,-0.31092 0.0996,-0.40234 0.12122,-0.19819 0.24123,-0.26563 0.47852,-0.26563 z" />
</svg>
