<?xml version="1.0" encoding="UTF-8" standalone="no"?>
<svg
   id="svg3794"
   viewBox="0 0 41.69791 40.846937"
   height="14.40987mm"
   width="14.710099mm"
   y="0in"
   x="0in"
   version="1.2"
   sodipodi:docname="sticker.svg"
   inkscape:version="1.1.2 (0a00cf5339, 2022-02-04)"
   xmlns:inkscape="http://www.inkscape.org/namespaces/inkscape"
   xmlns:sodipodi="http://sodipodi.sourceforge.net/DTD/sodipodi-0.dtd"
   xmlns="http://www.w3.org/2000/svg"
   xmlns:svg="http://www.w3.org/2000/svg"
   xmlns:rdf="http://www.w3.org/1999/02/22-rdf-syntax-ns#"
   xmlns:cc="http://creativecommons.org/ns#">
  <sodipodi:namedview
     id="namedview19"
     pagecolor="#ffffff"
     bordercolor="#666666"
     borderopacity="1.0"
     inkscape:pageshadow="2"
     inkscape:pageopacity="0.0"
     inkscape:pagecheckerboard="0"
     inkscape:document-units="mm"
     showgrid="false"
     inkscape:snap-object-midpoints="true"
     inkscape:zoom="18.875372"
     inkscape:cx="27.814021"
     inkscape:cy="27.231251"
     inkscape:current-layer="svg3794"
     showguides="true"
     inkscape:guide-bbox="true"
     inkscape:object-paths="true"
     inkscape:snap-smooth-nodes="true"
     inkscape:snap-midpoints="true"
     inkscape:snap-intersection-paths="true"
     fit-margin-top="0"
     fit-margin-left="0"
     fit-margin-right="0"
     fit-margin-bottom="0" />
  <metadata
     id="metadata3800">
    <rdf:RDF>
      <cc:Work
         rdf:about="" />
    </rdf:RDF>
  </metadata>
  <defs
     id="defs3798">
    <marker
       style="overflow:visible"
       id="marker9598"
       refX="0"
       refY="0"
       orient="auto">
      <path
         transform="matrix(0.8,0,0,0.8,10,0)"
         style="fill:#000000;fill-opacity:1;fill-rule:evenodd;stroke:#000000;stroke-width:1pt;stroke-opacity:1"
         d="M 0,0 5,-5 -12.5,0 5,5 Z"
         id="path9596" />
    </marker>
    <marker
       style="overflow:visible"
       id="Arrow1Lend"
       refX="0"
       refY="0"
       orient="auto">
      <path
         transform="matrix(-0.8,0,0,-0.8,-10,0)"
         style="fill:#000000;fill-opacity:1;fill-rule:evenodd;stroke:#000000;stroke-width:1pt;stroke-opacity:1"
         d="M 0,0 5,-5 -12.5,0 5,5 Z"
         id="path9315" />
    </marker>
    <marker
       style="overflow:visible"
       id="Arrow1Lstart"
       refX="0"
       refY="0"
       orient="auto">
      <path
         transform="matrix(0.8,0,0,0.8,10,0)"
         style="fill-rule:evenodd;stroke:#000000;stroke-width:1pt"
         d="M 0,0 5,-5 -12.5,0 5,5 Z"
         id="path9312" />
    </marker>
    <defs
       id="defs2" />
    <defs
       id="defs4" />
  </defs>
  <path
     id="ellipse8475"
     style="fill:none;fill-opacity:1;stroke:#cc0000;stroke-width:0.708663;stroke-linecap:round;stroke-linejoin:round;stroke-miterlimit:4;stroke-dasharray:none;stroke-opacity:1;paint-order:markers stroke fill"
     d="m 29.623076,0.35439126 a 11.721278,11.72125 0 0 1 11.72023,11.72169474 11.721278,11.72125 0 0 1 -11.72023,11.72023 11.721278,11.72125 0 0 1 -3.9668,-0.70166 v 0.0117 c -0.52659,-0.16187 -1.08742,-0.25049 -1.66846,-0.25049 -3.12133,0 -5.6338,2.51247 -5.6338,5.63379 v 9.16847 c 0,1.5704 -1.26411,2.83448 -2.83447,2.83448 H 3.1884659 c -1.5704,0 -2.83448003,-1.26408 -2.83448003,-2.83448 v -12.33107 c 0,-1.5704 1.26408003,-2.83448 2.83448003,-2.83448 h 9.6723801 c 0.21998,0.0281 0.44303,0.0483 0.67089,0.0483 2.88558,0 5.209,-2.32341 5.209,-5.20899 0,-0.63598 -0.11982,-1.24221 -0.32666,-1.80469 h 0.0293 a 11.721278,11.72125 0 0 1 -0.54198,-3.45117 11.721278,11.72125 0 0 1 11.72169,-11.72169474 z" />
</svg>
